<?xml version="1.0" encoding="UTF-8"?>
<svg version="1.1" xmlns="http://www.w3.org/2000/svg" width="576" height="324">
<path d="M0 0 C190.08 0 380.16 0 576 0 C576 106.92 576 213.84 576 324 C385.92 324 195.84 324 0 324 C0 217.08 0 110.16 0 0 Z " fill="#FEBCA4" transform="translate(0,0)"/>
<path d="M0 0 C190.08 0 380.16 0 576 0 C576 28.38 576 56.76 576 86 C575.01 86 574.02 86 573 86 C572.71125 85.21625 572.4225 84.4325 572.125 83.625 C571.15087746 80.90328368 571.15087746 80.90328368 569 79 C565.80848491 78.5800638 564.41508925 78.73075292 561.6875 80.5 C561.130625 80.995 560.57375 81.49 560 82 C559.5875 81.360625 559.175 80.72125 558.75 80.0625 C557.213655 77.8256013 557.213655 77.8256013 554.9375 77.5625 C553.9784375 77.2840625 553.9784375 77.2840625 553 77 C551.8125 74.5 551.8125 74.5 551 72 C549.94689723 70.72996677 549.94689723 70.72996677 547.5625 70.8125 C544.83265325 70.73160017 544.83265325 70.73160017 543 73 C542.2986716 75.32315031 541.63514826 77.65789079 541 80 C540.35800351 81.67632417 539.70105843 83.34750513 539 85 C537 84 537 84 535.9375 81 C535.628125 80.01 535.31875 79.02 535 78 C533.96298597 76.73373775 533.96298597 76.73373775 531.6875 76.9375 C530.800625 76.958125 529.91375 76.97875 529 77 C525 77 525 77 522 75 C518.49195487 75.14616855 516.66515773 75.3119058 514.1875 77.875 C512.87119406 80.07518613 512.87119406 80.07518613 512 83 C508.26172028 83.96127193 505.73662428 83.86229791 502 83 C500.68 83 499.36 83 498 83 C496.7265625 81.50390625 496.7265625 81.50390625 495.625 79.5625 C493.76772169 76.75949102 493.2583713 76.10227197 490 74.8125 C486.12189413 75.05488162 484.88520068 76.47544941 482 79 C480.02253397 79.73080266 478.01927511 80.39421747 476 81 C474.76538139 81.52912226 473.53620776 82.07111122 472.3125 82.625 C469 84 469 84 466 84 C464.29115995 82.37660195 462.62553283 80.70680947 461 79 C458.11487022 76.65477065 458.11487022 76.65477065 454.5 77.125 C450.53123706 78.11719074 450.16135753 78.75796371 448 82 C445.5 83.125 445.5 83.125 443 84 C441.515 84.99 441.515 84.99 440 86 C439.5875 85.175 439.175 84.35 438.75 83.5 C437.88375 82.2625 437.88375 82.2625 437 81 C435.68 81 434.36 81 433 81 C432.71125 80.05125 432.4225 79.1025 432.125 78.125 C431.23174891 74.94788422 431.23174891 74.94788422 429 73 C426.17875799 72.63830231 424.63343087 72.57017191 422.25 74.1875 C420.71161002 76.41816548 420.35994553 78.3364031 420 81 C419.071875 81.28875 418.14375 81.5775 417.1875 81.875 C413.90208333 82.8875 413.90208333 82.8875 411 85 C410.2575 84.484375 409.515 83.96875 408.75 83.4375 C406.19270223 81.80132501 406.19270223 81.80132501 403.8125 82.125 C401.64490586 82.98214661 401.64490586 82.98214661 400 86 C399.05125 85.814375 398.1025 85.62875 397.125 85.4375 C394.10131207 84.71313368 394.10131207 84.71313368 392 86 C391.608125 84.865625 391.21625 83.73125 390.8125 82.5625 C390.214375 81.386875 389.61625 80.21125 389 79 C386.57540213 78.16507646 386.57540213 78.16507646 384 78 C383.34 77.46375 382.68 76.9275 382 76.375 C380.02180679 74.6929967 380.02180679 74.6929967 377.25 75.3125 C376.5075 75.539375 375.765 75.76625 375 76 C374.19032562 78.91482778 373.78154007 80.46113217 374.9375 83.3125 C375.288125 83.869375 375.63875 84.42625 376 85 C375.34 85.33 374.68 85.66 374 86 C368.63878327 83.71863118 368.63878327 83.71863118 366.5 81.3125 C364.17212465 79.27560907 361.96469798 79.80235347 359 80 C358.9175 78.906875 358.835 77.81375 358.75 76.6875 C358.31751592 73.05195445 358.31751592 73.05195445 356.3125 71 C353.10029355 69.61093775 351.3063364 69.94478626 348 71 C345.77426247 73.3024871 345.01891496 74.94325512 344 78 C342.37667033 79.38576923 340.71275535 80.72641268 339 82 C338.1646875 81.505 338.1646875 81.505 337.3125 81 C334.64736676 79.84750995 332.87606851 79.69725595 330 80 C328.04783565 81.95216435 327.15173355 83.53199953 326 86 C325.34 85.34 324.68 84.68 324 84 C321.49406525 84.32972826 319.25678595 84.90936967 316.875 85.75 C316.25625 85.8325 315.6375 85.915 315 86 C314.2884375 85.2575 314.2884375 85.2575 313.5625 84.5 C313.046875 84.005 312.53125 83.51 312 83 C308.65807308 83.24453124 307.39456443 83.60543557 305 86 C302 86 302 86 300.25 84.375 C298.59360049 81.22784094 299.33240467 79.41215391 300 76 C299.34 75.34 298.68 74.68 298 74 C297.071875 74.226875 296.14375 74.45375 295.1875 74.6875 C294.135625 74.790625 293.08375 74.89375 292 75 C290.7934375 73.7625 290.7934375 73.7625 289.5625 72.5 C287.16421522 69.57809601 287.16421522 69.57809601 283.375 70 C279.96749861 71.00963004 279.31353924 71.58587209 277 74 C273.8125 74.6875 273.8125 74.6875 271 75 C270.79375 74.360625 270.5875 73.72125 270.375 73.0625 C269.10851061 70.69800905 269.10851061 70.69800905 266.0625 70.0625 C263.07004116 69.70614872 263.07004116 69.70614872 261.25 71.1875 C259.95802074 73.06086993 258.93046662 74.9243437 258 77 C256.8553125 76.7215625 256.8553125 76.7215625 255.6875 76.4375 C252.91032625 75.77180827 252.91032625 75.77180827 250 77 C249.030625 76.79375 248.06125 76.5875 247.0625 76.375 C244.0294057 75.6744011 244.0294057 75.6744011 241.9375 77.3125 C241.298125 77.869375 240.65875 78.42625 240 79 C238.33333333 79.66666667 236.66666667 80.33333333 235 81 C233.65041693 81.97795875 232.31438655 82.97522404 231 84 C229.18696196 82.52149287 227.37458402 81.04217625 225.5625 79.5625 C224.55316406 78.73878906 223.54382813 77.91507812 222.50390625 77.06640625 C220 75 220 75 219 74 C216.62778044 73.49864801 216.62778044 73.49864801 214 74 C211.66369252 76.39859044 211.66369252 76.39859044 210 79 C209.29875 78.649375 208.5975 78.29875 207.875 77.9375 C203.90127382 76.64171973 200.72445394 77.13777303 197 79 C196.82984375 78.44570312 196.6596875 77.89140625 196.484375 77.3203125 C195.08832936 72.93032624 195.08832936 72.93032624 192.25 69.4375 C188.91713774 68.78944345 186.28766646 69.2229152 183 70 C180.94061784 71.57885966 180.15428789 72.69142423 179 75 C177.9275 74.95875 176.855 74.9175 175.75 74.875 C171.34276101 75.02190797 169.42570853 75.67612779 166.25 78.625 C165.8375 79.07875 165.425 79.5325 165 80 C164.46375 79.649375 163.9275 79.29875 163.375 78.9375 C160.18310525 77.67754155 158.27575855 78.09393913 155 79 C153.26973898 80.47890069 153.26973898 80.47890069 152 82 C151.34 82 150.68 82 150 82 C148.7659252 80.56580496 147.53784628 79.12554257 146.35546875 77.6484375 C144.3964368 75.26598366 142.20703289 73.15185707 140 71 C138.7934375 69.63875 138.7934375 69.63875 137.5625 68.25 C134.57586518 65.62758894 132.9438281 65.08391124 129 65 C126.13453767 65.87555793 125.27389015 66.53438674 123.75 69.125 C123.5025 69.74375 123.255 70.3625 123 71 C122.071875 70.938125 121.14375 70.87625 120.1875 70.8125 C117.10954361 70.75143427 117.10954361 70.75143427 115.1875 72.0625 C113.45990169 74.88121303 113.41315561 77.75377735 113 81 C112.34 81.66 111.68 82.32 111 83 C109.824375 82.0409375 109.824375 82.0409375 108.625 81.0625 C104.82632518 78.07782692 102.84227641 77.5343965 98 78 C94.9396667 79.7655769 92.49412245 81.50587755 90 84 C89.690625 83.1028125 89.690625 83.1028125 89.375 82.1875 C88.10028354 79.69948023 88.10028354 79.69948023 84.9375 78.6875 C83.968125 78.130625 82.99875 77.57375 82 77 C81.375 73.75 81.375 73.75 81 70 C79.99389175 67.10743879 78.91641376 65.52159705 77 63 C73.56191578 61.59185595 73.56191578 61.59185595 70 62 C67.5 63.5 67.5 63.5 66 66 C65.896875 66.845625 65.79375 67.69125 65.6875 68.5625 C65.460625 69.366875 65.23375 70.17125 65 71 C63.88625 71.474375 62.7725 71.94875 61.625 72.4375 C57.77080871 73.68389304 57.77080871 73.68389304 56.0625 77.1875 C55.711875 78.115625 55.36125 79.04375 55 80 C53.7625 79.79375 52.525 79.5875 51.25 79.375 C47.87794002 78.95796078 45.80306167 78.84379872 43 81 C42.34 81.99 41.68 82.98 41 84 C39.783125 83.773125 38.56625 83.54625 37.3125 83.3125 C33.18341549 82.76728638 31.49469587 83.73317025 28 86 C23.6 85.6 23.6 85.6 22 84 C19.54190002 83.7499227 19.54190002 83.7499227 17 84 C16.01 84.99 16.01 84.99 15 86 C11.26703674 86.38286803 10.22373677 86.14915785 7 84 C4.69 84 2.38 84 0 84 C0 56.28 0 28.56 0 0 Z " fill="#F6A8A7" transform="translate(0,0)"/>
<path d="M0 0 C190.08 0 380.16 0 576 0 C576 9.9 576 19.8 576 30 C573.69 29.67 571.38 29.34 569 29 C568.34 29.33 567.68 29.66 567 30 C563.18333371 28.18708351 561.79482173 26.70929824 560 23 C557.43734514 21.07800886 556.16801051 20.98971364 552.9375 21.1875 C547.43767421 22.70872841 544.89718101 27.71928496 541.62109375 32.13671875 C541.08613281 32.75160156 540.55117188 33.36648437 540 34 C539.34 34 538.68 34 538 34 C537.3503125 32.7625 537.3503125 32.7625 536.6875 31.5 C535.8521875 30.2625 535.8521875 30.2625 535 29 C532.11814893 28.5782657 530.60277697 28.69861151 528 30 C527.62875 29.484375 527.2575 28.96875 526.875 28.4375 C525.0463593 26.72436289 525.0463593 26.72436289 522.375 27.0625 C517.24272214 28.48813274 511.82044558 30.17955442 508 34 C504.43704013 33.52493868 501.03567366 32.23102527 498.6953125 29.44921875 C496.39526266 27.48304712 494.92359938 27.63032873 491.9375 27.6875 C490.62072266 27.69330078 490.62072266 27.69330078 489.27734375 27.69921875 C486.80337231 27.79100666 486.80337231 27.79100666 485 30 C478.38390182 29.89153937 476.68496717 28.68496717 472 24 C468.89072953 23.67091833 468.89072953 23.67091833 466 25 C463.89229266 27.36375566 463.89229266 27.36375566 462 30 C459.3125 31.75 459.3125 31.75 457 33 C456.67 33.33 456.34 33.66 456 34 C453.625 34.3125 453.625 34.3125 451 34 C450.32710938 33.04480469 450.32710938 33.04480469 449.640625 32.0703125 C447.59853181 29.49338537 446.29067494 29.26010314 443.125 28.5625 C438.39781594 27.33617254 436.44920747 25.44920747 433 22 C428.73153095 21.82214712 427.3229821 22.71212465 424.125 25.5625 C423.42375 26.366875 422.7225 27.17125 422 28 C421.13375 27.154375 420.2675 26.30875 419.375 25.4375 C416.82788428 23.31892745 416.22976555 23.00883714 412.75 22.875 C409.78554379 23.74716395 409.78554379 23.74716395 408.625 26.5625 C408.315625 27.7690625 408.315625 27.7690625 408 29 C407.01 28.34 406.02 27.68 405 27 C402.58517587 26.49940084 402.58517587 26.49940084 400 27 C399.195625 27.66 398.39125 28.32 397.5625 29 C395 31 395 31 391.8125 31.375 C389 31 389 31 387 29 C385.865625 28.855625 384.73125 28.71125 383.5625 28.5625 C380 28 380 28 378.4375 26.375 C376.97758964 24.65445992 376.97758964 24.65445992 374.0625 25.0625 C370.66704294 26.10192563 369.25482445 27.31155547 367 30 C364.68832867 27.28976465 363.03043019 25.07535094 361.6875 21.75 C360.2087511 18.65273355 360.2087511 18.65273355 356.625 18 C352.98391176 18 351.25364817 18.53585832 348 20 C346.80375 20.0825 345.6075 20.165 344.375 20.25 C343.26125 20.4975 342.1475 20.745 341 21 C339.24169437 23.84992165 339.24169437 23.84992165 338 27 C336.69084721 28.03145371 335.35917857 29.03542166 334 30 C332.7483533 32.08334635 332.7483533 32.08334635 332 34 C331.443125 33.175 330.88625 32.35 330.3125 31.5 C328.26501796 28.83309956 328.26501796 28.83309956 325.5625 28.375 C321.97458658 29.25010083 320.38724669 31.27171807 318 34 C317.34 33.34 316.68 32.68 316 32 C313.96360177 32.29091403 311.9273439 32.58344311 309.89453125 32.8984375 C308 33 308 33 306.25 31.6875 C305.8375 31.130625 305.425 30.57375 305 30 C304.34 29.67 303.68 29.34 303 29 C301 28 301 28 299.625 26.3125 C297.99085752 24.69590653 297.99085752 24.69590653 295.25 25.125 C291.63187774 26.09910984 288.40856312 27.44521682 285 29 C283.70849139 29.52122514 282.41682917 30.04206985 281.125 30.5625 C277.91781106 31.64297329 277.91781106 31.64297329 277 34 C275.3603125 33.7525 275.3603125 33.7525 273.6875 33.5 C270.12474127 32.93281816 270.12474127 32.93281816 267 33 C266.67 31.02 266.34 29.04 266 27 C263.19954954 26.14349347 263.19954954 26.14349347 260 26 C257.89586384 27.85410577 257.89586384 27.85410577 256 30 C253.3125 30.8125 253.3125 30.8125 251 31 C250.67 30.67 250.34 30.34 250 30 C247.62694422 29.58219121 247.62694422 29.58219121 245 30 C242.68622853 31.89584109 242.68622853 31.89584109 241 34 C240.34 33.34 239.68 32.68 239 32 C235.69316534 32.28983269 235.69316534 32.28983269 233 34 C230.6875 34.4375 230.6875 34.4375 228 34 C227.38125 33.030625 226.7625 32.06125 226.125 31.0625 C224.24656986 27.66122642 224.24656986 27.66122642 220.4375 27 C216.87577027 26.68220301 216.87577027 26.68220301 214 29 C212.68 29 211.36 29 210 29 C209.62875 28.030625 209.2575 27.06125 208.875 26.0625 C207.28566962 22.79884538 207.28566962 22.79884538 204.1875 21.8125 C199.82772764 22.0689572 198.22869801 24.1834762 195 27 C192.375 27.3125 192.375 27.3125 190 27 C188.68 27 187.36 27 186 27 C185.04546782 24.24246258 185.02742044 22.86563982 185.625 19.9375 C186.28395469 17.06743652 186.28395469 17.06743652 184.9375 15.0625 C182.03960549 13.47333204 180.09697496 14.12476795 177 15 C176.67 15.66 176.34 16.32 176 17 C172.44462427 18.00735646 168.94206739 18.82473165 165.3125 19.5 C160.77756403 20.4805267 158.63013999 21.03509814 156 25.0625 C154 28 154 28 151.6875 28.8125 C150.3571875 28.9053125 150.3571875 28.9053125 149 29 C147.845 29.28875 146.69 29.5775 145.5 29.875 C144.345 29.91625 143.19 29.9575 142 30 C140.33333333 28.33333333 138.66666667 26.66666667 137 25 C130.93050688 24.77929116 128.47282299 27.25743383 124 31 C119.96744737 32.62085125 116.18237932 33.53233725 112 32 C111.71125 31.34 111.4225 30.68 111.125 30 C110.14067807 27.73024807 110.14067807 27.73024807 107.4375 27.125 C104.2451362 27.00891404 102.43653842 27.38027886 99.4375 28.25 C97.109375 28.8359375 97.109375 28.8359375 95 29 C92.1875 26.875 92.1875 26.875 90 24 C87.32897006 20.59213421 86.47559287 20.06794184 82.0625 19.4375 C78.67046861 19.60741623 78.03767853 19.96917211 75.25 22.25 C74.5075 23.1575 73.765 24.065 73 25 C71.66666667 26.33333333 70.33333333 27.66666667 69 29 C68.01 28.34 67.02 27.68 66 27 C62.87478167 26.83300768 62.87478167 26.83300768 60 27 C59.566875 25.824375 59.566875 25.824375 59.125 24.625 C58.15087746 21.90328368 58.15087746 21.90328368 56 20 C53.26112028 19.64886157 51.68137132 19.49988017 49.4140625 21.1640625 C47.53436155 23.60455821 47.27570153 25.65887461 46.8125 28.6875 C46.57466797 30.17830078 46.57466797 30.17830078 46.33203125 31.69921875 C46.22246094 32.45847656 46.11289062 33.21773437 46 34 C45.360625 33.195625 44.72125 32.39125 44.0625 31.5625 C42.59396498 29.7249496 42.59396498 29.7249496 41 28 C39.33391013 27.95615553 37.66619446 27.9603287 36 28 C35.01 28 34.02 28 33 28 C32.79375 27.071875 32.5875 26.14375 32.375 25.1875 C31.25060857 21.83132966 31.25060857 21.83132966 28.3125 20.0625 C23.88451392 18.64220258 20.18599085 18.90700458 16 21 C14.33805547 21.35613097 12.671549 21.69208308 11 22 C10.34 23.98 9.68 25.96 9 28 C7.6078125 27.938125 7.6078125 27.938125 6.1875 27.875 C2.84190281 27.72863661 2.84190281 27.72863661 0 30 C0 20.1 0 10.2 0 0 Z " fill="#DD98B6" transform="translate(0,0)"/>
<path d="M0 0 C2.16893595 3.25340393 2.20751347 3.50495149 1.5625 7.0625 C0.65083184 10.77600533 0.65083184 10.77600533 2 13 C8.72244137 12.83889574 11.22276367 11.90635082 16 7 C19.125 6.9375 19.125 6.9375 22 8 C24.50963523 10.50963523 25 11.40643594 25 15 C26.5159375 14.2265625 26.5159375 14.2265625 28.0625 13.4375 C32.04622729 11.76014114 34.80308226 11.65381884 39 13 C40.3703055 14.97485205 41.70672372 16.97386717 43 19 C45.58655333 19.66743877 45.58655333 19.66743877 48 19 C48.66 18.34 49.32 17.68 50 17 C52.5 17.375 52.5 17.375 55 18 C55.66 18 56.32 18 57 18 C57.433125 17.505 57.86625 17.01 58.3125 16.5 C60 15 60 15 62.5 14.75 C65 15 65 15 68 16 C71.09958527 15.25379132 71.09958527 15.25379132 72.8125 12.875 C75 11 75 11 78.125 11.0625 C81 12 81 12 83 15 C83.625 17.1875 83.625 17.1875 84 19 C84.5775 18.79375 85.155 18.5875 85.75 18.375 C88.51967567 17.91338739 89.64561267 18.57055055 92 20 C92.20625 19.38125 92.4125 18.7625 92.625 18.125 C94.58777149 15.09162588 96.54982592 15.003687 100 14 C101.50497815 13.28116428 103.00472678 12.55131122 104.5 11.8125 C108.36754721 10.06460345 110.86557458 9.48740533 115 11 C115.66 11.99 116.32 12.98 117 14 C119.89045715 15.97768121 122.49776462 17.56222058 126 18 C126.86625 17.814375 127.7325 17.62875 128.625 17.4375 C129.40875 17.293125 130.1925 17.14875 131 17 C131.66 17.66 132.32 18.32 133 19 C134.0828125 17.7625 134.0828125 17.7625 135.1875 16.5 C138 14 138 14 140.5625 13.4375 C143.69945412 14.16141249 144.95450468 15.57570925 147 18 C147.61875 17.175 148.2375 16.35 148.875 15.5 C149.57625 14.675 150.2775 13.85 151 13 C151.66 13 152.32 13 153 13 C153.0825 12.236875 153.165 11.47375 153.25 10.6875 C154 8 154 8 155.625 6.1875 C158.814494 4.592753 161.4727342 4.93586789 165 5 C166.485 4.01 166.485 4.01 168 3 C174.19115549 3.2211127 174.19115549 3.2211127 176.6875 5.625 C177.120625 6.40875 177.55375 7.1925 178 8 C178.350625 8.60070313 178.70125 9.20140625 179.0625 9.8203125 C180.06219651 11.53506972 181.03322333 13.26646941 182 15 C182.86625 14.154375 183.7325 13.30875 184.625 12.4375 C187.29015261 10.17846588 187.66887413 9.98160412 191.375 10.1875 C192.24125 10.455625 193.1075 10.72375 194 11 C194.33 11.99 194.66 12.98 195 14 C196.0725 13.95875 197.145 13.9175 198.25 13.875 C201.83477635 13.99449255 202.99668067 14.39822969 206 16 C208.5 16.5 208.5 16.5 211 16 C211.66 15.34 212.32 14.68 213 14 C215 12 215 12 217.625 11.625 C220 12 220 12 222 14 C222.37125 13.195625 222.7425 12.39125 223.125 11.5625 C225 9 225 9 227.8125 7.875 C232.36119259 8.0533801 233.78974041 9.86617516 237 13 C237.43570312 12.55527344 237.87140625 12.11054688 238.3203125 11.65234375 C243.18334551 7.03140979 243.18334551 7.03140979 247.25 6.875 C250 8 250 8 251.359375 9.97265625 C253.41687543 12.51513893 254.85530252 12.81844211 258 13.5625 C261.53890096 14.41036169 263.7289035 15.06401012 266 18 C266 18.66 266 19.32 266 20 C271.31841129 18.39210821 275.56426315 16.94519186 278.9375 12.375 C281 10 281 10 283.9375 8.9375 C287.88844133 9.01813146 289.28790714 10.2081397 292 13 C292 13.66 292 14.32 292 15 C296.0100934 15.17864631 296.0100934 15.17864631 300 15 C300.66 14.34 301.32 13.68 302 13 C304.27734375 12.734375 304.27734375 12.734375 306.9375 12.75 C307.81277344 12.74484375 308.68804687 12.7396875 309.58984375 12.734375 C312 13 312 13 315 15 C315 15.66 315 16.32 315 17 C315.86625 17.2165625 315.86625 17.2165625 316.75 17.4375 C319 18 319 18 321.0625 18.75 C321.701875 18.8325 322.34125 18.915 323 19 C323.45632813 18.54367188 323.91265625 18.08734375 324.3828125 17.6171875 C328.11812598 13.88187402 334.86530698 12.23339514 340 12 C342.375 13.4375 342.375 13.4375 344 15 C344.33 14.67 344.66 14.34 345 14 C347.88725465 13.69607846 349.42208484 13.58150971 351.8125 15.3125 C353 17 353 17 353 20 C353.66 20 354.32 20 355 20 C355.2475 19.443125 355.495 18.88625 355.75 18.3125 C357.22867388 15.57695332 358.98666617 13.36862803 361 11 C361.61875 10.2575 362.2375 9.515 362.875 8.75 C365.64334144 6.4701894 367.42793141 6.07289936 371 6 C373.98272688 7.2879957 375.56790506 8.1088042 377 11.0625 C377.89415374 13.27436582 377.89415374 13.27436582 380.625 14.25 C381.40875 14.4975 382.1925 14.745 383 15 C383.33 14.67 383.66 14.34 384 14 C386.4375 13.8125 386.4375 13.8125 389 14 C391.84248495 16.84248495 391.36784921 19.63685372 391.375 23.4375 C391.39949219 24.11876953 391.42398438 24.80003906 391.44921875 25.50195312 C391.4609375 27.49609375 391.4609375 27.49609375 391 31 C389.0546875 32.8359375 389.0546875 32.8359375 387 34 C385.7483533 36.08334635 385.7483533 36.08334635 385 38 C384.484375 37.67 383.96875 37.34 383.4375 37 C380.0739584 35.6200855 377.60761041 35.62025154 374 36 C371.24670979 37.79562405 369.47372539 39.05254922 368 42 C367.39671875 41.89300781 366.7934375 41.78601562 366.171875 41.67578125 C361.1191966 40.79093221 361.1191966 40.79093221 356.4375 42.4375 C355.7259375 43.2109375 355.7259375 43.2109375 355 44 C354.62875 43.195625 354.2575 42.39125 353.875 41.5625 C352.19021622 38.7598411 352.19021622 38.7598411 349.0625 37.9375 C345.91613348 37.68955915 345.91613348 37.68955915 343.75 39.8125 C342.88375 40.8953125 342.88375 40.8953125 342 42 C341.34 42.66 340.68 43.32 340 44 C337.9375 43.5625 337.9375 43.5625 336 43 C335.67 43.33 335.34 43.66 335 44 C333.33382885 44.04063832 331.66611905 44.042721 330 44 C330.103125 42.783125 330.20625 41.56625 330.3125 40.3125 C330.30618687 36.76452102 330.0236965 36.03415083 327.875 32.9375 C325.16232602 30.74438577 325.16232602 30.74438577 322 30.875 C318.37471839 32.2344806 316.52289139 34.10609517 314 37 C313.67 36.67 313.34 36.34 313 36 C310.13735383 35.69866882 308.5952271 35.55357968 306.25 37.3125 C304.79696921 39.09146679 304.79696921 39.09146679 304 42 C301 44 301 44 298.9375 43.75 C297 43 297 43 295 41 C294.13375 41.020625 293.2675 41.04125 292.375 41.0625 C287.70774083 40.97606927 282.83934529 39.87707545 279.4765625 36.4453125 C277.00420447 34.02527951 274.33808981 34.17568894 271 34 C267.51459033 35.09541447 265.46318654 37.36087156 263 40 C257.37209302 37.31395349 257.37209302 37.31395349 255 35.3125 C252.18235548 33.46342078 250.30401754 33.58699781 247 34 C244.82967524 35.43990623 244.82967524 35.43990623 243 37 C242.01 37 241.02 37 240 37 C239.773125 35.7625 239.54625 34.525 239.3125 33.25 C238.5164946 30.11051018 237.99503081 28.99447867 235.75 26.5 C232.43054475 24.68938804 230.72764226 24.37872629 227 25 C223.55528439 27.19209175 221.49849433 29.18565079 220 33 C219.1646875 32.4740625 219.1646875 32.4740625 218.3125 31.9375 C215.3979332 30.75591887 213.95034182 30.99067254 211 32 C210.34 32.99 209.68 33.98 209 35 C206.8125 36.75 206.8125 36.75 204 38 C201.6593935 37.72230092 199.32375692 37.39460023 197 37 C195.04783565 38.95216435 194.15173355 40.53199953 193 43 C192.2575 42.154375 191.515 41.30875 190.75 40.4375 C187.49802801 37.68343759 185.04951135 37.74609449 180.875 38.0625 C177.14438729 38.48492307 174.26125412 39.11970755 171 41 C170.62875 40.484375 170.2575 39.96875 169.875 39.4375 C167.99270276 37.65334103 167.99270276 37.65334103 165 38.3125 C163.515 38.6528125 163.515 38.6528125 162 39 C161.01 39 160.02 39 159 39 C157.640625 37.50390625 157.640625 37.50390625 156.25 35.5625 C153.88908306 32.67433113 153.16414748 32.05183605 149.4375 30.875 C145.57220475 31.01555619 144.16051844 31.8929877 141 34 C139.4221875 34.2475 139.4221875 34.2475 137.8125 34.5 C136.884375 34.665 135.95625 34.83 135 35 C134.34 35.99 133.68 36.98 133 38 C128.28864405 39.57045198 125.16049877 38.64515939 120.734375 36.88671875 C119 36 119 36 117 34 C114.54258463 33.49985047 114.54258463 33.49985047 112 34 C110.98594743 35.32267727 109.98731742 36.65724831 109 38 C107.02111039 38.72693904 105.02045442 39.39816251 103 40 C102.34 40.66 101.68 41.32 101 42 C100.195625 40.5459375 100.195625 40.5459375 99.375 39.0625 C97.28191567 35.81673028 97.28191567 35.81673028 94.0625 34.875 C90.12220506 35.03582837 88.95442388 36.4887397 86 39 C84.00448218 39.35919321 82.00451121 39.69496569 80 40 C78.14198761 41.43691955 78.14198761 41.43691955 77 43 C76.22227595 40.66682784 75.57584432 38.38564077 75 36 C73.02463255 36.34786708 73.02463255 36.34786708 71 37 C70.67 37.66 70.34 38.32 70 39 C59.96 39 59.96 39 56 36 C55.175 35.855625 54.35 35.71125 53.5 35.5625 C51 35 51 35 49.125 32.875 C47.02710811 30.60716215 47.02710811 30.60716215 43.4375 31 C39.95566176 31.69686203 39.95566176 31.69686203 38.0625 34.0625 C37.711875 34.701875 37.36125 35.34125 37 36 C33.84717415 35.29937203 30.99434526 34.1977381 28 33 C25.95894361 32.11306697 25.95894361 32.11306697 24 32 C22.49985609 33.33289654 22.49985609 33.33289654 21 35 C16.95570083 36.9702996 13.86056947 37.08859855 9.375 36.875 C6.80953088 36.74449264 6.80953088 36.74449264 5 39 C4.35232207 41.57061311 4.35232207 41.57061311 4 44 C-8.57534247 40.1369863 -8.57534247 40.1369863 -12 35 C-14.32854463 33.80161791 -14.32854463 33.80161791 -17 33 C-18.2065625 32.505 -18.2065625 32.505 -19.4375 32 C-22.53175587 32 -23.12617111 32.59949592 -25.375 34.625 C-27.80297056 37.26470856 -27.80297056 37.26470856 -27.875 40.875 C-27.441875 41.926875 -27.441875 41.926875 -27 43 C-27.99 43.33 -28.98 43.66 -30 44 C-30.99 42.68 -31.98 41.36 -33 40 C-33.598125 40.165 -34.19625 40.33 -34.8125 40.5 C-38.83779198 41.42006674 -41.30145947 40.59936888 -45 39 C-44.95875 38.21625 -44.9175 37.4325 -44.875 36.625 C-44.71271266 33.83883881 -44.71271266 33.83883881 -47 32 C-49.53951544 32.09111938 -49.53951544 32.09111938 -52 33 C-52.66 33.99 -53.32 34.98 -54 36 C-56.53125 36.58203125 -56.53125 36.58203125 -59.5 36.8125 C-60.4796875 36.90144531 -61.459375 36.99039063 -62.46875 37.08203125 C-65 37 -65 37 -67 35 C-69.50291678 35.24221775 -70.65851379 35.61582802 -72.34375 37.51171875 C-74.45510357 39.4089492 -75.76243403 39.44970757 -78.5625 39.625 C-81.90775258 39.82872181 -81.90775258 39.82872181 -85 41 C-85.4125 40.360625 -85.825 39.72125 -86.25 39.0625 C-87.786345 36.8256013 -87.786345 36.8256013 -90.0625 36.5625 C-91.0215625 36.2840625 -91.0215625 36.2840625 -92 36 C-92.4021875 34.7934375 -92.4021875 34.7934375 -92.8125 33.5625 C-93.4003125 32.2940625 -93.4003125 32.2940625 -94 31 C-97.53514293 29.62032476 -97.53514293 29.62032476 -101 29 C-102.86772546 30.68984685 -104.01294837 32.0266161 -105.125 34.3125 C-107.92994133 38.33291591 -111.86030457 40.47452543 -116 43 C-116.5775 42.2575 -117.155 41.515 -117.75 40.75 C-118.4925 39.8425 -119.235 38.935 -120 38 C-120.61875 37.21625 -121.2375 36.4325 -121.875 35.625 C-123.95132611 33.69627495 -123.95132611 33.69627495 -127 34 C-130.30933292 35.10311097 -131.78127875 36.35460159 -134 39 C-134.66 37.35 -135.32 35.7 -136 34 C-138.475 34.495 -138.475 34.495 -141 35 C-141.33 36.32 -141.66 37.64 -142 39 C-147.43746994 40.68749067 -150.66197523 41.60694233 -156 39 C-156.495 38.443125 -156.99 37.88625 -157.5 37.3125 C-159.05253184 35.65006083 -159.05253184 35.65006083 -162.0625 36.125 C-165.29255415 36.74650413 -165.29255415 36.74650413 -167 40 C-169.8125 41.375 -169.8125 41.375 -173 42 C-175.94450894 40.69132936 -177.54701431 39.90597137 -179 37 C-179.0825 36.175 -179.165 35.35 -179.25 34.5 C-179.4975 33.675 -179.745 32.85 -180 32 C-182.49973737 30.81664173 -182.49973737 30.81664173 -185 30 C-185.08097324 27.72975032 -185.13917704 25.45867925 -185.1875 23.1875 C-185.22230469 21.92292969 -185.25710937 20.65835938 -185.29296875 19.35546875 C-185 16 -185 16 -183.6875 14.0625 C-181.15588663 12.46852121 -178.91422715 12.80571819 -176 13 C-175.34 11.02 -174.68 9.04 -174 7 C-173.2575 6.87625 -172.515 6.7525 -171.75 6.625 C-169.047668 6.16105765 -169.047668 6.16105765 -167.125 4.875 C-163.80054462 3.50610661 -161.44616742 4.16816649 -158 5 C-152.33870968 7.93548387 -152.33870968 7.93548387 -151.125 11.75 C-151.08375 12.4925 -151.0425 13.235 -151 14 C-149.9275 13.7525 -148.855 13.505 -147.75 13.25 C-144 13 -144 13 -141.5625 14.9375 C-141.046875 15.618125 -140.53125 16.29875 -140 17 C-138.63002255 15.84254513 -138.63002255 15.84254513 -138.6875 12.6875 C-137.93283972 8.63977669 -137.34645337 7.32392595 -134 5 C-131.5 4.5 -131.5 4.5 -129 5 C-126.20964571 7.2477854 -125.14089995 8.57730016 -124 12 C-119.02093741 12.75427297 -119.02093741 12.75427297 -114 13 C-112.6273318 11.02678947 -111.29572383 9.02456848 -110 7 C-106.87214203 4.91476135 -104.88181303 4.41030312 -101.140625 4.47265625 C-97.06477831 5.47674257 -94.39853518 8.68702328 -92 12 C-92 12.66 -92 13.32 -92 14 C-90.62476865 13.85636473 -89.24982598 13.70996483 -87.875 13.5625 C-87.05257812 13.47871094 -86.23015625 13.39492188 -85.3828125 13.30859375 C-82.83037402 13.03206036 -82.83037402 13.03206036 -79.75 12.125 C-78.8425 12.08375 -77.935 12.0425 -77 12 C-74.4375 14.375 -74.4375 14.375 -72 17 C-68.57085969 18.44384855 -67.18750095 18.06250032 -63.625 16.875 C-60.93913498 15.63089802 -58.80267055 14.09833196 -56.5 12.25 C-53.67603124 10.14947492 -53.08149283 10.00138123 -49.3125 9.9375 C-46 11 -46 11 -43.9375 13.125 C-43.298125 13.74375 -42.65875 14.3625 -42 15 C-39.00967326 14.90466321 -39.00967326 14.90466321 -36 14 C-35.13375 13.938125 -34.2675 13.87625 -33.375 13.8125 C-29.87767856 12.61604793 -28.99953266 10.02959494 -27 7 C-22.83853453 4.28600078 -19.90848411 3.77169841 -15 4 C-14.67 3.67 -14.34 3.34 -14 3 C-12.33382885 2.95936168 -10.66611905 2.957279 -9 3 C-8.67 2.01 -8.34 1.02 -8 0 C-5.06791253 -1.46604374 -3.11702298 -0.77925574 0 0 Z " fill="#ECA2B1" transform="translate(185,14)"/>
<path d="M0 0 C190.08 0 380.16 0 576 0 C576 1.98 576 3.96 576 6 C572.82627167 6.66426872 570.49885526 7.11601285 567.3125 6.375 C566.549375 6.25125 565.78625 6.1275 565 6 C563.1645201 7.33378575 563.1645201 7.33378575 562 9 C556.25 7.375 556.25 7.375 554 4 C551.55519921 4.18828772 551.55519921 4.18828772 549 5 C547.63979849 6.96758273 547.63979849 6.96758273 547 9 C546.401875 8.79375 545.80375 8.5875 545.1875 8.375 C542.71549154 7.69328085 542.71549154 7.69328085 540 10 C539.505 9.34 539.01 8.68 538.5 8 C535.3308021 5.46464168 533.77038477 5.83624183 529.8828125 6.05859375 C527.23089969 5.97606534 526.02641952 4.62113562 524 3 C519.87816459 2.57064214 517.60023799 3.14181265 514 5 C511.375 5.25 511.375 5.25 509 5 C508.34 4.34 507.68 3.68 507 3 C504.49675668 3.01666329 504.49675668 3.01666329 502 4 C500.17662247 5.9568288 500.17662247 5.9568288 499 8 C498.34 7.34 497.68 6.68 497 6 C493.80848491 5.5800638 492.41508925 5.73075292 489.6875 7.5 C489.130625 7.995 488.57375 8.49 488 9 C487.34 8.34 486.68 7.68 486 7 C482.55834679 7.35299007 480.93127462 8.04581692 478 10 C476.4221875 8.9790625 476.4221875 8.9790625 474.8125 7.9375 C471.3714003 5.95437628 469.86764334 6.00829658 466 7 C463.125 6.1875 463.125 6.1875 460 5 C455.22567325 3.38013914 451.90527683 2.55071366 447 4 C446.2884375 4.7115625 446.2884375 4.7115625 445.5625 5.4375 C443.14935575 7.85064425 440.24538553 8.17390187 437 9 C436.34 9.33 435.68 9.66 435 10 C434.62875 9.38125 434.2575 8.7625 433.875 8.125 C431.50959954 5.44421281 429.39096087 4.95831503 426 4 C425.67 3.67 425.34 3.34 425 3 C422.62778044 2.49864801 422.62778044 2.49864801 420 3 C417.66369252 5.39859044 417.66369252 5.39859044 416 8 C415.34 7.34 414.68 6.68 414 6 C413.195625 6.020625 412.39125 6.04125 411.5625 6.0625 C410.2940625 6.0315625 410.2940625 6.0315625 409 6 C408.525625 5.484375 408.05125 4.96875 407.5625 4.4375 C406.00820298 2.69802806 406.00820298 2.69802806 403.1875 2.875 C398.75415172 4.43971116 396.7314359 7.29028387 394 11 C393.2575 10.319375 392.515 9.63875 391.75 8.9375 C389.2537741 6.76836611 389.2537741 6.76836611 386.75 7.0625 C384.64005363 7.93497944 384.64005363 7.93497944 384 11 C383.34 11 382.68 11 382 11 C381.608125 10.175 381.21625 9.35 380.8125 8.5 C380.214375 7.675 379.61625 6.85 379 6 C375.45821402 5.74996036 375.45821402 5.74996036 372 6 C371.34 5.34 370.68 4.68 370 4 C366.82719649 4.43762807 363.94332389 5.77361505 361 7 C361 8.32 361 9.64 361 11 C360.071875 10.835 359.14375 10.67 358.1875 10.5 C355.04378647 9.92251612 355.04378647 9.92251612 352 10 C351.67 9.01 351.34 8.02 351 7 C349.05396726 6.40929986 349.05396726 6.40929986 347 6 C346.34 5.34 345.68 4.68 345 4 C342.54258463 3.49985047 342.54258463 3.49985047 340 4 C338.15684329 5.9004467 338.15684329 5.9004467 337 8 C335.7625 7.7525 334.525 7.505 333.25 7.25 C331.07896977 6.90427779 331.07896977 6.90427779 329 7 C326.47409152 8.77154652 326.47409152 8.77154652 325 11 C324.5359375 9.7934375 324.5359375 9.7934375 324.0625 8.5625 C323.23664655 6.10919595 323.23664655 6.10919595 322 5 C321.01 5 320.02 5 319 5 C318.01 5 317.02 5 316 5 C315.67 4.67 315.34 4.34 315 4 C312.6704053 3.49758678 312.6704053 3.49758678 310 4 C307.29151077 6.37505218 307.29151077 6.37505218 305 9 C304.34 9.33 303.68 9.66 303 10 C302.79375 9.360625 302.5875 8.72125 302.375 8.0625 C301.1317049 5.67975948 301.1317049 5.67975948 298.125 5.375 C296.578125 5.189375 296.578125 5.189375 295 5 C293.65863633 4.34964186 292.32467746 3.6837045 291 3 C289.34259285 2.62331656 287.67654729 2.27942455 286 2 C285.608125 2.598125 285.21625 3.19625 284.8125 3.8125 C282.70565469 6.35524434 281.04006879 7.69711338 278 9 C274.82564566 8.18795587 273.31819425 7.31819425 271 5 C268.46048456 5.09111938 268.46048456 5.09111938 266 6 C265.34 6.99 264.68 7.98 264 9 C263.34 9 262.68 9 262 9 C261.79375 8.360625 261.5875 7.72125 261.375 7.0625 C260.10851061 4.69800905 260.10851061 4.69800905 257.0625 4.0625 C255.5465625 4.0315625 255.5465625 4.0315625 254 4 C253.54625 4.45375 253.0925 4.9075 252.625 5.375 C249.99561484 8.00438516 246.54547575 7.80265106 243 8 C239 8 239 8 236.5625 7.4375 C233.69095471 6.94723617 231.78162798 7.17302952 229 8 C228.34 8.66 227.68 9.32 227 10 C225.0625 10.8125 225.0625 10.8125 223 11 C222 10 221 9 220 8 C217.97080157 8.25723969 217.97080157 8.25723969 216 9 C211.85248029 9 209.34971005 8.16531748 205.5625 6.375 C201.90488398 4.96328855 200.60432091 4.69843967 197 6 C196.01 6.66 195.02 7.32 194 8 C191.42351458 8.3674728 188.87463871 8.50369229 186.27734375 8.65625 C183.80530341 8.79893062 183.80530341 8.79893062 182 11 C181.773125 10.195625 181.54625 9.39125 181.3125 8.5625 C180.25141103 5.82963746 180.25141103 5.82963746 177.75 5 C174.19280974 5 172.04004461 6.2325322 169 8 C168.2575 7.319375 167.515 6.63875 166.75 5.9375 C164.26227365 3.7739188 164.26227365 3.7739188 161.8125 4.0625 C159.65490148 4.99309803 159.65490148 4.99309803 158 8 C155.625 8.875 155.625 8.875 153 9 C152.11441406 8.25169922 152.11441406 8.25169922 151.2109375 7.48828125 C148.2303616 5.48192186 146.51940981 5.87697304 143 6.3125 C139.59902157 6.70786374 136.43412696 7 133 7 C132.54625 6.484375 132.0925 5.96875 131.625 5.4375 C129.98645819 3.65337222 129.98645819 3.65337222 127 4.125 C124.02646956 4.99227971 122.8719144 5.60810938 121 8 C120.01 7.01 120.01 7.01 119 6 C117.06874034 6.3574765 117.06874034 6.3574765 115 7 C108.55398869 7 102.97464631 6.48943596 97 4 C93.18984584 3.63712818 92.2936518 3.80423213 89 6 C88.01 5.01 88.01 5.01 87 4 C84.67171371 3.41389629 84.67171371 3.41389629 82 4 C79.0953835 6.16422406 76.55726477 8.44273523 74 11 C73.01 10.01 73.01 10.01 72 9 C70.515 9.2475 70.515 9.2475 69 9.5 C67.515 9.7475 67.515 9.7475 66 10 C65.01 9.01 65.01 9.01 64 8 C61.0371669 8.39504441 58.61673759 9.59817629 56 11 C55.34 10.34 54.68 9.68 54 9 C51.60611077 9.27802838 51.60611077 9.27802838 49 10 C47.33333333 10.33333333 45.66666667 10.66666667 44 11 C43.401875 10.236875 42.80375 9.47375 42.1875 8.6875 C41.465625 7.800625 40.74375 6.91375 40 6 C39.36964844 5.17048828 39.36964844 5.17048828 38.7265625 4.32421875 C35.51815904 1.86347492 31.76266624 3.06047592 27.94921875 3.48828125 C22.16787316 4.49140214 18.9809945 6.87682713 15 11 C14.34 11 13.68 11 13 11 C12.34 10.01 11.68 9.02 11 8 C7.30099992 8.88776002 3.65449539 9.94581864 0 11 C0 7.37 0 3.74 0 0 Z " fill="#CD90B9" transform="translate(0,0)"/>
</svg>
