<?xml version="1.0" encoding="UTF-8"?>
<svg version="1.1" xmlns="http://www.w3.org/2000/svg" width="576" height="324">
<path d="M0 0 C2.31 0 4.62 0 7 0 C7 0.66 7 1.32 7 2 C8.62796509 1.99214478 8.62796509 1.99214478 10.28881836 1.98413086 C14.30117982 1.96608164 18.31353767 1.95456829 22.32592773 1.94506836 C24.06519168 1.94002796 25.80445136 1.9331957 27.54370117 1.92456055 C30.03825937 1.91248208 32.53276173 1.90676892 35.02734375 1.90234375 C35.80963852 1.89718246 36.59193329 1.89202118 37.39793396 1.88670349 C39.26567114 1.88650774 41.13329204 1.93800306 43 2 C44 3 44 3 44.09765625 6.81640625 C44.09191138 8.39847047 44.07889593 9.98051031 44.0625 11.5625 C44.041875 14.346875 44.02125 17.13125 44 20 C51.92 19.67 59.84 19.34 68 19 C67.01 18.34 66.02 17.68 65 17 C68.98740615 16.68100751 71.54126978 16.78939636 75.20556641 18.47167969 C78.41050543 21.37141309 78.41050543 21.37141309 78.68115234 24.94238281 C78.68020649 26.52961394 78.64653411 28.11705072 78.5859375 29.703125 C78.57744781 30.54091492 78.56895813 31.37870483 78.56021118 32.24188232 C78.52667573 34.91257431 78.45140287 37.58022411 78.375 40.25 C78.34490028 42.06245633 78.31752448 43.87496008 78.29296875 45.6875 C78.22688474 50.1261686 78.12336742 54.56256895 78 59 C79.98 58.67 81.96 58.34 84 58 C84.06058594 57.36191406 84.12117188 56.72382812 84.18359375 56.06640625 C84.26738281 55.24011719 84.35117187 54.41382813 84.4375 53.5625 C84.51871094 52.73878906 84.59992188 51.91507813 84.68359375 51.06640625 C85 49 85 49 86 48 C87.68183948 47.76712992 89.3712416 47.58735834 91.0625 47.4375 C91.98160156 47.35371094 92.90070313 47.26992187 93.84765625 47.18359375 C94.55792969 47.12300781 95.26820313 47.06242187 96 47 C96.02505615 45.88439697 96.0501123 44.76879395 96.07592773 43.61938477 C96.16983421 39.4950741 96.27009514 35.3709385 96.37231445 31.24682617 C96.415727 29.4591073 96.45739729 27.67134526 96.49731445 25.88354492 C96.5548646 23.31936609 96.61860203 20.75540588 96.68359375 18.19140625 C96.70030624 17.3872377 96.71701874 16.58306915 96.73423767 15.75453186 C96.88612829 10.11387171 96.88612829 10.11387171 98 9 C99.43740353 8.90186013 100.87956327 8.8720172 102.3203125 8.87060547 C103.23796387 8.86745331 104.15561523 8.86430115 105.10107422 8.86105347 C106.59791748 8.86408981 106.59791748 8.86408981 108.125 8.8671875 C109.14223145 8.86623077 110.15946289 8.86527405 111.20751953 8.86428833 C113.36295636 8.86360639 115.51839522 8.86546165 117.67382812 8.86962891 C120.98572371 8.87497695 124.29748367 8.86968437 127.609375 8.86328125 C129.69791697 8.86394203 131.78645885 8.86522319 133.875 8.8671875 C134.87289551 8.86516327 135.87079102 8.86313904 136.89892578 8.86105347 C137.81657715 8.86420563 138.73422852 8.86735779 139.6796875 8.87060547 C140.49163574 8.87140106 141.30358398 8.87219666 142.14013672 8.87301636 C144 9 144 9 145 10 C145.16023562 12.88252645 145.25954029 15.74378527 145.31640625 18.62890625 C145.33718735 19.49313705 145.35796844 20.35736786 145.37937927 21.24778748 C145.44497114 24.01927445 145.50380418 26.79085921 145.5625 29.5625 C145.60567608 31.43685923 145.64929006 33.31120843 145.69335938 35.18554688 C145.80066227 39.79026336 145.90190215 44.39507858 146 49 C146.33 49 146.66 49 147 49 C147.02505615 48.39937744 147.0501123 47.79875488 147.07592773 47.17993164 C147.1915528 44.47388563 147.31442936 41.76821717 147.4375 39.0625 C147.49647461 37.64420898 147.49647461 37.64420898 147.55664062 36.19726562 C147.59853516 35.29814453 147.64042969 34.39902344 147.68359375 33.47265625 C147.72025146 32.64000244 147.75690918 31.80734863 147.79467773 30.94946289 C148 29 148 29 149 28 C151.67058851 27.85884839 154.32432238 27.95752893 157 28 C157 27.34 157 26.68 157 26 C159.64 26 162.28 26 165 26 C165 26.66 165 27.32 165 28 C165.90355225 27.99476318 166.80710449 27.98952637 167.73803711 27.98413086 C171.07951489 27.96712314 174.42094692 27.95456667 177.76245117 27.94506836 C179.21070073 27.94002899 180.65894517 27.93319747 182.10717773 27.92456055 C184.18474588 27.91247753 186.26224697 27.90676789 188.33984375 27.90234375 C189.59144287 27.89710693 190.84304199 27.89187012 192.13256836 27.88647461 C195 28 195 28 196 29 C196.32446337 32.10042773 196.51334441 35.2020725 196.71875 38.3125 C196.70607799 40.91596752 196.70607799 40.91596752 198 42 C198 85.56 198 129.12 198 174 C7.92 174 -182.16 174 -378 174 C-378 130.44 -378 86.88 -378 42 C-377.34 42 -376.68 42 -376 42 C-375.67 40.68 -375.34 39.36 -375 38 C-370.52084672 37.97113662 -366.04171709 37.95324813 -361.5625 37.9375 C-360.28310547 37.92912109 -359.00371094 37.92074219 -357.68554688 37.91210938 C-356.47060547 37.90888672 -355.25566406 37.90566406 -354.00390625 37.90234375 C-352.87799072 37.89710693 -351.7520752 37.89187012 -350.59204102 37.88647461 C-348 38 -348 38 -347 39 C-346.83996512 41.66426685 -346.74057111 44.30560428 -346.68359375 46.97265625 C-346.66281265 47.77029892 -346.64203156 48.56794159 -346.62062073 49.38975525 C-346.55503842 51.94724611 -346.49620033 54.5048428 -346.4375 57.0625 C-346.39432301 58.79232882 -346.35070899 60.52214679 -346.30664062 62.25195312 C-346.19934828 66.5011926 -346.09810574 70.7505389 -346 75 C-342.7 75 -339.4 75 -336 75 C-335.96241577 73.41747437 -335.96241577 73.41747437 -335.92407227 71.80297852 C-335.83015891 67.90229372 -335.72989966 64.00179375 -335.62768555 60.10131836 C-335.58427561 58.41060701 -335.54260511 56.71985009 -335.50268555 55.02905273 C-335.44512906 52.60386394 -335.38139351 50.17890585 -335.31640625 47.75390625 C-335.29969376 46.99348526 -335.28298126 46.23306427 -335.26576233 45.44960022 C-335.11387171 40.11387171 -335.11387171 40.11387171 -334 39 C-332.58774954 38.9071274 -331.17091066 38.88253228 -329.75561523 38.88647461 C-328.85475693 38.88655014 -327.95389862 38.88662567 -327.02574158 38.88670349 C-326.04658279 38.89186478 -325.06742401 38.89702606 -324.05859375 38.90234375 C-323.06118668 38.9037587 -322.0637796 38.90517365 -321.03614807 38.90663147 C-317.83656876 38.91224886 -314.63705831 38.92480429 -311.4375 38.9375 C-309.27408955 38.94251276 -307.11067801 38.94707605 -304.94726562 38.95117188 C-299.63148675 38.96222393 -294.31574829 38.97897896 -289 39 C-289.00523682 37.94498291 -289.01047363 36.88996582 -289.01586914 35.80297852 C-289.03391901 31.9024337 -289.04543195 28.0018926 -289.05493164 24.10131836 C-289.0599719 22.41055684 -289.06680405 20.71979971 -289.07543945 19.02905273 C-289.08751857 16.60399293 -289.09323123 14.17899056 -289.09765625 11.75390625 C-289.10281754 10.99348526 -289.10797882 10.23306427 -289.11329651 9.44960022 C-289.11349238 7.6326743 -289.06197277 5.81586873 -289 4 C-288 3 -288 3 -284.67358398 2.88647461 C-283.19774444 2.88663371 -281.72189931 2.89232686 -280.24609375 2.90234375 C-279.47064713 2.9037587 -278.6952005 2.90517365 -277.89625549 2.90663147 C-275.40996506 2.91224655 -272.9237634 2.92480154 -270.4375 2.9375 C-268.75586067 2.94251306 -267.07421994 2.9470763 -265.39257812 2.95117188 C-261.26168434 2.96222087 -257.13085724 2.97949555 -253 3 C-253 2.34 -253 1.68 -253 1 C-251.20906809 0.91913853 -249.41710372 0.86087298 -247.625 0.8125 C-246.12839844 0.76029297 -246.12839844 0.76029297 -244.6015625 0.70703125 C-243.74304688 0.80371094 -242.88453125 0.90039062 -242 1 C-239.55787603 4.66318595 -239.72756164 6.4879455 -239.68115234 10.8581543 C-239.66608391 11.89756668 -239.66608391 11.89756668 -239.65071106 12.95797729 C-239.6198384 15.24671607 -239.60283289 17.53533765 -239.5859375 19.82421875 C-239.5672291 21.41177888 -239.54765593 22.99932904 -239.5272522 24.58686829 C-239.47589017 28.76415123 -239.43628634 32.94146643 -239.39910889 37.11889648 C-239.35909469 41.38208013 -239.30799058 45.64512914 -239.2578125 49.90820312 C-239.16100496 58.27205032 -239.07764068 66.6359529 -239 75 C-232.73 75 -226.46 75 -220 75 C-219.67 52.56 -219.34 30.12 -219 7 C-208.11 7.495 -208.11 7.495 -197 8 C-197 7.34 -197 6.68 -197 6 C-195.35 6 -193.7 6 -192 6 C-192 6.66 -192 7.32 -192 8 C-181.605 7.505 -181.605 7.505 -171 7 C-171 20.53 -171 34.06 -171 48 C-158.43489503 47.59276372 -158.43489503 47.59276372 -145.87060547 47.16162109 C-144.28615807 47.11469908 -142.70168648 47.06858422 -141.1171875 47.0234375 C-140.30580322 46.99161377 -139.49441895 46.95979004 -138.65844727 46.92700195 C-137.86736572 46.90645752 -137.07628418 46.88591309 -136.26123047 46.86474609 C-135.58172333 46.84253998 -134.90221619 46.82033386 -134.20211792 46.79745483 C-132 47 -132 47 -126 49 C-126 55.6 -126 62.2 -126 69 C-124.35 69 -122.7 69 -121 69 C-120.566875 70.4540625 -120.566875 70.4540625 -120.125 71.9375 C-119.35785318 75.10664203 -119.35785318 75.10664203 -117 76 C-117 60.49 -117 44.98 -117 29 C-115.35 28.67 -113.7 28.34 -112 28 C-112 27.34 -112 26.68 -112 26 C-109.69 26 -107.38 26 -105 26 C-105 26.66 -105 27.32 -105 28 C-103.37203491 27.99214478 -103.37203491 27.99214478 -101.71118164 27.98413086 C-97.69882018 27.96608164 -93.68646233 27.95456829 -89.67407227 27.94506836 C-87.93480832 27.94002796 -86.19554864 27.9331957 -84.45629883 27.92456055 C-81.96174063 27.91248208 -79.46723827 27.90676892 -76.97265625 27.90234375 C-76.19036148 27.89718246 -75.40806671 27.89202118 -74.60206604 27.88670349 C-72.73432886 27.88650774 -70.86670796 27.93800306 -69 28 C-68 29 -68 29 -67.88647461 32.78540039 C-67.88663378 34.47282729 -67.89233083 36.16025905 -67.90234375 37.84765625 C-67.90446617 39.17729652 -67.90446617 39.17729652 -67.90663147 40.53379822 C-67.91224785 43.37673254 -67.92480309 46.21958931 -67.9375 49.0625 C-67.94251289 50.98502491 -67.94707616 52.90755104 -67.95117188 54.83007812 C-67.96222259 59.55341549 -67.97949817 64.27669458 -68 69 C-65.69 69 -63.38 69 -61 69 C-60.34 70.98 -59.68 72.96 -59 75 C-54.38 75 -49.76 75 -45 75 C-44.855625 73.205625 -44.71125 71.41125 -44.5625 69.5625 C-44.125 64.125 -44.125 64.125 -43 63 C-40.98405418 62.76572222 -38.961526 62.58663876 -36.9375 62.4375 C-35.83277344 62.35371094 -34.72804688 62.26992187 -33.58984375 62.18359375 C-32.73519531 62.12300781 -31.88054687 62.06242187 -31 62 C-30.855625 60.865625 -30.71125 59.73125 -30.5625 58.5625 C-30 55 -30 55 -29 54 C-21.08 54 -13.16 54 -5 54 C-5 37.17 -5 20.34 -5 3 C-3.35 2.67 -1.7 2.34 0 2 C0 1.34 0 0.68 0 0 Z M-252 2 C-248 3 -248 3 -248 3 Z M-218 22 C-217.67 22.66 -217.34 23.32 -217 24 C-212.38 24 -207.76 24 -203 24 C-202.67 23.34 -202.34 22.68 -202 22 C-207.28 22 -212.56 22 -218 22 Z M-218 55 C-217.67 55.66 -217.34 56.32 -217 57 C-212.38 57 -207.76 57 -203 57 C-202.67 56.34 -202.34 55.68 -202 55 C-207.28 55 -212.56 55 -218 55 Z M-218 58 C-217.67 58.66 -217.34 59.32 -217 60 C-212.38 60 -207.76 60 -203 60 C-202.67 59.34 -202.34 58.68 -202 58 C-207.28 58 -212.56 58 -218 58 Z M-218 61 C-217.67 61.66 -217.34 62.32 -217 63 C-212.38 63 -207.76 63 -203 63 C-202.67 62.34 -202.34 61.68 -202 61 C-207.28 61 -212.56 61 -218 61 Z " fill="#EE8EA0" transform="translate(378,61)"/>
<path d="M0 0 C1.79093191 -0.08086147 3.58289628 -0.13912702 5.375 -0.1875 C6.87160156 -0.23970703 6.87160156 -0.23970703 8.3984375 -0.29296875 C9.68621094 -0.14794922 9.68621094 -0.14794922 11 0 C13.37422422 3.56133632 13.24816454 5.07988856 13.24291992 9.30395508 C13.24753487 11.25662041 13.24753487 11.25662041 13.25224304 13.24873352 C13.24534271 14.67233454 13.23807554 16.09593383 13.23046875 17.51953125 C13.22927614 18.98060567 13.22882396 20.44168086 13.2290802 21.90275574 C13.22751568 24.96687616 13.21923135 28.0308797 13.20581055 31.0949707 C13.18886589 35.01223066 13.18499503 38.92936163 13.18575573 42.84665394 C13.18548296 45.86562825 13.17998383 48.88457466 13.17275429 51.90353966 C13.16958307 53.34715247 13.16760385 54.79076843 13.16686058 56.23438454 C13.16467799 58.25888842 13.15511386 60.28338023 13.14526367 62.30786133 C13.14145187 63.45797195 13.13764008 64.60808258 13.13371277 65.79304504 C13.00247056 68.94074624 12.58796614 71.90790079 12 75 C10.71351563 74.98839844 9.42703125 74.97679687 8.1015625 74.96484375 C-6.62150618 74.8765991 -21.29288959 75.3374223 -36 76 C-36 77.98 -36 79.96 -36 82 C-41.28 82 -46.56 82 -52 82 C-52 69.46 -52 56.92 -52 44 C-52.33 44.66 -52.66 45.32 -53 46 C-53.99 46 -54.98 46 -56 46 C-56 44.35 -56 42.7 -56 41 C-49.4 41 -42.8 41 -36 41 C-35.67 40.34 -35.34 39.68 -35 39 C-35.33 38.34 -35.66 37.68 -36 37 C-36.09870191 34.45814639 -36.13985877 31.94431311 -36.1328125 29.40234375 C-36.13424759 28.27814781 -36.13424759 28.27814781 -36.13571167 27.13124084 C-36.13639241 25.54672156 -36.13454551 23.96219948 -36.13037109 22.37768555 C-36.12501383 19.94378445 -36.13032347 17.51006727 -36.13671875 15.07617188 C-36.1360581 13.53906209 -36.1347772 12.00195242 -36.1328125 10.46484375 C-36.13483673 9.73257065 -36.13686096 9.00029755 -36.13894653 8.24583435 C-36.11495668 3.11495668 -36.11495668 3.11495668 -35 2 C-32.40640678 1.91148471 -29.83960309 1.88474055 -27.24609375 1.90234375 C-26.47064713 1.9037587 -25.6952005 1.90517365 -24.89625549 1.90663147 C-22.40996506 1.91224655 -19.9237634 1.92480154 -17.4375 1.9375 C-15.75586067 1.94251306 -14.07421994 1.9470763 -12.39257812 1.95117188 C-8.26168434 1.96222087 -4.13085724 1.97949555 0 2 C0 1.34 0 0.68 0 0 Z M1 1 C5 2 5 2 5 2 Z " fill="#F298A1" transform="translate(125,62)"/>
<path d="M0 0 C1.65 0 3.3 0 5 0 C5 0.66 5 1.32 5 2 C15.395 1.505 15.395 1.505 26 1 C26 14.53 26 28.06 26 42 C38.56510497 41.59276372 38.56510497 41.59276372 51.12939453 41.16162109 C52.71384193 41.11469908 54.29831352 41.06858422 55.8828125 41.0234375 C56.69419678 40.99161377 57.50558105 40.95979004 58.34155273 40.92700195 C63.00394791 40.80591928 66.6077969 41.18999225 71 43 C71.11428462 50.75865561 70.91444093 58.39510079 70.21875 66.125 C70.01952056 68.74344409 70 71.37398746 70 74 C62.74 74 55.48 74 48 74 C48 75.98 48 77.96 48 80 C46.68 80 45.36 80 44 80 C44 80.99 44 81.98 44 83 C38.39 83 32.78 83 27 83 C27.01160156 80.48503906 27.02320313 77.97007812 27.03515625 75.37890625 C27.04294673 72.9530449 27.04902354 70.52718493 27.05493164 68.10131836 C27.0599719 66.41055684 27.06680405 64.71979971 27.07543945 63.02905273 C27.08751857 60.60399293 27.09323123 58.17899056 27.09765625 55.75390625 C27.10281754 54.99348526 27.10797882 54.23306427 27.11329651 53.44960022 C27.11349238 51.6326743 27.06197277 49.81586873 27 48 C26.67 47.67 26.34 47.34 26 47 C26 49.97 26 52.94 26 56 C22.35153995 56.91211501 19.64298469 57.11589698 15.921875 57.09765625 C14.18164062 57.09282227 14.18164062 57.09282227 12.40625 57.08789062 C11.1996875 57.07951172 9.993125 57.07113281 8.75 57.0625 C7.52796875 57.05798828 6.3059375 57.05347656 5.046875 57.04882812 C2.03120054 57.03704815 -0.98437498 57.02059853 -4 57 C-4.33 55.68 -4.66 54.36 -5 53 C-10.61 53 -16.22 53 -22 53 C-22 35.84 -22 18.68 -22 1 C-14.74 1.33 -7.48 1.66 0 2 C0 1.34 0 0.68 0 0 Z M-21 16 C-20.67 16.66 -20.34 17.32 -20 18 C-15.38 18 -10.76 18 -6 18 C-5.67 17.34 -5.34 16.68 -5 16 C-10.28 16 -15.56 16 -21 16 Z M-21 49 C-20.67 49.66 -20.34 50.32 -20 51 C-15.38 51 -10.76 51 -6 51 C-5.67 50.34 -5.34 49.68 -5 49 C-10.28 49 -15.56 49 -21 49 Z " fill="#F5A1A2" transform="translate(181,67)"/>
<path d="M0 0 C0.91765137 -0.00315216 1.83530273 -0.00630432 2.78076172 -0.009552 C4.27760498 -0.00651566 4.27760498 -0.00651566 5.8046875 -0.00341797 C6.82191895 -0.00437469 7.83915039 -0.00533142 8.88720703 -0.00631714 C11.04264386 -0.00699908 13.19808272 -0.00514382 15.35351562 -0.00097656 C18.66541121 0.00437148 21.97717117 -0.0009211 25.2890625 -0.00732422 C27.37760447 -0.00666344 29.46614635 -0.00538228 31.5546875 -0.00341797 C32.55258301 -0.0054422 33.55047852 -0.00746643 34.57861328 -0.009552 C35.49626465 -0.00639984 36.41391602 -0.00324768 37.359375 0 C38.17132324 0.00079559 38.98327148 0.00159119 39.81982422 0.00241089 C41.6796875 0.12939453 41.6796875 0.12939453 42.6796875 1.12939453 C42.79319751 3.89426949 42.84387287 6.63320575 42.84765625 9.39892578 C42.85264885 10.64774788 42.85264885 10.64774788 42.85774231 11.92179871 C42.86281618 13.68801316 42.86515049 15.45423725 42.86499023 17.22045898 C42.86716989 19.92008379 42.88530158 22.61929561 42.90429688 25.31884766 C42.90723208 27.03303896 42.90921603 28.74723222 42.91015625 30.46142578 C42.91734177 31.2688472 42.92452728 32.07626862 42.93193054 32.90815735 C42.91484817 37.11268606 42.6053857 39.27799814 40.6796875 43.12939453 C26.1596875 43.12939453 11.6396875 43.12939453 -3.3203125 43.12939453 C-3.6503125 41.47939453 -3.9803125 39.82939453 -4.3203125 38.12939453 C-3.8253125 37.63439453 -3.8253125 37.63439453 -3.3203125 37.12939453 C-3.9803125 36.79939453 -4.6403125 36.46939453 -5.3203125 36.12939453 C-5.34496348 31.16317104 -5.36314899 26.19698287 -5.37524414 21.23071289 C-5.3802844 19.53995138 -5.38711655 17.84919424 -5.39575195 16.15844727 C-5.40783107 13.73338746 -5.41354373 11.30838509 -5.41796875 8.88330078 C-5.42313004 8.12287979 -5.42829132 7.3624588 -5.43360901 6.57899475 C-5.43380488 4.76206883 -5.38228527 2.94526326 -5.3203125 1.12939453 C-3.74730922 -0.44360875 -2.18347205 0.00213949 0 0 Z " fill="#F7A7A2" transform="translate(480.3203125,69.87060546875)"/>
<path d="M0 0 C2.31 0 4.62 0 7 0 C7 0.66 7 1.32 7 2 C8.62796509 1.99214478 8.62796509 1.99214478 10.28881836 1.98413086 C14.30117982 1.96608164 18.31353767 1.95456829 22.32592773 1.94506836 C24.06519168 1.94002796 25.80445136 1.9331957 27.54370117 1.92456055 C30.03825937 1.91248208 32.53276173 1.90676892 35.02734375 1.90234375 C35.80963852 1.89718246 36.59193329 1.89202118 37.39793396 1.88670349 C39.26567114 1.88650774 41.13329204 1.93800306 43 2 C44.86221954 3.86221954 44.13050173 6.9633279 44.1328125 9.44921875 C44.13376923 10.09945511 44.13472595 10.74969147 44.13571167 11.41963196 C44.13639374 12.80083309 44.13453759 14.1820374 44.13037109 15.56323242 C44.12506607 17.6613707 44.13029262 19.75929068 44.13671875 21.85742188 C44.13605713 23.2005213 44.13477424 24.54362059 44.1328125 25.88671875 C44.13168457 27.10576904 44.13055664 28.32481934 44.12939453 29.58081055 C44.00721191 32.80942862 43.60977374 35.83093262 43 39 C41.68 39 40.36 39 39 39 C39 39.99 39 40.98 39 42 C34.71 42 30.42 42 26 42 C26.03255208 39.94921875 26.06510417 37.8984375 26.09765625 35.84765625 C26.20561184 33.98267859 26.20561184 33.98267859 25 33 C25 34.98 25 36.96 25 39 C23.68 39 22.36 39 21 39 C21 40.98 21 42.96 21 45 C19.68 45 18.36 45 17 45 C17 45.99 17 46.98 17 48 C11.39 48 5.78 48 0 48 C0.00785522 46.14483765 0.00785522 46.14483765 0.01586914 44.25219727 C0.03391561 39.68075275 0.04543071 35.10931141 0.05493164 30.5378418 C0.05997267 28.55606559 0.06680538 26.57429311 0.07543945 24.5925293 C0.08751515 21.75047891 0.09323045 18.90847753 0.09765625 16.06640625 C0.10281754 15.17474258 0.10797882 14.28307892 0.11329651 13.36439514 C0.11349177 11.24259399 0.0621003 9.1208922 0 7 C-0.33 6.67 -0.66 6.34 -1 6 C-1 18.87 -1 31.74 -1 45 C-2.32 45 -3.64 45 -5 45 C-5 31.14 -5 17.28 -5 3 C-3.35 2.67 -1.7 2.34 0 2 C0 1.34 0 0.68 0 0 Z " fill="#F7A9A2" transform="translate(266,87)"/>
<path d="M0 0 C2.31 0 4.62 0 7 0 C7 0.66 7 1.32 7 2 C8.62796509 1.99214478 8.62796509 1.99214478 10.28881836 1.98413086 C14.30117982 1.96608164 18.31353767 1.95456829 22.32592773 1.94506836 C24.06519168 1.94002796 25.80445136 1.9331957 27.54370117 1.92456055 C30.03825937 1.91248208 32.53276173 1.90676892 35.02734375 1.90234375 C35.80963852 1.89718246 36.59193329 1.89202118 37.39793396 1.88670349 C39.26567114 1.88650774 41.13329204 1.93800306 43 2 C43.495 2.495 43.495 2.495 44 3 C43.90997602 5.02408755 43.75358962 7.04544287 43.5625 9.0625 C43.46066406 10.16722656 43.35882813 11.27195312 43.25390625 12.41015625 C43.17011719 13.26480469 43.08632813 14.11945313 43 15 C41.68 15 40.36 15 39 15 C39 16.98 39 18.96 39 21 C34.38 21 29.76 21 25 21 C25 22.98 25 24.96 25 27 C23.68 27 22.36 27 21 27 C22.32 27.33 23.64 27.66 25 28 C25 32.62 25 37.24 25 42 C24.01 42.495 24.01 42.495 23 43 C22.30906104 45.57951874 22.30906104 45.57951874 21.875 48.5625 C21.70742188 49.57441406 21.53984375 50.58632812 21.3671875 51.62890625 C21.24601562 52.41136719 21.12484375 53.19382813 21 54 C19.68 54 18.36 54 17 54 C17 54.99 17 55.98 17 57 C11.39 57 5.78 57 0 57 C0.03255208 53.38671875 0.06510417 49.7734375 0.09765625 46.16015625 C0.36532549 43.13701597 0.36532549 43.13701597 -1 42 C-1 45.96 -1 49.92 -1 54 C-2.32 53.67 -3.64 53.34 -5 53 C-5 36.5 -5 20 -5 3 C-3.35 2.67 -1.7 2.34 0 2 C0 1.34 0 0.68 0 0 Z M-3 6 C-2.01 6.495 -2.01 6.495 -1 7 C-1 7.66 -1 8.32 -1 9 C-1.99 9.495 -1.99 9.495 -3 10 C-2.34 10 -1.68 10 -1 10 C-1 10.66 -1 11.32 -1 12 C-1.99 12.495 -1.99 12.495 -3 13 C-2.34 13 -1.68 13 -1 13 C-1 13.66 -1 14.32 -1 15 C-1.99 15.495 -1.99 15.495 -3 16 C-2.34 16 -1.68 16 -1 16 C-1 16.66 -1 17.32 -1 18 C-1.99 18.495 -1.99 18.495 -3 19 C-2.34 19 -1.68 19 -1 19 C-1 19.66 -1 20.32 -1 21 C-1.99 21.495 -1.99 21.495 -3 22 C-2.34 22 -1.68 22 -1 22 C-1 22.66 -1 23.32 -1 24 C-1.66 24.33 -2.32 24.66 -3 25 C-2.34 25 -1.68 25 -1 25 C-1 25.66 -1 26.32 -1 27 C-1.66 27.33 -2.32 27.66 -3 28 C-2.34 28 -1.68 28 -1 28 C-1 28.66 -1 29.32 -1 30 C-1.66 30.33 -2.32 30.66 -3 31 C-2.34 31 -1.68 31 -1 31 C-1 31.66 -1 32.32 -1 33 C-1.66 33.33 -2.32 33.66 -3 34 C-2.34 34 -1.68 34 -1 34 C-1 34.66 -1 35.32 -1 36 C-1.66 36.33 -2.32 36.66 -3 37 C-2.34 37 -1.68 37 -1 37 C-0.67 37.66 -0.34 38.32 0 39 C0 38.34 0 37.68 0 37 C5.61 37 11.22 37 17 37 C17.33 37.66 17.66 38.32 18 39 C18 38.34 18 37.68 18 37 C18.66 36.67 19.32 36.34 20 36 C19.34 36 18.68 36 18 36 C18 35.34 18 34.68 18 34 C18.99 33.67 19.98 33.34 21 33 C19.68 33 18.36 33 17 33 C17 33.99 17 34.98 17 36 C11.39 36 5.78 36 0 36 C0 35.34 0 34.68 0 34 C4.95 34 9.9 34 15 34 C15 33.67 15 33.34 15 33 C10.05 33 5.1 33 0 33 C0 32.34 0 31.68 0 31 C4.95 31 9.9 31 15 31 C15 30.67 15 30.34 15 30 C10.05 30 5.1 30 0 30 C0 29.34 0 28.68 0 28 C4.95 28 9.9 28 15 28 C15 27.67 15 27.34 15 27 C10.05 27 5.1 27 0 27 C0 26.34 0 25.68 0 25 C4.95 25 9.9 25 15 25 C15 24.67 15 24.34 15 24 C10.05 24 5.1 24 0 24 C0 23.34 0 22.68 0 22 C4.95 22 9.9 22 15 22 C15 21.67 15 21.34 15 21 C10.05 21 5.1 21 0 21 C0 20.34 0 19.68 0 19 C4.95 19 9.9 19 15 19 C15 18.67 15 18.34 15 18 C10.05 18 5.1 18 0 18 C0 17.34 0 16.68 0 16 C4.95 16 9.9 16 15 16 C15 15.67 15 15.34 15 15 C10.05 15 5.1 15 0 15 C0 14.34 0 13.68 0 13 C4.95 13 9.9 13 15 13 C15 12.67 15 12.34 15 12 C10.05 12 5.1 12 0 12 C0 11.34 0 10.68 0 10 C4.95 10 9.9 10 15 10 C15 9.67 15 9.34 15 9 C10.05 9 5.1 9 0 9 C0 8.34 0 7.68 0 7 C5.61 7 11.22 7 17 7 C17 6.67 17 6.34 17 6 C10.4 6 3.8 6 -3 6 Z " fill="#F7A7A2" transform="translate(378,61)"/>
<path d="M0 0 C0.99 0 1.98 0 3 0 C3 1.32 3 2.64 3 4 C15.375 3.505 15.375 3.505 28 3 C27.01 2.34 26.02 1.68 25 1 C29.00435347 0.67965172 31.53537406 0.7822586 35.20336914 2.5012207 C38 5 38 5 38.69702148 8.74291992 C38.70280886 10.23897243 38.67557881 11.73539752 38.62109375 13.23046875 C38.61497574 14.0214949 38.60885773 14.81252106 38.60255432 15.6275177 C38.57564674 18.14881602 38.50649116 20.66703904 38.4375 23.1875 C38.41597431 24.89515099 38.39706404 26.6028371 38.38085938 28.31054688 C38.21190943 40.78809057 38.21190943 40.78809057 37 42 C35.36527118 42.08700342 33.72685945 42.10701063 32.08984375 42.09765625 C31.10048828 42.09443359 30.11113281 42.09121094 29.09179688 42.08789062 C28.05087891 42.07951172 27.00996094 42.07113281 25.9375 42.0625 C24.89271484 42.05798828 23.84792969 42.05347656 22.77148438 42.04882812 C20.1809334 42.03699913 17.59049441 42.02051689 15 42 C15 43.98 15 45.96 15 48 C12.03 48 9.06 48 6 48 C6.020625 47.195625 6.04125 46.39125 6.0625 45.5625 C6.29633621 43.06645115 6.29633621 43.06645115 5 42 C4.67 42.99 4.34 43.98 4 45 C2.68 44.67 1.36 44.34 0 44 C0 29.48 0 14.96 0 0 Z " fill="#F49FA1" transform="translate(418,77)"/>
<path d="M0 0 C2.64 0 5.28 0 8 0 C8 0.66 8 1.32 8 2 C8.90355225 1.99476318 9.80710449 1.98952637 10.73803711 1.98413086 C14.07951489 1.96712314 17.42094692 1.95456667 20.76245117 1.94506836 C22.21070073 1.94002899 23.65894517 1.93319747 25.10717773 1.92456055 C27.18474588 1.91247753 29.26224697 1.90676789 31.33984375 1.90234375 C32.59144287 1.89710693 33.84304199 1.89187012 35.13256836 1.88647461 C38 2 38 2 39 3 C39.12562235 4.76747729 39.17576558 6.54060292 39.1875 8.3125 C39.20167969 9.27800781 39.21585938 10.24351563 39.23046875 11.23828125 C38.99603305 14.04753622 38.29804146 15.55166164 37 18 C37.39397335 20.63804589 37.39397335 20.63804589 38 23 C36.45843445 24.54156555 35.02554236 24.13468494 32.87915039 24.14526367 C32.00476822 24.15164352 31.13038605 24.15802338 30.22950745 24.16459656 C28.8029911 24.16626579 28.8029911 24.16626579 27.34765625 24.16796875 C25.89195473 24.17296135 25.89195473 24.17296135 24.40684509 24.17805481 C22.3497668 24.1831283 20.29268025 24.18546301 18.2355957 24.18530273 C15.07945256 24.18748826 11.92365929 24.20563691 8.76757812 24.22460938 C6.7734387 24.22754333 4.77929761 24.22952811 2.78515625 24.23046875 C1.83616959 24.23765427 0.88718292 24.24483978 -0.09056091 24.25224304 C-0.96809525 24.24916641 -1.84562958 24.24608978 -2.74975586 24.24291992 C-3.5239537 24.24434494 -4.29815155 24.24576996 -5.09580994 24.24723816 C-7 24 -7 24 -9 22 C-9.24291992 20.04467773 -9.24291992 20.04467773 -9.23046875 17.68359375 C-9.22853516 16.83732422 -9.22660156 15.99105469 -9.22460938 15.11914062 C-9.21236328 14.23419922 -9.20011719 13.34925781 -9.1875 12.4375 C-9.18685547 11.54869141 -9.18621094 10.65988281 -9.18554688 9.74414062 C-9.14021097 3.14021097 -9.14021097 3.14021097 -8 2 C-5.32941149 1.85884839 -2.67567762 1.95752893 0 2 C0 1.34 0 0.68 0 0 Z " fill="#F6A7A2" transform="translate(535,87)"/>
<path d="M0 0 C1.63001953 0.02707031 1.63001953 0.02707031 3.29296875 0.0546875 C4.54013672 0.08949219 4.54013672 0.08949219 5.8125 0.125 C5.8125 0.785 5.8125 1.445 5.8125 2.125 C4.8225 2.62 4.8225 2.62 3.8125 3.125 C3.8125 3.785 3.8125 4.445 3.8125 5.125 C0.1825 5.125 -3.4475 5.125 -7.1875 5.125 C-6.15343327 6.38449049 -6.15343327 6.38449049 -3.90234375 6.22265625 C-2.98582031 6.21105469 -2.06929687 6.19945313 -1.125 6.1875 C-0.20589844 6.17847656 0.71320312 6.16945313 1.66015625 6.16015625 C2.37042969 6.14855469 3.08070312 6.13695313 3.8125 6.125 C3.8125 7.775 3.8125 9.425 3.8125 11.125 C0.1825 11.125 -3.4475 11.125 -7.1875 11.125 C-6.15343327 12.38449049 -6.15343327 12.38449049 -3.90234375 12.22265625 C-2.98582031 12.21105469 -2.06929687 12.19945313 -1.125 12.1875 C-0.20589844 12.17847656 0.71320312 12.16945313 1.66015625 12.16015625 C2.37042969 12.14855469 3.08070312 12.13695313 3.8125 12.125 C3.8125 13.775 3.8125 15.425 3.8125 17.125 C0.1825 17.125 -3.4475 17.125 -7.1875 17.125 C-6.15343327 18.38449049 -6.15343327 18.38449049 -3.90234375 18.22265625 C-2.98582031 18.21105469 -2.06929687 18.19945313 -1.125 18.1875 C-0.20589844 18.17847656 0.71320312 18.16945313 1.66015625 18.16015625 C2.37042969 18.14855469 3.08070312 18.13695313 3.8125 18.125 C3.8125 19.775 3.8125 21.425 3.8125 23.125 C0.1825 23.125 -3.4475 23.125 -7.1875 23.125 C-6.15343327 24.38449049 -6.15343327 24.38449049 -3.90234375 24.22265625 C-2.98582031 24.21105469 -2.06929687 24.19945313 -1.125 24.1875 C-0.20589844 24.17847656 0.71320312 24.16945313 1.66015625 24.16015625 C2.37042969 24.14855469 3.08070312 24.13695313 3.8125 24.125 C3.8125 25.775 3.8125 27.425 3.8125 29.125 C0.1825 29.125 -3.4475 29.125 -7.1875 29.125 C-6.15343327 30.38449049 -6.15343327 30.38449049 -3.90234375 30.22265625 C-2.98582031 30.21105469 -2.06929687 30.19945312 -1.125 30.1875 C-0.20589844 30.17847656 0.71320312 30.16945312 1.66015625 30.16015625 C2.37042969 30.14855469 3.08070312 30.13695312 3.8125 30.125 C3.8125 31.775 3.8125 33.425 3.8125 35.125 C0.1825 35.125 -3.4475 35.125 -7.1875 35.125 C-7.5175 36.115 -7.8475 37.105 -8.1875 38.125 C-11.8175 38.125 -15.4475 38.125 -19.1875 38.125 C-19.1875 26.575 -19.1875 15.025 -19.1875 3.125 C-15.8875 2.795 -12.5875 2.465 -9.1875 2.125 C-5.66070901 -0.22619399 -4.15870515 -0.08943452 0 0 Z " fill="#F8ABA3" transform="translate(24.1875,101.875)"/>
<path d="M0 0 C3.96 0 7.92 0 12 0 C12 0.33 12 0.66 12 1 C8.37 1 4.74 1 1 1 C1 1.66 1 2.32 1 3 C4.63 3 8.26 3 12 3 C12 3.33 12 3.66 12 4 C8.37 4 4.74 4 1 4 C1 4.66 1 5.32 1 6 C4.63 6 8.26 6 12 6 C12 6.33 12 6.66 12 7 C8.37 7 4.74 7 1 7 C1 7.66 1 8.32 1 9 C4.63 9 8.26 9 12 9 C12 9.33 12 9.66 12 10 C8.37 10 4.74 10 1 10 C1 10.66 1 11.32 1 12 C5.29 12 9.58 12 14 12 C14 11.01 14 10.02 14 9 C15.32 9 16.64 9 18 9 C18 7.02 18 5.04 18 3 C18.33 3 18.66 3 19 3 C19.02917234 6.87498404 19.04685673 10.74993958 19.0625 14.625 C19.07087891 15.71941406 19.07925781 16.81382813 19.08789062 17.94140625 C19.09272461 19.53662109 19.09272461 19.53662109 19.09765625 21.1640625 C19.10551147 22.62513428 19.10551147 22.62513428 19.11352539 24.11572266 C18.99414506 27.14875321 18.55866724 30.01915268 18 33 C16.68 33 15.36 33 14 33 C14 33.99 14 34.98 14 36 C9.71 36 5.42 36 1 36 C1.03255208 33.94921875 1.06510417 31.8984375 1.09765625 29.84765625 C1.20561184 27.98267859 1.20561184 27.98267859 0 27 C0 28.98 0 30.96 0 33 C-0.99 33 -1.98 33 -3 33 C-3 23.43 -3 13.86 -3 4 C-2.01 3.67 -1.02 3.34 0 3 C0 2.01 0 1.02 0 0 Z " fill="#F39CA1" transform="translate(291,93)"/>
<path d="M0 0 C5.61 0 11.22 0 17 0 C17 13.53 17 27.06 17 41 C12.71 41 8.42 41 4 41 C4 40.34 4 39.68 4 39 C5.98 38.505 5.98 38.505 8 38 C8.77822056 33.8689394 9.1283054 29.96329754 9.1328125 25.76171875 C9.13410156 24.61251953 9.13539062 23.46332031 9.13671875 22.27929688 C9.13285156 21.09400391 9.12898438 19.90871094 9.125 18.6875 C9.12886719 17.48287109 9.13273437 16.27824219 9.13671875 15.03710938 C9.13542969 13.89435547 9.13414063 12.75160156 9.1328125 11.57421875 C9.13168457 10.52838623 9.13055664 9.48255371 9.12939453 8.4050293 C9.27118249 6.04848348 9.27118249 6.04848348 8 5 C8 6.98 8 8.96 8 11 C5.36 11 2.72 11 0 11 C0 7.37 0 3.74 0 0 Z " fill="#F8ABA2" transform="translate(47,103)"/>
<path d="M0 0 C0.66 0.33 1.32 0.66 2 1 C2.24923458 8.93396732 1.70994772 16.2441657 0 24 C-1.32 24 -2.64 24 -4 24 C-4 24.99 -4 25.98 -4 27 C-9.61 27 -15.22 27 -21 27 C-21 21.39 -21 15.78 -21 10 C-12.585 9.505 -12.585 9.505 -4 9 C-4 8.01 -4 7.02 -4 6 C-2.68 6 -1.36 6 0 6 C0 4.02 0 2.04 0 0 Z " fill="#F9AFA3" transform="translate(399,70)"/>
<path d="M0 0 C8.25 0 16.5 0 25 0 C25 3.3 25 6.6 25 10 C16.75 10 8.5 10 0 10 C0 6.7 0 3.4 0 0 Z " fill="#FAB0A3" transform="translate(90,91)"/>
<path d="M0 0 C6.6 0 13.2 0 20 0 C20 0.33 20 0.66 20 1 C14.39 1 8.78 1 3 1 C3 1.66 3 2.32 3 3 C7.95 3 12.9 3 18 3 C18 3.33 18 3.66 18 4 C13.05 4 8.1 4 3 4 C3 4.66 3 5.32 3 6 C7.95 6 12.9 6 18 6 C18 6.33 18 6.66 18 7 C13.05 7 8.1 7 3 7 C3 7.66 3 8.32 3 9 C7.95 9 12.9 9 18 9 C18 9.33 18 9.66 18 10 C13.05 10 8.1 10 3 10 C3 10.66 3 11.32 3 12 C7.95 12 12.9 12 18 12 C18 12.33 18 12.66 18 13 C13.05 13 8.1 13 3 13 C3 13.66 3 14.32 3 15 C7.95 15 12.9 15 18 15 C18 15.33 18 15.66 18 16 C13.05 16 8.1 16 3 16 C3 16.66 3 17.32 3 18 C7.95 18 12.9 18 18 18 C18 18.33 18 18.66 18 19 C13.05 19 8.1 19 3 19 C3 19.66 3 20.32 3 21 C7.95 21 12.9 21 18 21 C18 21.33 18 21.66 18 22 C13.05 22 8.1 22 3 22 C3 22.66 3 23.32 3 24 C7.95 24 12.9 24 18 24 C18 24.33 18 24.66 18 25 C13.05 25 8.1 25 3 25 C3 25.66 3 26.32 3 27 C7.95 27 12.9 27 18 27 C18 27.33 18 27.66 18 28 C13.05 28 8.1 28 3 28 C3 28.66 3 29.32 3 30 C8.61 30 14.22 30 20 30 C20 29.01 20 28.02 20 27 C21.32 27.33 22.64 27.66 24 28 C23.01 28 22.02 28 21 28 C21 28.66 21 29.32 21 30 C21.66 30.33 22.32 30.66 23 31 C22.34 31 21.68 31 21 31 C20.67 31.66 20.34 32.32 20 33 C20 32.34 20 31.68 20 31 C14.39 31 8.78 31 3 31 C2.67 31.66 2.34 32.32 2 33 C2 32.34 2 31.68 2 31 C1.34 30.67 0.68 30.34 0 30 C0.66 30 1.32 30 2 30 C2 29.34 2 28.68 2 28 C1.34 27.67 0.68 27.34 0 27 C0.66 27 1.32 27 2 27 C2 26.34 2 25.68 2 25 C1.34 24.67 0.68 24.34 0 24 C0.66 24 1.32 24 2 24 C2 23.34 2 22.68 2 22 C1.34 21.67 0.68 21.34 0 21 C0.66 21 1.32 21 2 21 C2 20.34 2 19.68 2 19 C1.34 18.67 0.68 18.34 0 18 C0.66 18 1.32 18 2 18 C2 17.34 2 16.68 2 16 C1.34 15.67 0.68 15.34 0 15 C0.66 15 1.32 15 2 15 C2 14.34 2 13.68 2 13 C1.34 12.67 0.68 12.34 0 12 C0.66 12 1.32 12 2 12 C2 11.34 2 10.68 2 10 C1.34 9.67 0.68 9.34 0 9 C0.66 9 1.32 9 2 9 C2 8.34 2 7.68 2 7 C1.34 6.67 0.68 6.34 0 6 C0.66 6 1.32 6 2 6 C2 5.34 2 4.68 2 4 C1.34 3.67 0.68 3.34 0 3 C0.66 3 1.32 3 2 3 C2 2.34 2 1.68 2 1 C1.34 0.67 0.68 0.34 0 0 Z M24 21 C24.99 21.495 24.99 21.495 26 22 C25.67 23.65 25.34 25.3 25 27 C24.67 27 24.34 27 24 27 C24 25.02 24 23.04 24 21 Z M0 33 C2 34 2 34 2 34 Z M18 33 C20 34 20 34 20 34 Z " fill="#EE8DA0" transform="translate(375,67)"/>
<path d="M0 0 C8.25 0 16.5 0 25 0 C25 1.65 25 3.3 25 5 C16.75 5 8.5 5 0 5 C0 3.35 0 1.7 0 0 Z " fill="#FAB0A3" transform="translate(90,138)"/>
<path d="M0 0 C8.25 0 16.5 0 25 0 C25 1.65 25 3.3 25 5 C16.75 5 8.5 5 0 5 C0 3.35 0 1.7 0 0 Z " fill="#FAB0A3" transform="translate(90,132)"/>
<path d="M0 0 C8.25 0 16.5 0 25 0 C25 1.65 25 3.3 25 5 C16.75 5 8.5 5 0 5 C0 3.35 0 1.7 0 0 Z " fill="#FAB0A3" transform="translate(90,126)"/>
<path d="M0 0 C8.25 0 16.5 0 25 0 C25 1.65 25 3.3 25 5 C16.75 5 8.5 5 0 5 C0 3.35 0 1.7 0 0 Z " fill="#FAB0A3" transform="translate(90,120)"/>
<path d="M0 0 C8.25 0 16.5 0 25 0 C25 1.65 25 3.3 25 5 C16.75 5 8.5 5 0 5 C0 3.35 0 1.7 0 0 Z " fill="#FAB0A3" transform="translate(90,114)"/>
<path d="M0 0 C8.25 0 16.5 0 25 0 C25 1.65 25 3.3 25 5 C16.75 5 8.5 5 0 5 C0 3.35 0 1.7 0 0 Z " fill="#FAB0A3" transform="translate(90,108)"/>
<path d="M0 0 C8.25 0 16.5 0 25 0 C25 1.65 25 3.3 25 5 C16.75 5 8.5 5 0 5 C0 3.35 0 1.7 0 0 Z " fill="#FAB0A3" transform="translate(90,102)"/>
<path d="M0 0 C8.25 0 16.5 0 25 0 C25 1.65 25 3.3 25 5 C16.75 5 8.5 5 0 5 C0 3.35 0 1.7 0 0 Z " fill="#FAB0A3" transform="translate(90,85)"/>
<path d="M0 0 C8.25 0 16.5 0 25 0 C25 1.65 25 3.3 25 5 C16.75 5 8.5 5 0 5 C0 3.35 0 1.7 0 0 Z " fill="#FAB0A3" transform="translate(90,79)"/>
<path d="M0 0 C8.25 0 16.5 0 25 0 C25 1.65 25 3.3 25 5 C16.75 5 8.5 5 0 5 C0 3.35 0 1.7 0 0 Z " fill="#FAB0A3" transform="translate(90,73)"/>
<path d="M0 0 C8.25 0 16.5 0 25 0 C25 1.65 25 3.3 25 5 C16.75 5 8.5 5 0 5 C0 3.35 0 1.7 0 0 Z " fill="#FAB0A3" transform="translate(90,67)"/>
<path d="M0 0 C6.93 0 13.86 0 21 0 C21 1.65 21 3.3 21 5 C14.07 5 7.14 5 0 5 C0 3.35 0 1.7 0 0 Z " fill="#F5A0A2" transform="translate(230,148)"/>
<path d="M0 0 C6.93 0 13.86 0 21 0 C21 1.65 21 3.3 21 5 C14.07 5 7.14 5 0 5 C0 3.35 0 1.7 0 0 Z " fill="#F5A0A2" transform="translate(230,142)"/>
<path d="M0 0 C6.93 0 13.86 0 21 0 C21 1.65 21 3.3 21 5 C14.07 5 7.14 5 0 5 C0 3.35 0 1.7 0 0 Z " fill="#FAB1A3" transform="translate(434,120)"/>
<path d="M0 0 C6.93 0 13.86 0 21 0 C21 1.65 21 3.3 21 5 C14.07 5 7.14 5 0 5 C0 3.35 0 1.7 0 0 Z " fill="#F5A0A2" transform="translate(116,114)"/>
<path d="M0 0 C6.93 0 13.86 0 21 0 C21 1.65 21 3.3 21 5 C14.07 5 7.14 5 0 5 C0 3.35 0 1.7 0 0 Z " fill="#FAB1A3" transform="translate(434,108)"/>
<path d="M0 0 C6.93 0 13.86 0 21 0 C21 1.65 21 3.3 21 5 C14.07 5 7.14 5 0 5 C0 3.35 0 1.7 0 0 Z " fill="#F5A0A2" transform="translate(116,108)"/>
<path d="M0 0 C6.93 0 13.86 0 21 0 C21 1.65 21 3.3 21 5 C14.07 5 7.14 5 0 5 C0 3.35 0 1.7 0 0 Z " fill="#FAB1A3" transform="translate(434,102)"/>
<path d="M0 0 C6.93 0 13.86 0 21 0 C21 1.65 21 3.3 21 5 C14.07 5 7.14 5 0 5 C0 3.35 0 1.7 0 0 Z " fill="#F5A0A2" transform="translate(116,102)"/>
<path d="M0 0 C6.93 0 13.86 0 21 0 C21 1.65 21 3.3 21 5 C14.07 5 7.14 5 0 5 C0 3.35 0 1.7 0 0 Z " fill="#FAB1A3" transform="translate(434,96)"/>
<path d="M0 0 C6.93 0 13.86 0 21 0 C21 1.65 21 3.3 21 5 C14.07 5 7.14 5 0 5 C0 3.35 0 1.7 0 0 Z " fill="#FAB1A3" transform="translate(434,90)"/>
<path d="M0 0 C6.93 0 13.86 0 21 0 C21 1.65 21 3.3 21 5 C14.07 5 7.14 5 0 5 C0 3.35 0 1.7 0 0 Z " fill="#FAB1A3" transform="translate(434,84)"/>
<path d="M0 0 C6.93 0 13.86 0 21 0 C21 1.65 21 3.3 21 5 C14.07 5 7.14 5 0 5 C0 3.35 0 1.7 0 0 Z " fill="#F5A0A2" transform="translate(116,79)"/>
<path d="M0 0 C6.93 0 13.86 0 21 0 C21 1.65 21 3.3 21 5 C14.07 5 7.14 5 0 5 C0 3.35 0 1.7 0 0 Z " fill="#F5A0A2" transform="translate(116,73)"/>
<path d="M0 0 C6.93 0 13.86 0 21 0 C21 1.65 21 3.3 21 5 C14.07 5 7.14 5 0 5 C0 3.35 0 1.7 0 0 Z " fill="#F5A0A2" transform="translate(116,67)"/>
<path d="M0 0 C3.96 0 7.92 0 12 0 C12 0.33 12 0.66 12 1 C8.37 1 4.74 1 1 1 C1 1.66 1 2.32 1 3 C4.63 3 8.26 3 12 3 C12 3.33 12 3.66 12 4 C8.37 4 4.74 4 1 4 C1 4.66 1 5.32 1 6 C4.63 6 8.26 6 12 6 C12 6.33 12 6.66 12 7 C8.37 7 4.74 7 1 7 C1 7.66 1 8.32 1 9 C4.63 9 8.26 9 12 9 C12 9.33 12 9.66 12 10 C8.37 10 4.74 10 1 10 C0.67 11.65 0.34 13.3 0 15 C-0.99 15 -1.98 15 -3 15 C-3 11.37 -3 7.74 -3 4 C-2.01 3.67 -1.02 3.34 0 3 C0 2.01 0 1.02 0 0 Z " fill="#F093A0" transform="translate(291,93)"/>
<path d="" fill="#EE8DA0" transform="translate(0,0)"/>
</svg>
