<?xml version="1.0" encoding="UTF-8"?>
<svg version="1.1" xmlns="http://www.w3.org/2000/svg" width="576" height="324">
<path d="M0 0 C4.62 0 9.24 0 14 0 C14 0.99 14 1.98 14 3 C15.93818604 3.029729 15.93818604 3.029729 17.91552734 3.06005859 C22.69779345 3.13598368 27.47975005 3.22472078 32.26171875 3.31738281 C34.33359681 3.35572685 36.40554269 3.39057005 38.47753906 3.421875 C41.45141887 3.46740809 44.42482962 3.52542118 47.3984375 3.5859375 C48.32868744 3.59748871 49.25893738 3.60903992 50.21737671 3.62094116 C51.50848862 3.6507457 51.50848862 3.6507457 52.82568359 3.68115234 C53.58513275 3.69447601 54.34458191 3.70779968 55.12704468 3.7215271 C57 4 57 4 59 6 C59.33352474 8.63293035 59.53925699 11.16001643 59.65234375 13.8046875 C59.69101059 14.60035126 59.72967743 15.39601501 59.76951599 16.21578979 C60.1716905 25.85921102 59.87111244 35.48327903 59.5625 45.125 C59.50907493 46.97003221 59.45633736 48.81508446 59.40429688 50.66015625 C59.27741421 55.10704059 59.14137583 59.55355382 59 64 C60.10472656 63.82597656 61.20945312 63.65195313 62.34765625 63.47265625 C65.4726651 63.06824334 67.11724113 62.96220681 70 64 C69.98839844 63.36191406 69.97679687 62.72382813 69.96484375 62.06640625 C69.95130859 60.82697266 69.95130859 60.82697266 69.9375 59.5625 C69.92589844 58.73878906 69.91429687 57.91507813 69.90234375 57.06640625 C70 55 70 55 71 54 C73.86267567 53.92674832 76.700719 53.90761795 79.5625 53.9375 C80.36880859 53.94201172 81.17511719 53.94652344 82.00585938 53.95117188 C84.00393756 53.96299482 86.00197783 53.98093086 88 54 C87.99214478 52.41747437 87.99214478 52.41747437 87.98413086 50.80297852 C87.96608099 46.9024337 87.95456805 43.0018926 87.94506836 39.10131836 C87.9400281 37.41055684 87.93319595 35.71979971 87.92456055 34.02905273 C87.91248143 31.60399293 87.90676877 29.17899056 87.90234375 26.75390625 C87.89718246 25.99348526 87.89202118 25.23306427 87.88670349 24.44960022 C87.88650762 22.6326743 87.93802723 20.81586873 88 19 C89.64225717 17.35774283 91.57763842 17.81380417 93.83984375 17.75390625 C94.82017578 17.72103516 95.80050781 17.68816406 96.81054688 17.65429688 C98.89116828 17.5932168 100.97190397 17.53591031 103.05273438 17.48242188 C104.52516602 17.43118164 104.52516602 17.43118164 106.02734375 17.37890625 C106.93218506 17.3538501 107.83702637 17.32879395 108.76928711 17.30297852 C111.20180987 17.2018615 111.20180987 17.2018615 113 15 C115.0234375 14.6640625 115.0234375 14.6640625 117.375 14.625 C118.14585937 14.59664062 118.91671875 14.56828125 119.7109375 14.5390625 C123.06968885 15.2153981 123.98386966 16.20211552 126 19 C126.56573935 22.41221604 126.46454276 25.78403821 126.390625 29.234375 C126.38496521 30.22753723 126.37930542 31.22069946 126.37347412 32.24395752 C126.35110026 35.41313059 126.30090106 38.5811692 126.25 41.75 C126.22993635 43.89972324 126.21168534 46.04946423 126.1953125 48.19921875 C126.15123239 53.46653229 126.08431033 58.73318509 126 64 C126.96412308 63.89403 126.96412308 63.89403 127.94772339 63.78591919 C132.92045904 63.26020737 137.81450886 62.8724655 142.8203125 62.8671875 C144.01527344 62.86589844 145.21023438 62.86460937 146.44140625 62.86328125 C147.65699219 62.86714844 148.87257813 62.87101562 150.125 62.875 C151.34832031 62.87113281 152.57164062 62.86726563 153.83203125 62.86328125 C155.02441406 62.86457031 156.21679688 62.86585938 157.4453125 62.8671875 C158.51281738 62.86831543 159.58032227 62.86944336 160.68017578 62.87060547 C164.50763425 63.01978572 168.20575987 63.48037538 172 64 C171.96970703 62.80511963 171.93941406 61.61023926 171.90820312 60.37915039 C171.79524826 55.91189337 171.68378508 51.44460013 171.57275391 46.97729492 C171.52465324 45.05020151 171.47615741 43.12311793 171.42724609 41.19604492 C171.35668683 38.41327411 171.28758677 35.63047014 171.21875 32.84765625 C171.18593933 31.57209618 171.18593933 31.57209618 171.15246582 30.27076721 C171.11251817 28.63426979 171.07839069 26.99761829 171.05053711 25.36087036 C171.01728253 23.80736341 170.96140423 22.25414861 170.88110352 20.70236206 C170.65099022 14.39447519 171.8211358 11.5365926 174 5 C193.8 5 213.6 5 234 5 C235.84933184 9.6233296 236.42651162 13.16326411 236.63256836 18.01318359 C236.67059791 18.79977545 236.70862745 19.5863673 236.74780941 20.39679527 C237.15423099 29.86169754 237.02101504 39.31963593 236.87890625 48.7890625 C236.85452337 50.71389102 236.83068437 52.6387265 236.80735779 54.56356812 C236.74532737 59.56441339 236.67604337 64.56513119 236.60510254 69.56585693 C236.53367411 74.69488858 236.46930734 79.8240087 236.40429688 84.953125 C236.27633366 94.96884729 236.14068593 104.98444889 236 115 C238.97 115 241.94 115 245 115 C244.67 93.55 244.34 72.1 244 50 C266.11 50 288.22 50 311 50 C311 52.31 311 54.62 311 57 C311.66 57 312.32 57 313 57 C313 56.34 313 55.68 313 55 C317.29 55 321.58 55 326 55 C326 55.66 326 56.32 326 57 C331.94 57 337.88 57 344 57 C344 119.04 344 181.08 344 245 C153.92 245 -36.16 245 -232 245 C-232 187.58 -232 130.16 -232 71 C-231.34 71 -230.68 71 -230 71 C-230 69.68 -230 68.36 -230 67 C-230.66 67 -231.32 67 -232 67 C-232 66.34 -232 65.68 -232 65 C-231.34 65 -230.68 65 -230 65 C-230 63.68 -230 62.36 -230 61 C-230.66 61 -231.32 61 -232 61 C-232 59.68 -232 58.36 -232 57 C-224.08 57 -216.16 57 -208 57 C-208 54.69 -208 52.38 -208 50 C-207.34 50 -206.68 50 -206 50 C-205.97494385 49.39937744 -205.9498877 48.79875488 -205.92407227 48.17993164 C-205.8084472 45.47388563 -205.68557064 42.76821717 -205.5625 40.0625 C-205.52318359 39.11697266 -205.48386719 38.17144531 -205.44335938 37.19726562 C-205.40146484 36.29814453 -205.35957031 35.39902344 -205.31640625 34.47265625 C-205.27974854 33.64000244 -205.24309082 32.80734863 -205.20532227 31.94946289 C-205 30 -205 30 -204 29 C-201.54094779 28.8996812 -199.10996572 28.8638182 -196.65039062 28.87060547 C-195.88131882 28.86885315 -195.11224701 28.86710083 -194.31987 28.86529541 C-191.76530737 28.8608766 -189.21081339 28.86381498 -186.65625 28.8671875 C-184.88887519 28.86651447 -183.12150047 28.86554445 -181.35412598 28.86428833 C-177.64509197 28.86281132 -173.936082 28.86496602 -170.22705078 28.86962891 C-165.46177507 28.8753262 -160.69655568 28.87204721 -155.93128204 28.86605644 C-152.28028943 28.86245092 -148.62931027 28.86358938 -144.97831726 28.86618423 C-143.22075901 28.86685353 -141.46319955 28.866025 -139.7056427 28.86370468 C-137.25359846 28.86117829 -134.80164669 28.86501854 -132.34960938 28.87060547 C-131.61606735 28.86858124 -130.88252533 28.86655701 -130.12675476 28.86447144 C-125.11426264 28.88573736 -125.11426264 28.88573736 -124 30 C-123.90570658 32.17805719 -123.88257462 34.3592128 -123.88647461 36.53930664 C-123.88632858 37.22220261 -123.88618256 37.90509857 -123.8860321 38.60868835 C-123.88673124 40.87587614 -123.8945236 43.14298274 -123.90234375 45.41015625 C-123.90420793 46.97814387 -123.90563183 48.54613207 -123.90663147 50.11412048 C-123.91045666 54.24876503 -123.92028694 58.38337466 -123.93133545 62.51800537 C-123.94154956 66.73400398 -123.94612909 70.95000822 -123.95117188 75.16601562 C-123.96190921 83.44402647 -123.97898564 91.7220089 -124 100 C-122.02 100 -120.04 100 -118 100 C-118.03029297 98.80511963 -118.06058594 97.61023926 -118.09179688 96.37915039 C-118.20475174 91.91189337 -118.31621492 87.44460013 -118.42724609 82.97729492 C-118.47534676 81.05020151 -118.52384259 79.12311793 -118.57275391 77.19604492 C-118.64331317 74.41327411 -118.71241323 71.63047014 -118.78125 68.84765625 C-118.80312378 67.99728287 -118.82499756 67.14690948 -118.84753418 66.27076721 C-118.88748183 64.63426979 -118.92160931 62.99761829 -118.94946289 61.36087036 C-118.98271747 59.80736341 -119.03859577 58.25414861 -119.11889648 56.70236206 C-119.34900978 50.39447519 -118.1788642 47.5365926 -116 41 C-96.2 41 -76.4 41 -56 41 C-53.74873453 46.62816367 -53.74873453 46.62816367 -53.5859375 50.00390625 C-53.54710449 50.73923584 -53.50827148 51.47456543 -53.46826172 52.23217773 C-53.43748535 53.00118408 -53.40670898 53.77019043 -53.375 54.5625 C-53.33777832 55.35664307 -53.30055664 56.15078613 -53.26220703 56.96899414 C-52.49351903 74.48055708 -52.49351903 74.48055708 -54 79 C-49.05 79 -44.1 79 -39 79 C-39.0721875 77.19015625 -39.144375 75.3803125 -39.21875 73.515625 C-39.31262094 71.09375468 -39.40636412 68.67187941 -39.5 66.25 C-39.57154297 64.46916016 -39.57154297 64.46916016 -39.64453125 62.65234375 C-40.51261908 39.95804775 -40.51261908 39.95804775 -39 33 C-36.13454405 30.13454405 -34.03185244 30.68370372 -30.0234375 30.5859375 C-29.33819 30.56657135 -28.6529425 30.5472052 -27.94692993 30.5272522 C-25.75641356 30.46743169 -23.5658447 30.42106244 -21.375 30.375 C-19.89060198 30.33682237 -18.40622616 30.29777076 -16.921875 30.2578125 C-13.28145315 30.16172916 -9.64086564 30.07770718 -6 30 C-6.01047363 29.42032471 -6.02094727 28.84064941 -6.03173828 28.2434082 C-6.07348615 25.59981679 -6.09938538 22.95629495 -6.125 20.3125 C-6.14175781 19.40048828 -6.15851563 18.48847656 -6.17578125 17.54882812 C-6.2390014 8.85605796 -6.2390014 8.85605796 -4 5 C-1.875 3.6875 -1.875 3.6875 0 3 C0 2.01 0 1.02 0 0 Z M2 3 C2 3.33 2 3.66 2 4 C4.97 4 7.94 4 11 4 C11 3.67 11 3.34 11 3 C8.03 3 5.06 3 2 3 Z M175 6 C176 8 176 8 176 8 Z M177 6 C178 8 178 8 178 8 Z M189 6 C190 8 190 8 190 8 Z M191 6 C192 8 192 8 192 8 Z M193 6 C194 8 194 8 194 8 Z M195 6 C196 8 196 8 196 8 Z M197 6 C198 8 198 8 198 8 Z M199 6 C200 8 200 8 200 8 Z M201 6 C202 8 202 8 202 8 Z M203 6 C204 8 204 8 204 8 Z M205 6 C205 6.66 205 7.32 205 8 C205.66 8 206.32 8 207 8 C207 7.34 207 6.68 207 6 C206.34 6 205.68 6 205 6 Z M208 6 C209 8 209 8 209 8 Z M210 6 C211 8 211 8 211 8 Z M212 6 C213 8 213 8 213 8 Z M214 6 C215 8 215 8 215 8 Z M216 6 C217 8 217 8 217 8 Z M218 6 C219 8 219 8 219 8 Z M220 6 C221 8 221 8 221 8 Z M222 6 C223 8 223 8 223 8 Z M224 6 C225 8 225 8 225 8 Z M226 6 C227 8 227 8 227 8 Z M228 6 C229 8 229 8 229 8 Z M230 6 C231 8 231 8 231 8 Z M232 6 C233 8 233 8 233 8 Z M-3 8 C-3 9.32 -3 10.64 -3 12 C-2.34 12 -1.68 12 -1 12 C-1 10.68 -1 9.36 -1 8 C-1.66 8 -2.32 8 -3 8 Z M0 8 C0 9.32 0 10.64 0 12 C0.66 12 1.32 12 2 12 C2 10.68 2 9.36 2 8 C1.34 8 0.68 8 0 8 Z M4 8 C4 9.32 4 10.64 4 12 C4.66 12 5.32 12 6 12 C6 10.68 6 9.36 6 8 C5.34 8 4.68 8 4 8 Z M7 8 C7 9.32 7 10.64 7 12 C7.66 12 8.32 12 9 12 C9 10.68 9 9.36 9 8 C8.34 8 7.68 8 7 8 Z M11 8 C11 9.32 11 10.64 11 12 C11.66 12 12.32 12 13 12 C13 10.68 13 9.36 13 8 C12.34 8 11.68 8 11 8 Z M14 8 C14 9.32 14 10.64 14 12 C14.66 12 15.32 12 16 12 C16 10.68 16 9.36 16 8 C15.34 8 14.68 8 14 8 Z M18 8 C18 9.32 18 10.64 18 12 C18.66 12 19.32 12 20 12 C20 10.68 20 9.36 20 8 C19.34 8 18.68 8 18 8 Z M21 8 C21 9.32 21 10.64 21 12 C21.66 12 22.32 12 23 12 C23 10.68 23 9.36 23 8 C22.34 8 21.68 8 21 8 Z M25 8 C25 9.32 25 10.64 25 12 C25.66 12 26.32 12 27 12 C27 10.68 27 9.36 27 8 C26.34 8 25.68 8 25 8 Z M30 8 C30 9.32 30 10.64 30 12 C30.66 12 31.32 12 32 12 C32 10.68 32 9.36 32 8 C31.34 8 30.68 8 30 8 Z M33 8 C33 9.32 33 10.64 33 12 C33.66 12 34.32 12 35 12 C35 10.68 35 9.36 35 8 C34.34 8 33.68 8 33 8 Z M36 8 C36 9.32 36 10.64 36 12 C36.66 12 37.32 12 38 12 C38 10.68 38 9.36 38 8 C37.34 8 36.68 8 36 8 Z M42 8 C42 9.32 42 10.64 42 12 C42.66 12 43.32 12 44 12 C44 10.68 44 9.36 44 8 C43.34 8 42.68 8 42 8 Z M45 8 C45 9.32 45 10.64 45 12 C45.66 12 46.32 12 47 12 C47 10.68 47 9.36 47 8 C46.34 8 45.68 8 45 8 Z M48 8 C48 9.32 48 10.64 48 12 C48.66 12 49.32 12 50 12 C50 10.68 50 9.36 50 8 C49.34 8 48.68 8 48 8 Z M51 8 C51 9.32 51 10.64 51 12 C51.66 12 52.32 12 53 12 C53 10.68 53 9.36 53 8 C52.34 8 51.68 8 51 8 Z M174 12 C174 13.32 174 14.64 174 16 C174.66 16 175.32 16 176 16 C176 14.68 176 13.36 176 12 C175.34 12 174.68 12 174 12 Z M177 12 C177 13.32 177 14.64 177 16 C177.66 16 178.32 16 179 16 C179 14.68 179 13.36 179 12 C178.34 12 177.68 12 177 12 Z M181 12 C181 13.32 181 14.64 181 16 C181.66 16 182.32 16 183 16 C183 14.68 183 13.36 183 12 C182.34 12 181.68 12 181 12 Z M184 12 C184 13.32 184 14.64 184 16 C184.66 16 185.32 16 186 16 C186 14.68 186 13.36 186 12 C185.34 12 184.68 12 184 12 Z M188 12 C188 13.32 188 14.64 188 16 C188.66 16 189.32 16 190 16 C190 14.68 190 13.36 190 12 C189.34 12 188.68 12 188 12 Z M191 12 C191 13.32 191 14.64 191 16 C191.66 16 192.32 16 193 16 C193 14.68 193 13.36 193 12 C192.34 12 191.68 12 191 12 Z M195 12 C195 13.32 195 14.64 195 16 C195.66 16 196.32 16 197 16 C197 14.68 197 13.36 197 12 C196.34 12 195.68 12 195 12 Z M198 12 C198 13.32 198 14.64 198 16 C198.66 16 199.32 16 200 16 C200 14.68 200 13.36 200 12 C199.34 12 198.68 12 198 12 Z M202 12 C202 13.32 202 14.64 202 16 C202.66 16 203.32 16 204 16 C204 14.68 204 13.36 204 12 C203.34 12 202.68 12 202 12 Z M207 12 C207 13.32 207 14.64 207 16 C207.66 16 208.32 16 209 16 C209 14.68 209 13.36 209 12 C208.34 12 207.68 12 207 12 Z M210 12 C210 13.32 210 14.64 210 16 C210.66 16 211.32 16 212 16 C212 14.68 212 13.36 212 12 C211.34 12 210.68 12 210 12 Z M213 12 C213 13.32 213 14.64 213 16 C213.66 16 214.32 16 215 16 C215 14.68 215 13.36 215 12 C214.34 12 213.68 12 213 12 Z M216 12 C216 13.32 216 14.64 216 16 C216.66 16 217.32 16 218 16 C218 14.68 218 13.36 218 12 C217.34 12 216.68 12 216 12 Z M-3 14 C-3 15.32 -3 16.64 -3 18 C-2.34 18 -1.68 18 -1 18 C-1 16.68 -1 15.36 -1 14 C-1.66 14 -2.32 14 -3 14 Z M0 14 C0 15.32 0 16.64 0 18 C0.66 18 1.32 18 2 18 C2 16.68 2 15.36 2 14 C1.34 14 0.68 14 0 14 Z M4 14 C4 15.32 4 16.64 4 18 C4.66 18 5.32 18 6 18 C6 16.68 6 15.36 6 14 C5.34 14 4.68 14 4 14 Z M7 14 C7 15.32 7 16.64 7 18 C7.66 18 8.32 18 9 18 C9 16.68 9 15.36 9 14 C8.34 14 7.68 14 7 14 Z M11 14 C11 15.32 11 16.64 11 18 C11.66 18 12.32 18 13 18 C13 16.68 13 15.36 13 14 C12.34 14 11.68 14 11 14 Z M14 14 C14 15.32 14 16.64 14 18 C14.66 18 15.32 18 16 18 C16 16.68 16 15.36 16 14 C15.34 14 14.68 14 14 14 Z M18 14 C18 15.32 18 16.64 18 18 C18.66 18 19.32 18 20 18 C20 16.68 20 15.36 20 14 C19.34 14 18.68 14 18 14 Z M36 14 C36 15.32 36 16.64 36 18 C36.66 18 37.32 18 38 18 C38 16.68 38 15.36 38 14 C37.34 14 36.68 14 36 14 Z M39 14 C39 15.32 39 16.64 39 18 C39.66 18 40.32 18 41 18 C41 16.68 41 15.36 41 14 C40.34 14 39.68 14 39 14 Z M45 14 C45 15.32 45 16.64 45 18 C45.66 18 46.32 18 47 18 C47 16.68 47 15.36 47 14 C46.34 14 45.68 14 45 14 Z M48 14 C48 15.32 48 16.64 48 18 C48.66 18 49.32 18 50 18 C50 16.68 50 15.36 50 14 C49.34 14 48.68 14 48 14 Z M174 18 C174 19.32 174 20.64 174 22 C174.66 22 175.32 22 176 22 C176 20.68 176 19.36 176 18 C175.34 18 174.68 18 174 18 Z M177 18 C177 19.32 177 20.64 177 22 C177.66 22 178.32 22 179 22 C179 20.68 179 19.36 179 18 C178.34 18 177.68 18 177 18 Z M181 18 C181 19.32 181 20.64 181 22 C181.66 22 182.32 22 183 22 C183 20.68 183 19.36 183 18 C182.34 18 181.68 18 181 18 Z M184 18 C184 19.32 184 20.64 184 22 C184.66 22 185.32 22 186 22 C186 20.68 186 19.36 186 18 C185.34 18 184.68 18 184 18 Z M188 18 C188 19.32 188 20.64 188 22 C188.66 22 189.32 22 190 22 C190 20.68 190 19.36 190 18 C189.34 18 188.68 18 188 18 Z M191 18 C191 19.32 191 20.64 191 22 C191.66 22 192.32 22 193 22 C193 20.68 193 19.36 193 18 C192.34 18 191.68 18 191 18 Z M195 18 C195 19.32 195 20.64 195 22 C195.66 22 196.32 22 197 22 C197 20.68 197 19.36 197 18 C196.34 18 195.68 18 195 18 Z M198 18 C198 19.32 198 20.64 198 22 C198.66 22 199.32 22 200 22 C200 20.68 200 19.36 200 18 C199.34 18 198.68 18 198 18 Z M202 18 C202 19.32 202 20.64 202 22 C202.66 22 203.32 22 204 22 C204 20.68 204 19.36 204 18 C203.34 18 202.68 18 202 18 Z M207 18 C207 19.32 207 20.64 207 22 C207.66 22 208.32 22 209 22 C209 20.68 209 19.36 209 18 C208.34 18 207.68 18 207 18 Z M210 18 C210 19.32 210 20.64 210 22 C210.66 22 211.32 22 212 22 C212 20.68 212 19.36 212 18 C211.34 18 210.68 18 210 18 Z M213 18 C213 19.32 213 20.64 213 22 C213.66 22 214.32 22 215 22 C215 20.68 215 19.36 215 18 C214.34 18 213.68 18 213 18 Z M216 18 C216 19.32 216 20.64 216 22 C216.66 22 217.32 22 218 22 C218 20.68 218 19.36 218 18 C217.34 18 216.68 18 216 18 Z M18 20 C18 21.32 18 22.64 18 24 C18.66 24 19.32 24 20 24 C20 22.68 20 21.36 20 20 C19.34 20 18.68 20 18 20 Z M21 20 C21 21.32 21 22.64 21 24 C21.66 24 22.32 24 23 24 C23 22.68 23 21.36 23 20 C22.34 20 21.68 20 21 20 Z M25 20 C25 21.32 25 22.64 25 24 C25.66 24 26.32 24 27 24 C27 22.68 27 21.36 27 20 C26.34 20 25.68 20 25 20 Z M33 20 C33 21.32 33 22.64 33 24 C33.66 24 34.32 24 35 24 C35 22.68 35 21.36 35 20 C34.34 20 33.68 20 33 20 Z M36 20 C36 21.32 36 22.64 36 24 C36.66 24 37.32 24 38 24 C38 22.68 38 21.36 38 20 C37.34 20 36.68 20 36 20 Z M48 20 C48 21.32 48 22.64 48 24 C48.66 24 49.32 24 50 24 C50 22.68 50 21.36 50 20 C49.34 20 48.68 20 48 20 Z M90 22 C90 23.32 90 24.64 90 26 C90.66 26 91.32 26 92 26 C92 24.68 92 23.36 92 22 C91.34 22 90.68 22 90 22 Z M93 22 C93 23.32 93 24.64 93 26 C93.66 26 94.32 26 95 26 C95 24.68 95 23.36 95 22 C94.34 22 93.68 22 93 22 Z M98 22 C98 23.32 98 24.64 98 26 C98.66 26 99.32 26 100 26 C100 24.68 100 23.36 100 22 C99.34 22 98.68 22 98 22 Z M101 22 C101 23.32 101 24.64 101 26 C101.66 26 102.32 26 103 26 C103 24.68 103 23.36 103 22 C102.34 22 101.68 22 101 22 Z M174 24 C174 25.32 174 26.64 174 28 C174.66 28 175.32 28 176 28 C176 26.68 176 25.36 176 24 C175.34 24 174.68 24 174 24 Z M177 24 C177 25.32 177 26.64 177 28 C177.66 28 178.32 28 179 28 C179 26.68 179 25.36 179 24 C178.34 24 177.68 24 177 24 Z M198 24 C198 25.32 198 26.64 198 28 C198.66 28 199.32 28 200 28 C200 26.68 200 25.36 200 24 C199.34 24 198.68 24 198 24 Z M202 24 C202 25.32 202 26.64 202 28 C202.66 28 203.32 28 204 28 C204 26.68 204 25.36 204 24 C203.34 24 202.68 24 202 24 Z M207 24 C207 25.32 207 26.64 207 28 C207.66 28 208.32 28 209 28 C209 26.68 209 25.36 209 24 C208.34 24 207.68 24 207 24 Z M90 28 C90 29.32 90 30.64 90 32 C90.66 32 91.32 32 92 32 C92 30.68 92 29.36 92 28 C91.34 28 90.68 28 90 28 Z M93 28 C93 29.32 93 30.64 93 32 C93.66 32 94.32 32 95 32 C95 30.68 95 29.36 95 28 C94.34 28 93.68 28 93 28 Z M98 28 C98 29.32 98 30.64 98 32 C98.66 32 99.32 32 100 32 C100 30.68 100 29.36 100 28 C99.34 28 98.68 28 98 28 Z M101 28 C101 29.32 101 30.64 101 32 C101.66 32 102.32 32 103 32 C103 30.68 103 29.36 103 28 C102.34 28 101.68 28 101 28 Z M174 30 C174 31.32 174 32.64 174 34 C174.66 34 175.32 34 176 34 C176 32.68 176 31.36 176 30 C175.34 30 174.68 30 174 30 Z M202 30 C202 31.32 202 32.64 202 34 C202.66 34 203.32 34 204 34 C204 32.68 204 31.36 204 30 C203.34 30 202.68 30 202 30 Z M-198 31 C-198 31.33 -198 31.66 -198 32 C-193.71 32 -189.42 32 -185 32 C-185 31.67 -185 31.34 -185 31 C-189.29 31 -193.58 31 -198 31 Z M-178 31 C-178 31.33 -178 31.66 -178 32 C-171.73 32 -165.46 32 -159 32 C-159 31.67 -159 31.34 -159 31 C-165.27 31 -171.54 31 -178 31 Z M-147 31 C-147 31.33 -147 31.66 -147 32 C-142.05 32 -137.1 32 -132 32 C-132 31.67 -132 31.34 -132 31 C-136.95 31 -141.9 31 -147 31 Z M-130 31 C-126 32 -126 32 -126 32 Z M-34 32 C-33 34 -33 34 -33 34 Z M-20 32 C-19 34 -19 34 -19 34 Z M-18 32 C-17 34 -17 34 -17 34 Z M-16 32 C-15 34 -15 34 -15 34 Z M-14 32 C-13 34 -13 34 -13 34 Z M-12 32 C-11 34 -11 34 -11 34 Z M-10 32 C-9 34 -9 34 -9 34 Z M-6 32 C-5 34 -5 34 -5 34 Z M90 34 C90 35.32 90 36.64 90 38 C90.66 38 91.32 38 92 38 C92 36.68 92 35.36 92 34 C91.34 34 90.68 34 90 34 Z M93 34 C93 35.32 93 36.64 93 38 C93.66 38 94.32 38 95 38 C95 36.68 95 35.36 95 34 C94.34 34 93.68 34 93 34 Z M98 34 C98 35.32 98 36.64 98 38 C98.66 38 99.32 38 100 38 C100 36.68 100 35.36 100 34 C99.34 34 98.68 34 98 34 Z M101 34 C101 35.32 101 36.64 101 38 C101.66 38 102.32 38 103 38 C103 36.68 103 35.36 103 34 C102.34 34 101.68 34 101 34 Z M-203 36 C-203 36.66 -203 37.32 -203 38 C-201.35 38 -199.7 38 -198 38 C-198 37.34 -198 36.68 -198 36 C-199.65 36 -201.3 36 -203 36 Z M-189 36 C-189 36.66 -189 37.32 -189 38 C-187.35 38 -185.7 38 -184 38 C-184 37.34 -184 36.68 -184 36 C-185.65 36 -187.3 36 -189 36 Z M-182 36 C-182 36.66 -182 37.32 -182 38 C-180.35 38 -178.7 38 -177 38 C-177 37.34 -177 36.68 -177 36 C-178.65 36 -180.3 36 -182 36 Z M-174 36 C-174 36.66 -174 37.32 -174 38 C-172.35 38 -170.7 38 -169 38 C-169 37.34 -169 36.68 -169 36 C-170.65 36 -172.3 36 -174 36 Z M-167 36 C-167 36.66 -167 37.32 -167 38 C-165.35 38 -163.7 38 -162 38 C-162 37.34 -162 36.68 -162 36 C-163.65 36 -165.3 36 -167 36 Z M-160 36 C-160 36.66 -160 37.32 -160 38 C-158.35 38 -156.7 38 -155 38 C-155 37.34 -155 36.68 -155 36 C-156.65 36 -158.3 36 -160 36 Z M-203 40 C-203 40.66 -203 41.32 -203 42 C-201.35 42 -199.7 42 -198 42 C-198 41.34 -198 40.68 -198 40 C-199.65 40 -201.3 40 -203 40 Z M-196 40 C-196 40.66 -196 41.32 -196 42 C-194.35 42 -192.7 42 -191 42 C-191 41.34 -191 40.68 -191 40 C-192.65 40 -194.3 40 -196 40 Z M-189 40 C-189 40.66 -189 41.32 -189 42 C-187.35 42 -185.7 42 -184 42 C-184 41.34 -184 40.68 -184 40 C-185.65 40 -187.3 40 -189 40 Z M-182 40 C-182 40.66 -182 41.32 -182 42 C-180.35 42 -178.7 42 -177 42 C-177 41.34 -177 40.68 -177 40 C-178.65 40 -180.3 40 -182 40 Z M-174 40 C-174 40.66 -174 41.32 -174 42 C-172.35 42 -170.7 42 -169 42 C-169 41.34 -169 40.68 -169 40 C-170.65 40 -172.3 40 -174 40 Z M-167 40 C-167 40.66 -167 41.32 -167 42 C-165.35 42 -163.7 42 -162 42 C-162 41.34 -162 40.68 -162 40 C-163.65 40 -165.3 40 -167 40 Z M-160 40 C-160 40.66 -160 41.32 -160 42 C-158.35 42 -156.7 42 -155 42 C-155 41.34 -155 40.68 -155 40 C-156.65 40 -158.3 40 -160 40 Z M-151 40 C-151 40.66 -151 41.32 -151 42 C-150.01 42 -149.02 42 -148 42 C-148 41.34 -148 40.68 -148 40 C-148.99 40 -149.98 40 -151 40 Z M-147 40 C-147 40.66 -147 41.32 -147 42 C-146.01 42 -145.02 42 -144 42 C-144 41.34 -144 40.68 -144 40 C-144.99 40 -145.98 40 -147 40 Z M-37 40 C-37 40.66 -37 41.32 -37 42 C-36.34 42 -35.68 42 -35 42 C-35 41.34 -35 40.68 -35 40 C-35.66 40 -36.32 40 -37 40 Z M-34 40 C-34 40.66 -34 41.32 -34 42 C-33.34 42 -32.68 42 -32 42 C-32 41.34 -32 40.68 -32 40 C-32.66 40 -33.32 40 -34 40 Z M-27 40 C-27 40.66 -27 41.32 -27 42 C-26.34 42 -25.68 42 -25 42 C-25 41.34 -25 40.68 -25 40 C-25.66 40 -26.32 40 -27 40 Z M-23 40 C-23 40.66 -23 41.32 -23 42 C-22.34 42 -21.68 42 -21 42 C-21 41.34 -21 40.68 -21 40 C-21.66 40 -22.32 40 -23 40 Z M-20 40 C-20 40.66 -20 41.32 -20 42 C-19.34 42 -18.68 42 -18 42 C-18 41.34 -18 40.68 -18 40 C-18.66 40 -19.32 40 -20 40 Z M-16 40 C-16 40.66 -16 41.32 -16 42 C-15.34 42 -14.68 42 -14 42 C-14 41.34 -14 40.68 -14 40 C-14.66 40 -15.32 40 -16 40 Z M-13 40 C-13 40.66 -13 41.32 -13 42 C-12.34 42 -11.68 42 -11 42 C-11 41.34 -11 40.68 -11 40 C-11.66 40 -12.32 40 -13 40 Z M-9 40 C-9 40.66 -9 41.32 -9 42 C-8.34 42 -7.68 42 -7 42 C-7 41.34 -7 40.68 -7 40 C-7.66 40 -8.32 40 -9 40 Z M93 40 C93 41.32 93 42.64 93 44 C93.66 44 94.32 44 95 44 C95 42.68 95 41.36 95 40 C94.34 40 93.68 40 93 40 Z M98 40 C98 41.32 98 42.64 98 44 C98.66 44 99.32 44 100 44 C100 42.68 100 41.36 100 40 C99.34 40 98.68 40 98 40 Z M-115 42 C-114 44 -114 44 -114 44 Z M-113 42 C-112 44 -112 44 -112 44 Z M-101 42 C-100 44 -100 44 -100 44 Z M-99 42 C-98 44 -98 44 -98 44 Z M-97 42 C-96 44 -96 44 -96 44 Z M-95 42 C-94 44 -94 44 -94 44 Z M-93 42 C-92 44 -92 44 -92 44 Z M-91 42 C-90 44 -90 44 -90 44 Z M-89 42 C-88 44 -88 44 -88 44 Z M-87 42 C-86 44 -86 44 -86 44 Z M-85 42 C-85 42.66 -85 43.32 -85 44 C-84.34 44 -83.68 44 -83 44 C-83 43.34 -83 42.68 -83 42 C-83.66 42 -84.32 42 -85 42 Z M-82 42 C-81 44 -81 44 -81 44 Z M-80 42 C-79 44 -79 44 -79 44 Z M-78 42 C-77 44 -77 44 -77 44 Z M-76 42 C-75 44 -75 44 -75 44 Z M-74 42 C-73 44 -73 44 -73 44 Z M-72 42 C-71 44 -71 44 -71 44 Z M-70 42 C-69 44 -69 44 -69 44 Z M-68 42 C-67 44 -67 44 -67 44 Z M-66 42 C-65 44 -65 44 -65 44 Z M-64 42 C-63 44 -63 44 -63 44 Z M-62 42 C-61 44 -61 44 -61 44 Z M-60 42 C-59 44 -59 44 -59 44 Z M-58 42 C-57 44 -57 44 -57 44 Z M-203 44 C-203 44.66 -203 45.32 -203 46 C-201.35 46 -199.7 46 -198 46 C-198 45.34 -198 44.68 -198 44 C-199.65 44 -201.3 44 -203 44 Z M-196 44 C-196 44.66 -196 45.32 -196 46 C-194.35 46 -192.7 46 -191 46 C-191 45.34 -191 44.68 -191 44 C-192.65 44 -194.3 44 -196 44 Z M-189 44 C-189 44.66 -189 45.32 -189 46 C-187.35 46 -185.7 46 -184 46 C-184 45.34 -184 44.68 -184 44 C-185.65 44 -187.3 44 -189 44 Z M-182 44 C-182 44.66 -182 45.32 -182 46 C-180.35 46 -178.7 46 -177 46 C-177 45.34 -177 44.68 -177 44 C-178.65 44 -180.3 44 -182 44 Z M-174 44 C-174 44.66 -174 45.32 -174 46 C-172.35 46 -170.7 46 -169 46 C-169 45.34 -169 44.68 -169 44 C-170.65 44 -172.3 44 -174 44 Z M-167 44 C-167 44.66 -167 45.32 -167 46 C-165.35 46 -163.7 46 -162 46 C-162 45.34 -162 44.68 -162 44 C-163.65 44 -165.3 44 -167 44 Z M-160 44 C-160 44.66 -160 45.32 -160 46 C-158.35 46 -156.7 46 -155 46 C-155 45.34 -155 44.68 -155 44 C-156.65 44 -158.3 44 -160 44 Z M-151 44 C-151 44.66 -151 45.32 -151 46 C-150.01 46 -149.02 46 -148 46 C-148 45.34 -148 44.68 -148 44 C-148.99 44 -149.98 44 -151 44 Z M-147 44 C-147 44.66 -147 45.32 -147 46 C-146.01 46 -145.02 46 -144 46 C-144 45.34 -144 44.68 -144 44 C-144.99 44 -145.98 44 -147 44 Z M-37 44 C-37 45.32 -37 46.64 -37 48 C-36.34 48 -35.68 48 -35 48 C-35 46.68 -35 45.36 -35 44 C-35.66 44 -36.32 44 -37 44 Z M-34 44 C-34 45.32 -34 46.64 -34 48 C-33.34 48 -32.68 48 -32 48 C-32 46.68 -32 45.36 -32 44 C-32.66 44 -33.32 44 -34 44 Z M-30 44 C-30 45.32 -30 46.64 -30 48 C-29.34 48 -28.68 48 -28 48 C-28 46.68 -28 45.36 -28 44 C-28.66 44 -29.32 44 -30 44 Z M-27 44 C-27 45.32 -27 46.64 -27 48 C-26.34 48 -25.68 48 -25 48 C-25 46.68 -25 45.36 -25 44 C-25.66 44 -26.32 44 -27 44 Z M-20 44 C-20 45.32 -20 46.64 -20 48 C-19.34 48 -18.68 48 -18 48 C-18 46.68 -18 45.36 -18 44 C-18.66 44 -19.32 44 -20 44 Z M-16 44 C-16 45.32 -16 46.64 -16 48 C-15.34 48 -14.68 48 -14 48 C-14 46.68 -14 45.36 -14 44 C-14.66 44 -15.32 44 -16 44 Z M-13 44 C-13 45.32 -13 46.64 -13 48 C-12.34 48 -11.68 48 -11 48 C-11 46.68 -11 45.36 -11 44 C-11.66 44 -12.32 44 -13 44 Z M-9 44 C-9 45.32 -9 46.64 -9 48 C-8.34 48 -7.68 48 -7 48 C-7 46.68 -7 45.36 -7 44 C-7.66 44 -8.32 44 -9 44 Z M-196 48 C-196 48.66 -196 49.32 -196 50 C-194.35 50 -192.7 50 -191 50 C-191 49.34 -191 48.68 -191 48 C-192.65 48 -194.3 48 -196 48 Z M-182 48 C-182 48.66 -182 49.32 -182 50 C-180.35 50 -178.7 50 -177 50 C-177 49.34 -177 48.68 -177 48 C-178.65 48 -180.3 48 -182 48 Z M-174 48 C-174 48.66 -174 49.32 -174 50 C-172.35 50 -170.7 50 -169 50 C-169 49.34 -169 48.68 -169 48 C-170.65 48 -172.3 48 -174 48 Z M-167 48 C-167 48.66 -167 49.32 -167 50 C-165.35 50 -163.7 50 -162 50 C-162 49.34 -162 48.68 -162 48 C-163.65 48 -165.3 48 -167 48 Z M-160 48 C-160 48.66 -160 49.32 -160 50 C-158.35 50 -156.7 50 -155 50 C-155 49.34 -155 48.68 -155 48 C-156.65 48 -158.3 48 -160 48 Z M-116 48 C-116 49.32 -116 50.64 -116 52 C-115.34 52 -114.68 52 -114 52 C-114 50.68 -114 49.36 -114 48 C-114.66 48 -115.32 48 -116 48 Z M-113 48 C-113 49.32 -113 50.64 -113 52 C-112.34 52 -111.68 52 -111 52 C-111 50.68 -111 49.36 -111 48 C-111.66 48 -112.32 48 -113 48 Z M-109 48 C-109 49.32 -109 50.64 -109 52 C-108.34 52 -107.68 52 -107 52 C-107 50.68 -107 49.36 -107 48 C-107.66 48 -108.32 48 -109 48 Z M-106 48 C-106 49.32 -106 50.64 -106 52 C-105.34 52 -104.68 52 -104 52 C-104 50.68 -104 49.36 -104 48 C-104.66 48 -105.32 48 -106 48 Z M-102 48 C-102 49.32 -102 50.64 -102 52 C-101.34 52 -100.68 52 -100 52 C-100 50.68 -100 49.36 -100 48 C-100.66 48 -101.32 48 -102 48 Z M-99 48 C-99 49.32 -99 50.64 -99 52 C-98.34 52 -97.68 52 -97 52 C-97 50.68 -97 49.36 -97 48 C-97.66 48 -98.32 48 -99 48 Z M-95 48 C-95 49.32 -95 50.64 -95 52 C-94.34 52 -93.68 52 -93 52 C-93 50.68 -93 49.36 -93 48 C-93.66 48 -94.32 48 -95 48 Z M-92 48 C-92 49.32 -92 50.64 -92 52 C-91.34 52 -90.68 52 -90 52 C-90 50.68 -90 49.36 -90 48 C-90.66 48 -91.32 48 -92 48 Z M-88 48 C-88 49.32 -88 50.64 -88 52 C-87.34 52 -86.68 52 -86 52 C-86 50.68 -86 49.36 -86 48 C-86.66 48 -87.32 48 -88 48 Z M-83 48 C-83 49.32 -83 50.64 -83 52 C-82.34 52 -81.68 52 -81 52 C-81 50.68 -81 49.36 -81 48 C-81.66 48 -82.32 48 -83 48 Z M-80 48 C-80 49.32 -80 50.64 -80 52 C-79.34 52 -78.68 52 -78 52 C-78 50.68 -78 49.36 -78 48 C-78.66 48 -79.32 48 -80 48 Z M-77 48 C-77 49.32 -77 50.64 -77 52 C-76.34 52 -75.68 52 -75 52 C-75 50.68 -75 49.36 -75 48 C-75.66 48 -76.32 48 -77 48 Z M-74 48 C-74 49.32 -74 50.64 -74 52 C-73.34 52 -72.68 52 -72 52 C-72 50.68 -72 49.36 -72 48 C-72.66 48 -73.32 48 -74 48 Z M-206 52 C-205 56 -205 56 -205 56 Z M-189 52 C-189 52.66 -189 53.32 -189 54 C-187.35 54 -185.7 54 -184 54 C-184 53.34 -184 52.68 -184 52 C-185.65 52 -187.3 52 -189 52 Z M-182 52 C-182 52.66 -182 53.32 -182 54 C-180.35 54 -178.7 54 -177 54 C-177 53.34 -177 52.68 -177 52 C-178.65 52 -180.3 52 -182 52 Z M-174 52 C-174 52.66 -174 53.32 -174 54 C-172.35 54 -170.7 54 -169 54 C-169 53.34 -169 52.68 -169 52 C-170.65 52 -172.3 52 -174 52 Z M-116 54 C-116 55.32 -116 56.64 -116 58 C-115.34 58 -114.68 58 -114 58 C-114 56.68 -114 55.36 -114 54 C-114.66 54 -115.32 54 -116 54 Z M-113 54 C-113 55.32 -113 56.64 -113 58 C-112.34 58 -111.68 58 -111 58 C-111 56.68 -111 55.36 -111 54 C-111.66 54 -112.32 54 -113 54 Z M-109 54 C-109 55.32 -109 56.64 -109 58 C-108.34 58 -107.68 58 -107 58 C-107 56.68 -107 55.36 -107 54 C-107.66 54 -108.32 54 -109 54 Z M-106 54 C-106 55.32 -106 56.64 -106 58 C-105.34 58 -104.68 58 -104 58 C-104 56.68 -104 55.36 -104 54 C-104.66 54 -105.32 54 -106 54 Z M-102 54 C-102 55.32 -102 56.64 -102 58 C-101.34 58 -100.68 58 -100 58 C-100 56.68 -100 55.36 -100 54 C-100.66 54 -101.32 54 -102 54 Z M-99 54 C-99 55.32 -99 56.64 -99 58 C-98.34 58 -97.68 58 -97 58 C-97 56.68 -97 55.36 -97 54 C-97.66 54 -98.32 54 -99 54 Z M-95 54 C-95 55.32 -95 56.64 -95 58 C-94.34 58 -93.68 58 -93 58 C-93 56.68 -93 55.36 -93 54 C-93.66 54 -94.32 54 -95 54 Z M-92 54 C-92 55.32 -92 56.64 -92 58 C-91.34 58 -90.68 58 -90 58 C-90 56.68 -90 55.36 -90 54 C-90.66 54 -91.32 54 -92 54 Z M-88 54 C-88 55.32 -88 56.64 -88 58 C-87.34 58 -86.68 58 -86 58 C-86 56.68 -86 55.36 -86 54 C-86.66 54 -87.32 54 -88 54 Z M-83 54 C-83 55.32 -83 56.64 -83 58 C-82.34 58 -81.68 58 -81 58 C-81 56.68 -81 55.36 -81 54 C-81.66 54 -82.32 54 -83 54 Z M-80 54 C-80 55.32 -80 56.64 -80 58 C-79.34 58 -78.68 58 -78 58 C-78 56.68 -78 55.36 -78 54 C-78.66 54 -79.32 54 -80 54 Z M-77 54 C-77 55.32 -77 56.64 -77 58 C-76.34 58 -75.68 58 -75 58 C-75 56.68 -75 55.36 -75 54 C-75.66 54 -76.32 54 -77 54 Z M-74 54 C-74 55.32 -74 56.64 -74 58 C-73.34 58 -72.68 58 -72 58 C-72 56.68 -72 55.36 -72 54 C-72.66 54 -73.32 54 -74 54 Z M-189 56 C-189 56.66 -189 57.32 -189 58 C-187.35 58 -185.7 58 -184 58 C-184 57.34 -184 56.68 -184 56 C-185.65 56 -187.3 56 -189 56 Z M247 56 C247 57.32 247 58.64 247 60 C247.66 60 248.32 60 249 60 C249 58.68 249 57.36 249 56 C248.34 56 247.68 56 247 56 Z M251 56 C251 57.32 251 58.64 251 60 C251.66 60 252.32 60 253 60 C253 58.68 253 57.36 253 56 C252.34 56 251.68 56 251 56 Z M255 56 C255 57.32 255 58.64 255 60 C255.66 60 256.32 60 257 60 C257 58.68 257 57.36 257 56 C256.34 56 255.68 56 255 56 Z M259 56 C259 57.32 259 58.64 259 60 C259.66 60 260.32 60 261 60 C261 58.68 261 57.36 261 56 C260.34 56 259.68 56 259 56 Z M263 56 C263 57.32 263 58.64 263 60 C263.66 60 264.32 60 265 60 C265 58.68 265 57.36 265 56 C264.34 56 263.68 56 263 56 Z M267 56 C267 57.32 267 58.64 267 60 C267.66 60 268.32 60 269 60 C269 58.68 269 57.36 269 56 C268.34 56 267.68 56 267 56 Z M273 56 C273 57.32 273 58.64 273 60 C273.66 60 274.32 60 275 60 C275 58.68 275 57.36 275 56 C274.34 56 273.68 56 273 56 Z M277 56 C277 57.32 277 58.64 277 60 C277.66 60 278.32 60 279 60 C279 58.68 279 57.36 279 56 C278.34 56 277.68 56 277 56 Z M281 56 C281 57.32 281 58.64 281 60 C281.66 60 282.32 60 283 60 C283 58.68 283 57.36 283 56 C282.34 56 281.68 56 281 56 Z M285 56 C285 57.32 285 58.64 285 60 C285.66 60 286.32 60 287 60 C287 58.68 287 57.36 287 56 C286.34 56 285.68 56 285 56 Z M72 57 C72 58.32 72 59.64 72 61 C72.66 61 73.32 61 74 61 C74 59.68 74 58.36 74 57 C73.34 57 72.68 57 72 57 Z M75 57 C75 58.32 75 59.64 75 61 C75.66 61 76.32 61 77 61 C77 59.68 77 58.36 77 57 C76.34 57 75.68 57 75 57 Z M78 57 C78 58.32 78 59.64 78 61 C78.66 61 79.32 61 80 61 C80 59.68 80 58.36 80 57 C79.34 57 78.68 57 78 57 Z M81 57 C81 58.32 81 59.64 81 61 C81.66 61 82.32 61 83 61 C83 59.68 83 58.36 83 57 C82.34 57 81.68 57 81 57 Z M84 57 C84 58.32 84 59.64 84 61 C84.66 61 85.32 61 86 61 C86 59.68 86 58.36 86 57 C85.34 57 84.68 57 84 57 Z M-116 60 C-116 61.32 -116 62.64 -116 64 C-115.34 64 -114.68 64 -114 64 C-114 62.68 -114 61.36 -114 60 C-114.66 60 -115.32 60 -116 60 Z M-113 60 C-113 61.32 -113 62.64 -113 64 C-112.34 64 -111.68 64 -111 64 C-111 62.68 -111 61.36 -111 60 C-111.66 60 -112.32 60 -113 60 Z M-92 60 C-92 61.32 -92 62.64 -92 64 C-91.34 64 -90.68 64 -90 64 C-90 62.68 -90 61.36 -90 60 C-90.66 60 -91.32 60 -92 60 Z M-88 60 C-88 61.32 -88 62.64 -88 64 C-87.34 64 -86.68 64 -86 64 C-86 62.68 -86 61.36 -86 60 C-86.66 60 -87.32 60 -88 60 Z M-83 60 C-83 61.32 -83 62.64 -83 64 C-82.34 64 -81.68 64 -81 64 C-81 62.68 -81 61.36 -81 60 C-81.66 60 -82.32 60 -83 60 Z M-228 61 C-228 62.32 -228 63.64 -228 65 C-227.34 65 -226.68 65 -226 65 C-226 63.68 -226 62.36 -226 61 C-226.66 61 -227.32 61 -228 61 Z M-224 61 C-224 62.32 -224 63.64 -224 65 C-223.34 65 -222.68 65 -222 65 C-222 63.68 -222 62.36 -222 61 C-222.66 61 -223.32 61 -224 61 Z M-220 61 C-220 62.32 -220 63.64 -220 65 C-219.34 65 -218.68 65 -218 65 C-218 63.68 -218 62.36 -218 61 C-218.66 61 -219.32 61 -220 61 Z M313 61 C313 62.32 313 63.64 313 65 C313.66 65 314.32 65 315 65 C315 63.68 315 62.36 315 61 C314.34 61 313.68 61 313 61 Z M317 61 C317 62.32 317 63.64 317 65 C317.66 65 318.32 65 319 65 C319 63.68 319 62.36 319 61 C318.34 61 317.68 61 317 61 Z M321 61 C321 62.32 321 63.64 321 65 C321.66 65 322.32 65 323 65 C323 63.68 323 62.36 323 61 C322.34 61 321.68 61 321 61 Z M325 61 C325 62.32 325 63.64 325 65 C325.66 65 326.32 65 327 65 C327 63.68 327 62.36 327 61 C326.34 61 325.68 61 325 61 Z M329 61 C329 62.32 329 63.64 329 65 C329.66 65 330.32 65 331 65 C331 63.68 331 62.36 331 61 C330.34 61 329.68 61 329 61 Z M247 62 C247 63.32 247 64.64 247 66 C247.66 66 248.32 66 249 66 C249 64.68 249 63.36 249 62 C248.34 62 247.68 62 247 62 Z M251 62 C251 63.32 251 64.64 251 66 C251.66 66 252.32 66 253 66 C253 64.68 253 63.36 253 62 C252.34 62 251.68 62 251 62 Z M255 62 C255 63.32 255 64.64 255 66 C255.66 66 256.32 66 257 66 C257 64.68 257 63.36 257 62 C256.34 62 255.68 62 255 62 Z M259 62 C259 63.32 259 64.64 259 66 C259.66 66 260.32 66 261 66 C261 64.68 261 63.36 261 62 C260.34 62 259.68 62 259 62 Z M263 62 C263 63.32 263 64.64 263 66 C263.66 66 264.32 66 265 66 C265 64.68 265 63.36 265 62 C264.34 62 263.68 62 263 62 Z M267 62 C267 63.32 267 64.64 267 66 C267.66 66 268.32 66 269 66 C269 64.68 269 63.36 269 62 C268.34 62 267.68 62 267 62 Z M273 62 C273 63.32 273 64.64 273 66 C273.66 66 274.32 66 275 66 C275 64.68 275 63.36 275 62 C274.34 62 273.68 62 273 62 Z M72 63 C72 64.32 72 65.64 72 67 C72.66 67 73.32 67 74 67 C74 65.68 74 64.36 74 63 C73.34 63 72.68 63 72 63 Z M75 63 C75 64.32 75 65.64 75 67 C75.66 67 76.32 67 77 67 C77 65.68 77 64.36 77 63 C76.34 63 75.68 63 75 63 Z M78 63 C78 64.32 78 65.64 78 67 C78.66 67 79.32 67 80 67 C80 65.68 80 64.36 80 63 C79.34 63 78.68 63 78 63 Z M59 65 C59 66.65 59 68.3 59 70 C60.32 70 61.64 70 63 70 C63 68.35 63 66.7 63 65 C61.68 65 60.36 65 59 65 Z M65 65 C65 66.65 65 68.3 65 70 C66.65 70 68.3 70 70 70 C70 68.35 70 66.7 70 65 C68.35 65 66.7 65 65 65 Z M126 65 C126 66.65 126 68.3 126 70 C128.31 70 130.62 70 133 70 C133 68.35 133 66.7 133 65 C130.69 65 128.38 65 126 65 Z M135 65 C135 66.65 135 68.3 135 70 C138.96 70 142.92 70 147 70 C147 68.35 147 66.7 147 65 C143.04 65 139.08 65 135 65 Z M149 65 C149 66.65 149 68.3 149 70 C152.96 70 156.92 70 161 70 C161 68.35 161 66.7 161 65 C157.04 65 153.08 65 149 65 Z M163 65 C163 66.65 163 68.3 163 70 C165.97 70 168.94 70 172 70 C172 68.35 172 66.7 172 65 C169.03 65 166.06 65 163 65 Z M-116 66 C-116 67.32 -116 68.64 -116 70 C-115.34 70 -114.68 70 -114 70 C-114 68.68 -114 67.36 -114 66 C-114.66 66 -115.32 66 -116 66 Z M-88 66 C-88 67.32 -88 68.64 -88 70 C-87.34 70 -86.68 70 -86 70 C-86 68.68 -86 67.36 -86 66 C-86.66 66 -87.32 66 -88 66 Z M-228 67 C-228 68.32 -228 69.64 -228 71 C-227.34 71 -226.68 71 -226 71 C-226 69.68 -226 68.36 -226 67 C-226.66 67 -227.32 67 -228 67 Z M-224 67 C-224 68.32 -224 69.64 -224 71 C-223.34 71 -222.68 71 -222 71 C-222 69.68 -222 68.36 -222 67 C-222.66 67 -223.32 67 -224 67 Z M-220 67 C-220 68.32 -220 69.64 -220 71 C-219.34 71 -218.68 71 -218 71 C-218 69.68 -218 68.36 -218 67 C-218.66 67 -219.32 67 -220 67 Z M313 67 C313 68.32 313 69.64 313 71 C313.66 71 314.32 71 315 71 C315 69.68 315 68.36 315 67 C314.34 67 313.68 67 313 67 Z M317 67 C317 68.32 317 69.64 317 71 C317.66 71 318.32 71 319 71 C319 69.68 319 68.36 319 67 C318.34 67 317.68 67 317 67 Z M321 67 C321 68.32 321 69.64 321 71 C321.66 71 322.32 71 323 71 C323 69.68 323 68.36 323 67 C322.34 67 321.68 67 321 67 Z M247 68 C247 69.32 247 70.64 247 72 C247.66 72 248.32 72 249 72 C249 70.68 249 69.36 249 68 C248.34 68 247.68 68 247 68 Z M251 68 C251 69.32 251 70.64 251 72 C251.66 72 252.32 72 253 72 C253 70.68 253 69.36 253 68 C252.34 68 251.68 68 251 68 Z M255 68 C255 69.32 255 70.64 255 72 C255.66 72 256.32 72 257 72 C257 70.68 257 69.36 257 68 C256.34 68 255.68 68 255 68 Z M259 68 C259 69.32 259 70.64 259 72 C259.66 72 260.32 72 261 72 C261 70.68 261 69.36 261 68 C260.34 68 259.68 68 259 68 Z M263 68 C263 69.32 263 70.64 263 72 C263.66 72 264.32 72 265 72 C265 70.68 265 69.36 265 68 C264.34 68 263.68 68 263 68 Z M267 68 C267 69.32 267 70.64 267 72 C267.66 72 268.32 72 269 72 C269 70.68 269 69.36 269 68 C268.34 68 267.68 68 267 68 Z M78 69 C78 70.65 78 72.3 78 74 C78.66 74 79.32 74 80 74 C80 72.35 80 70.7 80 69 C79.34 69 78.68 69 78 69 Z M81 69 C81 70.65 81 72.3 81 74 C81.66 74 82.32 74 83 74 C83 72.35 83 70.7 83 69 C82.34 69 81.68 69 81 69 Z M84 69 C84 70.65 84 72.3 84 74 C84.66 74 85.32 74 86 74 C86 72.35 86 70.7 86 69 C85.34 69 84.68 69 84 69 Z M-228 73 C-228 74.32 -228 75.64 -228 77 C-227.34 77 -226.68 77 -226 77 C-226 75.68 -226 74.36 -226 73 C-226.66 73 -227.32 73 -228 73 Z M-224 73 C-224 74.32 -224 75.64 -224 77 C-223.34 77 -222.68 77 -222 77 C-222 75.68 -222 74.36 -222 73 C-222.66 73 -223.32 73 -224 73 Z M-220 73 C-220 74.32 -220 75.64 -220 77 C-219.34 77 -218.68 77 -218 77 C-218 75.68 -218 74.36 -218 73 C-218.66 73 -219.32 73 -220 73 Z M313 73 C313 74.32 313 75.64 313 77 C313.66 77 314.32 77 315 77 C315 75.68 315 74.36 315 73 C314.34 73 313.68 73 313 73 Z M317 73 C317 74.32 317 75.64 317 77 C317.66 77 318.32 77 319 77 C319 75.68 319 74.36 319 73 C318.34 73 317.68 73 317 73 Z M59 74 C59 74.99 59 75.98 59 77 C62.63 77 66.26 77 70 77 C70 76.01 70 75.02 70 74 C66.37 74 62.74 74 59 74 Z M263 74 C263 75.32 263 76.64 263 78 C263.66 78 264.32 78 265 78 C265 76.68 265 75.36 265 74 C264.34 74 263.68 74 263 74 Z M267 74 C267 75.32 267 76.64 267 78 C267.66 78 268.32 78 269 78 C269 76.68 269 75.36 269 74 C268.34 74 267.68 74 267 74 Z M129 83 C123.99943788 92.25103992 126 105.55775966 126 115 C141.18 115 156.36 115 172 115 C172.97413912 97.9619454 172.97413912 97.9619454 168.375 82.0625 C162.68934576 77.12495816 154.69005778 75.66931601 147.31640625 75.78125 C140.67045327 76.40886107 133.62531983 77.92706857 129 83 Z M-224 79 C-224 80.32 -224 81.64 -224 83 C-223.34 83 -222.68 83 -222 83 C-222 81.68 -222 80.36 -222 79 C-222.66 79 -223.32 79 -224 79 Z M-220 79 C-220 80.32 -220 81.64 -220 83 C-219.34 83 -218.68 83 -218 83 C-218 81.68 -218 80.36 -218 79 C-218.66 79 -219.32 79 -220 79 Z M313 79 C313 80.32 313 81.64 313 83 C313.66 83 314.32 83 315 83 C315 81.68 315 80.36 315 79 C314.34 79 313.68 79 313 79 Z M-54 80 C-54 80.66 -54 81.32 -54 82 C-53.34 82 -52.68 82 -52 82 C-52 81.34 -52 80.68 -52 80 C-52.66 80 -53.32 80 -54 80 Z M-51 80 C-51 80.66 -51 81.32 -51 82 C-50.34 82 -49.68 82 -49 82 C-49 81.34 -49 80.68 -49 80 C-49.66 80 -50.32 80 -51 80 Z M-48 80 C-48 80.66 -48 81.32 -48 82 C-47.34 82 -46.68 82 -46 82 C-46 81.34 -46 80.68 -46 80 C-46.66 80 -47.32 80 -48 80 Z M-45 80 C-45 80.66 -45 81.32 -45 82 C-44.34 82 -43.68 82 -43 82 C-43 81.34 -43 80.68 -43 80 C-43.66 80 -44.32 80 -45 80 Z M-42 80 C-42 80.66 -42 81.32 -42 82 C-41.34 82 -40.68 82 -40 82 C-40 81.34 -40 80.68 -40 80 C-40.66 80 -41.32 80 -42 80 Z M267 80 C267 81.32 267 82.64 267 84 C267.66 84 268.32 84 269 84 C269 82.68 269 81.36 269 80 C268.34 80 267.68 80 267 80 Z M-220 85 C-220 86.65 -220 88.3 -220 90 C-219.34 90 -218.68 90 -218 90 C-218 88.35 -218 86.7 -218 85 C-218.66 85 -219.32 85 -220 85 Z M-122 101 C-121.34 101.66 -120.68 102.32 -120 103 C-120 102.34 -120 101.68 -120 101 C-120.66 101 -121.32 101 -122 101 Z M-119 101 C-118 103 -118 103 -118 103 Z " fill="#CE6176" transform="translate(232,79)"/>
<path d="M0 0 C4.62 0 9.24 0 14 0 C14 0.99 14 1.98 14 3 C18.95 3.33 23.9 3.66 29 4 C29 40.63 29 77.26 29 115 C6.56 115 -15.88 115 -39 115 C-39.185625 103.883125 -39.37125 92.76625 -39.5625 81.3125 C-39.62381104 77.82856689 -39.68512207 74.34463379 -39.74829102 70.75512695 C-39.81628418 66.43395996 -39.81628418 66.43395996 -39.8467865 64.39811707 C-39.86878489 63.00448501 -39.89311022 61.61088829 -39.91941833 60.21733093 C-40.28581077 40.57308073 -40.28581077 40.57308073 -39 33 C-36.13454405 30.13454405 -34.03185244 30.68370372 -30.0234375 30.5859375 C-29.33819 30.56657135 -28.6529425 30.5472052 -27.94692993 30.5272522 C-25.75641356 30.46743169 -23.5658447 30.42106244 -21.375 30.375 C-19.89060198 30.33682237 -18.40622616 30.29777076 -16.921875 30.2578125 C-13.28145315 30.16172916 -9.64086564 30.07770718 -6 30 C-6.01571045 29.13048706 -6.01571045 29.13048706 -6.03173828 28.2434082 C-6.07348615 25.59981679 -6.09938538 22.95629495 -6.125 20.3125 C-6.14175781 19.40048828 -6.15851563 18.48847656 -6.17578125 17.54882812 C-6.2390014 8.85605796 -6.2390014 8.85605796 -4 5 C-1.875 3.6875 -1.875 3.6875 0 3 C0 2.01 0 1.02 0 0 Z M2 3 C2 3.33 2 3.66 2 4 C4.97 4 7.94 4 11 4 C11 3.67 11 3.34 11 3 C8.03 3 5.06 3 2 3 Z M-3 8 C-3 9.32 -3 10.64 -3 12 C-2.34 12 -1.68 12 -1 12 C-1 10.68 -1 9.36 -1 8 C-1.66 8 -2.32 8 -3 8 Z M0 8 C0 9.32 0 10.64 0 12 C0.66 12 1.32 12 2 12 C2 10.68 2 9.36 2 8 C1.34 8 0.68 8 0 8 Z M4 8 C4 9.32 4 10.64 4 12 C4.66 12 5.32 12 6 12 C6 10.68 6 9.36 6 8 C5.34 8 4.68 8 4 8 Z M7 8 C7 9.32 7 10.64 7 12 C7.66 12 8.32 12 9 12 C9 10.68 9 9.36 9 8 C8.34 8 7.68 8 7 8 Z M11 8 C11 9.32 11 10.64 11 12 C11.66 12 12.32 12 13 12 C13 10.68 13 9.36 13 8 C12.34 8 11.68 8 11 8 Z M14 8 C14 9.32 14 10.64 14 12 C14.66 12 15.32 12 16 12 C16 10.68 16 9.36 16 8 C15.34 8 14.68 8 14 8 Z M18 8 C18 9.32 18 10.64 18 12 C18.66 12 19.32 12 20 12 C20 10.68 20 9.36 20 8 C19.34 8 18.68 8 18 8 Z M21 8 C21 9.32 21 10.64 21 12 C21.66 12 22.32 12 23 12 C23 10.68 23 9.36 23 8 C22.34 8 21.68 8 21 8 Z M25 8 C25 9.32 25 10.64 25 12 C25.66 12 26.32 12 27 12 C27 10.68 27 9.36 27 8 C26.34 8 25.68 8 25 8 Z M-3 14 C-3 15.32 -3 16.64 -3 18 C-2.34 18 -1.68 18 -1 18 C-1 16.68 -1 15.36 -1 14 C-1.66 14 -2.32 14 -3 14 Z M0 14 C0 15.32 0 16.64 0 18 C0.66 18 1.32 18 2 18 C2 16.68 2 15.36 2 14 C1.34 14 0.68 14 0 14 Z M4 14 C4 15.32 4 16.64 4 18 C4.66 18 5.32 18 6 18 C6 16.68 6 15.36 6 14 C5.34 14 4.68 14 4 14 Z M7 14 C7 15.32 7 16.64 7 18 C7.66 18 8.32 18 9 18 C9 16.68 9 15.36 9 14 C8.34 14 7.68 14 7 14 Z M11 14 C11 15.32 11 16.64 11 18 C11.66 18 12.32 18 13 18 C13 16.68 13 15.36 13 14 C12.34 14 11.68 14 11 14 Z M14 14 C14 15.32 14 16.64 14 18 C14.66 18 15.32 18 16 18 C16 16.68 16 15.36 16 14 C15.34 14 14.68 14 14 14 Z M18 14 C18 15.32 18 16.64 18 18 C18.66 18 19.32 18 20 18 C20 16.68 20 15.36 20 14 C19.34 14 18.68 14 18 14 Z M18 20 C18 21.32 18 22.64 18 24 C18.66 24 19.32 24 20 24 C20 22.68 20 21.36 20 20 C19.34 20 18.68 20 18 20 Z M21 20 C21 21.32 21 22.64 21 24 C21.66 24 22.32 24 23 24 C23 22.68 23 21.36 23 20 C22.34 20 21.68 20 21 20 Z M25 20 C25 21.32 25 22.64 25 24 C25.66 24 26.32 24 27 24 C27 22.68 27 21.36 27 20 C26.34 20 25.68 20 25 20 Z M-34 32 C-33 34 -33 34 -33 34 Z M-20 32 C-19 34 -19 34 -19 34 Z M-18 32 C-17 34 -17 34 -17 34 Z M-16 32 C-15 34 -15 34 -15 34 Z M-14 32 C-13 34 -13 34 -13 34 Z M-12 32 C-11 34 -11 34 -11 34 Z M-10 32 C-9 34 -9 34 -9 34 Z M-6 32 C-5 34 -5 34 -5 34 Z M-37 40 C-37 40.66 -37 41.32 -37 42 C-36.34 42 -35.68 42 -35 42 C-35 41.34 -35 40.68 -35 40 C-35.66 40 -36.32 40 -37 40 Z M-34 40 C-34 40.66 -34 41.32 -34 42 C-33.34 42 -32.68 42 -32 42 C-32 41.34 -32 40.68 -32 40 C-32.66 40 -33.32 40 -34 40 Z M-27 40 C-27 40.66 -27 41.32 -27 42 C-26.34 42 -25.68 42 -25 42 C-25 41.34 -25 40.68 -25 40 C-25.66 40 -26.32 40 -27 40 Z M-23 40 C-23 40.66 -23 41.32 -23 42 C-22.34 42 -21.68 42 -21 42 C-21 41.34 -21 40.68 -21 40 C-21.66 40 -22.32 40 -23 40 Z M-20 40 C-20 40.66 -20 41.32 -20 42 C-19.34 42 -18.68 42 -18 42 C-18 41.34 -18 40.68 -18 40 C-18.66 40 -19.32 40 -20 40 Z M-16 40 C-16 40.66 -16 41.32 -16 42 C-15.34 42 -14.68 42 -14 42 C-14 41.34 -14 40.68 -14 40 C-14.66 40 -15.32 40 -16 40 Z M-13 40 C-13 40.66 -13 41.32 -13 42 C-12.34 42 -11.68 42 -11 42 C-11 41.34 -11 40.68 -11 40 C-11.66 40 -12.32 40 -13 40 Z M-9 40 C-9 40.66 -9 41.32 -9 42 C-8.34 42 -7.68 42 -7 42 C-7 41.34 -7 40.68 -7 40 C-7.66 40 -8.32 40 -9 40 Z M-37 44 C-37 45.32 -37 46.64 -37 48 C-36.34 48 -35.68 48 -35 48 C-35 46.68 -35 45.36 -35 44 C-35.66 44 -36.32 44 -37 44 Z M-34 44 C-34 45.32 -34 46.64 -34 48 C-33.34 48 -32.68 48 -32 48 C-32 46.68 -32 45.36 -32 44 C-32.66 44 -33.32 44 -34 44 Z M-30 44 C-30 45.32 -30 46.64 -30 48 C-29.34 48 -28.68 48 -28 48 C-28 46.68 -28 45.36 -28 44 C-28.66 44 -29.32 44 -30 44 Z M-27 44 C-27 45.32 -27 46.64 -27 48 C-26.34 48 -25.68 48 -25 48 C-25 46.68 -25 45.36 -25 44 C-25.66 44 -26.32 44 -27 44 Z M-20 44 C-20 45.32 -20 46.64 -20 48 C-19.34 48 -18.68 48 -18 48 C-18 46.68 -18 45.36 -18 44 C-18.66 44 -19.32 44 -20 44 Z M-16 44 C-16 45.32 -16 46.64 -16 48 C-15.34 48 -14.68 48 -14 48 C-14 46.68 -14 45.36 -14 44 C-14.66 44 -15.32 44 -16 44 Z M-13 44 C-13 45.32 -13 46.64 -13 48 C-12.34 48 -11.68 48 -11 48 C-11 46.68 -11 45.36 -11 44 C-11.66 44 -12.32 44 -13 44 Z M-9 44 C-9 45.32 -9 46.64 -9 48 C-8.34 48 -7.68 48 -7 48 C-7 46.68 -7 45.36 -7 44 C-7.66 44 -8.32 44 -9 44 Z " fill="#D96884" transform="translate(232,79)"/>
<path d="M0 0 C1.35568336 0.00333092 1.35568336 0.00333092 2.73875427 0.00672913 C3.75973709 0.00680466 4.78071991 0.00688019 5.8326416 0.00695801 C6.94304306 0.01211929 8.05344452 0.01728058 9.19749451 0.02259827 C10.89336952 0.02472069 10.89336952 0.02472069 12.62350464 0.02688599 C16.25105891 0.03250433 19.8785525 0.04505994 23.50608826 0.05775452 C25.95856133 0.06276715 28.41103536 0.06733047 30.86351013 0.07142639 C36.89022371 0.08247971 42.91690165 0.09923568 48.94358826 0.12025452 C48.96671094 11.31598696 48.98450296 22.51171376 48.99540043 33.70746517 C49.00062942 38.90553567 49.00772736 44.10358988 49.01902771 49.301651 C49.02985602 54.3136772 49.03586497 59.3256877 49.0384655 64.33772469 C49.04031985 66.25437734 49.04394065 68.17102909 49.04931831 70.08767509 C49.056528 72.76253524 49.05757923 75.43732965 49.05711365 78.11219788 C49.06070892 78.91276611 49.0643042 79.71333435 49.06800842 80.53816223 C49.05764042 86.00620236 49.05764042 86.00620236 47.94358826 87.12025452 C46.34747844 87.21359157 44.74725398 87.23770824 43.14842224 87.23377991 C42.12743942 87.23370438 41.1064566 87.23362885 40.05453491 87.23355103 C38.94413345 87.22838974 37.83373199 87.22322845 36.68968201 87.21791077 C35.55909866 87.21649582 34.42851532 87.21508087 33.26367188 87.21362305 C29.6361176 87.20800471 26.00862402 87.1954491 22.38108826 87.18275452 C19.92861519 87.17774188 17.47614115 87.17317856 15.02366638 87.16908264 C8.99693122 87.15887821 2.97032804 87.13930638 -3.05641174 87.12025452 C-3.38641174 71.61025452 -3.71641174 56.10025452 -4.05641174 40.12025452 C-4.71641174 40.12025452 -5.37641174 40.12025452 -6.05641174 40.12025452 C-6.05641174 33.85025452 -6.05641174 27.58025452 -6.05641174 21.12025452 C-5.39641174 21.12025452 -4.73641174 21.12025452 -4.05641174 21.12025452 C-4.03135559 20.51963196 -4.00629944 19.9190094 -3.98048401 19.30018616 C-3.86485894 16.59414014 -3.74198238 13.88847168 -3.61891174 11.18275452 C-3.57959534 10.23722717 -3.54027893 9.29169983 -3.49977112 8.31752014 C-3.45787659 7.41839905 -3.41598206 6.51927795 -3.37281799 5.59291077 C-3.33616028 4.76025696 -3.29950256 3.92760315 -3.26173401 3.06971741 C-2.97728532 0.36897689 -2.71881605 0.15899049 0 0 Z M3.94358826 2.12025452 C3.94358826 2.45025452 3.94358826 2.78025452 3.94358826 3.12025452 C8.23358826 3.12025452 12.52358826 3.12025452 16.94358826 3.12025452 C16.94358826 2.79025452 16.94358826 2.46025452 16.94358826 2.12025452 C12.65358826 2.12025452 8.36358826 2.12025452 3.94358826 2.12025452 Z M23.94358826 2.12025452 C23.94358826 2.45025452 23.94358826 2.78025452 23.94358826 3.12025452 C30.21358826 3.12025452 36.48358826 3.12025452 42.94358826 3.12025452 C42.94358826 2.79025452 42.94358826 2.46025452 42.94358826 2.12025452 C36.67358826 2.12025452 30.40358826 2.12025452 23.94358826 2.12025452 Z M-1.05641174 7.12025452 C-1.05641174 7.78025452 -1.05641174 8.44025452 -1.05641174 9.12025452 C0.59358826 9.12025452 2.24358826 9.12025452 3.94358826 9.12025452 C3.94358826 8.46025452 3.94358826 7.80025452 3.94358826 7.12025452 C2.29358826 7.12025452 0.64358826 7.12025452 -1.05641174 7.12025452 Z M12.94358826 7.12025452 C12.94358826 7.78025452 12.94358826 8.44025452 12.94358826 9.12025452 C14.59358826 9.12025452 16.24358826 9.12025452 17.94358826 9.12025452 C17.94358826 8.46025452 17.94358826 7.80025452 17.94358826 7.12025452 C16.29358826 7.12025452 14.64358826 7.12025452 12.94358826 7.12025452 Z M19.94358826 7.12025452 C19.94358826 7.78025452 19.94358826 8.44025452 19.94358826 9.12025452 C21.59358826 9.12025452 23.24358826 9.12025452 24.94358826 9.12025452 C24.94358826 8.46025452 24.94358826 7.80025452 24.94358826 7.12025452 C23.29358826 7.12025452 21.64358826 7.12025452 19.94358826 7.12025452 Z M27.94358826 7.12025452 C27.94358826 7.78025452 27.94358826 8.44025452 27.94358826 9.12025452 C29.59358826 9.12025452 31.24358826 9.12025452 32.94358826 9.12025452 C32.94358826 8.46025452 32.94358826 7.80025452 32.94358826 7.12025452 C31.29358826 7.12025452 29.64358826 7.12025452 27.94358826 7.12025452 Z M34.94358826 7.12025452 C34.94358826 7.78025452 34.94358826 8.44025452 34.94358826 9.12025452 C36.59358826 9.12025452 38.24358826 9.12025452 39.94358826 9.12025452 C39.94358826 8.46025452 39.94358826 7.80025452 39.94358826 7.12025452 C38.29358826 7.12025452 36.64358826 7.12025452 34.94358826 7.12025452 Z M41.94358826 7.12025452 C41.94358826 7.78025452 41.94358826 8.44025452 41.94358826 9.12025452 C43.59358826 9.12025452 45.24358826 9.12025452 46.94358826 9.12025452 C46.94358826 8.46025452 46.94358826 7.80025452 46.94358826 7.12025452 C45.29358826 7.12025452 43.64358826 7.12025452 41.94358826 7.12025452 Z M-1.05641174 11.12025452 C-1.05641174 11.78025452 -1.05641174 12.44025452 -1.05641174 13.12025452 C0.59358826 13.12025452 2.24358826 13.12025452 3.94358826 13.12025452 C3.94358826 12.46025452 3.94358826 11.80025452 3.94358826 11.12025452 C2.29358826 11.12025452 0.64358826 11.12025452 -1.05641174 11.12025452 Z M5.94358826 11.12025452 C5.94358826 11.78025452 5.94358826 12.44025452 5.94358826 13.12025452 C7.59358826 13.12025452 9.24358826 13.12025452 10.94358826 13.12025452 C10.94358826 12.46025452 10.94358826 11.80025452 10.94358826 11.12025452 C9.29358826 11.12025452 7.64358826 11.12025452 5.94358826 11.12025452 Z M12.94358826 11.12025452 C12.94358826 11.78025452 12.94358826 12.44025452 12.94358826 13.12025452 C14.59358826 13.12025452 16.24358826 13.12025452 17.94358826 13.12025452 C17.94358826 12.46025452 17.94358826 11.80025452 17.94358826 11.12025452 C16.29358826 11.12025452 14.64358826 11.12025452 12.94358826 11.12025452 Z M19.94358826 11.12025452 C19.94358826 11.78025452 19.94358826 12.44025452 19.94358826 13.12025452 C21.59358826 13.12025452 23.24358826 13.12025452 24.94358826 13.12025452 C24.94358826 12.46025452 24.94358826 11.80025452 24.94358826 11.12025452 C23.29358826 11.12025452 21.64358826 11.12025452 19.94358826 11.12025452 Z M27.94358826 11.12025452 C27.94358826 11.78025452 27.94358826 12.44025452 27.94358826 13.12025452 C29.59358826 13.12025452 31.24358826 13.12025452 32.94358826 13.12025452 C32.94358826 12.46025452 32.94358826 11.80025452 32.94358826 11.12025452 C31.29358826 11.12025452 29.64358826 11.12025452 27.94358826 11.12025452 Z M34.94358826 11.12025452 C34.94358826 11.78025452 34.94358826 12.44025452 34.94358826 13.12025452 C36.59358826 13.12025452 38.24358826 13.12025452 39.94358826 13.12025452 C39.94358826 12.46025452 39.94358826 11.80025452 39.94358826 11.12025452 C38.29358826 11.12025452 36.64358826 11.12025452 34.94358826 11.12025452 Z M41.94358826 11.12025452 C41.94358826 11.78025452 41.94358826 12.44025452 41.94358826 13.12025452 C43.59358826 13.12025452 45.24358826 13.12025452 46.94358826 13.12025452 C46.94358826 12.46025452 46.94358826 11.80025452 46.94358826 11.12025452 C45.29358826 11.12025452 43.64358826 11.12025452 41.94358826 11.12025452 Z M-1.05641174 15.12025452 C-1.05641174 15.78025452 -1.05641174 16.44025452 -1.05641174 17.12025452 C0.59358826 17.12025452 2.24358826 17.12025452 3.94358826 17.12025452 C3.94358826 16.46025452 3.94358826 15.80025452 3.94358826 15.12025452 C2.29358826 15.12025452 0.64358826 15.12025452 -1.05641174 15.12025452 Z M5.94358826 15.12025452 C5.94358826 15.78025452 5.94358826 16.44025452 5.94358826 17.12025452 C7.59358826 17.12025452 9.24358826 17.12025452 10.94358826 17.12025452 C10.94358826 16.46025452 10.94358826 15.80025452 10.94358826 15.12025452 C9.29358826 15.12025452 7.64358826 15.12025452 5.94358826 15.12025452 Z M12.94358826 15.12025452 C12.94358826 15.78025452 12.94358826 16.44025452 12.94358826 17.12025452 C14.59358826 17.12025452 16.24358826 17.12025452 17.94358826 17.12025452 C17.94358826 16.46025452 17.94358826 15.80025452 17.94358826 15.12025452 C16.29358826 15.12025452 14.64358826 15.12025452 12.94358826 15.12025452 Z M19.94358826 15.12025452 C19.94358826 15.78025452 19.94358826 16.44025452 19.94358826 17.12025452 C21.59358826 17.12025452 23.24358826 17.12025452 24.94358826 17.12025452 C24.94358826 16.46025452 24.94358826 15.80025452 24.94358826 15.12025452 C23.29358826 15.12025452 21.64358826 15.12025452 19.94358826 15.12025452 Z M27.94358826 15.12025452 C27.94358826 15.78025452 27.94358826 16.44025452 27.94358826 17.12025452 C29.59358826 17.12025452 31.24358826 17.12025452 32.94358826 17.12025452 C32.94358826 16.46025452 32.94358826 15.80025452 32.94358826 15.12025452 C31.29358826 15.12025452 29.64358826 15.12025452 27.94358826 15.12025452 Z M34.94358826 15.12025452 C34.94358826 15.78025452 34.94358826 16.44025452 34.94358826 17.12025452 C36.59358826 17.12025452 38.24358826 17.12025452 39.94358826 17.12025452 C39.94358826 16.46025452 39.94358826 15.80025452 39.94358826 15.12025452 C38.29358826 15.12025452 36.64358826 15.12025452 34.94358826 15.12025452 Z M41.94358826 15.12025452 C41.94358826 15.78025452 41.94358826 16.44025452 41.94358826 17.12025452 C43.59358826 17.12025452 45.24358826 17.12025452 46.94358826 17.12025452 C46.94358826 16.46025452 46.94358826 15.80025452 46.94358826 15.12025452 C45.29358826 15.12025452 43.64358826 15.12025452 41.94358826 15.12025452 Z M5.94358826 19.12025452 C5.94358826 19.78025452 5.94358826 20.44025452 5.94358826 21.12025452 C7.59358826 21.12025452 9.24358826 21.12025452 10.94358826 21.12025452 C10.94358826 20.46025452 10.94358826 19.80025452 10.94358826 19.12025452 C9.29358826 19.12025452 7.64358826 19.12025452 5.94358826 19.12025452 Z M19.94358826 19.12025452 C19.94358826 19.78025452 19.94358826 20.44025452 19.94358826 21.12025452 C21.59358826 21.12025452 23.24358826 21.12025452 24.94358826 21.12025452 C24.94358826 20.46025452 24.94358826 19.80025452 24.94358826 19.12025452 C23.29358826 19.12025452 21.64358826 19.12025452 19.94358826 19.12025452 Z M27.94358826 19.12025452 C27.94358826 19.78025452 27.94358826 20.44025452 27.94358826 21.12025452 C29.59358826 21.12025452 31.24358826 21.12025452 32.94358826 21.12025452 C32.94358826 20.46025452 32.94358826 19.80025452 32.94358826 19.12025452 C31.29358826 19.12025452 29.64358826 19.12025452 27.94358826 19.12025452 Z M34.94358826 19.12025452 C34.94358826 19.78025452 34.94358826 20.44025452 34.94358826 21.12025452 C36.59358826 21.12025452 38.24358826 21.12025452 39.94358826 21.12025452 C39.94358826 20.46025452 39.94358826 19.80025452 39.94358826 19.12025452 C38.29358826 19.12025452 36.64358826 19.12025452 34.94358826 19.12025452 Z M41.94358826 19.12025452 C41.94358826 19.78025452 41.94358826 20.44025452 41.94358826 21.12025452 C43.59358826 21.12025452 45.24358826 21.12025452 46.94358826 21.12025452 C46.94358826 20.46025452 46.94358826 19.80025452 46.94358826 19.12025452 C45.29358826 19.12025452 43.64358826 19.12025452 41.94358826 19.12025452 Z M-4.05641174 23.12025452 C-3.05641174 27.12025452 -3.05641174 27.12025452 -3.05641174 27.12025452 Z M12.94358826 23.12025452 C12.94358826 23.78025452 12.94358826 24.44025452 12.94358826 25.12025452 C14.59358826 25.12025452 16.24358826 25.12025452 17.94358826 25.12025452 C17.94358826 24.46025452 17.94358826 23.80025452 17.94358826 23.12025452 C16.29358826 23.12025452 14.64358826 23.12025452 12.94358826 23.12025452 Z M19.94358826 23.12025452 C19.94358826 23.78025452 19.94358826 24.44025452 19.94358826 25.12025452 C21.59358826 25.12025452 23.24358826 25.12025452 24.94358826 25.12025452 C24.94358826 24.46025452 24.94358826 23.80025452 24.94358826 23.12025452 C23.29358826 23.12025452 21.64358826 23.12025452 19.94358826 23.12025452 Z M27.94358826 23.12025452 C27.94358826 23.78025452 27.94358826 24.44025452 27.94358826 25.12025452 C29.59358826 25.12025452 31.24358826 25.12025452 32.94358826 25.12025452 C32.94358826 24.46025452 32.94358826 23.80025452 32.94358826 23.12025452 C31.29358826 23.12025452 29.64358826 23.12025452 27.94358826 23.12025452 Z M12.94358826 27.12025452 C12.94358826 27.78025452 12.94358826 28.44025452 12.94358826 29.12025452 C14.59358826 29.12025452 16.24358826 29.12025452 17.94358826 29.12025452 C17.94358826 28.46025452 17.94358826 27.80025452 17.94358826 27.12025452 C16.29358826 27.12025452 14.64358826 27.12025452 12.94358826 27.12025452 Z " fill="#DA6985" transform="translate(30.056411743164063,107.87974548339844)"/>
<path d="M0 0 C10.56 0 21.12 0 32 0 C32 36.3 32 72.6 32 110 C20.78 110 9.56 110 -2 110 C-2.17612338 97.37794062 -2.34327005 84.75584893 -2.49477577 72.13346958 C-2.56548723 66.2719133 -2.64007548 60.41046062 -2.72363281 54.54907227 C-2.8041799 48.88871331 -2.87440062 43.22831045 -2.93757248 37.56773186 C-2.96342373 35.4120305 -2.9929467 33.25636984 -3.02626419 31.10077095 C-3.07242228 28.07314868 -3.10532406 25.04564263 -3.13525391 22.01782227 C-3.1517952 21.13380737 -3.16833649 20.24979248 -3.18537903 19.33898926 C-3.23137561 12.54314836 -2.14717877 6.4415363 0 0 Z M1 1 C2 3 2 3 2 3 Z M3 1 C4 3 4 3 4 3 Z M15 1 C16 3 16 3 16 3 Z M17 1 C18 3 18 3 18 3 Z M19 1 C20 3 20 3 20 3 Z M21 1 C22 3 22 3 22 3 Z M23 1 C24 3 24 3 24 3 Z M25 1 C26 3 26 3 26 3 Z M27 1 C28 3 28 3 28 3 Z M29 1 C30 3 30 3 30 3 Z M0 7 C0 8.32 0 9.64 0 11 C0.66 11 1.32 11 2 11 C2 9.68 2 8.36 2 7 C1.34 7 0.68 7 0 7 Z M3 7 C3 8.32 3 9.64 3 11 C3.66 11 4.32 11 5 11 C5 9.68 5 8.36 5 7 C4.34 7 3.68 7 3 7 Z M7 7 C7 8.32 7 9.64 7 11 C7.66 11 8.32 11 9 11 C9 9.68 9 8.36 9 7 C8.34 7 7.68 7 7 7 Z M10 7 C10 8.32 10 9.64 10 11 C10.66 11 11.32 11 12 11 C12 9.68 12 8.36 12 7 C11.34 7 10.68 7 10 7 Z M14 7 C14 8.32 14 9.64 14 11 C14.66 11 15.32 11 16 11 C16 9.68 16 8.36 16 7 C15.34 7 14.68 7 14 7 Z M17 7 C17 8.32 17 9.64 17 11 C17.66 11 18.32 11 19 11 C19 9.68 19 8.36 19 7 C18.34 7 17.68 7 17 7 Z M21 7 C21 8.32 21 9.64 21 11 C21.66 11 22.32 11 23 11 C23 9.68 23 8.36 23 7 C22.34 7 21.68 7 21 7 Z M24 7 C24 8.32 24 9.64 24 11 C24.66 11 25.32 11 26 11 C26 9.68 26 8.36 26 7 C25.34 7 24.68 7 24 7 Z M28 7 C28 8.32 28 9.64 28 11 C28.66 11 29.32 11 30 11 C30 9.68 30 8.36 30 7 C29.34 7 28.68 7 28 7 Z M0 13 C0 14.32 0 15.64 0 17 C0.66 17 1.32 17 2 17 C2 15.68 2 14.36 2 13 C1.34 13 0.68 13 0 13 Z M3 13 C3 14.32 3 15.64 3 17 C3.66 17 4.32 17 5 17 C5 15.68 5 14.36 5 13 C4.34 13 3.68 13 3 13 Z M7 13 C7 14.32 7 15.64 7 17 C7.66 17 8.32 17 9 17 C9 15.68 9 14.36 9 13 C8.34 13 7.68 13 7 13 Z M10 13 C10 14.32 10 15.64 10 17 C10.66 17 11.32 17 12 17 C12 15.68 12 14.36 12 13 C11.34 13 10.68 13 10 13 Z M14 13 C14 14.32 14 15.64 14 17 C14.66 17 15.32 17 16 17 C16 15.68 16 14.36 16 13 C15.34 13 14.68 13 14 13 Z M17 13 C17 14.32 17 15.64 17 17 C17.66 17 18.32 17 19 17 C19 15.68 19 14.36 19 13 C18.34 13 17.68 13 17 13 Z M21 13 C21 14.32 21 15.64 21 17 C21.66 17 22.32 17 23 17 C23 15.68 23 14.36 23 13 C22.34 13 21.68 13 21 13 Z M24 13 C24 14.32 24 15.64 24 17 C24.66 17 25.32 17 26 17 C26 15.68 26 14.36 26 13 C25.34 13 24.68 13 24 13 Z M28 13 C28 14.32 28 15.64 28 17 C28.66 17 29.32 17 30 17 C30 15.68 30 14.36 30 13 C29.34 13 28.68 13 28 13 Z M0 19 C0 20.32 0 21.64 0 23 C0.66 23 1.32 23 2 23 C2 21.68 2 20.36 2 19 C1.34 19 0.68 19 0 19 Z M3 19 C3 20.32 3 21.64 3 23 C3.66 23 4.32 23 5 23 C5 21.68 5 20.36 5 19 C4.34 19 3.68 19 3 19 Z M24 19 C24 20.32 24 21.64 24 23 C24.66 23 25.32 23 26 23 C26 21.68 26 20.36 26 19 C25.34 19 24.68 19 24 19 Z M28 19 C28 20.32 28 21.64 28 23 C28.66 23 29.32 23 30 23 C30 21.68 30 20.36 30 19 C29.34 19 28.68 19 28 19 Z M0 25 C0 26.32 0 27.64 0 29 C0.66 29 1.32 29 2 29 C2 27.68 2 26.36 2 25 C1.34 25 0.68 25 0 25 Z M28 25 C28 26.32 28 27.64 28 29 C28.66 29 29.32 29 30 29 C30 27.68 30 26.36 30 25 C29.34 25 28.68 25 28 25 Z " fill="#DA6985" transform="translate(406,84)"/>
<path d="M0 0 C10.56 0 21.12 0 32 0 C32 24.42 32 48.84 32 74 C21.11 74 10.22 74 -1 74 C-2.70833376 72.29166624 -2.17772619 70.05803385 -2.22119141 67.72094727 C-2.24436432 66.5920961 -2.26753723 65.46324493 -2.29141235 64.30018616 C-2.3112619 63.06803879 -2.33111145 61.83589142 -2.3515625 60.56640625 C-2.37471527 59.30416733 -2.39786804 58.04192841 -2.42172241 56.74143982 C-2.46947849 54.05883672 -2.51517381 51.37628713 -2.55761719 48.69360352 C-2.61195831 45.28100117 -2.67589695 41.86866101 -2.74279213 38.45628452 C-2.80549754 35.18058714 -2.85931441 31.90474479 -2.9140625 28.62890625 C-2.94990952 26.80801231 -2.94990952 26.80801231 -2.98648071 24.95033264 C-3.2323825 8.08095625 -3.2323825 8.08095625 0 0 Z M1 1 C2 3 2 3 2 3 Z M3 1 C4 3 4 3 4 3 Z M15 1 C16 3 16 3 16 3 Z M17 1 C18 3 18 3 18 3 Z M19 1 C20 3 20 3 20 3 Z M21 1 C22 3 22 3 22 3 Z M23 1 C24 3 24 3 24 3 Z M25 1 C26 3 26 3 26 3 Z M27 1 C28 3 28 3 28 3 Z M29 1 C30 3 30 3 30 3 Z M0 7 C0 8.32 0 9.64 0 11 C0.66 11 1.32 11 2 11 C2 9.68 2 8.36 2 7 C1.34 7 0.68 7 0 7 Z M3 7 C3 8.32 3 9.64 3 11 C3.66 11 4.32 11 5 11 C5 9.68 5 8.36 5 7 C4.34 7 3.68 7 3 7 Z M7 7 C7 8.32 7 9.64 7 11 C7.66 11 8.32 11 9 11 C9 9.68 9 8.36 9 7 C8.34 7 7.68 7 7 7 Z M10 7 C10 8.32 10 9.64 10 11 C10.66 11 11.32 11 12 11 C12 9.68 12 8.36 12 7 C11.34 7 10.68 7 10 7 Z M14 7 C14 8.32 14 9.64 14 11 C14.66 11 15.32 11 16 11 C16 9.68 16 8.36 16 7 C15.34 7 14.68 7 14 7 Z M17 7 C17 8.32 17 9.64 17 11 C17.66 11 18.32 11 19 11 C19 9.68 19 8.36 19 7 C18.34 7 17.68 7 17 7 Z M21 7 C21 8.32 21 9.64 21 11 C21.66 11 22.32 11 23 11 C23 9.68 23 8.36 23 7 C22.34 7 21.68 7 21 7 Z M24 7 C24 8.32 24 9.64 24 11 C24.66 11 25.32 11 26 11 C26 9.68 26 8.36 26 7 C25.34 7 24.68 7 24 7 Z M28 7 C28 8.32 28 9.64 28 11 C28.66 11 29.32 11 30 11 C30 9.68 30 8.36 30 7 C29.34 7 28.68 7 28 7 Z M0 13 C0 14.32 0 15.64 0 17 C0.66 17 1.32 17 2 17 C2 15.68 2 14.36 2 13 C1.34 13 0.68 13 0 13 Z M3 13 C3 14.32 3 15.64 3 17 C3.66 17 4.32 17 5 17 C5 15.68 5 14.36 5 13 C4.34 13 3.68 13 3 13 Z M7 13 C7 14.32 7 15.64 7 17 C7.66 17 8.32 17 9 17 C9 15.68 9 14.36 9 13 C8.34 13 7.68 13 7 13 Z M10 13 C10 14.32 10 15.64 10 17 C10.66 17 11.32 17 12 17 C12 15.68 12 14.36 12 13 C11.34 13 10.68 13 10 13 Z M14 13 C14 14.32 14 15.64 14 17 C14.66 17 15.32 17 16 17 C16 15.68 16 14.36 16 13 C15.34 13 14.68 13 14 13 Z M17 13 C17 14.32 17 15.64 17 17 C17.66 17 18.32 17 19 17 C19 15.68 19 14.36 19 13 C18.34 13 17.68 13 17 13 Z M21 13 C21 14.32 21 15.64 21 17 C21.66 17 22.32 17 23 17 C23 15.68 23 14.36 23 13 C22.34 13 21.68 13 21 13 Z M24 13 C24 14.32 24 15.64 24 17 C24.66 17 25.32 17 26 17 C26 15.68 26 14.36 26 13 C25.34 13 24.68 13 24 13 Z M28 13 C28 14.32 28 15.64 28 17 C28.66 17 29.32 17 30 17 C30 15.68 30 14.36 30 13 C29.34 13 28.68 13 28 13 Z M0 19 C0 20.32 0 21.64 0 23 C0.66 23 1.32 23 2 23 C2 21.68 2 20.36 2 19 C1.34 19 0.68 19 0 19 Z M3 19 C3 20.32 3 21.64 3 23 C3.66 23 4.32 23 5 23 C5 21.68 5 20.36 5 19 C4.34 19 3.68 19 3 19 Z M24 19 C24 20.32 24 21.64 24 23 C24.66 23 25.32 23 26 23 C26 21.68 26 20.36 26 19 C25.34 19 24.68 19 24 19 Z M28 19 C28 20.32 28 21.64 28 23 C28.66 23 29.32 23 30 23 C30 21.68 30 20.36 30 19 C29.34 19 28.68 19 28 19 Z M0 25 C0 26.32 0 27.64 0 29 C0.66 29 1.32 29 2 29 C2 27.68 2 26.36 2 25 C1.34 25 0.68 25 0 25 Z M28 25 C28 26.32 28 27.64 28 29 C28.66 29 29.32 29 30 29 C30 27.68 30 26.36 30 25 C29.34 25 28.68 25 28 25 Z " fill="#DA6985" transform="translate(116,120)"/>
<path d="M0 0 C4.29 0 8.58 0 13 0 C13 0.66 13 1.32 13 2 C18.94 2 24.88 2 31 2 C31 21.14 31 40.28 31 60 C20.11 60 9.22 60 -2 60 C-2 40.86 -2 21.72 -2 2 C-1.34 2 -0.68 2 0 2 C0 1.34 0 0.68 0 0 Z M0 6 C0 7.32 0 8.64 0 10 C0.66 10 1.32 10 2 10 C2 8.68 2 7.36 2 6 C1.34 6 0.68 6 0 6 Z M4 6 C4 7.32 4 8.64 4 10 C4.66 10 5.32 10 6 10 C6 8.68 6 7.36 6 6 C5.34 6 4.68 6 4 6 Z M8 6 C8 7.32 8 8.64 8 10 C8.66 10 9.32 10 10 10 C10 8.68 10 7.36 10 6 C9.34 6 8.68 6 8 6 Z M12 6 C12 7.32 12 8.64 12 10 C12.66 10 13.32 10 14 10 C14 8.68 14 7.36 14 6 C13.34 6 12.68 6 12 6 Z M16 6 C16 7.32 16 8.64 16 10 C16.66 10 17.32 10 18 10 C18 8.68 18 7.36 18 6 C17.34 6 16.68 6 16 6 Z M0 12 C0 13.32 0 14.64 0 16 C0.66 16 1.32 16 2 16 C2 14.68 2 13.36 2 12 C1.34 12 0.68 12 0 12 Z M4 12 C4 13.32 4 14.64 4 16 C4.66 16 5.32 16 6 16 C6 14.68 6 13.36 6 12 C5.34 12 4.68 12 4 12 Z M8 12 C8 13.32 8 14.64 8 16 C8.66 16 9.32 16 10 16 C10 14.68 10 13.36 10 12 C9.34 12 8.68 12 8 12 Z M0 18 C0 19.32 0 20.64 0 22 C0.66 22 1.32 22 2 22 C2 20.68 2 19.36 2 18 C1.34 18 0.68 18 0 18 Z M4 18 C4 19.32 4 20.64 4 22 C4.66 22 5.32 22 6 22 C6 20.68 6 19.36 6 18 C5.34 18 4.68 18 4 18 Z M0 24 C0 25.32 0 26.64 0 28 C0.66 28 1.32 28 2 28 C2 26.68 2 25.36 2 24 C1.34 24 0.68 24 0 24 Z " fill="#D96884" transform="translate(545,134)"/>
<path d="M0 0 C5.61 0 11.22 0 17 0 C16.67 11.88 16.34 23.76 16 36 C9.565 36.495 9.565 36.495 3 37 C2.67 56.8 2.34 76.6 2 97 C-4.93 97 -11.86 97 -19 97 C-19.02255497 89.19424413 -19.04091738 81.38850593 -19.05181217 73.58272648 C-19.05704002 69.9585404 -19.06413587 66.3343777 -19.07543945 62.71020508 C-19.08627184 59.21540025 -19.09227758 55.72061796 -19.09487724 52.22579765 C-19.09763551 50.23760611 -19.10544688 48.24942369 -19.11329651 46.26124573 C-19.11337204 45.06007614 -19.11344757 43.85890656 -19.11352539 42.62133789 C-19.115746 41.55766495 -19.11796661 40.493992 -19.12025452 39.39808655 C-19 37 -19 37 -18 36 C-15.13732433 35.92674832 -12.299281 35.90761795 -9.4375 35.9375 C-8.63119141 35.94201172 -7.82488281 35.94652344 -6.99414062 35.95117188 C-4.99606244 35.96299482 -2.99802217 35.98093086 -1 36 C-1.00785522 34.41747437 -1.00785522 34.41747437 -1.01586914 32.80297852 C-1.03391901 28.9024337 -1.04543195 25.0018926 -1.05493164 21.10131836 C-1.0599719 19.41055684 -1.06680405 17.71979971 -1.07543945 16.02905273 C-1.08751857 13.60399293 -1.09323123 11.17899056 -1.09765625 8.75390625 C-1.10281754 7.99348526 -1.10797882 7.23306427 -1.11329651 6.44960022 C-1.11349238 4.6326743 -1.06197277 2.81586873 -1 1 C-0.67 0.67 -0.34 0.34 0 0 Z M1 4 C1 5.32 1 6.64 1 8 C1.66 8 2.32 8 3 8 C3 6.68 3 5.36 3 4 C2.34 4 1.68 4 1 4 Z M4 4 C4 5.32 4 6.64 4 8 C4.66 8 5.32 8 6 8 C6 6.68 6 5.36 6 4 C5.34 4 4.68 4 4 4 Z M9 4 C9 5.32 9 6.64 9 8 C9.66 8 10.32 8 11 8 C11 6.68 11 5.36 11 4 C10.34 4 9.68 4 9 4 Z M12 4 C12 5.32 12 6.64 12 8 C12.66 8 13.32 8 14 8 C14 6.68 14 5.36 14 4 C13.34 4 12.68 4 12 4 Z M1 10 C1 11.32 1 12.64 1 14 C1.66 14 2.32 14 3 14 C3 12.68 3 11.36 3 10 C2.34 10 1.68 10 1 10 Z M4 10 C4 11.32 4 12.64 4 14 C4.66 14 5.32 14 6 14 C6 12.68 6 11.36 6 10 C5.34 10 4.68 10 4 10 Z M9 10 C9 11.32 9 12.64 9 14 C9.66 14 10.32 14 11 14 C11 12.68 11 11.36 11 10 C10.34 10 9.68 10 9 10 Z M12 10 C12 11.32 12 12.64 12 14 C12.66 14 13.32 14 14 14 C14 12.68 14 11.36 14 10 C13.34 10 12.68 10 12 10 Z M1 16 C1 17.32 1 18.64 1 20 C1.66 20 2.32 20 3 20 C3 18.68 3 17.36 3 16 C2.34 16 1.68 16 1 16 Z M4 16 C4 17.32 4 18.64 4 20 C4.66 20 5.32 20 6 20 C6 18.68 6 17.36 6 16 C5.34 16 4.68 16 4 16 Z M9 16 C9 17.32 9 18.64 9 20 C9.66 20 10.32 20 11 20 C11 18.68 11 17.36 11 16 C10.34 16 9.68 16 9 16 Z M12 16 C12 17.32 12 18.64 12 20 C12.66 20 13.32 20 14 20 C14 18.68 14 17.36 14 16 C13.34 16 12.68 16 12 16 Z M4 22 C4 23.32 4 24.64 4 26 C4.66 26 5.32 26 6 26 C6 24.68 6 23.36 6 22 C5.34 22 4.68 22 4 22 Z M9 22 C9 23.32 9 24.64 9 26 C9.66 26 10.32 26 11 26 C11 24.68 11 23.36 11 22 C10.34 22 9.68 22 9 22 Z M-17 39 C-17 40.32 -17 41.64 -17 43 C-16.34 43 -15.68 43 -15 43 C-15 41.68 -15 40.36 -15 39 C-15.66 39 -16.32 39 -17 39 Z M-14 39 C-14 40.32 -14 41.64 -14 43 C-13.34 43 -12.68 43 -12 43 C-12 41.68 -12 40.36 -12 39 C-12.66 39 -13.32 39 -14 39 Z M-11 39 C-11 40.32 -11 41.64 -11 43 C-10.34 43 -9.68 43 -9 43 C-9 41.68 -9 40.36 -9 39 C-9.66 39 -10.32 39 -11 39 Z M-8 39 C-8 40.32 -8 41.64 -8 43 C-7.34 43 -6.68 43 -6 43 C-6 41.68 -6 40.36 -6 39 C-6.66 39 -7.32 39 -8 39 Z M-5 39 C-5 40.32 -5 41.64 -5 43 C-4.34 43 -3.68 43 -3 43 C-3 41.68 -3 40.36 -3 39 C-3.66 39 -4.32 39 -5 39 Z M-17 45 C-17 46.32 -17 47.64 -17 49 C-16.34 49 -15.68 49 -15 49 C-15 47.68 -15 46.36 -15 45 C-15.66 45 -16.32 45 -17 45 Z M-14 45 C-14 46.32 -14 47.64 -14 49 C-13.34 49 -12.68 49 -12 49 C-12 47.68 -12 46.36 -12 45 C-12.66 45 -13.32 45 -14 45 Z M-11 45 C-11 46.32 -11 47.64 -11 49 C-10.34 49 -9.68 49 -9 49 C-9 47.68 -9 46.36 -9 45 C-9.66 45 -10.32 45 -11 45 Z M-11 51 C-11 52.65 -11 54.3 -11 56 C-10.34 56 -9.68 56 -9 56 C-9 54.35 -9 52.7 -9 51 C-9.66 51 -10.32 51 -11 51 Z M-8 51 C-8 52.65 -8 54.3 -8 56 C-7.34 56 -6.68 56 -6 56 C-6 54.35 -6 52.7 -6 51 C-6.66 51 -7.32 51 -8 51 Z M-5 51 C-5 52.65 -5 54.3 -5 56 C-4.34 56 -3.68 56 -3 56 C-3 54.35 -3 52.7 -3 51 C-3.66 51 -4.32 51 -5 51 Z " fill="#DA6985" transform="translate(321,97)"/>
<path d="M0 0 C8.58 0 17.16 0 26 0 C26 20.13 26 40.26 26 61 C17.42 61 8.84 61 0 61 C0 40.87 0 20.74 0 0 Z M2 2 C2 3.32 2 4.64 2 6 C2.66 6 3.32 6 4 6 C4 4.68 4 3.36 4 2 C3.34 2 2.68 2 2 2 Z M6 2 C6 3.32 6 4.64 6 6 C6.66 6 7.32 6 8 6 C8 4.68 8 3.36 8 2 C7.34 2 6.68 2 6 2 Z M10 2 C10 3.32 10 4.64 10 6 C10.66 6 11.32 6 12 6 C12 4.68 12 3.36 12 2 C11.34 2 10.68 2 10 2 Z M14 2 C14 3.32 14 4.64 14 6 C14.66 6 15.32 6 16 6 C16 4.68 16 3.36 16 2 C15.34 2 14.68 2 14 2 Z M18 2 C18 3.32 18 4.64 18 6 C18.66 6 19.32 6 20 6 C20 4.68 20 3.36 20 2 C19.34 2 18.68 2 18 2 Z M22 2 C22 3.32 22 4.64 22 6 C22.66 6 23.32 6 24 6 C24 4.68 24 3.36 24 2 C23.34 2 22.68 2 22 2 Z M2 8 C2 9.32 2 10.64 2 12 C2.66 12 3.32 12 4 12 C4 10.68 4 9.36 4 8 C3.34 8 2.68 8 2 8 Z M6 8 C6 9.32 6 10.64 6 12 C6.66 12 7.32 12 8 12 C8 10.68 8 9.36 8 8 C7.34 8 6.68 8 6 8 Z M10 8 C10 9.32 10 10.64 10 12 C10.66 12 11.32 12 12 12 C12 10.68 12 9.36 12 8 C11.34 8 10.68 8 10 8 Z M14 8 C14 9.32 14 10.64 14 12 C14.66 12 15.32 12 16 12 C16 10.68 16 9.36 16 8 C15.34 8 14.68 8 14 8 Z M18 8 C18 9.32 18 10.64 18 12 C18.66 12 19.32 12 20 12 C20 10.68 20 9.36 20 8 C19.34 8 18.68 8 18 8 Z M22 8 C22 9.32 22 10.64 22 12 C22.66 12 23.32 12 24 12 C24 10.68 24 9.36 24 8 C23.34 8 22.68 8 22 8 Z M2 14 C2 15.32 2 16.64 2 18 C2.66 18 3.32 18 4 18 C4 16.68 4 15.36 4 14 C3.34 14 2.68 14 2 14 Z M6 14 C6 15.32 6 16.64 6 18 C6.66 18 7.32 18 8 18 C8 16.68 8 15.36 8 14 C7.34 14 6.68 14 6 14 Z M10 14 C10 15.32 10 16.64 10 18 C10.66 18 11.32 18 12 18 C12 16.68 12 15.36 12 14 C11.34 14 10.68 14 10 14 Z M14 14 C14 15.32 14 16.64 14 18 C14.66 18 15.32 18 16 18 C16 16.68 16 15.36 16 14 C15.34 14 14.68 14 14 14 Z M18 14 C18 15.32 18 16.64 18 18 C18.66 18 19.32 18 20 18 C20 16.68 20 15.36 20 14 C19.34 14 18.68 14 18 14 Z M22 14 C22 15.32 22 16.64 22 18 C22.66 18 23.32 18 24 18 C24 16.68 24 15.36 24 14 C23.34 14 22.68 14 22 14 Z M18 20 C18 21.32 18 22.64 18 24 C18.66 24 19.32 24 20 24 C20 22.68 20 21.36 20 20 C19.34 20 18.68 20 18 20 Z M22 20 C22 21.32 22 22.64 22 24 C22.66 24 23.32 24 24 24 C24 22.68 24 21.36 24 20 C23.34 20 22.68 20 22 20 Z M22 26 C22 27.32 22 28.64 22 30 C22.66 30 23.32 30 24 30 C24 28.68 24 27.36 24 26 C23.34 26 22.68 26 22 26 Z " fill="#DA6985" transform="translate(477,133)"/>
<path d="M0 0 C5.28 0 10.56 0 16 0 C16 19.47 16 38.94 16 59 C10.72 59 5.44 59 0 59 C0 44.15 0 29.3 0 14 C0.66 14 1.32 14 2 14 C2 12.68 2 11.36 2 10 C1.34 10 0.68 10 0 10 C0 9.34 0 8.68 0 8 C0.66 8 1.32 8 2 8 C2 6.68 2 5.36 2 4 C1.34 4 0.68 4 0 4 C0 2.68 0 1.36 0 0 Z M4 4 C4 5.32 4 6.64 4 8 C4.66 8 5.32 8 6 8 C6 6.68 6 5.36 6 4 C5.34 4 4.68 4 4 4 Z M8 4 C8 5.32 8 6.64 8 8 C8.66 8 9.32 8 10 8 C10 6.68 10 5.36 10 4 C9.34 4 8.68 4 8 4 Z M12 4 C12 5.32 12 6.64 12 8 C12.66 8 13.32 8 14 8 C14 6.68 14 5.36 14 4 C13.34 4 12.68 4 12 4 Z M4 10 C4 11.32 4 12.64 4 14 C4.66 14 5.32 14 6 14 C6 12.68 6 11.36 6 10 C5.34 10 4.68 10 4 10 Z M8 10 C8 11.32 8 12.64 8 14 C8.66 14 9.32 14 10 14 C10 12.68 10 11.36 10 10 C9.34 10 8.68 10 8 10 Z M12 10 C12 11.32 12 12.64 12 14 C12.66 14 13.32 14 14 14 C14 12.68 14 11.36 14 10 C13.34 10 12.68 10 12 10 Z M4 16 C4 17.32 4 18.64 4 20 C4.66 20 5.32 20 6 20 C6 18.68 6 17.36 6 16 C5.34 16 4.68 16 4 16 Z M8 16 C8 17.32 8 18.64 8 20 C8.66 20 9.32 20 10 20 C10 18.68 10 17.36 10 16 C9.34 16 8.68 16 8 16 Z M12 16 C12 17.32 12 18.64 12 20 C12.66 20 13.32 20 14 20 C14 18.68 14 17.36 14 16 C13.34 16 12.68 16 12 16 Z M8 22 C8 23.32 8 24.64 8 26 C8.66 26 9.32 26 10 26 C10 24.68 10 23.36 10 22 C9.34 22 8.68 22 8 22 Z M12 22 C12 23.32 12 24.64 12 26 C12.66 26 13.32 26 14 26 C14 24.68 14 23.36 14 22 C13.34 22 12.68 22 12 22 Z M12 28 C12 29.65 12 31.3 12 33 C12.66 33 13.32 33 14 33 C14 31.35 14 29.7 14 28 C13.34 28 12.68 28 12 28 Z " fill="#DA6985" transform="translate(0,136)"/>
<path d="M0 0 C3.625 -0.1875 3.625 -0.1875 7 0 C6.01 1.485 6.01 1.485 5 3 C1.375 3.1875 1.375 3.1875 -2 3 C-1.34 2.01 -0.68 1.02 0 0 Z " fill="#DA6985" transform="translate(345,94)"/>
</svg>
