<?xml version="1.0" encoding="UTF-8"?>
<svg version="1.1" xmlns="http://www.w3.org/2000/svg" width="576" height="324">
<path d="M0 0 C14.19 0 28.38 0 43 0 C43 0.99 43 1.98 43 3 C43.66 3 44.32 3 45 3 C45 2.01 45 1.02 45 0 C51.93 0 58.86 0 66 0 C66.77870045 3.11480181 67.12418658 5.14097217 67.12025452 8.23944092 C67.12231651 9.49719078 67.12231651 9.49719078 67.12442017 10.78034973 C67.12082489 11.69169174 67.11722961 12.60303375 67.11352539 13.54199219 C67.11367142 14.50817978 67.11381744 15.47436737 67.1139679 16.46983337 C67.11327144 19.66220345 67.1054915 22.85451512 67.09765625 26.046875 C67.09579112 28.26076221 67.09436767 30.47464983 67.09336853 32.6885376 C67.08955082 38.51480245 67.07972687 44.34104236 67.06866455 50.16729736 C67.05843441 56.11283023 67.05386747 62.05836712 67.04882812 68.00390625 C67.03810396 79.66928179 67.02103646 91.33463882 67 103 C68.98 103 70.96 103 73 103 C72.94670532 101.33167114 72.94670532 101.33167114 72.89233398 99.62963867 C72.75950758 95.40459661 72.63726536 91.1792972 72.51782227 86.95385742 C72.46525938 85.14355335 72.41002674 83.33332433 72.35180664 81.52319336 C72.26743251 78.88411737 72.19347772 76.24489803 72.12109375 73.60546875 C72.08054115 72.44013863 72.08054115 72.44013863 72.03916931 71.25126648 C71.80886261 62.09006875 72.51334319 53.24647941 73 44 C91.48 44 109.96 44 129 44 C129.33 41.69 129.66 39.38 130 37 C131.68012342 35.31987658 133.75087192 35.87252661 136.0546875 35.87060547 C137.67141357 35.86587723 137.67141357 35.86587723 139.32080078 35.86105347 C140.49368652 35.8630777 141.66657227 35.86510193 142.875 35.8671875 C144.0697998 35.86623077 145.26459961 35.86527405 146.49560547 35.86428833 C149.0276698 35.86360629 151.55973588 35.86546222 154.09179688 35.86962891 C157.9831126 35.87497679 161.87431289 35.86968467 165.765625 35.86328125 C168.21875026 35.86394203 170.67187544 35.86522318 173.125 35.8671875 C174.29788574 35.86516327 175.47077148 35.86313904 176.67919922 35.86105347 C177.7570166 35.86420563 178.83483398 35.86735779 179.9453125 35.87060547 C181.37641357 35.87179886 181.37641357 35.87179886 182.83642578 35.87301636 C185 36 185 36 186 37 C186.1424478 40.33327842 186.04222103 43.66453893 186 47 C186.59122713 46.92931368 187.18245426 46.85862736 187.79159737 46.78579903 C194.30284715 46.06381992 200.71390483 45.85729487 207.26123047 45.87060547 C208.3389119 45.86885315 209.41659332 45.86710083 210.52693176 45.86529541 C214.05703382 45.86092602 217.58708502 45.86379623 221.1171875 45.8671875 C223.58196014 45.86651335 226.04673271 45.86554239 228.51150513 45.86428833 C233.66067136 45.86281828 238.80982018 45.86494475 243.95898438 45.86962891 C250.56326611 45.87534381 257.16750737 45.87203169 263.77178764 45.86605644 C268.85375271 45.86244749 273.93570814 45.86359065 279.01767349 45.86618423 C281.45377736 45.86685164 283.88988211 45.86603156 286.32598495 45.86370468 C289.72239262 45.86117076 293.118734 45.86502848 296.51513672 45.87060547 C298.02689735 45.86756912 298.02689735 45.86756912 299.56919861 45.86447144 C300.49421677 45.86729126 301.41923492 45.87011108 302.37228394 45.87301636 C303.17416075 45.87339338 303.97603756 45.87377041 304.80221367 45.87415886 C306.98801005 45.99931348 308.90033638 46.3960794 311 47 C311 46.01 311 45.02 311 44 C330.14 44 349.28 44 369 44 C368.34 44.33 367.68 44.66 367 45 C367 45.66 367 46.32 367 47 C367.66 47 368.32 47 369 47 C369 98.48 369 149.96 369 203 C178.92 203 -11.16 203 -207 203 C-207 151.52 -207 100.04 -207 47 C-202.38 47 -197.76 47 -193 47 C-193 70.76 -193 94.52 -193 119 C-191.02 119.33 -189.04 119.66 -187 120 C-187 84.69 -187 49.38 -187 13 C-162.58 13 -138.16 13 -113 13 C-113 23.89 -113 34.78 -113 46 C-105.41 46 -97.82 46 -90 46 C-90.0395866 38.80477218 -90.0395866 38.80477218 -90.09008789 31.60961914 C-90.09258545 30.71879639 -90.09508301 29.82797363 -90.09765625 28.91015625 C-90.10289307 27.99371338 -90.10812988 27.07727051 -90.11352539 26.13305664 C-90 24 -90 24 -89 23 C-85.41851762 22.796421 -81.84389296 22.65315924 -78.2578125 22.5703125 C-77.505 22.539375 -76.7521875 22.5084375 -75.9765625 22.4765625 C-75.28643066 22.45674316 -74.59629883 22.43692383 -73.88525391 22.41650391 C-71.48441141 21.88609245 -70.70364394 20.71879991 -69 19 C-66.23881175 18.70165127 -63.75451984 18.58088847 -61 18.625 C-59.91332031 18.60759766 -59.91332031 18.60759766 -58.8046875 18.58984375 C-56.6875 18.6015625 -56.6875 18.6015625 -53 19 C-52.56510254 19.49338867 -52.13020508 19.98677734 -51.68212891 20.49511719 C-49.10226095 22.80314419 -46.80086462 22.42003156 -43.3984375 22.4765625 C-42.10421875 22.5075 -40.81 22.5384375 -39.4765625 22.5703125 C-38.10938546 22.58931017 -36.74219741 22.6075299 -35.375 22.625 C-32.69510755 22.67294535 -30.01563554 22.73022681 -27.3359375 22.7890625 C-26.14532715 22.80662598 -24.9547168 22.82418945 -23.72802734 22.84228516 C-21 23 -21 23 -20 24 C-19.90586313 26.05556661 -19.88257002 28.11440181 -19.88647461 30.17211914 C-19.88632858 30.81600082 -19.88618256 31.45988251 -19.8860321 32.12327576 C-19.88673115 34.26060303 -19.89452309 36.39784413 -19.90234375 38.53515625 C-19.90420796 40.01346285 -19.90563185 41.49177007 -19.90663147 42.97007751 C-19.91045641 46.86798802 -19.92028648 50.76586149 -19.93133545 54.66375732 C-19.94155008 58.63846333 -19.9461292 62.61317529 -19.95117188 66.58789062 C-19.96190878 74.39194596 -19.97950538 82.19596308 -20 90 C-13.4 90 -6.8 90 0 90 C0 60.3 0 30.6 0 0 Z M1 1 C1 1.66 1 2.32 1 3 C1.99 3 2.98 3 4 3 C4 2.34 4 1.68 4 1 C3.01 1 2.02 1 1 1 Z M5 1 C5 1.66 5 2.32 5 3 C5.99 3 6.98 3 8 3 C8 2.34 8 1.68 8 1 C7.01 1 6.02 1 5 1 Z M9 1 C9 1.66 9 2.32 9 3 C9.99 3 10.98 3 12 3 C12 2.34 12 1.68 12 1 C11.01 1 10.02 1 9 1 Z M13 1 C13 1.66 13 2.32 13 3 C13.99 3 14.98 3 16 3 C16 2.34 16 1.68 16 1 C15.01 1 14.02 1 13 1 Z M17 1 C17 1.66 17 2.32 17 3 C18.32 3 19.64 3 21 3 C21 2.34 21 1.68 21 1 C19.68 1 18.36 1 17 1 Z M22 1 C22 1.66 22 2.32 22 3 C23.32 3 24.64 3 26 3 C26 2.34 26 1.68 26 1 C24.68 1 23.36 1 22 1 Z M27 1 C27 1.66 27 2.32 27 3 C27.99 3 28.98 3 30 3 C30 2.34 30 1.68 30 1 C29.01 1 28.02 1 27 1 Z M31 1 C31 1.66 31 2.32 31 3 C31.99 3 32.98 3 34 3 C34 2.34 34 1.68 34 1 C33.01 1 32.02 1 31 1 Z M35 1 C35 1.66 35 2.32 35 3 C35.99 3 36.98 3 38 3 C38 2.34 38 1.68 38 1 C37.01 1 36.02 1 35 1 Z M39 1 C39 1.66 39 2.32 39 3 C39.99 3 40.98 3 42 3 C42 2.34 42 1.68 42 1 C41.01 1 40.02 1 39 1 Z M46 1 C46 1.66 46 2.32 46 3 C46.99 3 47.98 3 49 3 C49 2.34 49 1.68 49 1 C48.01 1 47.02 1 46 1 Z M50 1 C50 1.66 50 2.32 50 3 C50.99 3 51.98 3 53 3 C53 2.34 53 1.68 53 1 C52.01 1 51.02 1 50 1 Z M54 1 C54 1.66 54 2.32 54 3 C54.99 3 55.98 3 57 3 C57 2.34 57 1.68 57 1 C56.01 1 55.02 1 54 1 Z M58 1 C58 1.66 58 2.32 58 3 C58.99 3 59.98 3 61 3 C61 2.34 61 1.68 61 1 C60.01 1 59.02 1 58 1 Z M62 1 C62 1.66 62 2.32 62 3 C62.99 3 63.98 3 65 3 C65 2.34 65 1.68 65 1 C64.01 1 63.02 1 62 1 Z M2 7 C2 8.32 2 9.64 2 11 C2.99 11 3.98 11 5 11 C5 9.68 5 8.36 5 7 C4.01 7 3.02 7 2 7 Z M7 7 C7 8.32 7 9.64 7 11 C7.99 11 8.98 11 10 11 C10 9.68 10 8.36 10 7 C9.01 7 8.02 7 7 7 Z M12 7 C12 8.32 12 9.64 12 11 C12.99 11 13.98 11 15 11 C15 9.68 15 8.36 15 7 C14.01 7 13.02 7 12 7 Z M17 7 C17 8.32 17 9.64 17 11 C17.99 11 18.98 11 20 11 C20 9.68 20 8.36 20 7 C19.01 7 18.02 7 17 7 Z M22 7 C22 8.32 22 9.64 22 11 C22.99 11 23.98 11 25 11 C25 9.68 25 8.36 25 7 C24.01 7 23.02 7 22 7 Z M33 7 C33 8.32 33 9.64 33 11 C33.99 11 34.98 11 36 11 C36 9.68 36 8.36 36 7 C35.01 7 34.02 7 33 7 Z M38 7 C38 8.32 38 9.64 38 11 C38.99 11 39.98 11 41 11 C41 9.68 41 8.36 41 7 C40.01 7 39.02 7 38 7 Z M45 7 C45 8.32 45 9.64 45 11 C45.66 11 46.32 11 47 11 C47 9.68 47 8.36 47 7 C46.34 7 45.68 7 45 7 Z M48 7 C48 8.32 48 9.64 48 11 C48.66 11 49.32 11 50 11 C50 9.68 50 8.36 50 7 C49.34 7 48.68 7 48 7 Z M2 14 C2 15.32 2 16.64 2 18 C2.99 18 3.98 18 5 18 C5 16.68 5 15.36 5 14 C4.01 14 3.02 14 2 14 Z M7 14 C7 15.32 7 16.64 7 18 C7.99 18 8.98 18 10 18 C10 16.68 10 15.36 10 14 C9.01 14 8.02 14 7 14 Z M17 14 C17 15.32 17 16.64 17 18 C17.99 18 18.98 18 20 18 C20 16.68 20 15.36 20 14 C19.01 14 18.02 14 17 14 Z M22 14 C22 15.32 22 16.64 22 18 C22.99 18 23.98 18 25 18 C25 16.68 25 15.36 25 14 C24.01 14 23.02 14 22 14 Z M28 14 C28 15.32 28 16.64 28 18 C28.99 18 29.98 18 31 18 C31 16.68 31 15.36 31 14 C30.01 14 29.02 14 28 14 Z M33 14 C33 15.32 33 16.64 33 18 C33.99 18 34.98 18 36 18 C36 16.68 36 15.36 36 14 C35.01 14 34.02 14 33 14 Z M38 14 C38 15.32 38 16.64 38 18 C38.99 18 39.98 18 41 18 C41 16.68 41 15.36 41 14 C40.01 14 39.02 14 38 14 Z M48 14 C48 15.32 48 16.64 48 18 C48.66 18 49.32 18 50 18 C50 16.68 50 15.36 50 14 C49.34 14 48.68 14 48 14 Z M-185 17 C-185 18.65 -185 20.3 -185 22 C-184.01 22 -183.02 22 -182 22 C-182 20.35 -182 18.7 -182 17 C-182.99 17 -183.98 17 -185 17 Z M-175 17 C-175 18.65 -175 20.3 -175 22 C-174.01 22 -173.02 22 -172 22 C-172 20.35 -172 18.7 -172 17 C-172.99 17 -173.98 17 -175 17 Z M-170 17 C-170 18.65 -170 20.3 -170 22 C-169.01 22 -168.02 22 -167 22 C-167 20.35 -167 18.7 -167 17 C-167.99 17 -168.98 17 -170 17 Z M-165 17 C-165 18.65 -165 20.3 -165 22 C-164.01 22 -163.02 22 -162 22 C-162 20.35 -162 18.7 -162 17 C-162.99 17 -163.98 17 -165 17 Z M-160 17 C-160 18.65 -160 20.3 -160 22 C-159.01 22 -158.02 22 -157 22 C-157 20.35 -157 18.7 -157 17 C-157.99 17 -158.98 17 -160 17 Z M-155 17 C-155 18.65 -155 20.3 -155 22 C-154.01 22 -153.02 22 -152 22 C-152 20.35 -152 18.7 -152 17 C-152.99 17 -153.98 17 -155 17 Z M-143 17 C-143 18.65 -143 20.3 -143 22 C-142.01 22 -141.02 22 -140 22 C-140 20.35 -140 18.7 -140 17 C-140.99 17 -141.98 17 -143 17 Z M-138 17 C-138 18.65 -138 20.3 -138 22 C-137.01 22 -136.02 22 -135 22 C-135 20.35 -135 18.7 -135 17 C-135.99 17 -136.98 17 -138 17 Z M-56 20 C-56.33 20.99 -56.66 21.98 -57 23 C-56.01 23 -55.02 23 -54 23 C-54.33 22.01 -54.66 21.02 -55 20 C-55.33 20 -55.66 20 -56 20 Z M2 21 C2 22.32 2 23.64 2 25 C2.99 25 3.98 25 5 25 C5 23.68 5 22.36 5 21 C4.01 21 3.02 21 2 21 Z M7 21 C7 22.32 7 23.64 7 25 C7.99 25 8.98 25 10 25 C10 23.68 10 22.36 10 21 C9.01 21 8.02 21 7 21 Z M33 21 C33 22.32 33 23.64 33 25 C33.99 25 34.98 25 36 25 C36 23.68 36 22.36 36 21 C35.01 21 34.02 21 33 21 Z M38 21 C38 22.32 38 23.64 38 25 C38.99 25 39.98 25 41 25 C41 23.68 41 22.36 41 21 C40.01 21 39.02 21 38 21 Z M45 21 C45 22.32 45 23.64 45 25 C45.66 25 46.32 25 47 25 C47 23.68 47 22.36 47 21 C46.34 21 45.68 21 45 21 Z M-175 24 C-175 25.65 -175 27.3 -175 29 C-174.01 29 -173.02 29 -172 29 C-172 27.35 -172 25.7 -172 24 C-172.99 24 -173.98 24 -175 24 Z M-165 24 C-165 25.65 -165 27.3 -165 29 C-164.01 29 -163.02 29 -162 29 C-162 27.35 -162 25.7 -162 24 C-162.99 24 -163.98 24 -165 24 Z M-160 24 C-160 25.65 -160 27.3 -160 29 C-159.01 29 -158.02 29 -157 29 C-157 27.35 -157 25.7 -157 24 C-157.99 24 -158.98 24 -160 24 Z M-155 24 C-155 25.65 -155 27.3 -155 29 C-154.01 29 -153.02 29 -152 29 C-152 27.35 -152 25.7 -152 24 C-152.99 24 -153.98 24 -155 24 Z M-148 24 C-148 25.65 -148 27.3 -148 29 C-147.01 29 -146.02 29 -145 29 C-145 27.35 -145 25.7 -145 24 C-145.99 24 -146.98 24 -148 24 Z M-87 28 C-87 29.32 -87 30.64 -87 32 C-86.01 32 -85.02 32 -84 32 C-84 30.68 -84 29.36 -84 28 C-84.99 28 -85.98 28 -87 28 Z M-82 28 C-82 29.32 -82 30.64 -82 32 C-81.01 32 -80.02 32 -79 32 C-79 30.68 -79 29.36 -79 28 C-79.99 28 -80.98 28 -82 28 Z M38 28 C38 29.32 38 30.64 38 32 C38.99 32 39.98 32 41 32 C41 30.68 41 29.36 41 28 C40.01 28 39.02 28 38 28 Z M-160 31 C-160 32.32 -160 33.64 -160 35 C-159.01 35 -158.02 35 -157 35 C-157 33.68 -157 32.36 -157 31 C-157.99 31 -158.98 31 -160 31 Z M-155 31 C-155 32.32 -155 33.64 -155 35 C-154.01 35 -153.02 35 -152 35 C-152 33.68 -152 32.36 -152 31 C-152.99 31 -153.98 31 -155 31 Z M-148 31 C-148 32.32 -148 33.64 -148 35 C-147.01 35 -146.02 35 -145 35 C-145 33.68 -145 32.36 -145 31 C-145.99 31 -146.98 31 -148 31 Z M-87 34 C-87 35.32 -87 36.64 -87 38 C-86.01 38 -85.02 38 -84 38 C-84 36.68 -84 35.36 -84 34 C-84.99 34 -85.98 34 -87 34 Z M-82 34 C-82 35.32 -82 36.64 -82 38 C-81.01 38 -80.02 38 -79 38 C-79 36.68 -79 35.36 -79 34 C-79.99 34 -80.98 34 -82 34 Z M-67 34 C-67 35.32 -67 36.64 -67 38 C-66.01 38 -65.02 38 -64 38 C-64 36.68 -64 35.36 -64 34 C-64.99 34 -65.98 34 -67 34 Z M134 37 C134 37.33 134 37.66 134 38 C139.94 38 145.88 38 152 38 C152 37.67 152 37.34 152 37 C146.06 37 140.12 37 134 37 Z M156 37 C156 37.33 156 37.66 156 38 C164.58 38 173.16 38 182 38 C182 37.67 182 37.34 182 37 C173.42 37 164.84 37 156 37 Z M-77 40 C-77 41.32 -77 42.64 -77 44 C-76.01 44 -75.02 44 -74 44 C-74 42.68 -74 41.36 -74 40 C-74.99 40 -75.98 40 -77 40 Z M-72 40 C-72 41.32 -72 42.64 -72 44 C-71.01 44 -70.02 44 -69 44 C-69 42.68 -69 41.36 -69 40 C-69.99 40 -70.98 40 -72 40 Z M-67 40 C-67 41.32 -67 42.64 -67 44 C-66.01 44 -65.02 44 -64 44 C-64 42.68 -64 41.36 -64 40 C-64.99 40 -65.98 40 -67 40 Z M133 41 C133 42.65 133 44.3 133 46 C133.66 46 134.32 46 135 46 C135 44.35 135 42.7 135 41 C134.34 41 133.68 41 133 41 Z M137 41 C137 42.65 137 44.3 137 46 C137.66 46 138.32 46 139 46 C139 44.35 139 42.7 139 41 C138.34 41 137.68 41 137 41 Z M141 41 C141 42.65 141 44.3 141 46 C141.66 46 142.32 46 143 46 C143 44.35 143 42.7 143 41 C142.34 41 141.68 41 141 41 Z M145 41 C145 42.65 145 44.3 145 46 C145.66 46 146.32 46 147 46 C147 44.35 147 42.7 147 41 C146.34 41 145.68 41 145 41 Z M149 41 C149 42.65 149 44.3 149 46 C149.66 46 150.32 46 151 46 C151 44.35 151 42.7 151 41 C150.34 41 149.68 41 149 41 Z M157 41 C157 42.65 157 44.3 157 46 C157.66 46 158.32 46 159 46 C159 44.35 159 42.7 159 41 C158.34 41 157.68 41 157 41 Z M161 41 C161 42.65 161 44.3 161 46 C161.66 46 162.32 46 163 46 C163 44.35 163 42.7 163 41 C162.34 41 161.68 41 161 41 Z M165 41 C165 42.65 165 44.3 165 46 C165.66 46 166.32 46 167 46 C167 44.35 167 42.7 167 41 C166.34 41 165.68 41 165 41 Z M169 41 C169 42.65 169 44.3 169 46 C169.66 46 170.32 46 171 46 C171 44.35 171 42.7 171 41 C170.34 41 169.68 41 169 41 Z M173 41 C173 42.65 173 44.3 173 46 C173.66 46 174.32 46 175 46 C175 44.35 175 42.7 175 41 C174.34 41 173.68 41 173 41 Z M177 41 C177 42.65 177 44.3 177 46 C177.66 46 178.32 46 179 46 C179 44.35 179 42.7 179 41 C178.34 41 177.68 41 177 41 Z M181 41 C181 42.65 181 44.3 181 46 C181.66 46 182.32 46 183 46 C183 44.35 183 42.7 183 41 C182.34 41 181.68 41 181 41 Z M74 45 C74 45.66 74 46.32 74 47 C74.99 47 75.98 47 77 47 C77 46.34 77 45.68 77 45 C76.01 45 75.02 45 74 45 Z M78 45 C78 45.66 78 46.32 78 47 C78.99 47 79.98 47 81 47 C81 46.34 81 45.68 81 45 C80.01 45 79.02 45 78 45 Z M82 45 C82 45.66 82 46.32 82 47 C82.99 47 83.98 47 85 47 C85 46.34 85 45.68 85 45 C84.01 45 83.02 45 82 45 Z M86 45 C86 45.66 86 46.32 86 47 C86.66 47 87.32 47 88 47 C88 46.34 88 45.68 88 45 C87.34 45 86.68 45 86 45 Z M89 45 C89 45.66 89 46.32 89 47 C89.99 47 90.98 47 92 47 C92 46.34 92 45.68 92 45 C91.01 45 90.02 45 89 45 Z M93 45 C93 45.66 93 46.32 93 47 C93.99 47 94.98 47 96 47 C96 46.34 96 45.68 96 45 C95.01 45 94.02 45 93 45 Z M97 45 C97 45.66 97 46.32 97 47 C97.99 47 98.98 47 100 47 C100 46.34 100 45.68 100 45 C99.01 45 98.02 45 97 45 Z M101 45 C101 45.66 101 46.32 101 47 C101.99 47 102.98 47 104 47 C104 46.34 104 45.68 104 45 C103.01 45 102.02 45 101 45 Z M105 45 C105 45.66 105 46.32 105 47 C105.99 47 106.98 47 108 47 C108 46.34 108 45.68 108 45 C107.01 45 106.02 45 105 45 Z M109 45 C109 45.66 109 46.32 109 47 C109.99 47 110.98 47 112 47 C112 46.34 112 45.68 112 45 C111.01 45 110.02 45 109 45 Z M113 45 C113 45.66 113 46.32 113 47 C113.99 47 114.98 47 116 47 C116 46.34 116 45.68 116 45 C115.01 45 114.02 45 113 45 Z M117 45 C117 45.66 117 46.32 117 47 C117.99 47 118.98 47 120 47 C120 46.34 120 45.68 120 45 C119.01 45 118.02 45 117 45 Z M121 45 C121 45.66 121 46.32 121 47 C121.99 47 122.98 47 124 47 C124 46.34 124 45.68 124 45 C123.01 45 122.02 45 121 45 Z M125 45 C125 45.66 125 46.32 125 47 C125.99 47 126.98 47 128 47 C128 46.34 128 45.68 128 45 C127.01 45 126.02 45 125 45 Z M312 45 C312 45.66 312 46.32 312 47 C312.99 47 313.98 47 315 47 C315 46.34 315 45.68 315 45 C314.01 45 313.02 45 312 45 Z M316 45 C316 45.66 316 46.32 316 47 C316.99 47 317.98 47 319 47 C319 46.34 319 45.68 319 45 C318.01 45 317.02 45 316 45 Z M320 45 C320 45.66 320 46.32 320 47 C320.99 47 321.98 47 323 47 C323 46.34 323 45.68 323 45 C322.01 45 321.02 45 320 45 Z M324 45 C324 45.66 324 46.32 324 47 C324.99 47 325.98 47 327 47 C327 46.34 327 45.68 327 45 C326.01 45 325.02 45 324 45 Z M328 45 C328 45.66 328 46.32 328 47 C328.99 47 329.98 47 331 47 C331 46.34 331 45.68 331 45 C330.01 45 329.02 45 328 45 Z M332 45 C332 45.66 332 46.32 332 47 C332.99 47 333.98 47 335 47 C335 46.34 335 45.68 335 45 C334.01 45 333.02 45 332 45 Z M336 45 C336 45.66 336 46.32 336 47 C336.99 47 337.98 47 339 47 C339 46.34 339 45.68 339 45 C338.01 45 337.02 45 336 45 Z M340 45 C340 45.66 340 46.32 340 47 C340.99 47 341.98 47 343 47 C343 46.34 343 45.68 343 45 C342.01 45 341.02 45 340 45 Z M344 45 C344 45.66 344 46.32 344 47 C344.99 47 345.98 47 347 47 C347 46.34 347 45.68 347 45 C346.01 45 345.02 45 344 45 Z M348 45 C348 45.66 348 46.32 348 47 C348.99 47 349.98 47 351 47 C351 46.34 351 45.68 351 45 C350.01 45 349.02 45 348 45 Z M352 45 C352 45.66 352 46.32 352 47 C352.66 47 353.32 47 354 47 C354 46.34 354 45.68 354 45 C353.34 45 352.68 45 352 45 Z M355 45 C355 45.66 355 46.32 355 47 C355.99 47 356.98 47 358 47 C358 46.34 358 45.68 358 45 C357.01 45 356.02 45 355 45 Z M359 45 C359 45.66 359 46.32 359 47 C359.99 47 360.98 47 362 47 C362 46.34 362 45.68 362 45 C361.01 45 360.02 45 359 45 Z M363 45 C363 45.66 363 46.32 363 47 C363.99 47 364.98 47 366 47 C366 46.34 366 45.68 366 45 C365.01 45 364.02 45 363 45 Z M145 48 C145 49.65 145 51.3 145 53 C145.66 53 146.32 53 147 53 C147 51.35 147 49.7 147 48 C146.34 48 145.68 48 145 48 Z M149 48 C149 49.65 149 51.3 149 53 C149.66 53 150.32 53 151 53 C151 51.35 151 49.7 151 48 C150.34 48 149.68 48 149 48 Z M157 48 C157 49.65 157 51.3 157 53 C157.66 53 158.32 53 159 53 C159 51.35 159 49.7 159 48 C158.34 48 157.68 48 157 48 Z M161 48 C161 49.65 161 51.3 161 53 C161.66 53 162.32 53 163 53 C163 51.35 163 49.7 163 48 C162.34 48 161.68 48 161 48 Z M165 48 C165 49.65 165 51.3 165 53 C165.66 53 166.32 53 167 53 C167 51.35 167 49.7 167 48 C166.34 48 165.68 48 165 48 Z M169 48 C169 49.65 169 51.3 169 53 C169.66 53 170.32 53 171 53 C171 51.35 171 49.7 171 48 C170.34 48 169.68 48 169 48 Z M173 48 C173 49.65 173 51.3 173 53 C173.66 53 174.32 53 175 53 C175 51.35 175 49.7 175 48 C174.34 48 173.68 48 173 48 Z M177 48 C177 49.65 177 51.3 177 53 C177.66 53 178.32 53 179 53 C179 51.35 179 49.7 179 48 C178.34 48 177.68 48 177 48 Z M181 48 C181 49.65 181 51.3 181 53 C181.66 53 182.32 53 183 53 C183 51.35 183 49.7 183 48 C182.34 48 181.68 48 181 48 Z M186 48 C186 49.65 186 51.3 186 53 C188.31 53 190.62 53 193 53 C193 51.35 193 49.7 193 48 C190.69 48 188.38 48 186 48 Z M195 48 C195 49.65 195 51.3 195 53 C198.96 53 202.92 53 207 53 C207 51.35 207 49.7 207 48 C203.04 48 199.08 48 195 48 Z M209 48 C209 49.65 209 51.3 209 53 C212.96 53 216.92 53 221 53 C221 51.35 221 49.7 221 48 C217.04 48 213.08 48 209 48 Z M223 48 C223 49.65 223 51.3 223 53 C226.96 53 230.92 53 235 53 C235 51.35 235 49.7 235 48 C231.04 48 227.08 48 223 48 Z M237 48 C237 49.65 237 51.3 237 53 C240.96 53 244.92 53 249 53 C249 51.35 249 49.7 249 48 C245.04 48 241.08 48 237 48 Z M251 48 C251 49.65 251 51.3 251 53 C254.96 53 258.92 53 263 53 C263 51.35 263 49.7 263 48 C259.04 48 255.08 48 251 48 Z M265 48 C265 49.65 265 51.3 265 53 C268.96 53 272.92 53 277 53 C277 51.35 277 49.7 277 48 C273.04 48 269.08 48 265 48 Z M279 48 C279 49.65 279 51.3 279 53 C282.96 53 286.92 53 291 53 C291 51.35 291 49.7 291 48 C287.04 48 283.08 48 279 48 Z M293 48 C293 49.65 293 51.3 293 53 C296.63 53 300.26 53 304 53 C304 51.35 304 49.7 304 48 C300.37 48 296.74 48 293 48 Z M306 48 C306 49.65 306 51.3 306 53 C307.32 53 308.64 53 310 53 C310 51.35 310 49.7 310 48 C308.68 48 307.36 48 306 48 Z M76 52 C76 53.65 76 55.3 76 57 C76.66 57 77.32 57 78 57 C78 55.35 78 53.7 78 52 C77.34 52 76.68 52 76 52 Z M79 52 C79 53.65 79 55.3 79 57 C79.66 57 80.32 57 81 57 C81 55.35 81 53.7 81 52 C80.34 52 79.68 52 79 52 Z M82 52 C82 53.65 82 55.3 82 57 C82.66 57 83.32 57 84 57 C84 55.35 84 53.7 84 52 C83.34 52 82.68 52 82 52 Z M90 52 C90 53.65 90 55.3 90 57 C90.99 57 91.98 57 93 57 C93 55.35 93 53.7 93 52 C92.01 52 91.02 52 90 52 Z M95 52 C95 53.65 95 55.3 95 57 C95.99 57 96.98 57 98 57 C98 55.35 98 53.7 98 52 C97.01 52 96.02 52 95 52 Z M100 52 C100 53.65 100 55.3 100 57 C100.99 57 101.98 57 103 57 C103 55.35 103 53.7 103 52 C102.01 52 101.02 52 100 52 Z M110 52 C110 53.65 110 55.3 110 57 C110.99 57 111.98 57 113 57 C113 55.35 113 53.7 113 52 C112.01 52 111.02 52 110 52 Z M115 52 C115 53.65 115 55.3 115 57 C115.99 57 116.98 57 118 57 C118 55.35 118 53.7 118 52 C117.01 52 116.02 52 115 52 Z M120 52 C120 53.65 120 55.3 120 57 C120.99 57 121.98 57 123 57 C123 55.35 123 53.7 123 52 C122.01 52 121.02 52 120 52 Z M125 52 C125 53.65 125 55.3 125 57 C125.99 57 126.98 57 128 57 C128 55.35 128 53.7 128 52 C127.01 52 126.02 52 125 52 Z M312 52 C312 53.65 312 55.3 312 57 C312.99 57 313.98 57 315 57 C315 55.35 315 53.7 315 52 C314.01 52 313.02 52 312 52 Z M317 52 C317 53.65 317 55.3 317 57 C317.99 57 318.98 57 320 57 C320 55.35 320 53.7 320 52 C319.01 52 318.02 52 317 52 Z M322 52 C322 53.65 322 55.3 322 57 C322.99 57 323.98 57 325 57 C325 55.35 325 53.7 325 52 C324.01 52 323.02 52 322 52 Z M327 52 C327 53.65 327 55.3 327 57 C327.99 57 328.98 57 330 57 C330 55.35 330 53.7 330 52 C329.01 52 328.02 52 327 52 Z M76 59 C76 60.65 76 62.3 76 64 C76.66 64 77.32 64 78 64 C78 62.35 78 60.7 78 59 C77.34 59 76.68 59 76 59 Z M79 59 C79 60.65 79 62.3 79 64 C79.66 64 80.32 64 81 64 C81 62.35 81 60.7 81 59 C80.34 59 79.68 59 79 59 Z M82 59 C82 60.65 82 62.3 82 64 C82.66 64 83.32 64 84 64 C84 62.35 84 60.7 84 59 C83.34 59 82.68 59 82 59 Z M90 59 C90 60.65 90 62.3 90 64 C90.99 64 91.98 64 93 64 C93 62.35 93 60.7 93 59 C92.01 59 91.02 59 90 59 Z M95 59 C95 60.65 95 62.3 95 64 C95.99 64 96.98 64 98 64 C98 62.35 98 60.7 98 59 C97.01 59 96.02 59 95 59 Z M100 59 C100 60.65 100 62.3 100 64 C100.99 64 101.98 64 103 64 C103 62.35 103 60.7 103 59 C102.01 59 101.02 59 100 59 Z M110 59 C110 60.65 110 62.3 110 64 C110.99 64 111.98 64 113 64 C113 62.35 113 60.7 113 59 C112.01 59 111.02 59 110 59 Z M115 59 C115 60.65 115 62.3 115 64 C115.99 64 116.98 64 118 64 C118 62.35 118 60.7 118 59 C117.01 59 116.02 59 115 59 Z M120 59 C120 60.65 120 62.3 120 64 C120.99 64 121.98 64 123 64 C123 62.35 123 60.7 123 59 C122.01 59 121.02 59 120 59 Z M125 59 C125 60.65 125 62.3 125 64 C125.99 64 126.98 64 128 64 C128 62.35 128 60.7 128 59 C127.01 59 126.02 59 125 59 Z M312 59 C312 60.65 312 62.3 312 64 C312.99 64 313.98 64 315 64 C315 62.35 315 60.7 315 59 C314.01 59 313.02 59 312 59 Z M317 59 C317 60.65 317 62.3 317 64 C317.99 64 318.98 64 320 64 C320 62.35 320 60.7 320 59 C319.01 59 318.02 59 317 59 Z M322 59 C322 60.65 322 62.3 322 64 C322.99 64 323.98 64 325 64 C325 62.35 325 60.7 325 59 C324.01 59 323.02 59 322 59 Z M327 59 C327 60.65 327 62.3 327 64 C327.99 64 328.98 64 330 64 C330 62.35 330 60.7 330 59 C329.01 59 328.02 59 327 59 Z M186 60 C186 69.24 186 78.48 186 88 C188.64 88 191.28 88 194 88 C194 78.76 194 69.52 194 60 C191.36 60 188.72 60 186 60 Z M198 60 C198 69.24 198 78.48 198 88 C198.33 88 198.66 88 199 88 C199 82.06 199 76.12 199 70 C200.32 70 201.64 70 203 70 C203.33 67.69 203.66 65.38 204 63 C219.51 63 235.02 63 251 63 C251.33 81.48 251.66 99.96 252 119 C253.32 119 254.64 119 256 119 C256 99.53 256 80.06 256 60 C236.86 60 217.72 60 198 60 Z M260 60 C260 79.47 260 98.94 260 119 C272.21 119 284.42 119 297 119 C297 99.53 297 80.06 297 60 C284.79 60 272.58 60 260 60 Z M301 60 C301 79.47 301 98.94 301 119 C303.97 119 306.94 119 310 119 C310 99.53 310 80.06 310 60 C307.03 60 304.06 60 301 60 Z M76 66 C76 67.65 76 69.3 76 71 C76.66 71 77.32 71 78 71 C78 69.35 78 67.7 78 66 C77.34 66 76.68 66 76 66 Z M79 66 C79 67.65 79 69.3 79 71 C79.66 71 80.32 71 81 71 C81 69.35 81 67.7 81 66 C80.34 66 79.68 66 79 66 Z M82 66 C82 67.65 82 69.3 82 71 C82.66 71 83.32 71 84 71 C84 69.35 84 67.7 84 66 C83.34 66 82.68 66 82 66 Z M90 66 C90 67.65 90 69.3 90 71 C90.99 71 91.98 71 93 71 C93 69.35 93 67.7 93 66 C92.01 66 91.02 66 90 66 Z M95 66 C95 67.65 95 69.3 95 71 C95.99 71 96.98 71 98 71 C98 69.35 98 67.7 98 66 C97.01 66 96.02 66 95 66 Z M100 66 C100 67.65 100 69.3 100 71 C100.99 71 101.98 71 103 71 C103 69.35 103 67.7 103 66 C102.01 66 101.02 66 100 66 Z M110 66 C110 67.65 110 69.3 110 71 C110.99 71 111.98 71 113 71 C113 69.35 113 67.7 113 66 C112.01 66 111.02 66 110 66 Z M115 66 C115 67.65 115 69.3 115 71 C115.99 71 116.98 71 118 71 C118 69.35 118 67.7 118 66 C117.01 66 116.02 66 115 66 Z M120 66 C120 67.65 120 69.3 120 71 C120.99 71 121.98 71 123 71 C123 69.35 123 67.7 123 66 C122.01 66 121.02 66 120 66 Z M125 66 C125 67.65 125 69.3 125 71 C125.99 71 126.98 71 128 71 C128 69.35 128 67.7 128 66 C127.01 66 126.02 66 125 66 Z M312 66 C312 67.65 312 69.3 312 71 C312.99 71 313.98 71 315 71 C315 69.35 315 67.7 315 66 C314.01 66 313.02 66 312 66 Z M317 66 C317 67.65 317 69.3 317 71 C317.99 71 318.98 71 320 71 C320 69.35 320 67.7 320 66 C319.01 66 318.02 66 317 66 Z M322 66 C322 67.65 322 69.3 322 71 C322.99 71 323.98 71 325 71 C325 69.35 325 67.7 325 66 C324.01 66 323.02 66 322 66 Z M327 66 C327 67.65 327 69.3 327 71 C327.99 71 328.98 71 330 71 C330 69.35 330 67.7 330 66 C329.01 66 328.02 66 327 66 Z M200 71 C201 73 201 73 201 73 Z M202 71 C203 73 203 73 203 73 Z " fill="#8D4867" transform="translate(207,121)"/>
<path d="M0 0 C8.91 0 17.82 0 27 0 C27 31.68 27 63.36 27 96 C10.17 96 -6.66 96 -24 96 C-24 71.91 -24 47.82 -24 23 C-16.41 23 -8.82 23 -1 23 C-1.0395866 15.80477218 -1.0395866 15.80477218 -1.09008789 8.60961914 C-1.09258545 7.71879639 -1.09508301 6.82797363 -1.09765625 5.91015625 C-1.10551147 4.53549194 -1.10551147 4.53549194 -1.11352539 3.13305664 C-1 1 -1 1 0 0 Z M2 5 C2 6.32 2 7.64 2 9 C2.99 9 3.98 9 5 9 C5 7.68 5 6.36 5 5 C4.01 5 3.02 5 2 5 Z M7 5 C7 6.32 7 7.64 7 9 C7.99 9 8.98 9 10 9 C10 7.68 10 6.36 10 5 C9.01 5 8.02 5 7 5 Z M2 11 C2 12.32 2 13.64 2 15 C2.99 15 3.98 15 5 15 C5 13.68 5 12.36 5 11 C4.01 11 3.02 11 2 11 Z M7 11 C7 12.32 7 13.64 7 15 C7.99 15 8.98 15 10 15 C10 13.68 10 12.36 10 11 C9.01 11 8.02 11 7 11 Z M22 11 C22 12.32 22 13.64 22 15 C22.99 15 23.98 15 25 15 C25 13.68 25 12.36 25 11 C24.01 11 23.02 11 22 11 Z M12 17 C12 18.32 12 19.64 12 21 C12.99 21 13.98 21 15 21 C15 19.68 15 18.36 15 17 C14.01 17 13.02 17 12 17 Z M17 17 C17 18.32 17 19.64 17 21 C17.99 21 18.98 21 20 21 C20 19.68 20 18.36 20 17 C19.01 17 18.02 17 17 17 Z M22 17 C22 18.32 22 19.64 22 21 C22.99 21 23.98 21 25 21 C25 19.68 25 18.36 25 17 C24.01 17 23.02 17 22 17 Z " fill="#9A4566" transform="translate(118,144)"/>
<path d="M0 0 C12.21 0 24.42 0 37 0 C37 34.98 37 69.96 37 106 C24.79 106 12.58 106 0 106 C0 71.02 0 36.04 0 0 Z M2 3 C2 4.65 2 6.3 2 8 C2.99 8 3.98 8 5 8 C5 6.35 5 4.7 5 3 C4.01 3 3.02 3 2 3 Z M12 3 C12 4.65 12 6.3 12 8 C12.99 8 13.98 8 15 8 C15 6.35 15 4.7 15 3 C14.01 3 13.02 3 12 3 Z M17 3 C17 4.65 17 6.3 17 8 C17.99 8 18.98 8 20 8 C20 6.35 20 4.7 20 3 C19.01 3 18.02 3 17 3 Z M22 3 C22 4.65 22 6.3 22 8 C22.99 8 23.98 8 25 8 C25 6.35 25 4.7 25 3 C24.01 3 23.02 3 22 3 Z M27 3 C27 4.65 27 6.3 27 8 C27.99 8 28.98 8 30 8 C30 6.35 30 4.7 30 3 C29.01 3 28.02 3 27 3 Z M32 3 C32 4.65 32 6.3 32 8 C32.99 8 33.98 8 35 8 C35 6.35 35 4.7 35 3 C34.01 3 33.02 3 32 3 Z M12 10 C12 11.65 12 13.3 12 15 C12.99 15 13.98 15 15 15 C15 13.35 15 11.7 15 10 C14.01 10 13.02 10 12 10 Z M22 10 C22 11.65 22 13.3 22 15 C22.99 15 23.98 15 25 15 C25 13.35 25 11.7 25 10 C24.01 10 23.02 10 22 10 Z M27 10 C27 11.65 27 13.3 27 15 C27.99 15 28.98 15 30 15 C30 13.35 30 11.7 30 10 C29.01 10 28.02 10 27 10 Z M32 10 C32 11.65 32 13.3 32 15 C32.99 15 33.98 15 35 15 C35 13.35 35 11.7 35 10 C34.01 10 33.02 10 32 10 Z M27 17 C27 18.32 27 19.64 27 21 C27.99 21 28.98 21 30 21 C30 19.68 30 18.36 30 17 C29.01 17 28.02 17 27 17 Z M32 17 C32 18.32 32 19.64 32 21 C32.99 21 33.98 21 35 21 C35 19.68 35 18.36 35 17 C34.01 17 33.02 17 32 17 Z " fill="#994566" transform="translate(20,135)"/>
<path d="M0 0 C13.86 0 27.72 0 42 0 C43.16881179 3.50643538 43.11998427 6.24901468 43.11352539 9.94995117 C43.11367142 10.65264633 43.11381744 11.35534149 43.1139679 12.07933044 C43.11327157 14.40057468 43.10549226 16.72173854 43.09765625 19.04296875 C43.09579108 20.6529384 43.09436764 22.26290861 43.09336853 23.87287903 C43.08955118 28.10942147 43.07972755 32.3459296 43.06866455 36.5824585 C43.05663471 41.66607708 43.05204447 46.74970713 43.04621124 51.83333588 C43.03651539 59.55558111 43.01735337 67.27775107 43 75 C28.81 75 14.62 75 0 75 C0 50.25 0 25.5 0 0 Z M2 1 C2 1.66 2 2.32 2 3 C2.99 3 3.98 3 5 3 C5 2.34 5 1.68 5 1 C4.01 1 3.02 1 2 1 Z M6 1 C6 1.66 6 2.32 6 3 C6.99 3 7.98 3 9 3 C9 2.34 9 1.68 9 1 C8.01 1 7.02 1 6 1 Z M10 1 C10 1.66 10 2.32 10 3 C10.99 3 11.98 3 13 3 C13 2.34 13 1.68 13 1 C12.01 1 11.02 1 10 1 Z M14 1 C14 1.66 14 2.32 14 3 C14.99 3 15.98 3 17 3 C17 2.34 17 1.68 17 1 C16.01 1 15.02 1 14 1 Z M18 1 C18 1.66 18 2.32 18 3 C18.99 3 19.98 3 21 3 C21 2.34 21 1.68 21 1 C20.01 1 19.02 1 18 1 Z M22 1 C22 1.66 22 2.32 22 3 C22.99 3 23.98 3 25 3 C25 2.34 25 1.68 25 1 C24.01 1 23.02 1 22 1 Z M26 1 C26 1.66 26 2.32 26 3 C26.99 3 27.98 3 29 3 C29 2.34 29 1.68 29 1 C28.01 1 27.02 1 26 1 Z M30 1 C30 1.66 30 2.32 30 3 C30.99 3 31.98 3 33 3 C33 2.34 33 1.68 33 1 C32.01 1 31.02 1 30 1 Z M34 1 C34 1.66 34 2.32 34 3 C34.99 3 35.98 3 37 3 C37 2.34 37 1.68 37 1 C36.01 1 35.02 1 34 1 Z M38 1 C38 1.66 38 2.32 38 3 C38.99 3 39.98 3 41 3 C41 2.34 41 1.68 41 1 C40.01 1 39.02 1 38 1 Z M3 8 C3 9.65 3 11.3 3 13 C3.99 13 4.98 13 6 13 C6 11.35 6 9.7 6 8 C5.01 8 4.02 8 3 8 Z M8 8 C8 9.65 8 11.3 8 13 C8.99 13 9.98 13 11 13 C11 11.35 11 9.7 11 8 C10.01 8 9.02 8 8 8 Z M13 8 C13 9.65 13 11.3 13 13 C13.99 13 14.98 13 16 13 C16 11.35 16 9.7 16 8 C15.01 8 14.02 8 13 8 Z M23 8 C23 9.65 23 11.3 23 13 C23.99 13 24.98 13 26 13 C26 11.35 26 9.7 26 8 C25.01 8 24.02 8 23 8 Z M28 8 C28 9.65 28 11.3 28 13 C28.99 13 29.98 13 31 13 C31 11.35 31 9.7 31 8 C30.01 8 29.02 8 28 8 Z M33 8 C33 9.65 33 11.3 33 13 C33.99 13 34.98 13 36 13 C36 11.35 36 9.7 36 8 C35.01 8 34.02 8 33 8 Z M38 8 C38 9.65 38 11.3 38 13 C38.99 13 39.98 13 41 13 C41 11.35 41 9.7 41 8 C40.01 8 39.02 8 38 8 Z M3 15 C3 16.65 3 18.3 3 20 C3.99 20 4.98 20 6 20 C6 18.35 6 16.7 6 15 C5.01 15 4.02 15 3 15 Z M8 15 C8 16.65 8 18.3 8 20 C8.99 20 9.98 20 11 20 C11 18.35 11 16.7 11 15 C10.01 15 9.02 15 8 15 Z M13 15 C13 16.65 13 18.3 13 20 C13.99 20 14.98 20 16 20 C16 18.35 16 16.7 16 15 C15.01 15 14.02 15 13 15 Z M23 15 C23 16.65 23 18.3 23 20 C23.99 20 24.98 20 26 20 C26 18.35 26 16.7 26 15 C25.01 15 24.02 15 23 15 Z M28 15 C28 16.65 28 18.3 28 20 C28.99 20 29.98 20 31 20 C31 18.35 31 16.7 31 15 C30.01 15 29.02 15 28 15 Z M33 15 C33 16.65 33 18.3 33 20 C33.99 20 34.98 20 36 20 C36 18.35 36 16.7 36 15 C35.01 15 34.02 15 33 15 Z M38 15 C38 16.65 38 18.3 38 20 C38.99 20 39.98 20 41 20 C41 18.35 41 16.7 41 15 C40.01 15 39.02 15 38 15 Z M3 22 C3 23.65 3 25.3 3 27 C3.99 27 4.98 27 6 27 C6 25.35 6 23.7 6 22 C5.01 22 4.02 22 3 22 Z M8 22 C8 23.65 8 25.3 8 27 C8.99 27 9.98 27 11 27 C11 25.35 11 23.7 11 22 C10.01 22 9.02 22 8 22 Z M13 22 C13 23.65 13 25.3 13 27 C13.99 27 14.98 27 16 27 C16 25.35 16 23.7 16 22 C15.01 22 14.02 22 13 22 Z M23 22 C23 23.65 23 25.3 23 27 C23.99 27 24.98 27 26 27 C26 25.35 26 23.7 26 22 C25.01 22 24.02 22 23 22 Z M28 22 C28 23.65 28 25.3 28 27 C28.99 27 29.98 27 31 27 C31 25.35 31 23.7 31 22 C30.01 22 29.02 22 28 22 Z M33 22 C33 23.65 33 25.3 33 27 C33.99 27 34.98 27 36 27 C36 25.35 36 23.7 36 22 C35.01 22 34.02 22 33 22 Z M38 22 C38 23.65 38 25.3 38 27 C38.99 27 39.98 27 41 27 C41 25.35 41 23.7 41 22 C40.01 22 39.02 22 38 22 Z " fill="#994566" transform="translate(294,165)"/>
<path d="M0 0 C6.27 0 12.54 0 19 0 C19 18.81 19 37.62 19 57 C11.08 57 3.16 57 -5 57 C-5 40.83 -5 24.66 -5 8 C-3.68 8 -2.36 8 -1 8 C-1.020625 6.865625 -1.04125 5.73125 -1.0625 4.5625 C-1 1 -1 1 0 0 Z M-4 9 C-3 11 -3 11 -3 11 Z M-2 9 C-1 11 -1 11 -1 11 Z " fill="#984566" transform="translate(411,183)"/>
</svg>
