<?xml version="1.0" encoding="UTF-8"?>
<svg version="1.1" xmlns="http://www.w3.org/2000/svg" width="576" height="324">
<path d="M0 0 C0.92080353 0.02009628 1.84160706 0.04019257 2.79031372 0.06089783 C3.786185 0.08793289 4.78205627 0.11496796 5.80810547 0.14282227 C7.33538773 0.17823875 7.33538773 0.17823875 8.89352417 0.21437073 C12.15425202 0.29110973 15.41474846 0.37509007 18.67529297 0.45922852 C20.88231279 0.51243895 23.089344 0.5651794 25.29638672 0.61743164 C30.71450276 0.74673875 36.13242209 0.88254169 41.55029297 1.02172852 C41.88029297 4.98172852 42.21029297 8.94172852 42.55029297 13.02172852 C43.21029297 13.02172852 43.87029297 13.02172852 44.55029297 13.02172852 C44.22029297 14.34172852 43.89029297 15.66172852 43.55029297 17.02172852 C45.20029297 17.02172852 46.85029297 17.02172852 48.55029297 17.02172852 C48.55029297 15.70172852 48.55029297 14.38172852 48.55029297 13.02172852 C49.21029297 13.02172852 49.87029297 13.02172852 50.55029297 13.02172852 C50.22029297 14.34172852 49.89029297 15.66172852 49.55029297 17.02172852 C51.20029297 17.02172852 52.85029297 17.02172852 54.55029297 17.02172852 C54.55029297 15.70172852 54.55029297 14.38172852 54.55029297 13.02172852 C55.21029297 13.02172852 55.87029297 13.02172852 56.55029297 13.02172852 C56.22029297 14.34172852 55.89029297 15.66172852 55.55029297 17.02172852 C57.20029297 17.02172852 58.85029297 17.02172852 60.55029297 17.02172852 C60.55029297 15.70172852 60.55029297 14.38172852 60.55029297 13.02172852 C61.21029297 13.02172852 61.87029297 13.02172852 62.55029297 13.02172852 C62.22029297 14.34172852 61.89029297 15.66172852 61.55029297 17.02172852 C63.20029297 17.02172852 64.85029297 17.02172852 66.55029297 17.02172852 C66.55029297 15.70172852 66.55029297 14.38172852 66.55029297 13.02172852 C67.21029297 13.02172852 67.87029297 13.02172852 68.55029297 13.02172852 C68.22029297 14.34172852 67.89029297 15.66172852 67.55029297 17.02172852 C68.54029297 17.02172852 69.53029297 17.02172852 70.55029297 17.02172852 C70.55029297 31.87172852 70.55029297 46.72172852 70.55029297 62.02172852 C72.86029297 61.69172852 75.17029297 61.36172852 77.55029297 61.02172852 C79.38112432 60.94787265 81.21409837 60.91323032 83.04638672 60.92407227 C84.01640625 60.92729492 84.98642578 60.93051758 85.98583984 60.93383789 C86.97648438 60.9422168 87.96712891 60.9505957 88.98779297 60.95922852 C90.00550781 60.96374023 91.02322266 60.96825195 92.07177734 60.97290039 C94.56464155 60.98460398 97.05747517 61.00253659 99.55029297 61.02172852 C99.55029297 57.39172852 99.55029297 53.76172852 99.55029297 50.02172852 C101.20029297 50.02172852 102.85029297 50.02172852 104.55029297 50.02172852 C104.55029297 95.23172852 104.55029297 140.44172852 104.55029297 187.02172852 C-85.52970703 187.02172852 -275.60970703 187.02172852 -471.44970703 187.02172852 C-471.44970703 141.81172852 -471.44970703 96.60172852 -471.44970703 50.02172852 C-467.5410989 48.71885914 -463.90627789 49.00819576 -459.84423828 49.14282227 C-458.58543098 49.17823875 -458.58543098 49.17823875 -457.30119324 49.21437073 C-454.62135583 49.29093127 -451.94181296 49.37498833 -449.26220703 49.45922852 C-447.44516414 49.51245682 -445.62810689 49.56519717 -443.81103516 49.61743164 C-439.35707268 49.74653614 -434.90335981 49.88236423 -430.44970703 50.02172852 C-429.95470703 53.48672852 -429.95470703 53.48672852 -429.44970703 57.02172852 C-428.45970703 57.02172852 -427.46970703 57.02172852 -426.44970703 57.02172852 C-426.44970703 63.62172852 -426.44970703 70.22172852 -426.44970703 77.02172852 C-427.43970703 77.02172852 -428.42970703 77.02172852 -429.44970703 77.02172852 C-429.77970703 77.68172852 -430.10970703 78.34172852 -430.44970703 79.02172852 C-429.42490234 79.01012695 -428.40009766 78.99852539 -427.34423828 78.98657227 C-425.98356303 78.9771883 -424.62288579 78.96808875 -423.26220703 78.95922852 C-422.58867187 78.95084961 -421.91513672 78.9424707 -421.22119141 78.93383789 C-417.39647325 78.91518073 -414.24681987 79.26230595 -410.44970703 80.02172852 C-410.44970703 63.52172852 -410.44970703 47.02172852 -410.44970703 30.02172852 C-407.62556541 28.60965771 -405.32126519 28.94597942 -402.1640625 29 C-401.52003479 29.00960754 -400.87600708 29.01921509 -400.21246338 29.02911377 C-398.08049696 29.06213495 -395.94873348 29.10245515 -393.81689453 29.14282227 C-392.340024 29.16712035 -390.86314592 29.19096407 -389.38626099 29.21437073 C-385.4965151 29.27724273 -381.60690247 29.34630048 -377.71728516 29.41662598 C-373.05176063 29.49970088 -368.38610704 29.57512956 -363.72047424 29.65183258 C-356.63010201 29.7692583 -349.53996415 29.8964249 -342.44970703 30.02172852 C-342.44970703 41.57172852 -342.44970703 53.12172852 -342.44970703 65.02172852 C-330.23970703 65.02172852 -318.02970703 65.02172852 -305.44970703 65.02172852 C-306.43970703 65.68172852 -307.42970703 66.34172852 -308.44970703 67.02172852 C-307.64533203 67.00110352 -306.84095703 66.98047852 -306.01220703 66.95922852 C-303.44970703 67.02172852 -303.44970703 67.02172852 -302.44970703 68.02172852 C-302.44970703 71.65172852 -302.44970703 75.28172852 -302.44970703 79.02172852 C-294.85970703 79.02172852 -287.26970703 79.02172852 -279.44970703 79.02172852 C-279.44970703 76.71172852 -279.44970703 74.40172852 -279.44970703 72.02172852 C-273.38085386 71.89824656 -267.31272961 71.8074448 -261.24291992 71.74707031 C-259.17768622 71.72190631 -257.11254174 71.68777168 -255.04760742 71.64453125 C-252.08115656 71.58396235 -249.11588151 71.55553815 -246.14892578 71.53344727 C-244.7612928 71.49473763 -244.7612928 71.49473763 -243.34562683 71.45524597 C-240.94342179 71.4541919 -238.79238036 71.48966749 -236.44970703 72.02172852 C-234.40600586 74.42724609 -234.40600586 74.42724609 -233.44970703 77.02172852 C-233.11970703 77.68172852 -232.78970703 78.34172852 -232.44970703 79.02172852 C-233.76970703 79.02172852 -235.08970703 79.02172852 -236.44970703 79.02172852 C-236.44970703 79.68172852 -236.44970703 80.34172852 -236.44970703 81.02172852 C-212.35970703 81.02172852 -188.26970703 81.02172852 -163.44970703 81.02172852 C-164.10970703 79.70172852 -164.76970703 78.38172852 -165.44970703 77.02172852 C-165.44970703 75.70172852 -165.44970703 74.38172852 -165.44970703 73.02172852 C-164.78970703 73.02172852 -164.12970703 73.02172852 -163.44970703 73.02172852 C-163.77970703 72.11422852 -164.10970703 71.20672852 -164.44970703 70.27172852 C-165.44970703 67.02172852 -165.44970703 67.02172852 -165.44970703 63.02172852 C-164.78970703 63.02172852 -164.12970703 63.02172852 -163.44970703 63.02172852 C-163.77970703 62.11422852 -164.10970703 61.20672852 -164.44970703 60.27172852 C-165.44970703 57.02172852 -165.44970703 57.02172852 -165.44970703 53.02172852 C-164.78970703 53.02172852 -164.12970703 53.02172852 -163.44970703 53.02172852 C-163.44970703 51.37172852 -163.44970703 49.72172852 -163.44970703 48.02172852 C-164.76970703 47.69172852 -166.08970703 47.36172852 -167.44970703 47.02172852 C-166.97533203 46.58860352 -166.50095703 46.15547852 -166.01220703 45.70922852 C-164.21283746 43.99863239 -164.21283746 43.99863239 -163.44970703 41.02172852 C-149.25970703 41.02172852 -135.06970703 41.02172852 -120.44970703 41.02172852 C-120.44970703 44.98172852 -120.44970703 48.94172852 -120.44970703 53.02172852 C-112.52970703 53.02172852 -104.60970703 53.02172852 -96.44970703 53.02172852 C-96.44970703 43.12172852 -96.44970703 33.22172852 -96.44970703 23.02172852 C-91.82970703 23.02172852 -87.20970703 23.02172852 -82.44970703 23.02172852 C-82.44970703 20.38172852 -82.44970703 17.74172852 -82.44970703 15.02172852 C-79.41063916 14.00870589 -77.5059185 13.93091519 -74.33569336 14 C-72.7744146 14.03014442 -72.7744146 14.03014442 -71.18159485 14.06089783 C-69.49866585 14.10145042 -69.49866585 14.10145042 -67.78173828 14.14282227 C-66.63178879 14.16643326 -65.48183929 14.19004425 -64.29704285 14.21437073 C-60.61863959 14.29103698 -56.94044528 14.37504897 -53.26220703 14.45922852 C-50.77068085 14.51244621 -48.27914442 14.56518663 -45.78759766 14.61743164 C-39.67479646 14.74575769 -33.56233276 14.88400905 -27.44970703 15.02172852 C-27.44970703 30.53172852 -27.44970703 46.04172852 -27.44970703 62.02172852 C-24.80970703 61.69172852 -22.16970703 61.36172852 -19.44970703 61.02172852 C-17.49270597 60.93834752 -15.53347572 60.8911796 -13.57470703 60.89672852 C-12.18638672 60.89286133 -12.18638672 60.89286133 -10.77001953 60.88891602 C-8.44970703 61.02172852 -8.44970703 61.02172852 -6.44970703 62.02172852 C-6.44970703 41.89172852 -6.44970703 21.76172852 -6.44970703 1.02172852 C-4.0530002 -0.1766249 -2.6707228 -0.06567351 0 0 Z M-1.44970703 6.02172852 C-1.44970703 7.34172852 -1.44970703 8.66172852 -1.44970703 10.02172852 C-0.45970703 10.02172852 0.53029297 10.02172852 1.55029297 10.02172852 C1.55029297 8.70172852 1.55029297 7.38172852 1.55029297 6.02172852 C0.56029297 6.02172852 -0.42970703 6.02172852 -1.44970703 6.02172852 Z M3.55029297 6.02172852 C3.55029297 7.34172852 3.55029297 8.66172852 3.55029297 10.02172852 C4.54029297 10.02172852 5.53029297 10.02172852 6.55029297 10.02172852 C6.55029297 8.70172852 6.55029297 7.38172852 6.55029297 6.02172852 C5.56029297 6.02172852 4.57029297 6.02172852 3.55029297 6.02172852 Z M8.55029297 6.02172852 C8.55029297 7.34172852 8.55029297 8.66172852 8.55029297 10.02172852 C9.54029297 10.02172852 10.53029297 10.02172852 11.55029297 10.02172852 C11.55029297 8.70172852 11.55029297 7.38172852 11.55029297 6.02172852 C10.56029297 6.02172852 9.57029297 6.02172852 8.55029297 6.02172852 Z M18.55029297 6.02172852 C18.55029297 7.34172852 18.55029297 8.66172852 18.55029297 10.02172852 C19.21029297 10.02172852 19.87029297 10.02172852 20.55029297 10.02172852 C20.55029297 8.70172852 20.55029297 7.38172852 20.55029297 6.02172852 C19.89029297 6.02172852 19.23029297 6.02172852 18.55029297 6.02172852 Z M22.55029297 6.02172852 C22.55029297 7.34172852 22.55029297 8.66172852 22.55029297 10.02172852 C23.21029297 10.02172852 23.87029297 10.02172852 24.55029297 10.02172852 C24.55029297 8.70172852 24.55029297 7.38172852 24.55029297 6.02172852 C23.89029297 6.02172852 23.23029297 6.02172852 22.55029297 6.02172852 Z M26.55029297 6.02172852 C26.55029297 7.34172852 26.55029297 8.66172852 26.55029297 10.02172852 C27.21029297 10.02172852 27.87029297 10.02172852 28.55029297 10.02172852 C28.55029297 8.70172852 28.55029297 7.38172852 28.55029297 6.02172852 C27.89029297 6.02172852 27.23029297 6.02172852 26.55029297 6.02172852 Z M30.55029297 6.02172852 C30.55029297 7.34172852 30.55029297 8.66172852 30.55029297 10.02172852 C31.21029297 10.02172852 31.87029297 10.02172852 32.55029297 10.02172852 C32.55029297 8.70172852 32.55029297 7.38172852 32.55029297 6.02172852 C31.89029297 6.02172852 31.23029297 6.02172852 30.55029297 6.02172852 Z M-1.44970703 12.02172852 C-1.44970703 13.34172852 -1.44970703 14.66172852 -1.44970703 16.02172852 C-0.45970703 16.02172852 0.53029297 16.02172852 1.55029297 16.02172852 C1.55029297 14.70172852 1.55029297 13.38172852 1.55029297 12.02172852 C0.56029297 12.02172852 -0.42970703 12.02172852 -1.44970703 12.02172852 Z M3.55029297 12.02172852 C3.55029297 13.34172852 3.55029297 14.66172852 3.55029297 16.02172852 C4.54029297 16.02172852 5.53029297 16.02172852 6.55029297 16.02172852 C6.55029297 14.70172852 6.55029297 13.38172852 6.55029297 12.02172852 C5.56029297 12.02172852 4.57029297 12.02172852 3.55029297 12.02172852 Z M8.55029297 12.02172852 C8.55029297 13.34172852 8.55029297 14.66172852 8.55029297 16.02172852 C9.54029297 16.02172852 10.53029297 16.02172852 11.55029297 16.02172852 C11.55029297 14.70172852 11.55029297 13.38172852 11.55029297 12.02172852 C10.56029297 12.02172852 9.57029297 12.02172852 8.55029297 12.02172852 Z M13.55029297 12.02172852 C13.55029297 13.34172852 13.55029297 14.66172852 13.55029297 16.02172852 C14.54029297 16.02172852 15.53029297 16.02172852 16.55029297 16.02172852 C16.55029297 14.70172852 16.55029297 13.38172852 16.55029297 12.02172852 C15.56029297 12.02172852 14.57029297 12.02172852 13.55029297 12.02172852 Z M18.55029297 12.02172852 C18.55029297 13.34172852 18.55029297 14.66172852 18.55029297 16.02172852 C19.21029297 16.02172852 19.87029297 16.02172852 20.55029297 16.02172852 C20.55029297 14.70172852 20.55029297 13.38172852 20.55029297 12.02172852 C19.89029297 12.02172852 19.23029297 12.02172852 18.55029297 12.02172852 Z M22.55029297 12.02172852 C22.55029297 13.34172852 22.55029297 14.66172852 22.55029297 16.02172852 C23.21029297 16.02172852 23.87029297 16.02172852 24.55029297 16.02172852 C24.55029297 14.70172852 24.55029297 13.38172852 24.55029297 12.02172852 C23.89029297 12.02172852 23.23029297 12.02172852 22.55029297 12.02172852 Z M8.55029297 18.02172852 C8.55029297 19.34172852 8.55029297 20.66172852 8.55029297 22.02172852 C9.54029297 22.02172852 10.53029297 22.02172852 11.55029297 22.02172852 C11.55029297 20.70172852 11.55029297 19.38172852 11.55029297 18.02172852 C10.56029297 18.02172852 9.57029297 18.02172852 8.55029297 18.02172852 Z M13.55029297 18.02172852 C13.55029297 19.34172852 13.55029297 20.66172852 13.55029297 22.02172852 C14.54029297 22.02172852 15.53029297 22.02172852 16.55029297 22.02172852 C16.55029297 20.70172852 16.55029297 19.38172852 16.55029297 18.02172852 C15.56029297 18.02172852 14.57029297 18.02172852 13.55029297 18.02172852 Z M22.55029297 18.02172852 C22.55029297 19.34172852 22.55029297 20.66172852 22.55029297 22.02172852 C23.21029297 22.02172852 23.87029297 22.02172852 24.55029297 22.02172852 C24.55029297 20.70172852 24.55029297 19.38172852 24.55029297 18.02172852 C23.89029297 18.02172852 23.23029297 18.02172852 22.55029297 18.02172852 Z M26.55029297 18.02172852 C26.55029297 19.34172852 26.55029297 20.66172852 26.55029297 22.02172852 C27.21029297 22.02172852 27.87029297 22.02172852 28.55029297 22.02172852 C28.55029297 20.70172852 28.55029297 19.38172852 28.55029297 18.02172852 C27.89029297 18.02172852 27.23029297 18.02172852 26.55029297 18.02172852 Z M-76.44970703 19.02172852 C-76.44970703 20.34172852 -76.44970703 21.66172852 -76.44970703 23.02172852 C-75.45970703 23.02172852 -74.46970703 23.02172852 -73.44970703 23.02172852 C-73.44970703 21.70172852 -73.44970703 20.38172852 -73.44970703 19.02172852 C-74.43970703 19.02172852 -75.42970703 19.02172852 -76.44970703 19.02172852 Z M-71.44970703 19.02172852 C-71.44970703 20.34172852 -71.44970703 21.66172852 -71.44970703 23.02172852 C-70.45970703 23.02172852 -69.46970703 23.02172852 -68.44970703 23.02172852 C-68.44970703 21.70172852 -68.44970703 20.38172852 -68.44970703 19.02172852 C-69.43970703 19.02172852 -70.42970703 19.02172852 -71.44970703 19.02172852 Z M-66.44970703 19.02172852 C-66.44970703 20.34172852 -66.44970703 21.66172852 -66.44970703 23.02172852 C-65.45970703 23.02172852 -64.46970703 23.02172852 -63.44970703 23.02172852 C-63.44970703 21.70172852 -63.44970703 20.38172852 -63.44970703 19.02172852 C-64.43970703 19.02172852 -65.42970703 19.02172852 -66.44970703 19.02172852 Z M-61.44970703 19.02172852 C-61.44970703 20.34172852 -61.44970703 21.66172852 -61.44970703 23.02172852 C-60.45970703 23.02172852 -59.46970703 23.02172852 -58.44970703 23.02172852 C-58.44970703 21.70172852 -58.44970703 20.38172852 -58.44970703 19.02172852 C-59.43970703 19.02172852 -60.42970703 19.02172852 -61.44970703 19.02172852 Z M-56.44970703 19.02172852 C-56.44970703 20.34172852 -56.44970703 21.66172852 -56.44970703 23.02172852 C-55.45970703 23.02172852 -54.46970703 23.02172852 -53.44970703 23.02172852 C-53.44970703 21.70172852 -53.44970703 20.38172852 -53.44970703 19.02172852 C-54.43970703 19.02172852 -55.42970703 19.02172852 -56.44970703 19.02172852 Z M42.55029297 22.02172852 C42.55029297 23.67172852 42.55029297 25.32172852 42.55029297 27.02172852 C43.21029297 27.02172852 43.87029297 27.02172852 44.55029297 27.02172852 C44.55029297 25.37172852 44.55029297 23.72172852 44.55029297 22.02172852 C43.89029297 22.02172852 43.23029297 22.02172852 42.55029297 22.02172852 Z M46.55029297 22.02172852 C46.55029297 23.67172852 46.55029297 25.32172852 46.55029297 27.02172852 C47.21029297 27.02172852 47.87029297 27.02172852 48.55029297 27.02172852 C48.55029297 25.37172852 48.55029297 23.72172852 48.55029297 22.02172852 C47.89029297 22.02172852 47.23029297 22.02172852 46.55029297 22.02172852 Z M50.55029297 22.02172852 C50.55029297 23.67172852 50.55029297 25.32172852 50.55029297 27.02172852 C51.21029297 27.02172852 51.87029297 27.02172852 52.55029297 27.02172852 C52.55029297 25.37172852 52.55029297 23.72172852 52.55029297 22.02172852 C51.89029297 22.02172852 51.23029297 22.02172852 50.55029297 22.02172852 Z M-95.44970703 24.02172852 C-95.44970703 25.01172852 -95.44970703 26.00172852 -95.44970703 27.02172852 C-94.78970703 27.02172852 -94.12970703 27.02172852 -93.44970703 27.02172852 C-93.44970703 26.03172852 -93.44970703 25.04172852 -93.44970703 24.02172852 C-94.10970703 24.02172852 -94.76970703 24.02172852 -95.44970703 24.02172852 Z M-92.44970703 24.02172852 C-92.44970703 25.01172852 -92.44970703 26.00172852 -92.44970703 27.02172852 C-91.78970703 27.02172852 -91.12970703 27.02172852 -90.44970703 27.02172852 C-90.44970703 26.03172852 -90.44970703 25.04172852 -90.44970703 24.02172852 C-91.10970703 24.02172852 -91.76970703 24.02172852 -92.44970703 24.02172852 Z M-89.44970703 24.02172852 C-89.44970703 25.01172852 -89.44970703 26.00172852 -89.44970703 27.02172852 C-88.78970703 27.02172852 -88.12970703 27.02172852 -87.44970703 27.02172852 C-87.44970703 26.03172852 -87.44970703 25.04172852 -87.44970703 24.02172852 C-88.10970703 24.02172852 -88.76970703 24.02172852 -89.44970703 24.02172852 Z M-86.44970703 24.02172852 C-86.44970703 25.01172852 -86.44970703 26.00172852 -86.44970703 27.02172852 C-85.78970703 27.02172852 -85.12970703 27.02172852 -84.44970703 27.02172852 C-84.44970703 26.03172852 -84.44970703 25.04172852 -84.44970703 24.02172852 C-85.10970703 24.02172852 -85.76970703 24.02172852 -86.44970703 24.02172852 Z M-83.44970703 24.02172852 C-82.44970703 27.02172852 -82.44970703 27.02172852 -82.44970703 27.02172852 Z M3.55029297 24.02172852 C3.55029297 25.34172852 3.55029297 26.66172852 3.55029297 28.02172852 C4.54029297 28.02172852 5.53029297 28.02172852 6.55029297 28.02172852 C6.55029297 26.70172852 6.55029297 25.38172852 6.55029297 24.02172852 C5.56029297 24.02172852 4.57029297 24.02172852 3.55029297 24.02172852 Z M8.55029297 24.02172852 C8.55029297 25.34172852 8.55029297 26.66172852 8.55029297 28.02172852 C9.54029297 28.02172852 10.53029297 28.02172852 11.55029297 28.02172852 C11.55029297 26.70172852 11.55029297 25.38172852 11.55029297 24.02172852 C10.56029297 24.02172852 9.57029297 24.02172852 8.55029297 24.02172852 Z M-76.44970703 25.02172852 C-76.44970703 26.34172852 -76.44970703 27.66172852 -76.44970703 29.02172852 C-75.45970703 29.02172852 -74.46970703 29.02172852 -73.44970703 29.02172852 C-73.44970703 27.70172852 -73.44970703 26.38172852 -73.44970703 25.02172852 C-74.43970703 25.02172852 -75.42970703 25.02172852 -76.44970703 25.02172852 Z M-71.44970703 25.02172852 C-71.44970703 26.34172852 -71.44970703 27.66172852 -71.44970703 29.02172852 C-70.45970703 29.02172852 -69.46970703 29.02172852 -68.44970703 29.02172852 C-68.44970703 27.70172852 -68.44970703 26.38172852 -68.44970703 25.02172852 C-69.43970703 25.02172852 -70.42970703 25.02172852 -71.44970703 25.02172852 Z M-66.44970703 25.02172852 C-66.44970703 26.34172852 -66.44970703 27.66172852 -66.44970703 29.02172852 C-65.45970703 29.02172852 -64.46970703 29.02172852 -63.44970703 29.02172852 C-63.44970703 27.70172852 -63.44970703 26.38172852 -63.44970703 25.02172852 C-64.43970703 25.02172852 -65.42970703 25.02172852 -66.44970703 25.02172852 Z M-61.44970703 25.02172852 C-61.44970703 26.34172852 -61.44970703 27.66172852 -61.44970703 29.02172852 C-60.45970703 29.02172852 -59.46970703 29.02172852 -58.44970703 29.02172852 C-58.44970703 27.70172852 -58.44970703 26.38172852 -58.44970703 25.02172852 C-59.43970703 25.02172852 -60.42970703 25.02172852 -61.44970703 25.02172852 Z M42.55029297 29.02172852 C42.55029297 30.34172852 42.55029297 31.66172852 42.55029297 33.02172852 C43.21029297 33.02172852 43.87029297 33.02172852 44.55029297 33.02172852 C44.55029297 31.70172852 44.55029297 30.38172852 44.55029297 29.02172852 C43.89029297 29.02172852 43.23029297 29.02172852 42.55029297 29.02172852 Z M46.55029297 29.02172852 C46.55029297 30.34172852 46.55029297 31.66172852 46.55029297 33.02172852 C47.21029297 33.02172852 47.87029297 33.02172852 48.55029297 33.02172852 C48.55029297 31.70172852 48.55029297 30.38172852 48.55029297 29.02172852 C47.89029297 29.02172852 47.23029297 29.02172852 46.55029297 29.02172852 Z M-92.44970703 31.02172852 C-92.44970703 32.34172852 -92.44970703 33.66172852 -92.44970703 35.02172852 C-91.45970703 35.02172852 -90.46970703 35.02172852 -89.44970703 35.02172852 C-89.44970703 33.70172852 -89.44970703 32.38172852 -89.44970703 31.02172852 C-90.43970703 31.02172852 -91.42970703 31.02172852 -92.44970703 31.02172852 Z M-87.44970703 31.02172852 C-87.44970703 32.34172852 -87.44970703 33.66172852 -87.44970703 35.02172852 C-86.45970703 35.02172852 -85.46970703 35.02172852 -84.44970703 35.02172852 C-84.44970703 33.70172852 -84.44970703 32.38172852 -84.44970703 31.02172852 C-85.43970703 31.02172852 -86.42970703 31.02172852 -87.44970703 31.02172852 Z M-76.44970703 31.02172852 C-76.44970703 32.34172852 -76.44970703 33.66172852 -76.44970703 35.02172852 C-75.45970703 35.02172852 -74.46970703 35.02172852 -73.44970703 35.02172852 C-73.44970703 33.70172852 -73.44970703 32.38172852 -73.44970703 31.02172852 C-74.43970703 31.02172852 -75.42970703 31.02172852 -76.44970703 31.02172852 Z M-66.44970703 31.02172852 C-66.44970703 32.34172852 -66.44970703 33.66172852 -66.44970703 35.02172852 C-65.45970703 35.02172852 -64.46970703 35.02172852 -63.44970703 35.02172852 C-63.44970703 33.70172852 -63.44970703 32.38172852 -63.44970703 31.02172852 C-64.43970703 31.02172852 -65.42970703 31.02172852 -66.44970703 31.02172852 Z M-61.44970703 31.02172852 C-61.44970703 32.34172852 -61.44970703 33.66172852 -61.44970703 35.02172852 C-60.45970703 35.02172852 -59.46970703 35.02172852 -58.44970703 35.02172852 C-58.44970703 33.70172852 -58.44970703 32.38172852 -58.44970703 31.02172852 C-59.43970703 31.02172852 -60.42970703 31.02172852 -61.44970703 31.02172852 Z M-56.44970703 31.02172852 C-56.44970703 32.34172852 -56.44970703 33.66172852 -56.44970703 35.02172852 C-55.45970703 35.02172852 -54.46970703 35.02172852 -53.44970703 35.02172852 C-53.44970703 33.70172852 -53.44970703 32.38172852 -53.44970703 31.02172852 C-54.43970703 31.02172852 -55.42970703 31.02172852 -56.44970703 31.02172852 Z M-405.44970703 35.02172852 C-405.44970703 36.34172852 -405.44970703 37.66172852 -405.44970703 39.02172852 C-404.45970703 39.02172852 -403.46970703 39.02172852 -402.44970703 39.02172852 C-402.44970703 37.70172852 -402.44970703 36.38172852 -402.44970703 35.02172852 C-403.43970703 35.02172852 -404.42970703 35.02172852 -405.44970703 35.02172852 Z M-400.44970703 35.02172852 C-400.44970703 36.34172852 -400.44970703 37.66172852 -400.44970703 39.02172852 C-399.45970703 39.02172852 -398.46970703 39.02172852 -397.44970703 39.02172852 C-397.44970703 37.70172852 -397.44970703 36.38172852 -397.44970703 35.02172852 C-398.43970703 35.02172852 -399.42970703 35.02172852 -400.44970703 35.02172852 Z M-395.44970703 35.02172852 C-395.44970703 36.34172852 -395.44970703 37.66172852 -395.44970703 39.02172852 C-394.45970703 39.02172852 -393.46970703 39.02172852 -392.44970703 39.02172852 C-392.44970703 37.70172852 -392.44970703 36.38172852 -392.44970703 35.02172852 C-393.43970703 35.02172852 -394.42970703 35.02172852 -395.44970703 35.02172852 Z M-361.44970703 35.02172852 C-361.44970703 36.34172852 -361.44970703 37.66172852 -361.44970703 39.02172852 C-360.45970703 39.02172852 -359.46970703 39.02172852 -358.44970703 39.02172852 C-358.44970703 37.70172852 -358.44970703 36.38172852 -358.44970703 35.02172852 C-359.43970703 35.02172852 -360.42970703 35.02172852 -361.44970703 35.02172852 Z M-356.44970703 35.02172852 C-356.44970703 36.34172852 -356.44970703 37.66172852 -356.44970703 39.02172852 C-355.45970703 39.02172852 -354.46970703 39.02172852 -353.44970703 39.02172852 C-353.44970703 37.70172852 -353.44970703 36.38172852 -353.44970703 35.02172852 C-354.43970703 35.02172852 -355.42970703 35.02172852 -356.44970703 35.02172852 Z M-351.44970703 35.02172852 C-351.44970703 36.34172852 -351.44970703 37.66172852 -351.44970703 39.02172852 C-350.45970703 39.02172852 -349.46970703 39.02172852 -348.44970703 39.02172852 C-348.44970703 37.70172852 -348.44970703 36.38172852 -348.44970703 35.02172852 C-349.43970703 35.02172852 -350.42970703 35.02172852 -351.44970703 35.02172852 Z M42.55029297 35.02172852 C42.55029297 36.34172852 42.55029297 37.66172852 42.55029297 39.02172852 C43.21029297 39.02172852 43.87029297 39.02172852 44.55029297 39.02172852 C44.55029297 37.70172852 44.55029297 36.38172852 44.55029297 35.02172852 C43.89029297 35.02172852 43.23029297 35.02172852 42.55029297 35.02172852 Z M-92.44970703 37.02172852 C-92.44970703 38.34172852 -92.44970703 39.66172852 -92.44970703 41.02172852 C-91.45970703 41.02172852 -90.46970703 41.02172852 -89.44970703 41.02172852 C-89.44970703 39.70172852 -89.44970703 38.38172852 -89.44970703 37.02172852 C-90.43970703 37.02172852 -91.42970703 37.02172852 -92.44970703 37.02172852 Z M-87.44970703 37.02172852 C-87.44970703 38.34172852 -87.44970703 39.66172852 -87.44970703 41.02172852 C-86.45970703 41.02172852 -85.46970703 41.02172852 -84.44970703 41.02172852 C-84.44970703 39.70172852 -84.44970703 38.38172852 -84.44970703 37.02172852 C-85.43970703 37.02172852 -86.42970703 37.02172852 -87.44970703 37.02172852 Z M-76.44970703 37.02172852 C-76.44970703 38.34172852 -76.44970703 39.66172852 -76.44970703 41.02172852 C-75.45970703 41.02172852 -74.46970703 41.02172852 -73.44970703 41.02172852 C-73.44970703 39.70172852 -73.44970703 38.38172852 -73.44970703 37.02172852 C-74.43970703 37.02172852 -75.42970703 37.02172852 -76.44970703 37.02172852 Z M-71.44970703 37.02172852 C-71.44970703 38.34172852 -71.44970703 39.66172852 -71.44970703 41.02172852 C-70.45970703 41.02172852 -69.46970703 41.02172852 -68.44970703 41.02172852 C-68.44970703 39.70172852 -68.44970703 38.38172852 -68.44970703 37.02172852 C-69.43970703 37.02172852 -70.42970703 37.02172852 -71.44970703 37.02172852 Z M-61.44970703 37.02172852 C-61.44970703 38.34172852 -61.44970703 39.66172852 -61.44970703 41.02172852 C-60.45970703 41.02172852 -59.46970703 41.02172852 -58.44970703 41.02172852 C-58.44970703 39.70172852 -58.44970703 38.38172852 -58.44970703 37.02172852 C-59.43970703 37.02172852 -60.42970703 37.02172852 -61.44970703 37.02172852 Z M-405.44970703 41.02172852 C-405.44970703 42.34172852 -405.44970703 43.66172852 -405.44970703 45.02172852 C-404.45970703 45.02172852 -403.46970703 45.02172852 -402.44970703 45.02172852 C-402.44970703 43.70172852 -402.44970703 42.38172852 -402.44970703 41.02172852 C-403.43970703 41.02172852 -404.42970703 41.02172852 -405.44970703 41.02172852 Z M-400.44970703 41.02172852 C-400.44970703 42.34172852 -400.44970703 43.66172852 -400.44970703 45.02172852 C-399.45970703 45.02172852 -398.46970703 45.02172852 -397.44970703 45.02172852 C-397.44970703 43.70172852 -397.44970703 42.38172852 -397.44970703 41.02172852 C-398.43970703 41.02172852 -399.42970703 41.02172852 -400.44970703 41.02172852 Z M-395.44970703 41.02172852 C-395.44970703 42.34172852 -395.44970703 43.66172852 -395.44970703 45.02172852 C-394.45970703 45.02172852 -393.46970703 45.02172852 -392.44970703 45.02172852 C-392.44970703 43.70172852 -392.44970703 42.38172852 -392.44970703 41.02172852 C-393.43970703 41.02172852 -394.42970703 41.02172852 -395.44970703 41.02172852 Z M-390.44970703 41.02172852 C-390.44970703 42.34172852 -390.44970703 43.66172852 -390.44970703 45.02172852 C-389.45970703 45.02172852 -388.46970703 45.02172852 -387.44970703 45.02172852 C-387.44970703 43.70172852 -387.44970703 42.38172852 -387.44970703 41.02172852 C-388.43970703 41.02172852 -389.42970703 41.02172852 -390.44970703 41.02172852 Z M-361.44970703 41.02172852 C-361.44970703 42.34172852 -361.44970703 43.66172852 -361.44970703 45.02172852 C-360.45970703 45.02172852 -359.46970703 45.02172852 -358.44970703 45.02172852 C-358.44970703 43.70172852 -358.44970703 42.38172852 -358.44970703 41.02172852 C-359.43970703 41.02172852 -360.42970703 41.02172852 -361.44970703 41.02172852 Z M-356.44970703 41.02172852 C-356.44970703 42.34172852 -356.44970703 43.66172852 -356.44970703 45.02172852 C-355.45970703 45.02172852 -354.46970703 45.02172852 -353.44970703 45.02172852 C-353.44970703 43.70172852 -353.44970703 42.38172852 -353.44970703 41.02172852 C-354.43970703 41.02172852 -355.42970703 41.02172852 -356.44970703 41.02172852 Z M-351.44970703 41.02172852 C-351.44970703 42.34172852 -351.44970703 43.66172852 -351.44970703 45.02172852 C-350.45970703 45.02172852 -349.46970703 45.02172852 -348.44970703 45.02172852 C-348.44970703 43.70172852 -348.44970703 42.38172852 -348.44970703 41.02172852 C-349.43970703 41.02172852 -350.42970703 41.02172852 -351.44970703 41.02172852 Z M-162.44970703 42.02172852 C-162.44970703 42.68172852 -162.44970703 43.34172852 -162.44970703 44.02172852 C-161.78970703 44.02172852 -161.12970703 44.02172852 -160.44970703 44.02172852 C-160.44970703 43.36172852 -160.44970703 42.70172852 -160.44970703 42.02172852 C-161.10970703 42.02172852 -161.76970703 42.02172852 -162.44970703 42.02172852 Z M-159.44970703 42.02172852 C-159.44970703 42.68172852 -159.44970703 43.34172852 -159.44970703 44.02172852 C-158.78970703 44.02172852 -158.12970703 44.02172852 -157.44970703 44.02172852 C-157.44970703 43.36172852 -157.44970703 42.70172852 -157.44970703 42.02172852 C-158.10970703 42.02172852 -158.76970703 42.02172852 -159.44970703 42.02172852 Z M-156.44970703 42.02172852 C-156.44970703 42.68172852 -156.44970703 43.34172852 -156.44970703 44.02172852 C-155.78970703 44.02172852 -155.12970703 44.02172852 -154.44970703 44.02172852 C-154.44970703 43.36172852 -154.44970703 42.70172852 -154.44970703 42.02172852 C-155.10970703 42.02172852 -155.76970703 42.02172852 -156.44970703 42.02172852 Z M-153.44970703 42.02172852 C-153.44970703 42.68172852 -153.44970703 43.34172852 -153.44970703 44.02172852 C-152.78970703 44.02172852 -152.12970703 44.02172852 -151.44970703 44.02172852 C-151.44970703 43.36172852 -151.44970703 42.70172852 -151.44970703 42.02172852 C-152.10970703 42.02172852 -152.76970703 42.02172852 -153.44970703 42.02172852 Z M-150.44970703 42.02172852 C-150.44970703 42.68172852 -150.44970703 43.34172852 -150.44970703 44.02172852 C-149.78970703 44.02172852 -149.12970703 44.02172852 -148.44970703 44.02172852 C-148.44970703 43.36172852 -148.44970703 42.70172852 -148.44970703 42.02172852 C-149.10970703 42.02172852 -149.76970703 42.02172852 -150.44970703 42.02172852 Z M-147.44970703 42.02172852 C-147.44970703 42.68172852 -147.44970703 43.34172852 -147.44970703 44.02172852 C-146.78970703 44.02172852 -146.12970703 44.02172852 -145.44970703 44.02172852 C-145.44970703 43.36172852 -145.44970703 42.70172852 -145.44970703 42.02172852 C-146.10970703 42.02172852 -146.76970703 42.02172852 -147.44970703 42.02172852 Z M-144.44970703 42.02172852 C-144.44970703 42.68172852 -144.44970703 43.34172852 -144.44970703 44.02172852 C-143.78970703 44.02172852 -143.12970703 44.02172852 -142.44970703 44.02172852 C-142.44970703 43.36172852 -142.44970703 42.70172852 -142.44970703 42.02172852 C-143.10970703 42.02172852 -143.76970703 42.02172852 -144.44970703 42.02172852 Z M-141.44970703 42.02172852 C-141.44970703 42.68172852 -141.44970703 43.34172852 -141.44970703 44.02172852 C-140.78970703 44.02172852 -140.12970703 44.02172852 -139.44970703 44.02172852 C-139.44970703 43.36172852 -139.44970703 42.70172852 -139.44970703 42.02172852 C-140.10970703 42.02172852 -140.76970703 42.02172852 -141.44970703 42.02172852 Z M-138.44970703 42.02172852 C-138.44970703 42.68172852 -138.44970703 43.34172852 -138.44970703 44.02172852 C-137.78970703 44.02172852 -137.12970703 44.02172852 -136.44970703 44.02172852 C-136.44970703 43.36172852 -136.44970703 42.70172852 -136.44970703 42.02172852 C-137.10970703 42.02172852 -137.76970703 42.02172852 -138.44970703 42.02172852 Z M-135.44970703 42.02172852 C-135.44970703 42.68172852 -135.44970703 43.34172852 -135.44970703 44.02172852 C-134.78970703 44.02172852 -134.12970703 44.02172852 -133.44970703 44.02172852 C-133.44970703 43.36172852 -133.44970703 42.70172852 -133.44970703 42.02172852 C-134.10970703 42.02172852 -134.76970703 42.02172852 -135.44970703 42.02172852 Z M-132.44970703 42.02172852 C-132.44970703 42.68172852 -132.44970703 43.34172852 -132.44970703 44.02172852 C-131.78970703 44.02172852 -131.12970703 44.02172852 -130.44970703 44.02172852 C-130.44970703 43.36172852 -130.44970703 42.70172852 -130.44970703 42.02172852 C-131.10970703 42.02172852 -131.76970703 42.02172852 -132.44970703 42.02172852 Z M-129.44970703 42.02172852 C-129.44970703 42.68172852 -129.44970703 43.34172852 -129.44970703 44.02172852 C-128.78970703 44.02172852 -128.12970703 44.02172852 -127.44970703 44.02172852 C-127.44970703 43.36172852 -127.44970703 42.70172852 -127.44970703 42.02172852 C-128.10970703 42.02172852 -128.76970703 42.02172852 -129.44970703 42.02172852 Z M-126.44970703 42.02172852 C-126.44970703 42.68172852 -126.44970703 43.34172852 -126.44970703 44.02172852 C-125.78970703 44.02172852 -125.12970703 44.02172852 -124.44970703 44.02172852 C-124.44970703 43.36172852 -124.44970703 42.70172852 -124.44970703 42.02172852 C-125.10970703 42.02172852 -125.76970703 42.02172852 -126.44970703 42.02172852 Z M-123.44970703 42.02172852 C-123.44970703 42.68172852 -123.44970703 43.34172852 -123.44970703 44.02172852 C-122.78970703 44.02172852 -122.12970703 44.02172852 -121.44970703 44.02172852 C-121.44970703 43.36172852 -121.44970703 42.70172852 -121.44970703 42.02172852 C-122.10970703 42.02172852 -122.76970703 42.02172852 -123.44970703 42.02172852 Z M-92.44970703 43.02172852 C-92.44970703 44.34172852 -92.44970703 45.66172852 -92.44970703 47.02172852 C-91.45970703 47.02172852 -90.46970703 47.02172852 -89.44970703 47.02172852 C-89.44970703 45.70172852 -89.44970703 44.38172852 -89.44970703 43.02172852 C-90.43970703 43.02172852 -91.42970703 43.02172852 -92.44970703 43.02172852 Z M-405.44970703 47.02172852 C-405.44970703 48.34172852 -405.44970703 49.66172852 -405.44970703 51.02172852 C-404.45970703 51.02172852 -403.46970703 51.02172852 -402.44970703 51.02172852 C-402.44970703 49.70172852 -402.44970703 48.38172852 -402.44970703 47.02172852 C-403.43970703 47.02172852 -404.42970703 47.02172852 -405.44970703 47.02172852 Z M-395.44970703 47.02172852 C-395.44970703 48.34172852 -395.44970703 49.66172852 -395.44970703 51.02172852 C-394.45970703 51.02172852 -393.46970703 51.02172852 -392.44970703 51.02172852 C-392.44970703 49.70172852 -392.44970703 48.38172852 -392.44970703 47.02172852 C-393.43970703 47.02172852 -394.42970703 47.02172852 -395.44970703 47.02172852 Z M-390.44970703 47.02172852 C-390.44970703 48.34172852 -390.44970703 49.66172852 -390.44970703 51.02172852 C-389.45970703 51.02172852 -388.46970703 51.02172852 -387.44970703 51.02172852 C-387.44970703 49.70172852 -387.44970703 48.38172852 -387.44970703 47.02172852 C-388.43970703 47.02172852 -389.42970703 47.02172852 -390.44970703 47.02172852 Z M-356.44970703 47.02172852 C-356.44970703 48.34172852 -356.44970703 49.66172852 -356.44970703 51.02172852 C-355.45970703 51.02172852 -354.46970703 51.02172852 -353.44970703 51.02172852 C-353.44970703 49.70172852 -353.44970703 48.38172852 -353.44970703 47.02172852 C-354.43970703 47.02172852 -355.42970703 47.02172852 -356.44970703 47.02172852 Z M-351.44970703 47.02172852 C-351.44970703 48.34172852 -351.44970703 49.66172852 -351.44970703 51.02172852 C-350.45970703 51.02172852 -349.46970703 51.02172852 -348.44970703 51.02172852 C-348.44970703 49.70172852 -348.44970703 48.38172852 -348.44970703 47.02172852 C-349.43970703 47.02172852 -350.42970703 47.02172852 -351.44970703 47.02172852 Z M-160.44970703 48.02172852 C-160.44970703 49.67172852 -160.44970703 51.32172852 -160.44970703 53.02172852 C-159.45970703 53.02172852 -158.46970703 53.02172852 -157.44970703 53.02172852 C-157.44970703 51.37172852 -157.44970703 49.72172852 -157.44970703 48.02172852 C-158.43970703 48.02172852 -159.42970703 48.02172852 -160.44970703 48.02172852 Z M-154.44970703 48.02172852 C-154.44970703 49.67172852 -154.44970703 51.32172852 -154.44970703 53.02172852 C-153.45970703 53.02172852 -152.46970703 53.02172852 -151.44970703 53.02172852 C-151.44970703 51.37172852 -151.44970703 49.72172852 -151.44970703 48.02172852 C-152.43970703 48.02172852 -153.42970703 48.02172852 -154.44970703 48.02172852 Z M-148.44970703 48.02172852 C-148.44970703 49.67172852 -148.44970703 51.32172852 -148.44970703 53.02172852 C-147.45970703 53.02172852 -146.46970703 53.02172852 -145.44970703 53.02172852 C-145.44970703 51.37172852 -145.44970703 49.72172852 -145.44970703 48.02172852 C-146.43970703 48.02172852 -147.42970703 48.02172852 -148.44970703 48.02172852 Z M-142.44970703 48.02172852 C-142.44970703 49.67172852 -142.44970703 51.32172852 -142.44970703 53.02172852 C-141.45970703 53.02172852 -140.46970703 53.02172852 -139.44970703 53.02172852 C-139.44970703 51.37172852 -139.44970703 49.72172852 -139.44970703 48.02172852 C-140.43970703 48.02172852 -141.42970703 48.02172852 -142.44970703 48.02172852 Z M-136.44970703 48.02172852 C-136.44970703 49.67172852 -136.44970703 51.32172852 -136.44970703 53.02172852 C-135.78970703 53.02172852 -135.12970703 53.02172852 -134.44970703 53.02172852 C-134.44970703 51.37172852 -134.44970703 49.72172852 -134.44970703 48.02172852 C-135.10970703 48.02172852 -135.76970703 48.02172852 -136.44970703 48.02172852 Z M-132.44970703 48.02172852 C-132.44970703 49.67172852 -132.44970703 51.32172852 -132.44970703 53.02172852 C-131.78970703 53.02172852 -131.12970703 53.02172852 -130.44970703 53.02172852 C-130.44970703 51.37172852 -130.44970703 49.72172852 -130.44970703 48.02172852 C-131.10970703 48.02172852 -131.76970703 48.02172852 -132.44970703 48.02172852 Z M-87.44970703 49.02172852 C-87.44970703 50.34172852 -87.44970703 51.66172852 -87.44970703 53.02172852 C-86.45970703 53.02172852 -85.46970703 53.02172852 -84.44970703 53.02172852 C-84.44970703 51.70172852 -84.44970703 50.38172852 -84.44970703 49.02172852 C-85.43970703 49.02172852 -86.42970703 49.02172852 -87.44970703 49.02172852 Z M-400.44970703 53.02172852 C-400.44970703 54.34172852 -400.44970703 55.66172852 -400.44970703 57.02172852 C-399.45970703 57.02172852 -398.46970703 57.02172852 -397.44970703 57.02172852 C-397.44970703 55.70172852 -397.44970703 54.38172852 -397.44970703 53.02172852 C-398.43970703 53.02172852 -399.42970703 53.02172852 -400.44970703 53.02172852 Z M-395.44970703 53.02172852 C-395.44970703 54.34172852 -395.44970703 55.66172852 -395.44970703 57.02172852 C-394.45970703 57.02172852 -393.46970703 57.02172852 -392.44970703 57.02172852 C-392.44970703 55.70172852 -392.44970703 54.38172852 -392.44970703 53.02172852 C-393.43970703 53.02172852 -394.42970703 53.02172852 -395.44970703 53.02172852 Z M-356.44970703 53.02172852 C-356.44970703 54.34172852 -356.44970703 55.66172852 -356.44970703 57.02172852 C-355.45970703 57.02172852 -354.46970703 57.02172852 -353.44970703 57.02172852 C-353.44970703 55.70172852 -353.44970703 54.38172852 -353.44970703 53.02172852 C-354.43970703 53.02172852 -355.42970703 53.02172852 -356.44970703 53.02172852 Z M-351.44970703 53.02172852 C-351.44970703 54.34172852 -351.44970703 55.66172852 -351.44970703 57.02172852 C-350.45970703 57.02172852 -349.46970703 57.02172852 -348.44970703 57.02172852 C-348.44970703 55.70172852 -348.44970703 54.38172852 -348.44970703 53.02172852 C-349.43970703 53.02172852 -350.42970703 53.02172852 -351.44970703 53.02172852 Z M-120.44970703 54.02172852 C-120.44970703 54.68172852 -120.44970703 55.34172852 -120.44970703 56.02172852 C-119.78970703 56.02172852 -119.12970703 56.02172852 -118.44970703 56.02172852 C-118.44970703 55.36172852 -118.44970703 54.70172852 -118.44970703 54.02172852 C-119.10970703 54.02172852 -119.76970703 54.02172852 -120.44970703 54.02172852 Z M-117.44970703 54.02172852 C-117.44970703 54.68172852 -117.44970703 55.34172852 -117.44970703 56.02172852 C-116.78970703 56.02172852 -116.12970703 56.02172852 -115.44970703 56.02172852 C-115.44970703 55.36172852 -115.44970703 54.70172852 -115.44970703 54.02172852 C-116.10970703 54.02172852 -116.76970703 54.02172852 -117.44970703 54.02172852 Z M-114.44970703 54.02172852 C-114.44970703 54.68172852 -114.44970703 55.34172852 -114.44970703 56.02172852 C-113.78970703 56.02172852 -113.12970703 56.02172852 -112.44970703 56.02172852 C-112.44970703 55.36172852 -112.44970703 54.70172852 -112.44970703 54.02172852 C-113.10970703 54.02172852 -113.76970703 54.02172852 -114.44970703 54.02172852 Z M-111.44970703 54.02172852 C-111.44970703 54.68172852 -111.44970703 55.34172852 -111.44970703 56.02172852 C-110.78970703 56.02172852 -110.12970703 56.02172852 -109.44970703 56.02172852 C-109.44970703 55.36172852 -109.44970703 54.70172852 -109.44970703 54.02172852 C-110.10970703 54.02172852 -110.76970703 54.02172852 -111.44970703 54.02172852 Z M-108.44970703 54.02172852 C-108.44970703 54.68172852 -108.44970703 55.34172852 -108.44970703 56.02172852 C-107.78970703 56.02172852 -107.12970703 56.02172852 -106.44970703 56.02172852 C-106.44970703 55.36172852 -106.44970703 54.70172852 -106.44970703 54.02172852 C-107.10970703 54.02172852 -107.76970703 54.02172852 -108.44970703 54.02172852 Z M-105.44970703 54.02172852 C-105.44970703 54.68172852 -105.44970703 55.34172852 -105.44970703 56.02172852 C-104.78970703 56.02172852 -104.12970703 56.02172852 -103.44970703 56.02172852 C-103.44970703 55.36172852 -103.44970703 54.70172852 -103.44970703 54.02172852 C-104.10970703 54.02172852 -104.76970703 54.02172852 -105.44970703 54.02172852 Z M-102.44970703 54.02172852 C-102.44970703 54.68172852 -102.44970703 55.34172852 -102.44970703 56.02172852 C-101.78970703 56.02172852 -101.12970703 56.02172852 -100.44970703 56.02172852 C-100.44970703 55.36172852 -100.44970703 54.70172852 -100.44970703 54.02172852 C-101.10970703 54.02172852 -101.76970703 54.02172852 -102.44970703 54.02172852 Z M-99.44970703 54.02172852 C-99.44970703 54.68172852 -99.44970703 55.34172852 -99.44970703 56.02172852 C-98.78970703 56.02172852 -98.12970703 56.02172852 -97.44970703 56.02172852 C-97.44970703 55.36172852 -97.44970703 54.70172852 -97.44970703 54.02172852 C-98.10970703 54.02172852 -98.76970703 54.02172852 -99.44970703 54.02172852 Z M-460.44970703 55.02172852 C-460.44970703 56.67172852 -460.44970703 58.32172852 -460.44970703 60.02172852 C-459.78970703 60.02172852 -459.12970703 60.02172852 -458.44970703 60.02172852 C-458.44970703 58.37172852 -458.44970703 56.72172852 -458.44970703 55.02172852 C-459.10970703 55.02172852 -459.76970703 55.02172852 -460.44970703 55.02172852 Z M-454.44970703 55.02172852 C-454.44970703 56.67172852 -454.44970703 58.32172852 -454.44970703 60.02172852 C-453.78970703 60.02172852 -453.12970703 60.02172852 -452.44970703 60.02172852 C-452.44970703 58.37172852 -452.44970703 56.72172852 -452.44970703 55.02172852 C-453.10970703 55.02172852 -453.76970703 55.02172852 -454.44970703 55.02172852 Z M-448.44970703 55.02172852 C-448.44970703 56.67172852 -448.44970703 58.32172852 -448.44970703 60.02172852 C-447.78970703 60.02172852 -447.12970703 60.02172852 -446.44970703 60.02172852 C-446.44970703 58.37172852 -446.44970703 56.72172852 -446.44970703 55.02172852 C-447.10970703 55.02172852 -447.76970703 55.02172852 -448.44970703 55.02172852 Z M-442.44970703 55.02172852 C-442.44970703 56.67172852 -442.44970703 58.32172852 -442.44970703 60.02172852 C-441.78970703 60.02172852 -441.12970703 60.02172852 -440.44970703 60.02172852 C-440.44970703 58.37172852 -440.44970703 56.72172852 -440.44970703 55.02172852 C-441.10970703 55.02172852 -441.76970703 55.02172852 -442.44970703 55.02172852 Z M-436.44970703 55.02172852 C-436.44970703 56.67172852 -436.44970703 58.32172852 -436.44970703 60.02172852 C-435.78970703 60.02172852 -435.12970703 60.02172852 -434.44970703 60.02172852 C-434.44970703 58.37172852 -434.44970703 56.72172852 -434.44970703 55.02172852 C-435.10970703 55.02172852 -435.76970703 55.02172852 -436.44970703 55.02172852 Z M-160.44970703 58.02172852 C-160.44970703 59.67172852 -160.44970703 61.32172852 -160.44970703 63.02172852 C-159.45970703 63.02172852 -158.46970703 63.02172852 -157.44970703 63.02172852 C-157.44970703 61.37172852 -157.44970703 59.72172852 -157.44970703 58.02172852 C-158.43970703 58.02172852 -159.42970703 58.02172852 -160.44970703 58.02172852 Z M-154.44970703 58.02172852 C-154.44970703 59.67172852 -154.44970703 61.32172852 -154.44970703 63.02172852 C-153.45970703 63.02172852 -152.46970703 63.02172852 -151.44970703 63.02172852 C-151.44970703 61.37172852 -151.44970703 59.72172852 -151.44970703 58.02172852 C-152.43970703 58.02172852 -153.42970703 58.02172852 -154.44970703 58.02172852 Z M-148.44970703 58.02172852 C-148.44970703 59.67172852 -148.44970703 61.32172852 -148.44970703 63.02172852 C-147.45970703 63.02172852 -146.46970703 63.02172852 -145.44970703 63.02172852 C-145.44970703 61.37172852 -145.44970703 59.72172852 -145.44970703 58.02172852 C-146.43970703 58.02172852 -147.42970703 58.02172852 -148.44970703 58.02172852 Z M-142.44970703 58.02172852 C-142.44970703 59.67172852 -142.44970703 61.32172852 -142.44970703 63.02172852 C-141.45970703 63.02172852 -140.46970703 63.02172852 -139.44970703 63.02172852 C-139.44970703 61.37172852 -139.44970703 59.72172852 -139.44970703 58.02172852 C-140.43970703 58.02172852 -141.42970703 58.02172852 -142.44970703 58.02172852 Z M-405.44970703 59.02172852 C-405.44970703 60.34172852 -405.44970703 61.66172852 -405.44970703 63.02172852 C-404.45970703 63.02172852 -403.46970703 63.02172852 -402.44970703 63.02172852 C-402.44970703 61.70172852 -402.44970703 60.38172852 -402.44970703 59.02172852 C-403.43970703 59.02172852 -404.42970703 59.02172852 -405.44970703 59.02172852 Z M-395.44970703 59.02172852 C-395.44970703 60.34172852 -395.44970703 61.66172852 -395.44970703 63.02172852 C-394.45970703 63.02172852 -393.46970703 63.02172852 -392.44970703 63.02172852 C-392.44970703 61.70172852 -392.44970703 60.38172852 -392.44970703 59.02172852 C-393.43970703 59.02172852 -394.42970703 59.02172852 -395.44970703 59.02172852 Z M-390.44970703 59.02172852 C-390.44970703 60.34172852 -390.44970703 61.66172852 -390.44970703 63.02172852 C-389.45970703 63.02172852 -388.46970703 63.02172852 -387.44970703 63.02172852 C-387.44970703 61.70172852 -387.44970703 60.38172852 -387.44970703 59.02172852 C-388.43970703 59.02172852 -389.42970703 59.02172852 -390.44970703 59.02172852 Z M-356.44970703 59.02172852 C-356.44970703 60.34172852 -356.44970703 61.66172852 -356.44970703 63.02172852 C-355.45970703 63.02172852 -354.46970703 63.02172852 -353.44970703 63.02172852 C-353.44970703 61.70172852 -353.44970703 60.38172852 -353.44970703 59.02172852 C-354.43970703 59.02172852 -355.42970703 59.02172852 -356.44970703 59.02172852 Z M-430.44970703 60.02172852 C-430.44970703 64.64172852 -430.44970703 69.26172852 -430.44970703 74.02172852 C-430.11970703 74.02172852 -429.78970703 74.02172852 -429.44970703 74.02172852 C-429.44970703 69.40172852 -429.44970703 64.78172852 -429.44970703 60.02172852 C-429.77970703 60.02172852 -430.10970703 60.02172852 -430.44970703 60.02172852 Z M-454.44970703 62.02172852 C-454.44970703 63.67172852 -454.44970703 65.32172852 -454.44970703 67.02172852 C-453.78970703 67.02172852 -453.12970703 67.02172852 -452.44970703 67.02172852 C-452.44970703 65.37172852 -452.44970703 63.72172852 -452.44970703 62.02172852 C-453.10970703 62.02172852 -453.76970703 62.02172852 -454.44970703 62.02172852 Z M-448.44970703 62.02172852 C-448.44970703 63.67172852 -448.44970703 65.32172852 -448.44970703 67.02172852 C-447.78970703 67.02172852 -447.12970703 67.02172852 -446.44970703 67.02172852 C-446.44970703 65.37172852 -446.44970703 63.72172852 -446.44970703 62.02172852 C-447.10970703 62.02172852 -447.76970703 62.02172852 -448.44970703 62.02172852 Z M-442.44970703 62.02172852 C-442.44970703 63.67172852 -442.44970703 65.32172852 -442.44970703 67.02172852 C-441.78970703 67.02172852 -441.12970703 67.02172852 -440.44970703 67.02172852 C-440.44970703 65.37172852 -440.44970703 63.72172852 -440.44970703 62.02172852 C-441.10970703 62.02172852 -441.76970703 62.02172852 -442.44970703 62.02172852 Z M-436.44970703 62.02172852 C-436.44970703 63.67172852 -436.44970703 65.32172852 -436.44970703 67.02172852 C-435.78970703 67.02172852 -435.12970703 67.02172852 -434.44970703 67.02172852 C-434.44970703 65.37172852 -434.44970703 63.72172852 -434.44970703 62.02172852 C-435.10970703 62.02172852 -435.76970703 62.02172852 -436.44970703 62.02172852 Z M-27.44970703 63.02172852 C-27.44970703 64.67172852 -27.44970703 66.32172852 -27.44970703 68.02172852 C-25.79970703 68.02172852 -24.14970703 68.02172852 -22.44970703 68.02172852 C-22.77970703 66.37172852 -23.10970703 64.72172852 -23.44970703 63.02172852 C-24.76970703 63.02172852 -26.08970703 63.02172852 -27.44970703 63.02172852 Z M-19.44970703 63.02172852 C-19.77970703 64.67172852 -20.10970703 66.32172852 -20.44970703 68.02172852 C-17.47970703 68.02172852 -14.50970703 68.02172852 -11.44970703 68.02172852 C-11.77970703 66.37172852 -12.10970703 64.72172852 -12.44970703 63.02172852 C-14.75970703 63.02172852 -17.06970703 63.02172852 -19.44970703 63.02172852 Z M-8.44970703 63.02172852 C-8.77970703 64.67172852 -9.10970703 66.32172852 -9.44970703 68.02172852 C-8.45970703 68.02172852 -7.46970703 68.02172852 -6.44970703 68.02172852 C-6.44970703 66.37172852 -6.44970703 64.72172852 -6.44970703 63.02172852 C-7.10970703 63.02172852 -7.76970703 63.02172852 -8.44970703 63.02172852 Z M70.55029297 63.02172852 C70.55029297 64.67172852 70.55029297 66.32172852 70.55029297 68.02172852 C71.87029297 68.02172852 73.19029297 68.02172852 74.55029297 68.02172852 C74.22029297 66.37172852 73.89029297 64.72172852 73.55029297 63.02172852 C72.56029297 63.02172852 71.57029297 63.02172852 70.55029297 63.02172852 Z M77.55029297 63.02172852 C77.22029297 64.67172852 76.89029297 66.32172852 76.55029297 68.02172852 C79.52029297 68.02172852 82.49029297 68.02172852 85.55029297 68.02172852 C85.22029297 66.37172852 84.89029297 64.72172852 84.55029297 63.02172852 C82.24029297 63.02172852 79.93029297 63.02172852 77.55029297 63.02172852 Z M88.55029297 63.02172852 C88.22029297 64.67172852 87.89029297 66.32172852 87.55029297 68.02172852 C90.52029297 68.02172852 93.49029297 68.02172852 96.55029297 68.02172852 C96.22029297 66.37172852 95.89029297 64.72172852 95.55029297 63.02172852 C93.24029297 63.02172852 90.93029297 63.02172852 88.55029297 63.02172852 Z M98.55029297 64.02172852 C99.55029297 68.02172852 99.55029297 68.02172852 99.55029297 68.02172852 Z M-400.44970703 65.02172852 C-400.44970703 66.34172852 -400.44970703 67.66172852 -400.44970703 69.02172852 C-399.45970703 69.02172852 -398.46970703 69.02172852 -397.44970703 69.02172852 C-397.44970703 67.70172852 -397.44970703 66.38172852 -397.44970703 65.02172852 C-398.43970703 65.02172852 -399.42970703 65.02172852 -400.44970703 65.02172852 Z M-395.44970703 65.02172852 C-395.44970703 66.34172852 -395.44970703 67.66172852 -395.44970703 69.02172852 C-394.45970703 69.02172852 -393.46970703 69.02172852 -392.44970703 69.02172852 C-392.44970703 67.70172852 -392.44970703 66.38172852 -392.44970703 65.02172852 C-393.43970703 65.02172852 -394.42970703 65.02172852 -395.44970703 65.02172852 Z M-342.44970703 66.02172852 C-342.44970703 66.68172852 -342.44970703 67.34172852 -342.44970703 68.02172852 C-341.45970703 67.69172852 -340.46970703 67.36172852 -339.44970703 67.02172852 C-340.43970703 66.69172852 -341.42970703 66.36172852 -342.44970703 66.02172852 Z M-339.44970703 66.02172852 C-339.11970703 66.68172852 -338.78970703 67.34172852 -338.44970703 68.02172852 C-337.12970703 67.69172852 -335.80970703 67.36172852 -334.44970703 67.02172852 C-336.09970703 66.69172852 -337.74970703 66.36172852 -339.44970703 66.02172852 Z M-334.44970703 66.02172852 C-334.11970703 66.68172852 -333.78970703 67.34172852 -333.44970703 68.02172852 C-332.12970703 67.69172852 -330.80970703 67.36172852 -329.44970703 67.02172852 C-331.09970703 66.69172852 -332.74970703 66.36172852 -334.44970703 66.02172852 Z M-329.44970703 66.02172852 C-329.11970703 66.68172852 -328.78970703 67.34172852 -328.44970703 68.02172852 C-327.12970703 67.69172852 -325.80970703 67.36172852 -324.44970703 67.02172852 C-326.09970703 66.69172852 -327.74970703 66.36172852 -329.44970703 66.02172852 Z M-324.44970703 66.02172852 C-324.11970703 66.68172852 -323.78970703 67.34172852 -323.44970703 68.02172852 C-322.12970703 67.69172852 -320.80970703 67.36172852 -319.44970703 67.02172852 C-321.09970703 66.69172852 -322.74970703 66.36172852 -324.44970703 66.02172852 Z M-319.44970703 66.02172852 C-319.11970703 66.68172852 -318.78970703 67.34172852 -318.44970703 68.02172852 C-317.12970703 67.69172852 -315.80970703 67.36172852 -314.44970703 67.02172852 C-316.09970703 66.69172852 -317.74970703 66.36172852 -319.44970703 66.02172852 Z M-314.44970703 66.02172852 C-314.11970703 66.68172852 -313.78970703 67.34172852 -313.44970703 68.02172852 C-312.12970703 67.69172852 -310.80970703 67.36172852 -309.44970703 67.02172852 C-311.09970703 66.69172852 -312.74970703 66.36172852 -314.44970703 66.02172852 Z M-160.44970703 68.02172852 C-160.44970703 69.67172852 -160.44970703 71.32172852 -160.44970703 73.02172852 C-159.45970703 73.02172852 -158.46970703 73.02172852 -157.44970703 73.02172852 C-157.44970703 71.37172852 -157.44970703 69.72172852 -157.44970703 68.02172852 C-158.43970703 68.02172852 -159.42970703 68.02172852 -160.44970703 68.02172852 Z M-154.44970703 68.02172852 C-154.44970703 69.67172852 -154.44970703 71.32172852 -154.44970703 73.02172852 C-153.45970703 73.02172852 -152.46970703 73.02172852 -151.44970703 73.02172852 C-151.44970703 71.37172852 -151.44970703 69.72172852 -151.44970703 68.02172852 C-152.43970703 68.02172852 -153.42970703 68.02172852 -154.44970703 68.02172852 Z M-142.44970703 68.02172852 C-142.44970703 69.67172852 -142.44970703 71.32172852 -142.44970703 73.02172852 C-141.45970703 73.02172852 -140.46970703 73.02172852 -139.44970703 73.02172852 C-139.44970703 71.37172852 -139.44970703 69.72172852 -139.44970703 68.02172852 C-140.43970703 68.02172852 -141.42970703 68.02172852 -142.44970703 68.02172852 Z M-448.44970703 69.02172852 C-448.44970703 70.67172852 -448.44970703 72.32172852 -448.44970703 74.02172852 C-447.78970703 74.02172852 -447.12970703 74.02172852 -446.44970703 74.02172852 C-446.44970703 72.37172852 -446.44970703 70.72172852 -446.44970703 69.02172852 C-447.10970703 69.02172852 -447.76970703 69.02172852 -448.44970703 69.02172852 Z M-442.44970703 69.02172852 C-442.44970703 70.67172852 -442.44970703 72.32172852 -442.44970703 74.02172852 C-441.78970703 74.02172852 -441.12970703 74.02172852 -440.44970703 74.02172852 C-440.44970703 72.37172852 -440.44970703 70.72172852 -440.44970703 69.02172852 C-441.10970703 69.02172852 -441.76970703 69.02172852 -442.44970703 69.02172852 Z M-436.44970703 69.02172852 C-436.44970703 70.67172852 -436.44970703 72.32172852 -436.44970703 74.02172852 C-435.78970703 74.02172852 -435.12970703 74.02172852 -434.44970703 74.02172852 C-434.44970703 72.37172852 -434.44970703 70.72172852 -434.44970703 69.02172852 C-435.10970703 69.02172852 -435.76970703 69.02172852 -436.44970703 69.02172852 Z M-319.44970703 71.02172852 C-319.44970703 72.34172852 -319.44970703 73.66172852 -319.44970703 75.02172852 C-318.78970703 75.02172852 -318.12970703 75.02172852 -317.44970703 75.02172852 C-317.44970703 73.70172852 -317.44970703 72.38172852 -317.44970703 71.02172852 C-318.10970703 71.02172852 -318.76970703 71.02172852 -319.44970703 71.02172852 Z M-315.44970703 71.02172852 C-315.44970703 72.34172852 -315.44970703 73.66172852 -315.44970703 75.02172852 C-314.78970703 75.02172852 -314.12970703 75.02172852 -313.44970703 75.02172852 C-313.44970703 73.70172852 -313.44970703 72.38172852 -313.44970703 71.02172852 C-314.10970703 71.02172852 -314.76970703 71.02172852 -315.44970703 71.02172852 Z M-311.44970703 71.02172852 C-311.44970703 72.34172852 -311.44970703 73.66172852 -311.44970703 75.02172852 C-310.78970703 75.02172852 -310.12970703 75.02172852 -309.44970703 75.02172852 C-309.44970703 73.70172852 -309.44970703 72.38172852 -309.44970703 71.02172852 C-310.10970703 71.02172852 -310.76970703 71.02172852 -311.44970703 71.02172852 Z M-307.44970703 71.02172852 C-307.44970703 72.34172852 -307.44970703 73.66172852 -307.44970703 75.02172852 C-306.78970703 75.02172852 -306.12970703 75.02172852 -305.44970703 75.02172852 C-305.44970703 73.70172852 -305.44970703 72.38172852 -305.44970703 71.02172852 C-306.10970703 71.02172852 -306.76970703 71.02172852 -307.44970703 71.02172852 Z M-278.44970703 73.02172852 C-278.44970703 73.68172852 -278.44970703 74.34172852 -278.44970703 75.02172852 C-277.78970703 75.02172852 -277.12970703 75.02172852 -276.44970703 75.02172852 C-276.44970703 74.36172852 -276.44970703 73.70172852 -276.44970703 73.02172852 C-277.10970703 73.02172852 -277.76970703 73.02172852 -278.44970703 73.02172852 Z M-275.44970703 73.02172852 C-275.44970703 73.68172852 -275.44970703 74.34172852 -275.44970703 75.02172852 C-274.78970703 75.02172852 -274.12970703 75.02172852 -273.44970703 75.02172852 C-273.44970703 74.36172852 -273.44970703 73.70172852 -273.44970703 73.02172852 C-274.10970703 73.02172852 -274.76970703 73.02172852 -275.44970703 73.02172852 Z M-272.44970703 73.02172852 C-272.44970703 73.68172852 -272.44970703 74.34172852 -272.44970703 75.02172852 C-271.78970703 75.02172852 -271.12970703 75.02172852 -270.44970703 75.02172852 C-270.44970703 74.36172852 -270.44970703 73.70172852 -270.44970703 73.02172852 C-271.10970703 73.02172852 -271.76970703 73.02172852 -272.44970703 73.02172852 Z M-269.44970703 73.02172852 C-269.44970703 73.68172852 -269.44970703 74.34172852 -269.44970703 75.02172852 C-268.78970703 75.02172852 -268.12970703 75.02172852 -267.44970703 75.02172852 C-267.44970703 74.36172852 -267.44970703 73.70172852 -267.44970703 73.02172852 C-268.10970703 73.02172852 -268.76970703 73.02172852 -269.44970703 73.02172852 Z M-266.44970703 73.02172852 C-266.44970703 73.68172852 -266.44970703 74.34172852 -266.44970703 75.02172852 C-265.78970703 75.02172852 -265.12970703 75.02172852 -264.44970703 75.02172852 C-264.44970703 74.36172852 -264.44970703 73.70172852 -264.44970703 73.02172852 C-265.10970703 73.02172852 -265.76970703 73.02172852 -266.44970703 73.02172852 Z M-263.44970703 73.02172852 C-263.44970703 73.68172852 -263.44970703 74.34172852 -263.44970703 75.02172852 C-262.78970703 75.02172852 -262.12970703 75.02172852 -261.44970703 75.02172852 C-261.44970703 74.36172852 -261.44970703 73.70172852 -261.44970703 73.02172852 C-262.10970703 73.02172852 -262.76970703 73.02172852 -263.44970703 73.02172852 Z M-260.44970703 73.02172852 C-260.44970703 73.68172852 -260.44970703 74.34172852 -260.44970703 75.02172852 C-259.78970703 75.02172852 -259.12970703 75.02172852 -258.44970703 75.02172852 C-258.44970703 74.36172852 -258.44970703 73.70172852 -258.44970703 73.02172852 C-259.10970703 73.02172852 -259.76970703 73.02172852 -260.44970703 73.02172852 Z M-257.44970703 73.02172852 C-257.44970703 73.68172852 -257.44970703 74.34172852 -257.44970703 75.02172852 C-256.78970703 75.02172852 -256.12970703 75.02172852 -255.44970703 75.02172852 C-255.44970703 74.36172852 -255.44970703 73.70172852 -255.44970703 73.02172852 C-256.10970703 73.02172852 -256.76970703 73.02172852 -257.44970703 73.02172852 Z M-254.44970703 73.02172852 C-254.44970703 73.68172852 -254.44970703 74.34172852 -254.44970703 75.02172852 C-253.78970703 75.02172852 -253.12970703 75.02172852 -252.44970703 75.02172852 C-252.44970703 74.36172852 -252.44970703 73.70172852 -252.44970703 73.02172852 C-253.10970703 73.02172852 -253.76970703 73.02172852 -254.44970703 73.02172852 Z M-251.44970703 73.02172852 C-251.44970703 73.68172852 -251.44970703 74.34172852 -251.44970703 75.02172852 C-250.78970703 75.02172852 -250.12970703 75.02172852 -249.44970703 75.02172852 C-249.44970703 74.36172852 -249.44970703 73.70172852 -249.44970703 73.02172852 C-250.10970703 73.02172852 -250.76970703 73.02172852 -251.44970703 73.02172852 Z M-248.44970703 73.02172852 C-248.44970703 73.68172852 -248.44970703 74.34172852 -248.44970703 75.02172852 C-247.78970703 75.02172852 -247.12970703 75.02172852 -246.44970703 75.02172852 C-246.44970703 74.36172852 -246.44970703 73.70172852 -246.44970703 73.02172852 C-247.10970703 73.02172852 -247.76970703 73.02172852 -248.44970703 73.02172852 Z M-245.44970703 73.02172852 C-245.44970703 73.68172852 -245.44970703 74.34172852 -245.44970703 75.02172852 C-244.78970703 75.02172852 -244.12970703 75.02172852 -243.44970703 75.02172852 C-243.44970703 74.36172852 -243.44970703 73.70172852 -243.44970703 73.02172852 C-244.10970703 73.02172852 -244.76970703 73.02172852 -245.44970703 73.02172852 Z M-242.44970703 73.02172852 C-242.44970703 73.68172852 -242.44970703 74.34172852 -242.44970703 75.02172852 C-241.78970703 75.02172852 -241.12970703 75.02172852 -240.44970703 75.02172852 C-240.44970703 74.36172852 -240.44970703 73.70172852 -240.44970703 73.02172852 C-241.10970703 73.02172852 -241.76970703 73.02172852 -242.44970703 73.02172852 Z M-239.44970703 73.02172852 C-239.44970703 73.68172852 -239.44970703 74.34172852 -239.44970703 75.02172852 C-238.78970703 75.02172852 -238.12970703 75.02172852 -237.44970703 75.02172852 C-237.44970703 74.36172852 -237.44970703 73.70172852 -237.44970703 73.02172852 C-238.10970703 73.02172852 -238.76970703 73.02172852 -239.44970703 73.02172852 Z M-27.44970703 75.02172852 C-27.53832695 77.83336231 -27.56493058 80.62031107 -27.54736328 83.43188477 C-27.54594833 84.27391953 -27.54453339 85.11595428 -27.54307556 85.98350525 C-27.53745966 88.68378186 -27.52490452 91.38397679 -27.51220703 94.08422852 C-27.50719408 95.9103992 -27.50263082 97.73657117 -27.49853516 99.56274414 C-27.48748507 104.04910394 -27.47020982 108.53540236 -27.44970703 113.02172852 C-25.79356046 113.40391619 -24.12513679 113.73567953 -22.44970703 114.02172852 C-21.03195865 112.83319996 -21.03195865 112.83319996 -21.35205078 109.42407227 C-21.35872483 107.93575984 -21.3706852 106.44746419 -21.38720703 104.95922852 C-21.39171875 104.20061523 -21.39623047 103.44200195 -21.40087891 102.66040039 C-21.41270023 100.7808098 -21.43063625 98.90125953 -21.44970703 97.02172852 C-16.49970703 97.02172852 -11.54970703 97.02172852 -6.44970703 97.02172852 C-6.42287716 93.37584683 -6.40295134 89.73016005 -6.38720703 86.08422852 C-6.37882812 85.04331055 -6.37044922 84.00239258 -6.36181641 82.92993164 C-6.35859375 81.94057617 -6.35537109 80.9512207 -6.35205078 79.93188477 C-6.34681396 79.01544189 -6.34157715 78.09899902 -6.33618164 77.15478516 C-6.21049492 75.03809828 -6.21049492 75.03809828 -7.44970703 74.02172852 C-8.85319438 73.9231272 -10.2615118 73.89093915 -11.66845703 73.88891602 C-12.51794922 73.88762695 -13.36744141 73.88633789 -14.24267578 73.88500977 C-15.13599609 73.88887695 -16.02931641 73.89274414 -16.94970703 73.89672852 C-18.2896875 73.89092773 -18.2896875 73.89092773 -19.65673828 73.88500977 C-20.93097656 73.88694336 -20.93097656 73.88694336 -22.23095703 73.88891602 C-23.40754883 73.89060791 -23.40754883 73.89060791 -24.60791016 73.89233398 C-26.46723691 73.8206541 -26.46723691 73.8206541 -27.44970703 75.02172852 Z M70.55029297 75.02172852 C70.47785244 77.0413705 70.46652109 79.06339975 70.48779297 81.08422852 C70.49681641 82.18895508 70.50583984 83.29368164 70.51513672 84.43188477 C70.52673828 85.2865332 70.53833984 86.14118164 70.55029297 87.02172852 C72.53029297 87.02172852 74.51029297 87.02172852 76.55029297 87.02172852 C76.55029297 85.37172852 76.55029297 83.72172852 76.55029297 82.02172852 C77.21029297 82.02172852 77.87029297 82.02172852 78.55029297 82.02172852 C78.22029297 83.67172852 77.89029297 85.32172852 77.55029297 87.02172852 C79.20029297 87.02172852 80.85029297 87.02172852 82.55029297 87.02172852 C82.55029297 85.37172852 82.55029297 83.72172852 82.55029297 82.02172852 C83.21029297 82.02172852 83.87029297 82.02172852 84.55029297 82.02172852 C84.22029297 83.67172852 83.89029297 85.32172852 83.55029297 87.02172852 C85.20029297 87.02172852 86.85029297 87.02172852 88.55029297 87.02172852 C88.55029297 85.37172852 88.55029297 83.72172852 88.55029297 82.02172852 C89.21029297 82.02172852 89.87029297 82.02172852 90.55029297 82.02172852 C90.22029297 83.67172852 89.89029297 85.32172852 89.55029297 87.02172852 C91.20029297 87.02172852 92.85029297 87.02172852 94.55029297 87.02172852 C94.55029297 85.37172852 94.55029297 83.72172852 94.55029297 82.02172852 C95.21029297 82.02172852 95.87029297 82.02172852 96.55029297 82.02172852 C96.22029297 82.68172852 95.89029297 83.34172852 95.55029297 84.02172852 C95.46000947 85.65590447 95.43273639 87.29375688 95.43676758 88.93041992 C95.43688087 90.46178085 95.43688087 90.46178085 95.43699646 92.02407837 C95.44215775 93.12931854 95.44731903 94.23455872 95.45263672 95.37329102 C95.45475914 97.06704361 95.45475914 97.06704361 95.45692444 98.79501343 C95.46253553 102.4122784 95.47508994 106.02948216 95.48779297 109.64672852 C95.49280654 112.09464429 95.49736969 114.54256103 95.50146484 116.99047852 C95.51250857 123.00091618 95.52925753 129.01131797 95.55029297 135.02172852 C96.87029297 135.02172852 98.19029297 135.02172852 99.55029297 135.02172852 C99.57342089 127.21597656 99.59121035 119.41023257 99.60210514 111.60445499 C99.60733299 107.98026892 99.61442884 104.35610622 99.62573242 100.73193359 C99.63656481 97.23712877 99.64257055 93.74234648 99.64517021 90.24752617 C99.64792848 88.25933463 99.65573984 86.2711522 99.66358948 84.28297424 C99.66366501 83.08180466 99.66374054 81.88063507 99.66381836 80.64306641 C99.66714928 79.04755699 99.66714928 79.04755699 99.67054749 77.41981506 C99.82146059 75.06929437 99.82146059 75.06929437 98.55029297 74.02172852 C96.56272269 73.92189794 94.57161777 73.89092098 92.58154297 73.88891602 C90.76589844 73.88698242 90.76589844 73.88698242 88.91357422 73.88500977 C87.63869141 73.88887695 86.36380859 73.89274414 85.05029297 73.89672852 C83.77541016 73.89286133 82.50052734 73.88899414 81.18701172 73.88500977 C79.97658203 73.88629883 78.76615234 73.88758789 77.51904297 73.88891602 C76.39949219 73.89004395 75.27994141 73.89117187 74.12646484 73.89233398 C71.61887495 73.72956484 71.61887495 73.72956484 70.55029297 75.02172852 Z M-453.44970703 76.02172852 C-453.44970703 77.67172852 -453.44970703 79.32172852 -453.44970703 81.02172852 C-452.78970703 81.02172852 -452.12970703 81.02172852 -451.44970703 81.02172852 C-451.44970703 79.37172852 -451.44970703 77.72172852 -451.44970703 76.02172852 C-452.10970703 76.02172852 -452.76970703 76.02172852 -453.44970703 76.02172852 Z M-442.44970703 76.02172852 C-442.44970703 77.67172852 -442.44970703 79.32172852 -442.44970703 81.02172852 C-441.78970703 81.02172852 -441.12970703 81.02172852 -440.44970703 81.02172852 C-440.44970703 79.37172852 -440.44970703 77.72172852 -440.44970703 76.02172852 C-441.10970703 76.02172852 -441.76970703 76.02172852 -442.44970703 76.02172852 Z M-436.44970703 76.02172852 C-436.44970703 77.67172852 -436.44970703 79.32172852 -436.44970703 81.02172852 C-435.78970703 81.02172852 -435.12970703 81.02172852 -434.44970703 81.02172852 C-434.44970703 79.37172852 -434.44970703 77.72172852 -434.44970703 76.02172852 C-435.10970703 76.02172852 -435.76970703 76.02172852 -436.44970703 76.02172852 Z M-315.44970703 77.02172852 C-315.44970703 78.34172852 -315.44970703 79.66172852 -315.44970703 81.02172852 C-314.78970703 81.02172852 -314.12970703 81.02172852 -313.44970703 81.02172852 C-313.44970703 79.70172852 -313.44970703 78.38172852 -313.44970703 77.02172852 C-314.10970703 77.02172852 -314.76970703 77.02172852 -315.44970703 77.02172852 Z M-311.44970703 77.02172852 C-311.44970703 78.34172852 -311.44970703 79.66172852 -311.44970703 81.02172852 C-310.78970703 81.02172852 -310.12970703 81.02172852 -309.44970703 81.02172852 C-309.44970703 79.70172852 -309.44970703 78.38172852 -309.44970703 77.02172852 C-310.10970703 77.02172852 -310.76970703 77.02172852 -311.44970703 77.02172852 Z M-307.44970703 77.02172852 C-307.44970703 78.34172852 -307.44970703 79.66172852 -307.44970703 81.02172852 C-306.78970703 81.02172852 -306.12970703 81.02172852 -305.44970703 81.02172852 C-305.44970703 79.70172852 -305.44970703 78.38172852 -305.44970703 77.02172852 C-306.10970703 77.02172852 -306.76970703 77.02172852 -307.44970703 77.02172852 Z M-160.44970703 78.02172852 C-160.44970703 79.67172852 -160.44970703 81.32172852 -160.44970703 83.02172852 C-159.45970703 83.02172852 -158.46970703 83.02172852 -157.44970703 83.02172852 C-157.44970703 81.37172852 -157.44970703 79.72172852 -157.44970703 78.02172852 C-158.43970703 78.02172852 -159.42970703 78.02172852 -160.44970703 78.02172852 Z M-154.44970703 78.02172852 C-154.44970703 79.67172852 -154.44970703 81.32172852 -154.44970703 83.02172852 C-153.45970703 83.02172852 -152.46970703 83.02172852 -151.44970703 83.02172852 C-151.44970703 81.37172852 -151.44970703 79.72172852 -151.44970703 78.02172852 C-152.43970703 78.02172852 -153.42970703 78.02172852 -154.44970703 78.02172852 Z M-269.44970703 79.02172852 C-269.44970703 79.68172852 -269.44970703 80.34172852 -269.44970703 81.02172852 C-268.78970703 81.02172852 -268.12970703 81.02172852 -267.44970703 81.02172852 C-267.44970703 80.36172852 -267.44970703 79.70172852 -267.44970703 79.02172852 C-268.10970703 79.02172852 -268.76970703 79.02172852 -269.44970703 79.02172852 Z M-265.44970703 79.02172852 C-265.44970703 79.68172852 -265.44970703 80.34172852 -265.44970703 81.02172852 C-264.78970703 81.02172852 -264.12970703 81.02172852 -263.44970703 81.02172852 C-263.44970703 80.36172852 -263.44970703 79.70172852 -263.44970703 79.02172852 C-264.10970703 79.02172852 -264.76970703 79.02172852 -265.44970703 79.02172852 Z M-260.44970703 79.02172852 C-260.44970703 79.68172852 -260.44970703 80.34172852 -260.44970703 81.02172852 C-259.45970703 81.02172852 -258.46970703 81.02172852 -257.44970703 81.02172852 C-257.44970703 80.36172852 -257.44970703 79.70172852 -257.44970703 79.02172852 C-258.43970703 79.02172852 -259.42970703 79.02172852 -260.44970703 79.02172852 Z M-254.44970703 79.02172852 C-254.44970703 79.68172852 -254.44970703 80.34172852 -254.44970703 81.02172852 C-253.45970703 81.02172852 -252.46970703 81.02172852 -251.44970703 81.02172852 C-251.44970703 80.36172852 -251.44970703 79.70172852 -251.44970703 79.02172852 C-252.43970703 79.02172852 -253.42970703 79.02172852 -254.44970703 79.02172852 Z M-248.44970703 79.02172852 C-248.44970703 79.68172852 -248.44970703 80.34172852 -248.44970703 81.02172852 C-247.45970703 81.02172852 -246.46970703 81.02172852 -245.44970703 81.02172852 C-245.44970703 80.36172852 -245.44970703 79.70172852 -245.44970703 79.02172852 C-246.43970703 79.02172852 -247.42970703 79.02172852 -248.44970703 79.02172852 Z M-242.44970703 79.02172852 C-242.44970703 79.68172852 -242.44970703 80.34172852 -242.44970703 81.02172852 C-241.45970703 81.02172852 -240.46970703 81.02172852 -239.44970703 81.02172852 C-239.44970703 80.36172852 -239.44970703 79.70172852 -239.44970703 79.02172852 C-240.43970703 79.02172852 -241.42970703 79.02172852 -242.44970703 79.02172852 Z M-301.44970703 80.02172852 C-301.44970703 81.01172852 -301.44970703 82.00172852 -301.44970703 83.02172852 C-300.78970703 83.02172852 -300.12970703 83.02172852 -299.44970703 83.02172852 C-299.44970703 82.03172852 -299.44970703 81.04172852 -299.44970703 80.02172852 C-300.10970703 80.02172852 -300.76970703 80.02172852 -301.44970703 80.02172852 Z M-298.44970703 80.02172852 C-298.44970703 81.01172852 -298.44970703 82.00172852 -298.44970703 83.02172852 C-297.78970703 83.02172852 -297.12970703 83.02172852 -296.44970703 83.02172852 C-296.44970703 82.03172852 -296.44970703 81.04172852 -296.44970703 80.02172852 C-297.10970703 80.02172852 -297.76970703 80.02172852 -298.44970703 80.02172852 Z M-295.44970703 80.02172852 C-295.44970703 81.01172852 -295.44970703 82.00172852 -295.44970703 83.02172852 C-294.78970703 83.02172852 -294.12970703 83.02172852 -293.44970703 83.02172852 C-293.44970703 82.03172852 -293.44970703 81.04172852 -293.44970703 80.02172852 C-294.10970703 80.02172852 -294.76970703 80.02172852 -295.44970703 80.02172852 Z M-292.44970703 80.02172852 C-292.44970703 81.01172852 -292.44970703 82.00172852 -292.44970703 83.02172852 C-291.78970703 83.02172852 -291.12970703 83.02172852 -290.44970703 83.02172852 C-290.44970703 82.03172852 -290.44970703 81.04172852 -290.44970703 80.02172852 C-291.10970703 80.02172852 -291.76970703 80.02172852 -292.44970703 80.02172852 Z M-289.44970703 80.02172852 C-289.44970703 81.01172852 -289.44970703 82.00172852 -289.44970703 83.02172852 C-288.78970703 83.02172852 -288.12970703 83.02172852 -287.44970703 83.02172852 C-287.44970703 82.03172852 -287.44970703 81.04172852 -287.44970703 80.02172852 C-288.10970703 80.02172852 -288.76970703 80.02172852 -289.44970703 80.02172852 Z M-286.44970703 80.02172852 C-286.44970703 81.01172852 -286.44970703 82.00172852 -286.44970703 83.02172852 C-285.78970703 83.02172852 -285.12970703 83.02172852 -284.44970703 83.02172852 C-284.44970703 82.03172852 -284.44970703 81.04172852 -284.44970703 80.02172852 C-285.10970703 80.02172852 -285.76970703 80.02172852 -286.44970703 80.02172852 Z M-283.44970703 80.02172852 C-283.44970703 81.01172852 -283.44970703 82.00172852 -283.44970703 83.02172852 C-282.78970703 83.02172852 -282.12970703 83.02172852 -281.44970703 83.02172852 C-281.44970703 82.03172852 -281.44970703 81.04172852 -281.44970703 80.02172852 C-282.10970703 80.02172852 -282.76970703 80.02172852 -283.44970703 80.02172852 Z M-280.44970703 80.02172852 C-279.44970703 83.02172852 -279.44970703 83.02172852 -279.44970703 83.02172852 Z M-426.44970703 81.02172852 C-426.77970703 82.67172852 -427.10970703 84.32172852 -427.44970703 86.02172852 C-424.47970703 86.02172852 -421.50970703 86.02172852 -418.44970703 86.02172852 C-418.77970703 84.37172852 -419.10970703 82.72172852 -419.44970703 81.02172852 C-421.75970703 81.02172852 -424.06970703 81.02172852 -426.44970703 81.02172852 Z M-415.44970703 81.02172852 C-415.77970703 82.67172852 -416.10970703 84.32172852 -416.44970703 86.02172852 C-414.46970703 86.02172852 -412.48970703 86.02172852 -410.44970703 86.02172852 C-410.44970703 84.37172852 -410.44970703 82.72172852 -410.44970703 81.02172852 C-412.09970703 81.02172852 -413.74970703 81.02172852 -415.44970703 81.02172852 Z M-430.44970703 82.02172852 C-429.44970703 86.02172852 -429.44970703 86.02172852 -429.44970703 86.02172852 Z M-236.44970703 89.02172852 C-236.61658151 91.6052707 -236.61658151 91.6052707 -236.44970703 94.02172852 C-235.78970703 94.02172852 -235.12970703 94.02172852 -234.44970703 94.02172852 C-234.44970703 95.34172852 -234.44970703 96.66172852 -234.44970703 98.02172852 C-231.14970703 98.02172852 -227.84970703 98.02172852 -224.44970703 98.02172852 C-224.40845703 96.57797852 -224.36720703 95.13422852 -224.32470703 93.64672852 C-224.28990234 92.42856445 -224.28990234 92.42856445 -224.25439453 91.18579102 C-224.23600652 88.80830608 -224.23600652 88.80830608 -226.44970703 87.02172852 C-228.35977009 86.70410391 -228.35977009 86.70410391 -230.44970703 86.77172852 C-231.15095703 86.76657227 -231.85220703 86.76141602 -232.57470703 86.75610352 C-234.69327394 86.86467337 -234.69327394 86.86467337 -236.44970703 89.02172852 Z M-220.44970703 89.02172852 C-220.69224516 91.23245829 -220.69224516 91.23245829 -220.57470703 93.64672852 C-220.53345703 95.09047852 -220.49220703 96.53422852 -220.44970703 98.02172852 C-216.48970703 98.02172852 -212.52970703 98.02172852 -208.44970703 98.02172852 C-208.40845703 96.57797852 -208.36720703 95.13422852 -208.32470703 93.64672852 C-208.28990234 92.42856445 -208.28990234 92.42856445 -208.25439453 91.18579102 C-208.23600652 88.80830608 -208.23600652 88.80830608 -210.44970703 87.02172852 C-212.35977009 86.70410391 -212.35977009 86.70410391 -214.44970703 86.77172852 C-215.15095703 86.76657227 -215.85220703 86.76141602 -216.57470703 86.75610352 C-218.69327394 86.86467337 -218.69327394 86.86467337 -220.44970703 89.02172852 Z M-204.44970703 89.02172852 C-204.69224516 91.23245829 -204.69224516 91.23245829 -204.57470703 93.64672852 C-204.53345703 95.09047852 -204.49220703 96.53422852 -204.44970703 98.02172852 C-200.48970703 98.02172852 -196.52970703 98.02172852 -192.44970703 98.02172852 C-192.40845703 96.57797852 -192.36720703 95.13422852 -192.32470703 93.64672852 C-192.28990234 92.42856445 -192.28990234 92.42856445 -192.25439453 91.18579102 C-192.23600652 88.80830608 -192.23600652 88.80830608 -194.44970703 87.02172852 C-196.35977009 86.70410391 -196.35977009 86.70410391 -198.44970703 86.77172852 C-199.15095703 86.76657227 -199.85220703 86.76141602 -200.57470703 86.75610352 C-202.69327394 86.86467337 -202.69327394 86.86467337 -204.44970703 89.02172852 Z M-188.44970703 89.02172852 C-188.59478398 91.76658444 -188.63623126 94.40653395 -188.57470703 97.14672852 C-188.56568359 97.90083008 -188.55666016 98.65493164 -188.54736328 99.43188477 C-188.52377573 101.29530106 -188.48790422 103.15855444 -188.44970703 105.02172852 C-184.94823662 106.18888532 -182.12300668 106.15530305 -178.44970703 106.02172852 C-177.78970703 105.69172852 -177.12970703 105.36172852 -176.44970703 105.02172852 C-176.39588597 102.39645663 -176.3561239 99.77228139 -176.32470703 97.14672852 C-176.30794922 96.40036133 -176.29119141 95.65399414 -176.27392578 94.88500977 C-176.25631113 92.9297839 -176.34650514 90.9743083 -176.44970703 89.02172852 C-178.20614013 86.86467337 -178.20614013 86.86467337 -180.32470703 86.75610352 C-181.02595703 86.76125977 -181.72720703 86.76641602 -182.44970703 86.77172852 C-183.15095703 86.76657227 -183.85220703 86.76141602 -184.57470703 86.75610352 C-186.69327394 86.86467337 -186.69327394 86.86467337 -188.44970703 89.02172852 Z M-172.44970703 89.02172852 C-172.59488447 91.93108431 -172.63601499 94.74167452 -172.57470703 97.64672852 C-172.56568359 98.44852539 -172.55666016 99.25032227 -172.54736328 100.07641602 C-172.52376926 102.05831374 -172.48789768 104.04005832 -172.44970703 106.02172852 C-168.98470703 105.52672852 -168.98470703 105.52672852 -165.44970703 105.02172852 C-165.44970703 104.36172852 -165.44970703 103.70172852 -165.44970703 103.02172852 C-164.78970703 103.02172852 -164.12970703 103.02172852 -163.44970703 103.02172852 C-163.22933839 99.1652773 -163.84615602 96.52949636 -165.44970703 93.02172852 C-164.78970703 93.02172852 -164.12970703 93.02172852 -163.44970703 93.02172852 C-163.40698603 91.35560946 -163.40906871 89.68789967 -163.44970703 88.02172852 C-164.56137567 86.68985058 -164.56137567 86.68985058 -167.38720703 86.83422852 C-170.55863562 86.68894118 -170.55863562 86.68894118 -172.44970703 89.02172852 Z M-260.44970703 89.02172852 C-260.44970703 90.67172852 -260.44970703 92.32172852 -260.44970703 94.02172852 C-259.45970703 94.02172852 -258.46970703 94.02172852 -257.44970703 94.02172852 C-257.44970703 92.37172852 -257.44970703 90.72172852 -257.44970703 89.02172852 C-258.43970703 89.02172852 -259.42970703 89.02172852 -260.44970703 89.02172852 Z M-254.44970703 89.02172852 C-254.44970703 90.67172852 -254.44970703 92.32172852 -254.44970703 94.02172852 C-253.45970703 94.02172852 -252.46970703 94.02172852 -251.44970703 94.02172852 C-251.44970703 92.37172852 -251.44970703 90.72172852 -251.44970703 89.02172852 C-252.43970703 89.02172852 -253.42970703 89.02172852 -254.44970703 89.02172852 Z M-248.44970703 89.02172852 C-248.44970703 90.67172852 -248.44970703 92.32172852 -248.44970703 94.02172852 C-247.45970703 94.02172852 -246.46970703 94.02172852 -245.44970703 94.02172852 C-245.44970703 92.37172852 -245.44970703 90.72172852 -245.44970703 89.02172852 C-246.43970703 89.02172852 -247.42970703 89.02172852 -248.44970703 89.02172852 Z M-242.44970703 89.02172852 C-242.44970703 90.67172852 -242.44970703 92.32172852 -242.44970703 94.02172852 C-241.45970703 94.02172852 -240.46970703 94.02172852 -239.44970703 94.02172852 C-239.44970703 92.37172852 -239.44970703 90.72172852 -239.44970703 89.02172852 C-240.43970703 89.02172852 -241.42970703 89.02172852 -242.44970703 89.02172852 Z M-430.44970703 92.02172852 C-430.44970703 94.33172852 -430.44970703 96.64172852 -430.44970703 99.02172852 C-423.84970703 99.02172852 -417.24970703 99.02172852 -410.44970703 99.02172852 C-410.44970703 96.71172852 -410.44970703 94.40172852 -410.44970703 92.02172852 C-417.04970703 92.02172852 -423.64970703 92.02172852 -430.44970703 92.02172852 Z M-430.44970703 100.02172852 C-430.44970703 101.67172852 -430.44970703 103.32172852 -430.44970703 105.02172852 C-428.79970703 105.02172852 -427.14970703 105.02172852 -425.44970703 105.02172852 C-425.77970703 103.37172852 -426.10970703 101.72172852 -426.44970703 100.02172852 C-427.76970703 100.02172852 -429.08970703 100.02172852 -430.44970703 100.02172852 Z M-423.44970703 100.02172852 C-423.77970703 101.67172852 -424.10970703 103.32172852 -424.44970703 105.02172852 C-421.47970703 105.02172852 -418.50970703 105.02172852 -415.44970703 105.02172852 C-415.77970703 103.37172852 -416.10970703 101.72172852 -416.44970703 100.02172852 C-418.75970703 100.02172852 -421.06970703 100.02172852 -423.44970703 100.02172852 Z M-413.44970703 100.02172852 C-413.77970703 101.67172852 -414.10970703 103.32172852 -414.44970703 105.02172852 C-413.12970703 105.02172852 -411.80970703 105.02172852 -410.44970703 105.02172852 C-410.44970703 103.37172852 -410.44970703 101.72172852 -410.44970703 100.02172852 C-411.43970703 100.02172852 -412.42970703 100.02172852 -413.44970703 100.02172852 Z M-208.44970703 102.02172852 C-208.44970703 102.68172852 -208.44970703 103.34172852 -208.44970703 104.02172852 C-207.45970703 104.02172852 -206.46970703 104.02172852 -205.44970703 104.02172852 C-205.44970703 103.36172852 -205.44970703 102.70172852 -205.44970703 102.02172852 C-206.43970703 102.02172852 -207.42970703 102.02172852 -208.44970703 102.02172852 Z M-204.44970703 102.02172852 C-204.44970703 102.68172852 -204.44970703 103.34172852 -204.44970703 104.02172852 C-203.45970703 104.02172852 -202.46970703 104.02172852 -201.44970703 104.02172852 C-201.44970703 103.36172852 -201.44970703 102.70172852 -201.44970703 102.02172852 C-202.43970703 102.02172852 -203.42970703 102.02172852 -204.44970703 102.02172852 Z M-200.44970703 102.02172852 C-200.44970703 102.68172852 -200.44970703 103.34172852 -200.44970703 104.02172852 C-199.45970703 104.02172852 -198.46970703 104.02172852 -197.44970703 104.02172852 C-197.44970703 103.36172852 -197.44970703 102.70172852 -197.44970703 102.02172852 C-198.43970703 102.02172852 -199.42970703 102.02172852 -200.44970703 102.02172852 Z M-196.44970703 102.02172852 C-196.44970703 102.68172852 -196.44970703 103.34172852 -196.44970703 104.02172852 C-195.45970703 104.02172852 -194.46970703 104.02172852 -193.44970703 104.02172852 C-193.44970703 103.36172852 -193.44970703 102.70172852 -193.44970703 102.02172852 C-194.43970703 102.02172852 -195.42970703 102.02172852 -196.44970703 102.02172852 Z M-185.44970703 107.02172852 C-185.77970703 108.67172852 -186.10970703 110.32172852 -186.44970703 112.02172852 C-183.47970703 112.02172852 -180.50970703 112.02172852 -177.44970703 112.02172852 C-177.77970703 110.37172852 -178.10970703 108.72172852 -178.44970703 107.02172852 C-180.75970703 107.02172852 -183.06970703 107.02172852 -185.44970703 107.02172852 Z M-172.44970703 107.02172852 C-172.44970703 108.67172852 -172.44970703 110.32172852 -172.44970703 112.02172852 C-170.46970703 112.02172852 -168.48970703 112.02172852 -166.44970703 112.02172852 C-166.77970703 110.37172852 -167.10970703 108.72172852 -167.44970703 107.02172852 C-169.09970703 107.02172852 -170.74970703 107.02172852 -172.44970703 107.02172852 Z M-164.44970703 108.02172852 C-163.44970703 112.02172852 -163.44970703 112.02172852 -163.44970703 112.02172852 Z M-430.44970703 112.02172852 C-430.44970703 112.68172852 -430.44970703 113.34172852 -430.44970703 114.02172852 C-429.45970703 114.02172852 -428.46970703 114.02172852 -427.44970703 114.02172852 C-427.44970703 113.36172852 -427.44970703 112.70172852 -427.44970703 112.02172852 C-428.43970703 112.02172852 -429.42970703 112.02172852 -430.44970703 112.02172852 Z M-423.44970703 112.02172852 C-423.44970703 112.68172852 -423.44970703 113.34172852 -423.44970703 114.02172852 C-421.46970703 114.02172852 -419.48970703 114.02172852 -417.44970703 114.02172852 C-417.44970703 113.36172852 -417.44970703 112.70172852 -417.44970703 112.02172852 C-419.42970703 112.02172852 -421.40970703 112.02172852 -423.44970703 112.02172852 Z M-413.44970703 112.02172852 C-413.44970703 112.68172852 -413.44970703 113.34172852 -413.44970703 114.02172852 C-412.45970703 114.02172852 -411.46970703 114.02172852 -410.44970703 114.02172852 C-410.44970703 113.36172852 -410.44970703 112.70172852 -410.44970703 112.02172852 C-411.43970703 112.02172852 -412.42970703 112.02172852 -413.44970703 112.02172852 Z M-430.44970703 116.02172852 C-430.44970703 122.62172852 -430.44970703 129.22172852 -430.44970703 136.02172852 C-429.45970703 136.02172852 -428.46970703 136.02172852 -427.44970703 136.02172852 C-427.44970703 129.42172852 -427.44970703 122.82172852 -427.44970703 116.02172852 C-428.43970703 116.02172852 -429.42970703 116.02172852 -430.44970703 116.02172852 Z M-423.44970703 116.02172852 C-423.44970703 122.62172852 -423.44970703 129.22172852 -423.44970703 136.02172852 C-421.46970703 136.02172852 -419.48970703 136.02172852 -417.44970703 136.02172852 C-417.44970703 129.42172852 -417.44970703 122.82172852 -417.44970703 116.02172852 C-419.42970703 116.02172852 -421.40970703 116.02172852 -423.44970703 116.02172852 Z M-413.44970703 116.02172852 C-413.44970703 122.62172852 -413.44970703 129.22172852 -413.44970703 136.02172852 C-412.45970703 136.02172852 -411.46970703 136.02172852 -410.44970703 136.02172852 C-410.44970703 129.42172852 -410.44970703 122.82172852 -410.44970703 116.02172852 C-411.43970703 116.02172852 -412.42970703 116.02172852 -413.44970703 116.02172852 Z M-188.44970703 118.02172852 C-188.44970703 123.96172852 -188.44970703 129.90172852 -188.44970703 136.02172852 C-184.48970703 136.02172852 -180.52970703 136.02172852 -176.44970703 136.02172852 C-176.44970703 130.08172852 -176.44970703 124.14172852 -176.44970703 118.02172852 C-180.40970703 118.02172852 -184.36970703 118.02172852 -188.44970703 118.02172852 Z M-172.44970703 118.02172852 C-172.44970703 123.96172852 -172.44970703 129.90172852 -172.44970703 136.02172852 C-169.47970703 136.02172852 -166.50970703 136.02172852 -163.44970703 136.02172852 C-163.42286391 133.2091657 -163.40294516 130.39685611 -163.38720703 127.58422852 C-163.37882812 126.78178711 -163.37044922 125.9793457 -163.36181641 125.15258789 C-163.35319273 123.10877631 -163.39742553 121.0648895 -163.44970703 119.02172852 C-163.77970703 118.69172852 -164.10970703 118.36172852 -164.44970703 118.02172852 C-167.08970703 118.02172852 -169.72970703 118.02172852 -172.44970703 118.02172852 Z " fill="#202D40" transform="translate(471.44970703125,136.978271484375)"/>
<path d="M0 0 C3.96 0 7.92 0 12 0 C12 0.99 12 1.98 12 3 C7.71 3 3.42 3 -1 3 C-0.67 2.01 -0.34 1.02 0 0 Z " fill="#434250" transform="translate(46,235)"/>
<path d="" fill="#202D40" transform="translate(0,0)"/>
</svg>
