<?xml version="1.0" encoding="UTF-8"?>
<svg version="1.1" xmlns="http://www.w3.org/2000/svg" width="576" height="324">
<path d="M0 0 C1.24685074 -0.01912445 1.24685074 -0.01912445 2.51889038 -0.03863525 C3.38114227 -0.05573547 4.24339417 -0.07283569 5.1317749 -0.0904541 C6.95910623 -0.11879569 8.78659069 -0.13840293 10.61410522 -0.14996338 C13.38854569 -0.17895945 16.15618578 -0.27191092 18.92904663 -0.36676025 C31.9724358 -0.59527568 31.9724358 -0.59527568 37.00228882 2.62738037 C39.1649907 4.83598662 40.95030809 7.09938908 42.79232788 9.57073975 C43.45232788 9.57073975 44.11232788 9.57073975 44.79232788 9.57073975 C46.21701354 13.84479673 46.1726951 18.02612429 46.35482788 22.50823975 C46.39656128 23.51950928 46.43829468 24.53077881 46.48129272 25.57269287 C47.23902237 45.9231462 46.91180829 66.24145196 45.79232788 86.57073975 C46.45232788 86.57073975 47.11232788 86.57073975 47.79232788 86.57073975 C47.79232788 79.31073975 47.79232788 72.05073975 47.79232788 64.57073975 C53.07232788 64.57073975 58.35232788 64.57073975 63.79232788 64.57073975 C63.79232788 53.68073975 63.79232788 42.79073975 63.79232788 31.57073975 C82.16859022 31.47299367 100.43543872 31.78398603 118.79232788 32.57073975 C117.80232788 33.06573975 117.80232788 33.06573975 116.79232788 33.57073975 C116.79232788 34.56073975 116.79232788 35.55073975 116.79232788 36.57073975 C117.45232788 36.57073975 118.11232788 36.57073975 118.79232788 36.57073975 C118.79232788 37.56073975 118.79232788 38.55073975 118.79232788 39.57073975 C119.45232788 39.57073975 120.11232788 39.57073975 120.79232788 39.57073975 C120.79232788 59.70073975 120.79232788 79.83073975 120.79232788 100.57073975 C122.44232788 100.57073975 124.09232788 100.57073975 125.79232788 100.57073975 C125.79232788 83.74073975 125.79232788 66.91073975 125.79232788 49.57073975 C140.97232788 49.57073975 156.15232788 49.57073975 171.79232788 49.57073975 C171.79232788 58.15073975 171.79232788 66.73073975 171.79232788 75.57073975 C176.08232788 75.57073975 180.37232788 75.57073975 184.79232788 75.57073975 C184.79232788 80.85073975 184.79232788 86.13073975 184.79232788 91.57073975 C186.16131226 91.40702881 187.53029663 91.24331787 188.94076538 91.074646 C195.43602066 90.42512047 201.89609063 90.4613572 208.41732788 90.50823975 C214.54295288 90.53917725 214.54295288 90.53917725 220.79232788 90.57073975 C221.12232788 74.40073975 221.45232788 58.23073975 221.79232788 41.57073975 C232.68232788 41.57073975 243.57232788 41.57073975 254.79232788 41.57073975 C254.79232788 32.00073975 254.79232788 22.43073975 254.79232788 12.57073975 C282.12793456 11.96134724 309.44888763 11.36835719 336.79232788 11.57073975 C338.19139257 16.49819126 338.19371037 21.48015286 338.41732788 26.57073975 C338.49467163 28.06734131 338.49467163 28.06734131 338.57357788 29.59417725 C338.61740601 30.55581787 338.66123413 31.5174585 338.70639038 32.50823975 C338.76754028 33.8211499 338.76754028 33.8211499 338.82992554 35.1605835 C338.79232788 37.57073975 338.79232788 37.57073975 337.79232788 41.57073975 C349.01232788 41.24073975 360.23232788 40.91073975 371.79232788 40.57073975 C372.94362734 45.17593757 373.15185411 49.47024373 373.35482788 54.19573975 C373.39728638 55.14400635 373.43974487 56.09227295 373.48348999 57.0692749 C373.95925309 68.89921543 373.88451579 80.73381214 373.79232788 92.57073975 C376.43232788 92.57073975 379.07232788 92.57073975 381.79232788 92.57073975 C381.68193932 91.3907415 381.68193932 91.3907415 381.56932068 90.18690491 C380.8844705 82.24834958 380.72001351 74.45053022 380.91342163 66.4887085 C380.94441956 64.9160321 380.94441956 64.9160321 380.9760437 63.31158447 C381.0537694 59.46032481 381.1424058 55.60929151 381.22982788 51.75823975 C381.41545288 43.11636475 381.60107788 34.47448975 381.79232788 25.57073975 C401.26232788 25.57073975 420.73232788 25.57073975 440.79232788 25.57073975 C441.12232788 35.47073975 441.45232788 45.37073975 441.79232788 55.57073975 C450.91711337 55.53117657 450.91711337 55.53117657 460.0418396 55.48065186 C461.73977661 55.47690552 461.73977661 55.47690552 463.47201538 55.4730835 C465.21587524 55.46522827 465.21587524 55.46522827 466.9949646 55.45721436 C469.79232788 55.57073975 469.79232788 55.57073975 471.79232788 56.57073975 C471.79232788 78.35073975 471.79232788 100.13073975 471.79232788 122.57073975 C389.29232788 122.57073975 306.79232788 122.57073975 221.79232788 122.57073975 C221.46232788 116.96073975 221.13232788 111.35073975 220.79232788 105.57073975 C209.24232788 105.57073975 197.69232788 105.57073975 185.79232788 105.57073975 C185.46232788 107.22073975 185.13232788 108.87073975 184.79232788 110.57073975 C185.45232788 110.57073975 186.11232788 110.57073975 186.79232788 110.57073975 C186.79232788 109.25073975 186.79232788 107.93073975 186.79232788 106.57073975 C187.45232788 106.57073975 188.11232788 106.57073975 188.79232788 106.57073975 C188.46232788 107.89073975 188.13232788 109.21073975 187.79232788 110.57073975 C191.42232788 110.57073975 195.05232788 110.57073975 198.79232788 110.57073975 C198.79232788 109.25073975 198.79232788 107.93073975 198.79232788 106.57073975 C199.45232788 106.57073975 200.11232788 106.57073975 200.79232788 106.57073975 C200.46232788 107.89073975 200.13232788 109.21073975 199.79232788 110.57073975 C203.42232788 110.57073975 207.05232788 110.57073975 210.79232788 110.57073975 C210.79232788 109.25073975 210.79232788 107.93073975 210.79232788 106.57073975 C211.45232788 106.57073975 212.11232788 106.57073975 212.79232788 106.57073975 C212.46232788 111.85073975 212.13232788 117.13073975 211.79232788 122.57073975 C107.51232788 122.57073975 3.23232788 122.57073975 -104.20767212 122.57073975 C-104.20767212 100.79073975 -104.20767212 79.01073975 -104.20767212 56.57073975 C-98.26767212 56.57073975 -92.32767212 56.57073975 -86.20767212 56.57073975 C-86.20767212 65.15073975 -86.20767212 73.73073975 -86.20767212 82.57073975 C-81.25767212 82.57073975 -76.30767212 82.57073975 -71.20767212 82.57073975 C-71.20767212 71.68073975 -71.20767212 60.79073975 -71.20767212 49.57073975 C-72.19767212 49.57073975 -73.18767212 49.57073975 -74.20767212 49.57073975 C-74.20767212 43.63073975 -74.20767212 37.69073975 -74.20767212 31.57073975 C-73.21767212 31.57073975 -72.22767212 31.57073975 -71.20767212 31.57073975 C-71.22829712 30.29198975 -71.24892212 29.01323975 -71.27017212 27.69573975 C-71.25139896 25.98738253 -71.23044957 24.27904826 -71.20767212 22.57073975 C-71.22700806 21.73156006 -71.24634399 20.89238037 -71.26626587 20.027771 C-71.1511989 15.07989148 -70.29556559 12.01236145 -66.91201782 8.3180542 C-61.6826216 3.37471934 -56.860174 3.49621168 -49.93814087 3.6762085 C-48.78018509 3.67244705 -47.62222931 3.66868561 -46.42918396 3.66481018 C-42.74995986 3.65852579 -39.07398343 3.70550297 -35.39517212 3.75823975 C-31.69917357 3.78442184 -28.00369348 3.7992817 -24.30760193 3.79811096 C-22.01266564 3.80014522 -19.71766635 3.81952615 -17.42304993 3.8578949 C-16.3879982 3.86392227 -15.35294647 3.86994965 -14.28652954 3.87615967 C-12.92040779 3.89569954 -12.92040779 3.89569954 -11.52668762 3.91563416 C-7.02356056 3.24590886 -5.33664346 0.19935877 0 0 Z M-68.20767212 11.57073975 C-68.20767212 12.23073975 -68.20767212 12.89073975 -68.20767212 13.57073975 C-67.21767212 13.57073975 -66.22767212 13.57073975 -65.20767212 13.57073975 C-65.20767212 12.91073975 -65.20767212 12.25073975 -65.20767212 11.57073975 C-66.19767212 11.57073975 -67.18767212 11.57073975 -68.20767212 11.57073975 Z M-64.20767212 11.57073975 C-64.20767212 12.23073975 -64.20767212 12.89073975 -64.20767212 13.57073975 C-63.21767212 13.57073975 -62.22767212 13.57073975 -61.20767212 13.57073975 C-61.20767212 12.91073975 -61.20767212 12.25073975 -61.20767212 11.57073975 C-62.19767212 11.57073975 -63.18767212 11.57073975 -64.20767212 11.57073975 Z M-60.20767212 11.57073975 C-60.20767212 12.23073975 -60.20767212 12.89073975 -60.20767212 13.57073975 C-59.21767212 13.57073975 -58.22767212 13.57073975 -57.20767212 13.57073975 C-57.20767212 12.91073975 -57.20767212 12.25073975 -57.20767212 11.57073975 C-58.19767212 11.57073975 -59.18767212 11.57073975 -60.20767212 11.57073975 Z M-56.20767212 11.57073975 C-56.20767212 12.23073975 -56.20767212 12.89073975 -56.20767212 13.57073975 C-55.21767212 13.57073975 -54.22767212 13.57073975 -53.20767212 13.57073975 C-53.20767212 12.91073975 -53.20767212 12.25073975 -53.20767212 11.57073975 C-54.19767212 11.57073975 -55.18767212 11.57073975 -56.20767212 11.57073975 Z M-52.20767212 11.57073975 C-52.20767212 12.23073975 -52.20767212 12.89073975 -52.20767212 13.57073975 C-51.21767212 13.57073975 -50.22767212 13.57073975 -49.20767212 13.57073975 C-49.20767212 12.91073975 -49.20767212 12.25073975 -49.20767212 11.57073975 C-50.19767212 11.57073975 -51.18767212 11.57073975 -52.20767212 11.57073975 Z M-48.20767212 11.57073975 C-48.20767212 12.23073975 -48.20767212 12.89073975 -48.20767212 13.57073975 C-47.21767212 13.57073975 -46.22767212 13.57073975 -45.20767212 13.57073975 C-45.20767212 12.91073975 -45.20767212 12.25073975 -45.20767212 11.57073975 C-46.19767212 11.57073975 -47.18767212 11.57073975 -48.20767212 11.57073975 Z M-44.20767212 11.57073975 C-44.20767212 12.23073975 -44.20767212 12.89073975 -44.20767212 13.57073975 C-43.21767212 13.57073975 -42.22767212 13.57073975 -41.20767212 13.57073975 C-41.20767212 12.91073975 -41.20767212 12.25073975 -41.20767212 11.57073975 C-42.19767212 11.57073975 -43.18767212 11.57073975 -44.20767212 11.57073975 Z M-40.20767212 11.57073975 C-40.20767212 12.23073975 -40.20767212 12.89073975 -40.20767212 13.57073975 C-39.21767212 13.57073975 -38.22767212 13.57073975 -37.20767212 13.57073975 C-37.20767212 12.91073975 -37.20767212 12.25073975 -37.20767212 11.57073975 C-38.19767212 11.57073975 -39.18767212 11.57073975 -40.20767212 11.57073975 Z M-36.20767212 11.57073975 C-36.20767212 12.23073975 -36.20767212 12.89073975 -36.20767212 13.57073975 C-35.21767212 13.57073975 -34.22767212 13.57073975 -33.20767212 13.57073975 C-33.20767212 12.91073975 -33.20767212 12.25073975 -33.20767212 11.57073975 C-34.19767212 11.57073975 -35.18767212 11.57073975 -36.20767212 11.57073975 Z M-32.20767212 11.57073975 C-32.20767212 12.23073975 -32.20767212 12.89073975 -32.20767212 13.57073975 C-31.21767212 13.57073975 -30.22767212 13.57073975 -29.20767212 13.57073975 C-29.20767212 12.91073975 -29.20767212 12.25073975 -29.20767212 11.57073975 C-30.19767212 11.57073975 -31.18767212 11.57073975 -32.20767212 11.57073975 Z M-28.20767212 11.57073975 C-28.20767212 12.23073975 -28.20767212 12.89073975 -28.20767212 13.57073975 C-27.21767212 13.57073975 -26.22767212 13.57073975 -25.20767212 13.57073975 C-25.20767212 12.91073975 -25.20767212 12.25073975 -25.20767212 11.57073975 C-26.19767212 11.57073975 -27.18767212 11.57073975 -28.20767212 11.57073975 Z M-24.20767212 11.57073975 C-24.20767212 12.23073975 -24.20767212 12.89073975 -24.20767212 13.57073975 C-23.21767212 13.57073975 -22.22767212 13.57073975 -21.20767212 13.57073975 C-21.20767212 12.91073975 -21.20767212 12.25073975 -21.20767212 11.57073975 C-22.19767212 11.57073975 -23.18767212 11.57073975 -24.20767212 11.57073975 Z M-20.20767212 11.57073975 C-20.20767212 12.23073975 -20.20767212 12.89073975 -20.20767212 13.57073975 C-19.21767212 13.24073975 -18.22767212 12.91073975 -17.20767212 12.57073975 C-18.19767212 12.24073975 -19.18767212 11.91073975 -20.20767212 11.57073975 Z M28.79232788 11.57073975 C28.79232788 12.23073975 28.79232788 12.89073975 28.79232788 13.57073975 C29.78232788 13.57073975 30.77232788 13.57073975 31.79232788 13.57073975 C31.79232788 12.91073975 31.79232788 12.25073975 31.79232788 11.57073975 C30.80232788 11.57073975 29.81232788 11.57073975 28.79232788 11.57073975 Z M32.79232788 11.57073975 C32.79232788 12.23073975 32.79232788 12.89073975 32.79232788 13.57073975 C33.78232788 13.57073975 34.77232788 13.57073975 35.79232788 13.57073975 C35.79232788 12.91073975 35.79232788 12.25073975 35.79232788 11.57073975 C34.80232788 11.57073975 33.81232788 11.57073975 32.79232788 11.57073975 Z M36.79232788 11.57073975 C36.79232788 12.23073975 36.79232788 12.89073975 36.79232788 13.57073975 C37.78232788 13.57073975 38.77232788 13.57073975 39.79232788 13.57073975 C39.79232788 12.91073975 39.79232788 12.25073975 39.79232788 11.57073975 C38.80232788 11.57073975 37.81232788 11.57073975 36.79232788 11.57073975 Z M40.79232788 11.57073975 C40.79232788 12.23073975 40.79232788 12.89073975 40.79232788 13.57073975 C41.78232788 13.57073975 42.77232788 13.57073975 43.79232788 13.57073975 C43.79232788 12.91073975 43.79232788 12.25073975 43.79232788 11.57073975 C42.80232788 11.57073975 41.81232788 11.57073975 40.79232788 11.57073975 Z M255.79232788 13.57073975 C255.79232788 14.23073975 255.79232788 14.89073975 255.79232788 15.57073975 C256.78232788 15.57073975 257.77232788 15.57073975 258.79232788 15.57073975 C258.79232788 14.91073975 258.79232788 14.25073975 258.79232788 13.57073975 C257.80232788 13.57073975 256.81232788 13.57073975 255.79232788 13.57073975 Z M259.79232788 13.57073975 C259.79232788 14.23073975 259.79232788 14.89073975 259.79232788 15.57073975 C260.78232788 15.57073975 261.77232788 15.57073975 262.79232788 15.57073975 C262.79232788 14.91073975 262.79232788 14.25073975 262.79232788 13.57073975 C261.80232788 13.57073975 260.81232788 13.57073975 259.79232788 13.57073975 Z M263.79232788 13.57073975 C263.79232788 14.23073975 263.79232788 14.89073975 263.79232788 15.57073975 C264.78232788 15.57073975 265.77232788 15.57073975 266.79232788 15.57073975 C266.79232788 14.91073975 266.79232788 14.25073975 266.79232788 13.57073975 C265.80232788 13.57073975 264.81232788 13.57073975 263.79232788 13.57073975 Z M267.79232788 13.57073975 C267.79232788 14.23073975 267.79232788 14.89073975 267.79232788 15.57073975 C268.78232788 15.57073975 269.77232788 15.57073975 270.79232788 15.57073975 C270.79232788 14.91073975 270.79232788 14.25073975 270.79232788 13.57073975 C269.80232788 13.57073975 268.81232788 13.57073975 267.79232788 13.57073975 Z M271.79232788 13.57073975 C271.79232788 14.23073975 271.79232788 14.89073975 271.79232788 15.57073975 C272.78232788 15.57073975 273.77232788 15.57073975 274.79232788 15.57073975 C274.79232788 14.91073975 274.79232788 14.25073975 274.79232788 13.57073975 C273.80232788 13.57073975 272.81232788 13.57073975 271.79232788 13.57073975 Z M275.79232788 13.57073975 C275.79232788 14.23073975 275.79232788 14.89073975 275.79232788 15.57073975 C276.78232788 15.57073975 277.77232788 15.57073975 278.79232788 15.57073975 C278.79232788 14.91073975 278.79232788 14.25073975 278.79232788 13.57073975 C277.80232788 13.57073975 276.81232788 13.57073975 275.79232788 13.57073975 Z M279.79232788 13.57073975 C279.79232788 14.23073975 279.79232788 14.89073975 279.79232788 15.57073975 C280.78232788 15.57073975 281.77232788 15.57073975 282.79232788 15.57073975 C282.79232788 14.91073975 282.79232788 14.25073975 282.79232788 13.57073975 C281.80232788 13.57073975 280.81232788 13.57073975 279.79232788 13.57073975 Z M283.79232788 13.57073975 C283.79232788 14.23073975 283.79232788 14.89073975 283.79232788 15.57073975 C284.78232788 15.57073975 285.77232788 15.57073975 286.79232788 15.57073975 C286.79232788 14.91073975 286.79232788 14.25073975 286.79232788 13.57073975 C285.80232788 13.57073975 284.81232788 13.57073975 283.79232788 13.57073975 Z M287.79232788 13.57073975 C287.79232788 14.23073975 287.79232788 14.89073975 287.79232788 15.57073975 C288.78232788 15.57073975 289.77232788 15.57073975 290.79232788 15.57073975 C290.79232788 14.91073975 290.79232788 14.25073975 290.79232788 13.57073975 C289.80232788 13.57073975 288.81232788 13.57073975 287.79232788 13.57073975 Z M291.79232788 13.57073975 C291.79232788 14.23073975 291.79232788 14.89073975 291.79232788 15.57073975 C292.78232788 15.57073975 293.77232788 15.57073975 294.79232788 15.57073975 C294.79232788 14.91073975 294.79232788 14.25073975 294.79232788 13.57073975 C293.80232788 13.57073975 292.81232788 13.57073975 291.79232788 13.57073975 Z M295.79232788 13.57073975 C295.79232788 14.23073975 295.79232788 14.89073975 295.79232788 15.57073975 C296.78232788 15.57073975 297.77232788 15.57073975 298.79232788 15.57073975 C298.79232788 14.91073975 298.79232788 14.25073975 298.79232788 13.57073975 C297.80232788 13.57073975 296.81232788 13.57073975 295.79232788 13.57073975 Z M299.79232788 13.57073975 C299.79232788 14.23073975 299.79232788 14.89073975 299.79232788 15.57073975 C301.11232788 15.57073975 302.43232788 15.57073975 303.79232788 15.57073975 C303.79232788 14.91073975 303.79232788 14.25073975 303.79232788 13.57073975 C302.47232788 13.57073975 301.15232788 13.57073975 299.79232788 13.57073975 Z M304.79232788 13.57073975 C304.79232788 14.23073975 304.79232788 14.89073975 304.79232788 15.57073975 C305.78232788 15.57073975 306.77232788 15.57073975 307.79232788 15.57073975 C307.79232788 14.91073975 307.79232788 14.25073975 307.79232788 13.57073975 C306.80232788 13.57073975 305.81232788 13.57073975 304.79232788 13.57073975 Z M308.79232788 13.57073975 C308.79232788 14.23073975 308.79232788 14.89073975 308.79232788 15.57073975 C309.78232788 15.57073975 310.77232788 15.57073975 311.79232788 15.57073975 C311.79232788 14.91073975 311.79232788 14.25073975 311.79232788 13.57073975 C310.80232788 13.57073975 309.81232788 13.57073975 308.79232788 13.57073975 Z M312.79232788 13.57073975 C312.79232788 14.23073975 312.79232788 14.89073975 312.79232788 15.57073975 C313.78232788 15.57073975 314.77232788 15.57073975 315.79232788 15.57073975 C315.79232788 14.91073975 315.79232788 14.25073975 315.79232788 13.57073975 C314.80232788 13.57073975 313.81232788 13.57073975 312.79232788 13.57073975 Z M316.79232788 13.57073975 C316.79232788 14.23073975 316.79232788 14.89073975 316.79232788 15.57073975 C317.78232788 15.57073975 318.77232788 15.57073975 319.79232788 15.57073975 C319.79232788 14.91073975 319.79232788 14.25073975 319.79232788 13.57073975 C318.80232788 13.57073975 317.81232788 13.57073975 316.79232788 13.57073975 Z M320.79232788 13.57073975 C320.79232788 14.23073975 320.79232788 14.89073975 320.79232788 15.57073975 C321.78232788 15.57073975 322.77232788 15.57073975 323.79232788 15.57073975 C323.79232788 14.91073975 323.79232788 14.25073975 323.79232788 13.57073975 C322.80232788 13.57073975 321.81232788 13.57073975 320.79232788 13.57073975 Z M324.79232788 13.57073975 C324.79232788 14.23073975 324.79232788 14.89073975 324.79232788 15.57073975 C325.78232788 15.57073975 326.77232788 15.57073975 327.79232788 15.57073975 C327.79232788 14.91073975 327.79232788 14.25073975 327.79232788 13.57073975 C326.80232788 13.57073975 325.81232788 13.57073975 324.79232788 13.57073975 Z M328.79232788 13.57073975 C328.79232788 14.23073975 328.79232788 14.89073975 328.79232788 15.57073975 C329.78232788 15.57073975 330.77232788 15.57073975 331.79232788 15.57073975 C331.79232788 14.91073975 331.79232788 14.25073975 331.79232788 13.57073975 C330.80232788 13.57073975 329.81232788 13.57073975 328.79232788 13.57073975 Z M332.79232788 13.57073975 C332.79232788 14.23073975 332.79232788 14.89073975 332.79232788 15.57073975 C333.78232788 15.57073975 334.77232788 15.57073975 335.79232788 15.57073975 C335.79232788 14.91073975 335.79232788 14.25073975 335.79232788 13.57073975 C334.80232788 13.57073975 333.81232788 13.57073975 332.79232788 13.57073975 Z M24.79232788 23.57073975 C24.79232788 23.90073975 24.79232788 24.23073975 24.79232788 24.57073975 C26.44232788 24.57073975 28.09232788 24.57073975 29.79232788 24.57073975 C29.79232788 24.24073975 29.79232788 23.91073975 29.79232788 23.57073975 C28.14232788 23.57073975 26.49232788 23.57073975 24.79232788 23.57073975 Z M34.79232788 23.57073975 C34.79232788 23.90073975 34.79232788 24.23073975 34.79232788 24.57073975 C36.44232788 24.57073975 38.09232788 24.57073975 39.79232788 24.57073975 C39.79232788 24.24073975 39.79232788 23.91073975 39.79232788 23.57073975 C38.14232788 23.57073975 36.49232788 23.57073975 34.79232788 23.57073975 Z M24.79232788 25.57073975 C24.79232788 27.88073975 24.79232788 30.19073975 24.79232788 32.57073975 C26.44232788 32.57073975 28.09232788 32.57073975 29.79232788 32.57073975 C29.79232788 30.26073975 29.79232788 27.95073975 29.79232788 25.57073975 C28.14232788 25.57073975 26.49232788 25.57073975 24.79232788 25.57073975 Z M34.79232788 25.57073975 C34.79232788 27.88073975 34.79232788 30.19073975 34.79232788 32.57073975 C36.44232788 32.24073975 38.09232788 31.91073975 39.79232788 31.57073975 C39.79232788 29.59073975 39.79232788 27.61073975 39.79232788 25.57073975 C38.14232788 25.57073975 36.49232788 25.57073975 34.79232788 25.57073975 Z M316.79232788 25.57073975 C316.79232788 25.90073975 316.79232788 26.23073975 316.79232788 26.57073975 C318.44232788 26.57073975 320.09232788 26.57073975 321.79232788 26.57073975 C321.79232788 26.24073975 321.79232788 25.91073975 321.79232788 25.57073975 C320.14232788 25.57073975 318.49232788 25.57073975 316.79232788 25.57073975 Z M326.79232788 25.57073975 C326.79232788 25.90073975 326.79232788 26.23073975 326.79232788 26.57073975 C328.44232788 26.57073975 330.09232788 26.57073975 331.79232788 26.57073975 C331.79232788 26.24073975 331.79232788 25.91073975 331.79232788 25.57073975 C330.14232788 25.57073975 328.49232788 25.57073975 326.79232788 25.57073975 Z M-55.20767212 27.57073975 C-55.20767212 29.22073975 -55.20767212 30.87073975 -55.20767212 32.57073975 C-53.22767212 32.57073975 -51.24767212 32.57073975 -49.20767212 32.57073975 C-49.20767212 30.92073975 -49.20767212 29.27073975 -49.20767212 27.57073975 C-51.18767212 27.57073975 -53.16767212 27.57073975 -55.20767212 27.57073975 Z M-44.20767212 27.57073975 C-44.20767212 29.22073975 -44.20767212 30.87073975 -44.20767212 32.57073975 C-42.22767212 32.57073975 -40.24767212 32.57073975 -38.20767212 32.57073975 C-38.20767212 30.92073975 -38.20767212 29.27073975 -38.20767212 27.57073975 C-40.18767212 27.57073975 -42.16767212 27.57073975 -44.20767212 27.57073975 Z M-34.20767212 27.57073975 C-34.20767212 29.22073975 -34.20767212 30.87073975 -34.20767212 32.57073975 C-32.22767212 32.57073975 -30.24767212 32.57073975 -28.20767212 32.57073975 C-28.20767212 30.92073975 -28.20767212 29.27073975 -28.20767212 27.57073975 C-30.18767212 27.57073975 -32.16767212 27.57073975 -34.20767212 27.57073975 Z M-23.20767212 27.57073975 C-23.20767212 29.22073975 -23.20767212 30.87073975 -23.20767212 32.57073975 C-21.22767212 32.57073975 -19.24767212 32.57073975 -17.20767212 32.57073975 C-17.20767212 30.92073975 -17.20767212 29.27073975 -17.20767212 27.57073975 C-19.18767212 27.57073975 -21.16767212 27.57073975 -23.20767212 27.57073975 Z M-13.20767212 27.57073975 C-13.20767212 29.22073975 -13.20767212 30.87073975 -13.20767212 32.57073975 C-11.22767212 32.57073975 -9.24767212 32.57073975 -7.20767212 32.57073975 C-7.20767212 30.92073975 -7.20767212 29.27073975 -7.20767212 27.57073975 C-9.18767212 27.57073975 -11.16767212 27.57073975 -13.20767212 27.57073975 Z M-2.20767212 27.57073975 C-2.20767212 29.22073975 -2.20767212 30.87073975 -2.20767212 32.57073975 C-0.22767212 32.57073975 1.75232788 32.57073975 3.79232788 32.57073975 C3.79232788 30.92073975 3.79232788 29.27073975 3.79232788 27.57073975 C1.81232788 27.57073975 -0.16767212 27.57073975 -2.20767212 27.57073975 Z M316.79232788 27.57073975 C316.79232788 29.88073975 316.79232788 32.19073975 316.79232788 34.57073975 C318.44232788 34.57073975 320.09232788 34.57073975 321.79232788 34.57073975 C321.79232788 32.26073975 321.79232788 29.95073975 321.79232788 27.57073975 C320.14232788 27.57073975 318.49232788 27.57073975 316.79232788 27.57073975 Z M326.79232788 27.57073975 C326.79232788 29.88073975 326.79232788 32.19073975 326.79232788 34.57073975 C328.44232788 34.57073975 330.09232788 34.57073975 331.79232788 34.57073975 C331.79232788 32.26073975 331.79232788 29.95073975 331.79232788 27.57073975 C330.14232788 27.57073975 328.49232788 27.57073975 326.79232788 27.57073975 Z M257.79232788 29.57073975 C257.79232788 31.22073975 257.79232788 32.87073975 257.79232788 34.57073975 C259.77232788 34.57073975 261.75232788 34.57073975 263.79232788 34.57073975 C263.79232788 32.92073975 263.79232788 31.27073975 263.79232788 29.57073975 C261.81232788 29.57073975 259.83232788 29.57073975 257.79232788 29.57073975 Z M268.79232788 29.57073975 C268.79232788 31.22073975 268.79232788 32.87073975 268.79232788 34.57073975 C270.77232788 34.57073975 272.75232788 34.57073975 274.79232788 34.57073975 C274.79232788 32.92073975 274.79232788 31.27073975 274.79232788 29.57073975 C272.81232788 29.57073975 270.83232788 29.57073975 268.79232788 29.57073975 Z M278.79232788 29.57073975 C278.79232788 31.22073975 278.79232788 32.87073975 278.79232788 34.57073975 C280.77232788 34.57073975 282.75232788 34.57073975 284.79232788 34.57073975 C284.79232788 32.92073975 284.79232788 31.27073975 284.79232788 29.57073975 C282.81232788 29.57073975 280.83232788 29.57073975 278.79232788 29.57073975 Z M289.79232788 29.57073975 C289.79232788 31.22073975 289.79232788 32.87073975 289.79232788 34.57073975 C291.77232788 34.57073975 293.75232788 34.57073975 295.79232788 34.57073975 C295.79232788 32.92073975 295.79232788 31.27073975 295.79232788 29.57073975 C293.81232788 29.57073975 291.83232788 29.57073975 289.79232788 29.57073975 Z M384.79232788 31.57073975 C384.79232788 32.89073975 384.79232788 34.21073975 384.79232788 35.57073975 C386.11232788 35.57073975 387.43232788 35.57073975 388.79232788 35.57073975 C388.79232788 34.25073975 388.79232788 32.93073975 388.79232788 31.57073975 C387.47232788 31.57073975 386.15232788 31.57073975 384.79232788 31.57073975 Z M390.79232788 31.57073975 C390.79232788 32.89073975 390.79232788 34.21073975 390.79232788 35.57073975 C392.11232788 35.57073975 393.43232788 35.57073975 394.79232788 35.57073975 C394.79232788 34.25073975 394.79232788 32.93073975 394.79232788 31.57073975 C393.47232788 31.57073975 392.15232788 31.57073975 390.79232788 31.57073975 Z M396.79232788 31.57073975 C396.79232788 32.89073975 396.79232788 34.21073975 396.79232788 35.57073975 C398.11232788 35.57073975 399.43232788 35.57073975 400.79232788 35.57073975 C400.79232788 34.25073975 400.79232788 32.93073975 400.79232788 31.57073975 C399.47232788 31.57073975 398.15232788 31.57073975 396.79232788 31.57073975 Z M402.79232788 31.57073975 C402.79232788 32.89073975 402.79232788 34.21073975 402.79232788 35.57073975 C404.11232788 35.57073975 405.43232788 35.57073975 406.79232788 35.57073975 C406.79232788 34.25073975 406.79232788 32.93073975 406.79232788 31.57073975 C405.47232788 31.57073975 404.15232788 31.57073975 402.79232788 31.57073975 Z M64.79232788 33.57073975 C64.79232788 34.56073975 64.79232788 35.55073975 64.79232788 36.57073975 C65.78232788 36.57073975 66.77232788 36.57073975 67.79232788 36.57073975 C67.79232788 35.58073975 67.79232788 34.59073975 67.79232788 33.57073975 C66.80232788 33.57073975 65.81232788 33.57073975 64.79232788 33.57073975 Z M68.79232788 33.57073975 C68.79232788 34.56073975 68.79232788 35.55073975 68.79232788 36.57073975 C69.45232788 36.57073975 70.11232788 36.57073975 70.79232788 36.57073975 C70.79232788 35.58073975 70.79232788 34.59073975 70.79232788 33.57073975 C70.13232788 33.57073975 69.47232788 33.57073975 68.79232788 33.57073975 Z M72.79232788 33.57073975 C72.79232788 34.56073975 72.79232788 35.55073975 72.79232788 36.57073975 C73.45232788 36.57073975 74.11232788 36.57073975 74.79232788 36.57073975 C74.79232788 35.58073975 74.79232788 34.59073975 74.79232788 33.57073975 C74.13232788 33.57073975 73.47232788 33.57073975 72.79232788 33.57073975 Z M75.79232788 33.57073975 C75.79232788 34.56073975 75.79232788 35.55073975 75.79232788 36.57073975 C76.78232788 36.57073975 77.77232788 36.57073975 78.79232788 36.57073975 C78.79232788 35.58073975 78.79232788 34.59073975 78.79232788 33.57073975 C77.80232788 33.57073975 76.81232788 33.57073975 75.79232788 33.57073975 Z M79.79232788 33.57073975 C79.79232788 34.56073975 79.79232788 35.55073975 79.79232788 36.57073975 C80.45232788 36.57073975 81.11232788 36.57073975 81.79232788 36.57073975 C81.79232788 35.58073975 81.79232788 34.59073975 81.79232788 33.57073975 C81.13232788 33.57073975 80.47232788 33.57073975 79.79232788 33.57073975 Z M83.79232788 33.57073975 C83.79232788 34.56073975 83.79232788 35.55073975 83.79232788 36.57073975 C84.45232788 36.57073975 85.11232788 36.57073975 85.79232788 36.57073975 C85.79232788 35.58073975 85.79232788 34.59073975 85.79232788 33.57073975 C85.13232788 33.57073975 84.47232788 33.57073975 83.79232788 33.57073975 Z M86.79232788 33.57073975 C86.79232788 34.56073975 86.79232788 35.55073975 86.79232788 36.57073975 C87.78232788 36.57073975 88.77232788 36.57073975 89.79232788 36.57073975 C89.79232788 35.58073975 89.79232788 34.59073975 89.79232788 33.57073975 C88.80232788 33.57073975 87.81232788 33.57073975 86.79232788 33.57073975 Z M90.79232788 33.57073975 C90.79232788 34.56073975 90.79232788 35.55073975 90.79232788 36.57073975 C91.45232788 36.57073975 92.11232788 36.57073975 92.79232788 36.57073975 C92.79232788 35.58073975 92.79232788 34.59073975 92.79232788 33.57073975 C92.13232788 33.57073975 91.47232788 33.57073975 90.79232788 33.57073975 Z M94.79232788 33.57073975 C94.79232788 34.56073975 94.79232788 35.55073975 94.79232788 36.57073975 C95.45232788 36.57073975 96.11232788 36.57073975 96.79232788 36.57073975 C96.79232788 35.58073975 96.79232788 34.59073975 96.79232788 33.57073975 C96.13232788 33.57073975 95.47232788 33.57073975 94.79232788 33.57073975 Z M97.79232788 33.57073975 C97.79232788 34.56073975 97.79232788 35.55073975 97.79232788 36.57073975 C98.78232788 36.57073975 99.77232788 36.57073975 100.79232788 36.57073975 C100.79232788 35.58073975 100.79232788 34.59073975 100.79232788 33.57073975 C99.80232788 33.57073975 98.81232788 33.57073975 97.79232788 33.57073975 Z M101.79232788 33.57073975 C101.79232788 34.56073975 101.79232788 35.55073975 101.79232788 36.57073975 C102.78232788 36.57073975 103.77232788 36.57073975 104.79232788 36.57073975 C104.79232788 35.58073975 104.79232788 34.59073975 104.79232788 33.57073975 C103.80232788 33.57073975 102.81232788 33.57073975 101.79232788 33.57073975 Z M105.79232788 33.57073975 C105.79232788 34.56073975 105.79232788 35.55073975 105.79232788 36.57073975 C106.45232788 36.57073975 107.11232788 36.57073975 107.79232788 36.57073975 C107.79232788 35.58073975 107.79232788 34.59073975 107.79232788 33.57073975 C107.13232788 33.57073975 106.47232788 33.57073975 105.79232788 33.57073975 Z M108.79232788 33.57073975 C108.79232788 34.56073975 108.79232788 35.55073975 108.79232788 36.57073975 C109.78232788 36.57073975 110.77232788 36.57073975 111.79232788 36.57073975 C111.79232788 35.58073975 111.79232788 34.59073975 111.79232788 33.57073975 C110.80232788 33.57073975 109.81232788 33.57073975 108.79232788 33.57073975 Z M112.79232788 33.57073975 C112.79232788 34.56073975 112.79232788 35.55073975 112.79232788 36.57073975 C113.78232788 36.57073975 114.77232788 36.57073975 115.79232788 36.57073975 C115.79232788 35.58073975 115.79232788 34.59073975 115.79232788 33.57073975 C114.80232788 33.57073975 113.81232788 33.57073975 112.79232788 33.57073975 Z M-71.20767212 35.57073975 C-71.20767212 38.87073975 -71.20767212 42.17073975 -71.20767212 45.57073975 C-70.87767212 45.57073975 -70.54767212 45.57073975 -70.20767212 45.57073975 C-70.20767212 42.27073975 -70.20767212 38.97073975 -70.20767212 35.57073975 C-70.53767212 35.57073975 -70.86767212 35.57073975 -71.20767212 35.57073975 Z M-44.20767212 37.57073975 C-44.20767212 37.90073975 -44.20767212 38.23073975 -44.20767212 38.57073975 C-42.22767212 38.57073975 -40.24767212 38.57073975 -38.20767212 38.57073975 C-38.20767212 38.24073975 -38.20767212 37.91073975 -38.20767212 37.57073975 C-40.18767212 37.57073975 -42.16767212 37.57073975 -44.20767212 37.57073975 Z M-34.20767212 37.57073975 C-34.20767212 37.90073975 -34.20767212 38.23073975 -34.20767212 38.57073975 C-32.22767212 38.57073975 -30.24767212 38.57073975 -28.20767212 38.57073975 C-28.20767212 38.24073975 -28.20767212 37.91073975 -28.20767212 37.57073975 C-30.18767212 37.57073975 -32.16767212 37.57073975 -34.20767212 37.57073975 Z M-23.20767212 37.57073975 C-23.20767212 37.90073975 -23.20767212 38.23073975 -23.20767212 38.57073975 C-21.22767212 38.57073975 -19.24767212 38.57073975 -17.20767212 38.57073975 C-17.20767212 38.24073975 -17.20767212 37.91073975 -17.20767212 37.57073975 C-19.18767212 37.57073975 -21.16767212 37.57073975 -23.20767212 37.57073975 Z M-13.20767212 37.57073975 C-13.20767212 37.90073975 -13.20767212 38.23073975 -13.20767212 38.57073975 C-11.22767212 38.57073975 -9.24767212 38.57073975 -7.20767212 38.57073975 C-7.20767212 38.24073975 -7.20767212 37.91073975 -7.20767212 37.57073975 C-9.18767212 37.57073975 -11.16767212 37.57073975 -13.20767212 37.57073975 Z M-2.20767212 37.57073975 C-2.20767212 37.90073975 -2.20767212 38.23073975 -2.20767212 38.57073975 C-0.22767212 38.57073975 1.75232788 38.57073975 3.79232788 38.57073975 C3.79232788 38.24073975 3.79232788 37.91073975 3.79232788 37.57073975 C1.81232788 37.57073975 -0.16767212 37.57073975 -2.20767212 37.57073975 Z M384.79232788 37.57073975 C384.79232788 39.22073975 384.79232788 40.87073975 384.79232788 42.57073975 C386.11232788 42.57073975 387.43232788 42.57073975 388.79232788 42.57073975 C388.79232788 40.92073975 388.79232788 39.27073975 388.79232788 37.57073975 C387.47232788 37.57073975 386.15232788 37.57073975 384.79232788 37.57073975 Z M390.79232788 37.57073975 C390.79232788 39.22073975 390.79232788 40.87073975 390.79232788 42.57073975 C392.11232788 42.57073975 393.43232788 42.57073975 394.79232788 42.57073975 C394.79232788 40.92073975 394.79232788 39.27073975 394.79232788 37.57073975 C393.47232788 37.57073975 392.15232788 37.57073975 390.79232788 37.57073975 Z M396.79232788 37.57073975 C396.79232788 39.22073975 396.79232788 40.87073975 396.79232788 42.57073975 C398.11232788 42.57073975 399.43232788 42.57073975 400.79232788 42.57073975 C400.79232788 40.92073975 400.79232788 39.27073975 400.79232788 37.57073975 C399.47232788 37.57073975 398.15232788 37.57073975 396.79232788 37.57073975 Z M402.79232788 37.57073975 C402.79232788 39.22073975 402.79232788 40.87073975 402.79232788 42.57073975 C404.11232788 42.57073975 405.43232788 42.57073975 406.79232788 42.57073975 C406.79232788 40.92073975 406.79232788 39.27073975 406.79232788 37.57073975 C405.47232788 37.57073975 404.15232788 37.57073975 402.79232788 37.57073975 Z M-44.20767212 39.57073975 C-44.20767212 41.55073975 -44.20767212 43.53073975 -44.20767212 45.57073975 C-42.22767212 45.57073975 -40.24767212 45.57073975 -38.20767212 45.57073975 C-38.20767212 43.59073975 -38.20767212 41.61073975 -38.20767212 39.57073975 C-40.18767212 39.57073975 -42.16767212 39.57073975 -44.20767212 39.57073975 Z M-34.20767212 39.57073975 C-34.20767212 41.55073975 -34.20767212 43.53073975 -34.20767212 45.57073975 C-32.22767212 45.57073975 -30.24767212 45.57073975 -28.20767212 45.57073975 C-28.20767212 43.59073975 -28.20767212 41.61073975 -28.20767212 39.57073975 C-30.18767212 39.57073975 -32.16767212 39.57073975 -34.20767212 39.57073975 Z M-23.20767212 39.57073975 C-23.20767212 41.55073975 -23.20767212 43.53073975 -23.20767212 45.57073975 C-21.22767212 45.57073975 -19.24767212 45.57073975 -17.20767212 45.57073975 C-17.20767212 43.59073975 -17.20767212 41.61073975 -17.20767212 39.57073975 C-19.18767212 39.57073975 -21.16767212 39.57073975 -23.20767212 39.57073975 Z M-13.20767212 39.57073975 C-13.20767212 41.55073975 -13.20767212 43.53073975 -13.20767212 45.57073975 C-11.22767212 45.57073975 -9.24767212 45.57073975 -7.20767212 45.57073975 C-7.20767212 43.59073975 -7.20767212 41.61073975 -7.20767212 39.57073975 C-9.18767212 39.57073975 -11.16767212 39.57073975 -13.20767212 39.57073975 Z M-2.20767212 39.57073975 C-2.20767212 41.55073975 -2.20767212 43.53073975 -2.20767212 45.57073975 C-0.22767212 45.57073975 1.75232788 45.57073975 3.79232788 45.57073975 C3.79232788 43.59073975 3.79232788 41.61073975 3.79232788 39.57073975 C1.81232788 39.57073975 -0.16767212 39.57073975 -2.20767212 39.57073975 Z M337.79232788 42.57073975 C338.79232788 44.57073975 338.79232788 44.57073975 338.79232788 44.57073975 Z M339.79232788 42.57073975 C339.79232788 43.23073975 339.79232788 43.89073975 339.79232788 44.57073975 C340.78232788 44.57073975 341.77232788 44.57073975 342.79232788 44.57073975 C342.79232788 43.91073975 342.79232788 43.25073975 342.79232788 42.57073975 C341.80232788 42.57073975 340.81232788 42.57073975 339.79232788 42.57073975 Z M343.79232788 42.57073975 C343.79232788 43.23073975 343.79232788 43.89073975 343.79232788 44.57073975 C344.78232788 44.57073975 345.77232788 44.57073975 346.79232788 44.57073975 C346.79232788 43.91073975 346.79232788 43.25073975 346.79232788 42.57073975 C345.80232788 42.57073975 344.81232788 42.57073975 343.79232788 42.57073975 Z M347.79232788 42.57073975 C347.79232788 43.23073975 347.79232788 43.89073975 347.79232788 44.57073975 C348.78232788 44.57073975 349.77232788 44.57073975 350.79232788 44.57073975 C350.79232788 43.91073975 350.79232788 43.25073975 350.79232788 42.57073975 C349.80232788 42.57073975 348.81232788 42.57073975 347.79232788 42.57073975 Z M351.79232788 42.57073975 C351.79232788 43.23073975 351.79232788 43.89073975 351.79232788 44.57073975 C352.78232788 44.57073975 353.77232788 44.57073975 354.79232788 44.57073975 C354.79232788 43.91073975 354.79232788 43.25073975 354.79232788 42.57073975 C353.80232788 42.57073975 352.81232788 42.57073975 351.79232788 42.57073975 Z M355.79232788 42.57073975 C355.79232788 43.23073975 355.79232788 43.89073975 355.79232788 44.57073975 C356.78232788 44.57073975 357.77232788 44.57073975 358.79232788 44.57073975 C358.79232788 43.91073975 358.79232788 43.25073975 358.79232788 42.57073975 C357.80232788 42.57073975 356.81232788 42.57073975 355.79232788 42.57073975 Z M359.79232788 42.57073975 C359.79232788 43.23073975 359.79232788 43.89073975 359.79232788 44.57073975 C360.78232788 44.57073975 361.77232788 44.57073975 362.79232788 44.57073975 C362.79232788 43.91073975 362.79232788 43.25073975 362.79232788 42.57073975 C361.80232788 42.57073975 360.81232788 42.57073975 359.79232788 42.57073975 Z M363.79232788 42.57073975 C363.79232788 43.23073975 363.79232788 43.89073975 363.79232788 44.57073975 C364.78232788 44.57073975 365.77232788 44.57073975 366.79232788 44.57073975 C366.79232788 43.91073975 366.79232788 43.25073975 366.79232788 42.57073975 C365.80232788 42.57073975 364.81232788 42.57073975 363.79232788 42.57073975 Z M367.79232788 42.57073975 C367.79232788 43.23073975 367.79232788 43.89073975 367.79232788 44.57073975 C368.78232788 44.57073975 369.77232788 44.57073975 370.79232788 44.57073975 C370.79232788 43.91073975 370.79232788 43.25073975 370.79232788 42.57073975 C369.80232788 42.57073975 368.81232788 42.57073975 367.79232788 42.57073975 Z M91.79232788 43.57073975 C91.79232788 44.56073975 91.79232788 45.55073975 91.79232788 46.57073975 C93.11232788 46.57073975 94.43232788 46.57073975 95.79232788 46.57073975 C95.79232788 45.58073975 95.79232788 44.59073975 95.79232788 43.57073975 C94.47232788 43.57073975 93.15232788 43.57073975 91.79232788 43.57073975 Z M97.79232788 43.57073975 C97.79232788 44.56073975 97.79232788 45.55073975 97.79232788 46.57073975 C99.11232788 46.57073975 100.43232788 46.57073975 101.79232788 46.57073975 C101.79232788 45.58073975 101.79232788 44.59073975 101.79232788 43.57073975 C100.47232788 43.57073975 99.15232788 43.57073975 97.79232788 43.57073975 Z M105.79232788 43.57073975 C105.79232788 44.56073975 105.79232788 45.55073975 105.79232788 46.57073975 C106.78232788 46.57073975 107.77232788 46.57073975 108.79232788 46.57073975 C108.79232788 45.58073975 108.79232788 44.59073975 108.79232788 43.57073975 C107.80232788 43.57073975 106.81232788 43.57073975 105.79232788 43.57073975 Z M111.79232788 43.57073975 C111.79232788 44.56073975 111.79232788 45.55073975 111.79232788 46.57073975 C113.11232788 46.57073975 114.43232788 46.57073975 115.79232788 46.57073975 C115.79232788 45.58073975 115.79232788 44.59073975 115.79232788 43.57073975 C114.47232788 43.57073975 113.15232788 43.57073975 111.79232788 43.57073975 Z M384.79232788 44.57073975 C384.79232788 46.55073975 384.79232788 48.53073975 384.79232788 50.57073975 C386.11232788 50.57073975 387.43232788 50.57073975 388.79232788 50.57073975 C388.79232788 48.59073975 388.79232788 46.61073975 388.79232788 44.57073975 C387.47232788 44.57073975 386.15232788 44.57073975 384.79232788 44.57073975 Z M390.79232788 44.57073975 C390.79232788 46.55073975 390.79232788 48.53073975 390.79232788 50.57073975 C392.11232788 50.57073975 393.43232788 50.57073975 394.79232788 50.57073975 C394.79232788 48.59073975 394.79232788 46.61073975 394.79232788 44.57073975 C393.47232788 44.57073975 392.15232788 44.57073975 390.79232788 44.57073975 Z M396.79232788 44.57073975 C396.79232788 46.55073975 396.79232788 48.53073975 396.79232788 50.57073975 C398.11232788 50.57073975 399.43232788 50.57073975 400.79232788 50.57073975 C400.79232788 48.59073975 400.79232788 46.61073975 400.79232788 44.57073975 C399.47232788 44.57073975 398.15232788 44.57073975 396.79232788 44.57073975 Z M402.79232788 44.57073975 C402.79232788 46.55073975 402.79232788 48.53073975 402.79232788 50.57073975 C404.11232788 50.57073975 405.43232788 50.57073975 406.79232788 50.57073975 C406.79232788 48.59073975 406.79232788 46.61073975 406.79232788 44.57073975 C405.47232788 44.57073975 404.15232788 44.57073975 402.79232788 44.57073975 Z M-55.20767212 49.57073975 C-55.20767212 49.90073975 -55.20767212 50.23073975 -55.20767212 50.57073975 C-53.22767212 50.57073975 -51.24767212 50.57073975 -49.20767212 50.57073975 C-49.20767212 50.24073975 -49.20767212 49.91073975 -49.20767212 49.57073975 C-51.18767212 49.57073975 -53.16767212 49.57073975 -55.20767212 49.57073975 Z M-34.20767212 49.57073975 C-34.20767212 49.90073975 -34.20767212 50.23073975 -34.20767212 50.57073975 C-32.22767212 50.57073975 -30.24767212 50.57073975 -28.20767212 50.57073975 C-28.20767212 50.24073975 -28.20767212 49.91073975 -28.20767212 49.57073975 C-30.18767212 49.57073975 -32.16767212 49.57073975 -34.20767212 49.57073975 Z M-23.20767212 49.57073975 C-23.20767212 49.90073975 -23.20767212 50.23073975 -23.20767212 50.57073975 C-21.22767212 50.57073975 -19.24767212 50.57073975 -17.20767212 50.57073975 C-17.20767212 50.24073975 -17.20767212 49.91073975 -17.20767212 49.57073975 C-19.18767212 49.57073975 -21.16767212 49.57073975 -23.20767212 49.57073975 Z M-13.20767212 49.57073975 C-13.20767212 49.90073975 -13.20767212 50.23073975 -13.20767212 50.57073975 C-11.22767212 50.57073975 -9.24767212 50.57073975 -7.20767212 50.57073975 C-7.20767212 50.24073975 -7.20767212 49.91073975 -7.20767212 49.57073975 C-9.18767212 49.57073975 -11.16767212 49.57073975 -13.20767212 49.57073975 Z M-55.20767212 51.57073975 C-55.20767212 53.55073975 -55.20767212 55.53073975 -55.20767212 57.57073975 C-53.22767212 57.57073975 -51.24767212 57.57073975 -49.20767212 57.57073975 C-49.20767212 55.59073975 -49.20767212 53.61073975 -49.20767212 51.57073975 C-51.18767212 51.57073975 -53.16767212 51.57073975 -55.20767212 51.57073975 Z M-34.20767212 51.57073975 C-34.20767212 53.55073975 -34.20767212 55.53073975 -34.20767212 57.57073975 C-32.22767212 57.57073975 -30.24767212 57.57073975 -28.20767212 57.57073975 C-28.20767212 55.59073975 -28.20767212 53.61073975 -28.20767212 51.57073975 C-30.18767212 51.57073975 -32.16767212 51.57073975 -34.20767212 51.57073975 Z M-23.20767212 51.57073975 C-23.20767212 53.55073975 -23.20767212 55.53073975 -23.20767212 57.57073975 C-21.22767212 57.57073975 -19.24767212 57.57073975 -17.20767212 57.57073975 C-17.20767212 55.59073975 -17.20767212 53.61073975 -17.20767212 51.57073975 C-19.18767212 51.57073975 -21.16767212 51.57073975 -23.20767212 51.57073975 Z M-13.20767212 51.57073975 C-13.20767212 53.55073975 -13.20767212 55.53073975 -13.20767212 57.57073975 C-11.22767212 57.57073975 -9.24767212 57.57073975 -7.20767212 57.57073975 C-7.20767212 55.59073975 -7.20767212 53.61073975 -7.20767212 51.57073975 C-9.18767212 51.57073975 -11.16767212 51.57073975 -13.20767212 51.57073975 Z M126.79232788 51.57073975 C126.79232788 52.23073975 126.79232788 52.89073975 126.79232788 53.57073975 C127.45232788 53.57073975 128.11232788 53.57073975 128.79232788 53.57073975 C128.79232788 52.91073975 128.79232788 52.25073975 128.79232788 51.57073975 C128.13232788 51.57073975 127.47232788 51.57073975 126.79232788 51.57073975 Z M129.79232788 51.57073975 C129.79232788 52.23073975 129.79232788 52.89073975 129.79232788 53.57073975 C130.45232788 53.57073975 131.11232788 53.57073975 131.79232788 53.57073975 C131.79232788 52.91073975 131.79232788 52.25073975 131.79232788 51.57073975 C131.13232788 51.57073975 130.47232788 51.57073975 129.79232788 51.57073975 Z M132.79232788 51.57073975 C132.79232788 52.23073975 132.79232788 52.89073975 132.79232788 53.57073975 C133.45232788 53.57073975 134.11232788 53.57073975 134.79232788 53.57073975 C134.79232788 52.91073975 134.79232788 52.25073975 134.79232788 51.57073975 C134.13232788 51.57073975 133.47232788 51.57073975 132.79232788 51.57073975 Z M135.79232788 51.57073975 C135.79232788 52.23073975 135.79232788 52.89073975 135.79232788 53.57073975 C136.45232788 53.57073975 137.11232788 53.57073975 137.79232788 53.57073975 C137.79232788 52.91073975 137.79232788 52.25073975 137.79232788 51.57073975 C137.13232788 51.57073975 136.47232788 51.57073975 135.79232788 51.57073975 Z M138.79232788 51.57073975 C138.79232788 52.23073975 138.79232788 52.89073975 138.79232788 53.57073975 C139.45232788 53.57073975 140.11232788 53.57073975 140.79232788 53.57073975 C140.79232788 52.91073975 140.79232788 52.25073975 140.79232788 51.57073975 C140.13232788 51.57073975 139.47232788 51.57073975 138.79232788 51.57073975 Z M141.79232788 51.57073975 C141.79232788 52.23073975 141.79232788 52.89073975 141.79232788 53.57073975 C142.45232788 53.57073975 143.11232788 53.57073975 143.79232788 53.57073975 C143.79232788 52.91073975 143.79232788 52.25073975 143.79232788 51.57073975 C143.13232788 51.57073975 142.47232788 51.57073975 141.79232788 51.57073975 Z M144.79232788 51.57073975 C144.79232788 52.23073975 144.79232788 52.89073975 144.79232788 53.57073975 C145.45232788 53.57073975 146.11232788 53.57073975 146.79232788 53.57073975 C146.79232788 52.91073975 146.79232788 52.25073975 146.79232788 51.57073975 C146.13232788 51.57073975 145.47232788 51.57073975 144.79232788 51.57073975 Z M147.79232788 51.57073975 C147.79232788 52.23073975 147.79232788 52.89073975 147.79232788 53.57073975 C148.45232788 53.57073975 149.11232788 53.57073975 149.79232788 53.57073975 C149.79232788 52.91073975 149.79232788 52.25073975 149.79232788 51.57073975 C149.13232788 51.57073975 148.47232788 51.57073975 147.79232788 51.57073975 Z M150.79232788 51.57073975 C150.79232788 52.23073975 150.79232788 52.89073975 150.79232788 53.57073975 C151.45232788 53.57073975 152.11232788 53.57073975 152.79232788 53.57073975 C152.79232788 52.91073975 152.79232788 52.25073975 152.79232788 51.57073975 C152.13232788 51.57073975 151.47232788 51.57073975 150.79232788 51.57073975 Z M153.79232788 51.57073975 C153.79232788 52.23073975 153.79232788 52.89073975 153.79232788 53.57073975 C154.45232788 53.57073975 155.11232788 53.57073975 155.79232788 53.57073975 C155.79232788 52.91073975 155.79232788 52.25073975 155.79232788 51.57073975 C155.13232788 51.57073975 154.47232788 51.57073975 153.79232788 51.57073975 Z M156.79232788 51.57073975 C156.79232788 52.23073975 156.79232788 52.89073975 156.79232788 53.57073975 C157.45232788 53.57073975 158.11232788 53.57073975 158.79232788 53.57073975 C158.79232788 52.91073975 158.79232788 52.25073975 158.79232788 51.57073975 C158.13232788 51.57073975 157.47232788 51.57073975 156.79232788 51.57073975 Z M159.79232788 51.57073975 C159.79232788 52.23073975 159.79232788 52.89073975 159.79232788 53.57073975 C160.45232788 53.57073975 161.11232788 53.57073975 161.79232788 53.57073975 C161.79232788 52.91073975 161.79232788 52.25073975 161.79232788 51.57073975 C161.13232788 51.57073975 160.47232788 51.57073975 159.79232788 51.57073975 Z M162.79232788 51.57073975 C162.79232788 52.23073975 162.79232788 52.89073975 162.79232788 53.57073975 C163.45232788 53.57073975 164.11232788 53.57073975 164.79232788 53.57073975 C164.79232788 52.91073975 164.79232788 52.25073975 164.79232788 51.57073975 C164.13232788 51.57073975 163.47232788 51.57073975 162.79232788 51.57073975 Z M165.79232788 51.57073975 C165.79232788 52.23073975 165.79232788 52.89073975 165.79232788 53.57073975 C166.45232788 53.57073975 167.11232788 53.57073975 167.79232788 53.57073975 C167.79232788 52.91073975 167.79232788 52.25073975 167.79232788 51.57073975 C167.13232788 51.57073975 166.47232788 51.57073975 165.79232788 51.57073975 Z M168.79232788 51.57073975 C168.79232788 52.23073975 168.79232788 52.89073975 168.79232788 53.57073975 C169.45232788 53.57073975 170.11232788 53.57073975 170.79232788 53.57073975 C170.79232788 52.91073975 170.79232788 52.25073975 170.79232788 51.57073975 C170.13232788 51.57073975 169.47232788 51.57073975 168.79232788 51.57073975 Z M91.79232788 53.57073975 C91.79232788 54.56073975 91.79232788 55.55073975 91.79232788 56.57073975 C93.11232788 56.57073975 94.43232788 56.57073975 95.79232788 56.57073975 C95.79232788 55.58073975 95.79232788 54.59073975 95.79232788 53.57073975 C94.47232788 53.57073975 93.15232788 53.57073975 91.79232788 53.57073975 Z M97.79232788 53.57073975 C97.79232788 54.56073975 97.79232788 55.55073975 97.79232788 56.57073975 C99.11232788 56.57073975 100.43232788 56.57073975 101.79232788 56.57073975 C101.79232788 55.58073975 101.79232788 54.59073975 101.79232788 53.57073975 C100.47232788 53.57073975 99.15232788 53.57073975 97.79232788 53.57073975 Z M105.79232788 53.57073975 C105.79232788 54.56073975 105.79232788 55.55073975 105.79232788 56.57073975 C106.78232788 56.57073975 107.77232788 56.57073975 108.79232788 56.57073975 C108.79232788 55.58073975 108.79232788 54.59073975 108.79232788 53.57073975 C107.80232788 53.57073975 106.81232788 53.57073975 105.79232788 53.57073975 Z M111.79232788 53.57073975 C111.79232788 54.56073975 111.79232788 55.55073975 111.79232788 56.57073975 C113.11232788 56.57073975 114.43232788 56.57073975 115.79232788 56.57073975 C115.79232788 55.58073975 115.79232788 54.59073975 115.79232788 53.57073975 C114.47232788 53.57073975 113.15232788 53.57073975 111.79232788 53.57073975 Z M351.79232788 54.57073975 C351.79232788 54.90073975 351.79232788 55.23073975 351.79232788 55.57073975 C353.44232788 55.57073975 355.09232788 55.57073975 356.79232788 55.57073975 C356.79232788 55.24073975 356.79232788 54.91073975 356.79232788 54.57073975 C355.14232788 54.57073975 353.49232788 54.57073975 351.79232788 54.57073975 Z M361.79232788 54.57073975 C361.79232788 54.90073975 361.79232788 55.23073975 361.79232788 55.57073975 C363.44232788 55.57073975 365.09232788 55.57073975 366.79232788 55.57073975 C366.79232788 55.24073975 366.79232788 54.91073975 366.79232788 54.57073975 C365.14232788 54.57073975 363.49232788 54.57073975 361.79232788 54.57073975 Z M351.79232788 56.57073975 C351.79232788 58.88073975 351.79232788 61.19073975 351.79232788 63.57073975 C353.44232788 63.57073975 355.09232788 63.57073975 356.79232788 63.57073975 C356.79232788 61.26073975 356.79232788 58.95073975 356.79232788 56.57073975 C355.14232788 56.57073975 353.49232788 56.57073975 351.79232788 56.57073975 Z M361.79232788 56.57073975 C361.79232788 58.88073975 361.79232788 61.19073975 361.79232788 63.57073975 C363.44232788 63.57073975 365.09232788 63.57073975 366.79232788 63.57073975 C366.79232788 61.26073975 366.79232788 58.95073975 366.79232788 56.57073975 C365.14232788 56.57073975 363.49232788 56.57073975 361.79232788 56.57073975 Z M129.79232788 59.57073975 C129.79232788 60.23073975 129.79232788 60.89073975 129.79232788 61.57073975 C130.78232788 61.57073975 131.77232788 61.57073975 132.79232788 61.57073975 C132.79232788 60.91073975 132.79232788 60.25073975 132.79232788 59.57073975 C131.80232788 59.57073975 130.81232788 59.57073975 129.79232788 59.57073975 Z M134.79232788 59.57073975 C134.79232788 60.23073975 134.79232788 60.89073975 134.79232788 61.57073975 C135.78232788 61.57073975 136.77232788 61.57073975 137.79232788 61.57073975 C137.79232788 60.91073975 137.79232788 60.25073975 137.79232788 59.57073975 C136.80232788 59.57073975 135.81232788 59.57073975 134.79232788 59.57073975 Z M140.79232788 59.57073975 C140.79232788 60.23073975 140.79232788 60.89073975 140.79232788 61.57073975 C141.78232788 61.57073975 142.77232788 61.57073975 143.79232788 61.57073975 C143.79232788 60.91073975 143.79232788 60.25073975 143.79232788 59.57073975 C142.80232788 59.57073975 141.81232788 59.57073975 140.79232788 59.57073975 Z M145.79232788 59.57073975 C145.79232788 60.23073975 145.79232788 60.89073975 145.79232788 61.57073975 C146.78232788 61.57073975 147.77232788 61.57073975 148.79232788 61.57073975 C148.79232788 60.91073975 148.79232788 60.25073975 148.79232788 59.57073975 C147.80232788 59.57073975 146.81232788 59.57073975 145.79232788 59.57073975 Z M-103.20767212 60.57073975 C-103.20767212 62.22073975 -103.20767212 63.87073975 -103.20767212 65.57073975 C-101.88767212 65.57073975 -100.56767212 65.57073975 -99.20767212 65.57073975 C-99.20767212 63.92073975 -99.20767212 62.27073975 -99.20767212 60.57073975 C-100.52767212 60.57073975 -101.84767212 60.57073975 -103.20767212 60.57073975 Z M-97.20767212 60.57073975 C-97.20767212 62.22073975 -97.20767212 63.87073975 -97.20767212 65.57073975 C-95.88767212 65.57073975 -94.56767212 65.57073975 -93.20767212 65.57073975 C-93.20767212 63.92073975 -93.20767212 62.27073975 -93.20767212 60.57073975 C-94.52767212 60.57073975 -95.84767212 60.57073975 -97.20767212 60.57073975 Z M-91.20767212 60.57073975 C-91.20767212 62.22073975 -91.20767212 63.87073975 -91.20767212 65.57073975 C-89.88767212 65.57073975 -88.56767212 65.57073975 -87.20767212 65.57073975 C-87.20767212 63.92073975 -87.20767212 62.27073975 -87.20767212 60.57073975 C-88.52767212 60.57073975 -89.84767212 60.57073975 -91.20767212 60.57073975 Z M-55.20767212 62.57073975 C-55.20767212 62.90073975 -55.20767212 63.23073975 -55.20767212 63.57073975 C-53.22767212 63.57073975 -51.24767212 63.57073975 -49.20767212 63.57073975 C-49.20767212 63.24073975 -49.20767212 62.91073975 -49.20767212 62.57073975 C-51.18767212 62.57073975 -53.16767212 62.57073975 -55.20767212 62.57073975 Z M-44.20767212 62.57073975 C-44.20767212 62.90073975 -44.20767212 63.23073975 -44.20767212 63.57073975 C-42.22767212 63.57073975 -40.24767212 63.57073975 -38.20767212 63.57073975 C-38.20767212 63.24073975 -38.20767212 62.91073975 -38.20767212 62.57073975 C-40.18767212 62.57073975 -42.16767212 62.57073975 -44.20767212 62.57073975 Z M-2.20767212 62.57073975 C-2.20767212 62.90073975 -2.20767212 63.23073975 -2.20767212 63.57073975 C-0.22767212 63.57073975 1.75232788 63.57073975 3.79232788 63.57073975 C3.79232788 63.24073975 3.79232788 62.91073975 3.79232788 62.57073975 C1.81232788 62.57073975 -0.16767212 62.57073975 -2.20767212 62.57073975 Z M91.79232788 63.57073975 C91.79232788 64.56073975 91.79232788 65.55073975 91.79232788 66.57073975 C93.11232788 66.57073975 94.43232788 66.57073975 95.79232788 66.57073975 C95.79232788 65.58073975 95.79232788 64.59073975 95.79232788 63.57073975 C94.47232788 63.57073975 93.15232788 63.57073975 91.79232788 63.57073975 Z M97.79232788 63.57073975 C97.79232788 64.56073975 97.79232788 65.55073975 97.79232788 66.57073975 C99.11232788 66.57073975 100.43232788 66.57073975 101.79232788 66.57073975 C101.79232788 65.58073975 101.79232788 64.59073975 101.79232788 63.57073975 C100.47232788 63.57073975 99.15232788 63.57073975 97.79232788 63.57073975 Z M-55.20767212 64.57073975 C-55.20767212 66.55073975 -55.20767212 68.53073975 -55.20767212 70.57073975 C-53.22767212 70.57073975 -51.24767212 70.57073975 -49.20767212 70.57073975 C-49.20767212 68.59073975 -49.20767212 66.61073975 -49.20767212 64.57073975 C-51.18767212 64.57073975 -53.16767212 64.57073975 -55.20767212 64.57073975 Z M-44.20767212 64.57073975 C-44.20767212 66.55073975 -44.20767212 68.53073975 -44.20767212 70.57073975 C-42.22767212 70.57073975 -40.24767212 70.57073975 -38.20767212 70.57073975 C-38.20767212 68.59073975 -38.20767212 66.61073975 -38.20767212 64.57073975 C-40.18767212 64.57073975 -42.16767212 64.57073975 -44.20767212 64.57073975 Z M-2.20767212 64.57073975 C-2.20767212 66.55073975 -2.20767212 68.53073975 -2.20767212 70.57073975 C-0.22767212 70.57073975 1.75232788 70.57073975 3.79232788 70.57073975 C3.79232788 68.59073975 3.79232788 66.61073975 3.79232788 64.57073975 C1.81232788 64.57073975 -0.16767212 64.57073975 -2.20767212 64.57073975 Z M236.79232788 64.57073975 C236.79232788 64.90073975 236.79232788 65.23073975 236.79232788 65.57073975 C238.77232788 65.57073975 240.75232788 65.57073975 242.79232788 65.57073975 C242.79232788 65.24073975 242.79232788 64.91073975 242.79232788 64.57073975 C240.81232788 64.57073975 238.83232788 64.57073975 236.79232788 64.57073975 Z M247.79232788 64.57073975 C247.79232788 64.90073975 247.79232788 65.23073975 247.79232788 65.57073975 C249.77232788 65.57073975 251.75232788 65.57073975 253.79232788 65.57073975 C253.79232788 65.24073975 253.79232788 64.91073975 253.79232788 64.57073975 C251.81232788 64.57073975 249.83232788 64.57073975 247.79232788 64.57073975 Z M56.79232788 65.57073975 C56.79232788 66.23073975 56.79232788 66.89073975 56.79232788 67.57073975 C57.45232788 67.57073975 58.11232788 67.57073975 58.79232788 67.57073975 C58.79232788 66.91073975 58.79232788 66.25073975 58.79232788 65.57073975 C58.13232788 65.57073975 57.47232788 65.57073975 56.79232788 65.57073975 Z M59.79232788 65.57073975 C59.79232788 66.23073975 59.79232788 66.89073975 59.79232788 67.57073975 C60.78232788 67.57073975 61.77232788 67.57073975 62.79232788 67.57073975 C62.79232788 66.91073975 62.79232788 66.25073975 62.79232788 65.57073975 C61.80232788 65.57073975 60.81232788 65.57073975 59.79232788 65.57073975 Z M236.79232788 66.57073975 C236.79232788 68.55073975 236.79232788 70.53073975 236.79232788 72.57073975 C238.77232788 72.57073975 240.75232788 72.57073975 242.79232788 72.57073975 C242.79232788 70.59073975 242.79232788 68.61073975 242.79232788 66.57073975 C240.81232788 66.57073975 238.83232788 66.57073975 236.79232788 66.57073975 Z M247.79232788 66.57073975 C247.79232788 68.55073975 247.79232788 70.53073975 247.79232788 72.57073975 C249.77232788 72.57073975 251.75232788 72.57073975 253.79232788 72.57073975 C253.79232788 70.59073975 253.79232788 68.61073975 253.79232788 66.57073975 C251.81232788 66.57073975 249.83232788 66.57073975 247.79232788 66.57073975 Z M-97.20767212 67.57073975 C-97.20767212 69.22073975 -97.20767212 70.87073975 -97.20767212 72.57073975 C-95.88767212 72.57073975 -94.56767212 72.57073975 -93.20767212 72.57073975 C-93.20767212 70.92073975 -93.20767212 69.27073975 -93.20767212 67.57073975 C-94.52767212 67.57073975 -95.84767212 67.57073975 -97.20767212 67.57073975 Z M129.79232788 67.57073975 C129.79232788 68.23073975 129.79232788 68.89073975 129.79232788 69.57073975 C130.78232788 69.57073975 131.77232788 69.57073975 132.79232788 69.57073975 C132.79232788 68.91073975 132.79232788 68.25073975 132.79232788 67.57073975 C131.80232788 67.57073975 130.81232788 67.57073975 129.79232788 67.57073975 Z M134.79232788 67.57073975 C134.79232788 68.23073975 134.79232788 68.89073975 134.79232788 69.57073975 C135.78232788 69.57073975 136.77232788 69.57073975 137.79232788 69.57073975 C137.79232788 68.91073975 137.79232788 68.25073975 137.79232788 67.57073975 C136.80232788 67.57073975 135.81232788 67.57073975 134.79232788 67.57073975 Z M140.79232788 67.57073975 C140.79232788 68.23073975 140.79232788 68.89073975 140.79232788 69.57073975 C141.78232788 69.57073975 142.77232788 69.57073975 143.79232788 69.57073975 C143.79232788 68.91073975 143.79232788 68.25073975 143.79232788 67.57073975 C142.80232788 67.57073975 141.81232788 67.57073975 140.79232788 67.57073975 Z M145.79232788 67.57073975 C145.79232788 68.23073975 145.79232788 68.89073975 145.79232788 69.57073975 C146.78232788 69.57073975 147.77232788 69.57073975 148.79232788 69.57073975 C148.79232788 68.91073975 148.79232788 68.25073975 148.79232788 67.57073975 C147.80232788 67.57073975 146.81232788 67.57073975 145.79232788 67.57073975 Z M-91.20767212 74.57073975 C-91.20767212 76.22073975 -91.20767212 77.87073975 -91.20767212 79.57073975 C-89.88767212 79.57073975 -88.56767212 79.57073975 -87.20767212 79.57073975 C-87.20767212 77.92073975 -87.20767212 76.27073975 -87.20767212 74.57073975 C-88.52767212 74.57073975 -89.84767212 74.57073975 -91.20767212 74.57073975 Z M-34.20767212 74.57073975 C-34.20767212 74.90073975 -34.20767212 75.23073975 -34.20767212 75.57073975 C-32.22767212 75.57073975 -30.24767212 75.57073975 -28.20767212 75.57073975 C-28.20767212 75.24073975 -28.20767212 74.91073975 -28.20767212 74.57073975 C-30.18767212 74.57073975 -32.16767212 74.57073975 -34.20767212 74.57073975 Z M-23.20767212 74.57073975 C-23.20767212 74.90073975 -23.20767212 75.23073975 -23.20767212 75.57073975 C-21.22767212 75.57073975 -19.24767212 75.57073975 -17.20767212 75.57073975 C-17.20767212 75.24073975 -17.20767212 74.91073975 -17.20767212 74.57073975 C-19.18767212 74.57073975 -21.16767212 74.57073975 -23.20767212 74.57073975 Z M140.79232788 75.57073975 C140.79232788 76.23073975 140.79232788 76.89073975 140.79232788 77.57073975 C141.78232788 77.57073975 142.77232788 77.57073975 143.79232788 77.57073975 C143.79232788 76.91073975 143.79232788 76.25073975 143.79232788 75.57073975 C142.80232788 75.57073975 141.81232788 75.57073975 140.79232788 75.57073975 Z M145.79232788 75.57073975 C145.79232788 76.23073975 145.79232788 76.89073975 145.79232788 77.57073975 C146.78232788 77.57073975 147.77232788 77.57073975 148.79232788 77.57073975 C148.79232788 76.91073975 148.79232788 76.25073975 148.79232788 75.57073975 C147.80232788 75.57073975 146.81232788 75.57073975 145.79232788 75.57073975 Z M-34.20767212 76.57073975 C-34.20767212 78.55073975 -34.20767212 80.53073975 -34.20767212 82.57073975 C-32.22767212 82.57073975 -30.24767212 82.57073975 -28.20767212 82.57073975 C-28.20767212 80.59073975 -28.20767212 78.61073975 -28.20767212 76.57073975 C-30.18767212 76.57073975 -32.16767212 76.57073975 -34.20767212 76.57073975 Z M-23.20767212 76.57073975 C-23.20767212 78.55073975 -23.20767212 80.53073975 -23.20767212 82.57073975 C-21.22767212 82.57073975 -19.24767212 82.57073975 -17.20767212 82.57073975 C-17.20767212 80.59073975 -17.20767212 78.61073975 -17.20767212 76.57073975 C-19.18767212 76.57073975 -21.16767212 76.57073975 -23.20767212 76.57073975 Z M172.79232788 76.57073975 C172.79232788 77.23073975 172.79232788 77.89073975 172.79232788 78.57073975 C173.45232788 78.57073975 174.11232788 78.57073975 174.79232788 78.57073975 C174.79232788 77.91073975 174.79232788 77.25073975 174.79232788 76.57073975 C174.13232788 76.57073975 173.47232788 76.57073975 172.79232788 76.57073975 Z M175.79232788 76.57073975 C175.79232788 77.23073975 175.79232788 77.89073975 175.79232788 78.57073975 C176.45232788 78.57073975 177.11232788 78.57073975 177.79232788 78.57073975 C177.79232788 77.91073975 177.79232788 77.25073975 177.79232788 76.57073975 C177.13232788 76.57073975 176.47232788 76.57073975 175.79232788 76.57073975 Z M178.79232788 76.57073975 C178.79232788 77.23073975 178.79232788 77.89073975 178.79232788 78.57073975 C179.45232788 78.57073975 180.11232788 78.57073975 180.79232788 78.57073975 C180.79232788 77.91073975 180.79232788 77.25073975 180.79232788 76.57073975 C180.13232788 76.57073975 179.47232788 76.57073975 178.79232788 76.57073975 Z M181.79232788 76.57073975 C181.79232788 77.23073975 181.79232788 77.89073975 181.79232788 78.57073975 C182.45232788 78.57073975 183.11232788 78.57073975 183.79232788 78.57073975 C183.79232788 77.91073975 183.79232788 77.25073975 183.79232788 76.57073975 C183.13232788 76.57073975 182.47232788 76.57073975 181.79232788 76.57073975 Z M-83.20767212 84.57073975 C-83.53767212 86.22073975 -83.86767212 87.87073975 -84.20767212 89.57073975 C-80.57767212 89.57073975 -76.94767212 89.57073975 -73.20767212 89.57073975 C-73.53767212 87.92073975 -73.86767212 86.27073975 -74.20767212 84.57073975 C-77.17767212 84.57073975 -80.14767212 84.57073975 -83.20767212 84.57073975 Z M-71.20767212 84.57073975 C-71.53767212 86.22073975 -71.86767212 87.87073975 -72.20767212 89.57073975 C-71.54767212 89.57073975 -70.88767212 89.57073975 -70.20767212 89.57073975 C-70.20767212 87.92073975 -70.20767212 86.27073975 -70.20767212 84.57073975 C-70.53767212 84.57073975 -70.86767212 84.57073975 -71.20767212 84.57073975 Z M-86.20767212 85.57073975 C-85.20767212 89.57073975 -85.20767212 89.57073975 -85.20767212 89.57073975 Z M-55.20767212 87.57073975 C-55.20767212 87.90073975 -55.20767212 88.23073975 -55.20767212 88.57073975 C-53.22767212 88.57073975 -51.24767212 88.57073975 -49.20767212 88.57073975 C-49.20767212 88.24073975 -49.20767212 87.91073975 -49.20767212 87.57073975 C-51.18767212 87.57073975 -53.16767212 87.57073975 -55.20767212 87.57073975 Z M-23.20767212 87.57073975 C-23.20767212 87.90073975 -23.20767212 88.23073975 -23.20767212 88.57073975 C-21.22767212 88.57073975 -19.24767212 88.57073975 -17.20767212 88.57073975 C-17.20767212 88.24073975 -17.20767212 87.91073975 -17.20767212 87.57073975 C-19.18767212 87.57073975 -21.16767212 87.57073975 -23.20767212 87.57073975 Z M-2.20767212 87.57073975 C-2.20767212 87.90073975 -2.20767212 88.23073975 -2.20767212 88.57073975 C-0.22767212 88.57073975 1.75232788 88.57073975 3.79232788 88.57073975 C3.79232788 88.24073975 3.79232788 87.91073975 3.79232788 87.57073975 C1.81232788 87.57073975 -0.16767212 87.57073975 -2.20767212 87.57073975 Z M-55.20767212 89.57073975 C-55.20767212 91.55073975 -55.20767212 93.53073975 -55.20767212 95.57073975 C-53.22767212 95.57073975 -51.24767212 95.57073975 -49.20767212 95.57073975 C-49.20767212 93.59073975 -49.20767212 91.61073975 -49.20767212 89.57073975 C-51.18767212 89.57073975 -53.16767212 89.57073975 -55.20767212 89.57073975 Z M-23.20767212 89.57073975 C-23.20767212 91.55073975 -23.20767212 93.53073975 -23.20767212 95.57073975 C-21.22767212 95.57073975 -19.24767212 95.57073975 -17.20767212 95.57073975 C-17.20767212 93.59073975 -17.20767212 91.61073975 -17.20767212 89.57073975 C-19.18767212 89.57073975 -21.16767212 89.57073975 -23.20767212 89.57073975 Z M-2.20767212 89.57073975 C-2.20767212 91.55073975 -2.20767212 93.53073975 -2.20767212 95.57073975 C-0.22767212 95.57073975 1.75232788 95.57073975 3.79232788 95.57073975 C3.79232788 93.59073975 3.79232788 91.61073975 3.79232788 89.57073975 C1.81232788 89.57073975 -0.16767212 89.57073975 -2.20767212 89.57073975 Z M236.79232788 89.57073975 C236.79232788 89.90073975 236.79232788 90.23073975 236.79232788 90.57073975 C238.77232788 90.57073975 240.75232788 90.57073975 242.79232788 90.57073975 C242.79232788 90.24073975 242.79232788 89.91073975 242.79232788 89.57073975 C240.81232788 89.57073975 238.83232788 89.57073975 236.79232788 89.57073975 Z M236.79232788 91.57073975 C236.79232788 93.55073975 236.79232788 95.53073975 236.79232788 97.57073975 C238.77232788 97.57073975 240.75232788 97.57073975 242.79232788 97.57073975 C242.79232788 95.59073975 242.79232788 93.61073975 242.79232788 91.57073975 C240.81232788 91.57073975 238.83232788 91.57073975 236.79232788 91.57073975 Z M184.79232788 92.57073975 C184.79232788 94.22073975 184.79232788 95.87073975 184.79232788 97.57073975 C187.43232788 97.57073975 190.07232788 97.57073975 192.79232788 97.57073975 C192.46232788 95.92073975 192.13232788 94.27073975 191.79232788 92.57073975 C189.48232788 92.57073975 187.17232788 92.57073975 184.79232788 92.57073975 Z M194.79232788 92.57073975 C194.46232788 94.22073975 194.13232788 95.87073975 193.79232788 97.57073975 C198.08232788 97.57073975 202.37232788 97.57073975 206.79232788 97.57073975 C206.46232788 95.92073975 206.13232788 94.27073975 205.79232788 92.57073975 C202.16232788 92.57073975 198.53232788 92.57073975 194.79232788 92.57073975 Z M208.79232788 92.57073975 C208.46232788 94.22073975 208.13232788 95.87073975 207.79232788 97.57073975 C211.42232788 97.57073975 215.05232788 97.57073975 218.79232788 97.57073975 C218.46232788 95.92073975 218.13232788 94.27073975 217.79232788 92.57073975 C214.82232788 92.57073975 211.85232788 92.57073975 208.79232788 92.57073975 Z M220.79232788 92.57073975 C220.46232788 94.22073975 220.13232788 95.87073975 219.79232788 97.57073975 C220.45232788 97.57073975 221.11232788 97.57073975 221.79232788 97.57073975 C221.79232788 95.92073975 221.79232788 94.27073975 221.79232788 92.57073975 C221.46232788 92.57073975 221.13232788 92.57073975 220.79232788 92.57073975 Z M-86.20767212 96.57073975 C-86.20767212 96.90073975 -86.20767212 97.23073975 -86.20767212 97.57073975 C-83.23767212 97.57073975 -80.26767212 97.57073975 -77.20767212 97.57073975 C-77.20767212 100.87073975 -77.20767212 104.17073975 -77.20767212 107.57073975 C-74.89767212 107.57073975 -72.58767212 107.57073975 -70.20767212 107.57073975 C-70.18079061 105.92499409 -70.16133089 104.27912561 -70.14517212 102.63323975 C-70.13357056 101.71671631 -70.12196899 100.80019287 -70.11001587 99.855896 C-69.94818163 97.60480647 -69.94818163 97.60480647 -71.20767212 96.57073975 C-73.73816614 96.49760408 -76.24072049 96.47826448 -78.77017212 96.50823975 C-79.48109009 96.51275146 -80.19200806 96.51726318 -80.92446899 96.52191162 C-82.68557225 96.53373111 -84.44663248 96.55166711 -86.20767212 96.57073975 Z M-86.20767212 98.57073975 C-86.20767212 99.23073975 -86.20767212 99.89073975 -86.20767212 100.57073975 C-85.54767212 100.57073975 -84.88767212 100.57073975 -84.20767212 100.57073975 C-84.20767212 99.91073975 -84.20767212 99.25073975 -84.20767212 98.57073975 C-84.86767212 98.57073975 -85.52767212 98.57073975 -86.20767212 98.57073975 Z M-83.20767212 98.57073975 C-83.20767212 99.23073975 -83.20767212 99.89073975 -83.20767212 100.57073975 C-82.54767212 100.57073975 -81.88767212 100.57073975 -81.20767212 100.57073975 C-81.20767212 99.91073975 -81.20767212 99.25073975 -81.20767212 98.57073975 C-81.86767212 98.57073975 -82.52767212 98.57073975 -83.20767212 98.57073975 Z M-80.20767212 98.57073975 C-80.20767212 99.23073975 -80.20767212 99.89073975 -80.20767212 100.57073975 C-79.54767212 100.57073975 -78.88767212 100.57073975 -78.20767212 100.57073975 C-78.20767212 99.91073975 -78.20767212 99.25073975 -78.20767212 98.57073975 C-78.86767212 98.57073975 -79.52767212 98.57073975 -80.20767212 98.57073975 Z M-23.20767212 100.57073975 C-23.20767212 100.90073975 -23.20767212 101.23073975 -23.20767212 101.57073975 C-21.22767212 101.57073975 -19.24767212 101.57073975 -17.20767212 101.57073975 C-17.20767212 101.24073975 -17.20767212 100.91073975 -17.20767212 100.57073975 C-19.18767212 100.57073975 -21.16767212 100.57073975 -23.20767212 100.57073975 Z M-13.20767212 100.57073975 C-13.20767212 100.90073975 -13.20767212 101.23073975 -13.20767212 101.57073975 C-11.22767212 101.57073975 -9.24767212 101.57073975 -7.20767212 101.57073975 C-7.20767212 101.24073975 -7.20767212 100.91073975 -7.20767212 100.57073975 C-9.18767212 100.57073975 -11.16767212 100.57073975 -13.20767212 100.57073975 Z M120.79232788 101.57073975 C121.79232788 104.57073975 121.79232788 104.57073975 121.79232788 104.57073975 Z M122.79232788 101.57073975 C123.79232788 104.57073975 123.79232788 104.57073975 123.79232788 104.57073975 Z M124.79232788 101.57073975 C125.79232788 104.57073975 125.79232788 104.57073975 125.79232788 104.57073975 Z M-23.20767212 102.57073975 C-23.20767212 104.55073975 -23.20767212 106.53073975 -23.20767212 108.57073975 C-21.22767212 108.57073975 -19.24767212 108.57073975 -17.20767212 108.57073975 C-17.20767212 106.59073975 -17.20767212 104.61073975 -17.20767212 102.57073975 C-19.18767212 102.57073975 -21.16767212 102.57073975 -23.20767212 102.57073975 Z M-13.20767212 102.57073975 C-13.20767212 104.55073975 -13.20767212 106.53073975 -13.20767212 108.57073975 C-11.22767212 108.57073975 -9.24767212 108.57073975 -7.20767212 108.57073975 C-7.20767212 106.59073975 -7.20767212 104.61073975 -7.20767212 102.57073975 C-9.18767212 102.57073975 -11.16767212 102.57073975 -13.20767212 102.57073975 Z M-77.20767212 108.57073975 C-77.20767212 109.23073975 -77.20767212 109.89073975 -77.20767212 110.57073975 C-76.54767212 110.57073975 -75.88767212 110.57073975 -75.20767212 110.57073975 C-75.20767212 109.91073975 -75.20767212 109.25073975 -75.20767212 108.57073975 C-75.86767212 108.57073975 -76.52767212 108.57073975 -77.20767212 108.57073975 Z M-74.20767212 108.57073975 C-74.20767212 109.23073975 -74.20767212 109.89073975 -74.20767212 110.57073975 C-73.54767212 110.57073975 -72.88767212 110.57073975 -72.20767212 110.57073975 C-72.20767212 109.91073975 -72.20767212 109.25073975 -72.20767212 108.57073975 C-72.86767212 108.57073975 -73.52767212 108.57073975 -74.20767212 108.57073975 Z M-71.20767212 108.57073975 C-70.20767212 110.57073975 -70.20767212 110.57073975 -70.20767212 110.57073975 Z " fill="#02151C" transform="translate(104.20767211914063,201.42926025390625)"/>
<path d="M0 0 C0.33 0 0.66 0 1 0 C1 8.58 1 17.16 1 26 C2.98 26 4.96 26 7 26 C6.34 26.99 5.68 27.98 5 29 C5.66 29.33 6.32 29.66 7 30 C7 29.34 7 28.68 7 28 C7.99 28 8.98 28 10 28 C10 27.34 10 26.68 10 26 C11.65 26 13.3 26 15 26 C15 28.31 15 30.62 15 33 C13.35 33 11.7 33 10 33 C10 32.34 10 31.68 10 31 C9.34 31 8.68 31 8 31 C8 37.93 8 44.86 8 52 C5.69 52 3.38 52 1 52 C1 70.81 1 89.62 1 109 C0.67 109 0.34 109 0 109 C0 73.03 0 37.06 0 0 Z M7 0 C7.33 0 7.66 0 8 0 C8 8.58 8 17.16 8 26 C7.67 26 7.34 26 7 26 C7 17.42 7 8.84 7 0 Z " fill="#0A1F27" transform="translate(109,215)"/>
<path d="M0 0 C8.69830028 7.33002833 8.69830028 7.33002833 11 10 C11 10.99 11 11.98 11 13 C3.41 13 -4.18 13 -12 13 C-8.04354855 8.38413998 -4.30058488 4.19819 0 0 Z " fill="#0B2028" transform="translate(98,202)"/>
<path d="M0 0 C1.98 0 3.96 0 6 0 C6 5.94 6 11.88 6 18 C4.02 18 2.04 18 0 18 C0 12.06 0 6.12 0 0 Z " fill="#02151C" transform="translate(110,246)"/>
<path d="M0 0 C0.83778992 0.00141495 1.67557983 0.0028299 2.53875732 0.00428772 C5.20816657 0.00987428 7.8774912 0.02242431 10.546875 0.03515625 C12.35937379 0.04017299 14.17187389 0.04473559 15.984375 0.04882812 C20.42190748 0.05983931 24.85937691 0.0770947 29.296875 0.09765625 C28.966875 1.08765625 28.636875 2.07765625 28.296875 3.09765625 C14.766875 3.09765625 1.236875 3.09765625 -12.703125 3.09765625 C-12.703125 2.43765625 -12.703125 1.77765625 -12.703125 1.09765625 C-8.4720236 -0.0916277 -4.36388448 -0.02778733 0 0 Z " fill="#0F1D23" transform="translate(411.703125,212.90234375)"/>
<path d="M0 0 C0.99 0 1.98 0 3 0 C3 5.94 3 11.88 3 18 C2.01 18 1.02 18 0 18 C0 12.06 0 6.12 0 0 Z " fill="#0B2028" transform="translate(30,233)"/>
<path d="M0 0 C6.27 0 12.54 0 19 0 C19 0.99 19 1.98 19 3 C12.4 3 5.8 3 -1 3 C-0.67 2.01 -0.34 1.02 0 0 Z " fill="#091E26" transform="translate(234,266)"/>
<path d="M0 0 C6.27 0 12.54 0 19 0 C19 0.99 19 1.98 19 3 C12.73 3 6.46 3 0 3 C0 2.01 0 1.02 0 0 Z " fill="#091E26" transform="translate(234,258)"/>
<path d="M0 0 C1.98 0 3.96 0 6 0 C6 1.98 6 3.96 6 6 C4.02 6 2.04 6 0 6 C0 4.02 0 2.04 0 0 Z " fill="#0B2028" transform="translate(352,293)"/>
<path d="M0 0 C16.8929385 -0.18451025 16.8929385 -0.18451025 24 1 C24 1.33 24 1.66 24 2 C15.64736824 2.95458649 7.40215965 3.11039334 -1 3 C-0.67 2.01 -0.34 1.02 0 0 Z " fill="#1D262B" transform="translate(297,292)"/>
<path d="M0 0 C1.98 0 3.96 0 6 0 C6 1.98 6 3.96 6 6 C4.02 6 2.04 6 0 6 C0 4.02 0 2.04 0 0 Z " fill="#0B2028" transform="translate(60,291)"/>
<path d="M0 0 C1.98 0 3.96 0 6 0 C6 1.98 6 3.96 6 6 C4.02 6 2.04 6 0 6 C0 4.02 0 2.04 0 0 Z " fill="#0B2028" transform="translate(91,278)"/>
<path d="M0 0 C1.98 0 3.96 0 6 0 C6 1.98 6 3.96 6 6 C4.02 6 2.04 6 0 6 C0 4.02 0 2.04 0 0 Z " fill="#0B2028" transform="translate(81,266)"/>
<path d="M0 0 C1.98 0 3.96 0 6 0 C6 1.98 6 3.96 6 6 C4.02 6 2.04 6 0 6 C0 4.02 0 2.04 0 0 Z " fill="#0B2028" transform="translate(102,253)"/>
<path d="M0 0 C1.98 0 3.96 0 6 0 C6 1.98 6 3.96 6 6 C4.02 6 2.04 6 0 6 C0 4.02 0 2.04 0 0 Z " fill="#0B2028" transform="translate(49,241)"/>
<path d="M0 0 C1.65 0 3.3 0 5 0 C5 2.31 5 4.62 5 7 C3.35 7 1.7 7 0 7 C0 4.69 0 2.38 0 0 Z " fill="#0B2028" transform="translate(456,283)"/>
<path d="M0 0 C1.65 0 3.3 0 5 0 C5 2.31 5 4.62 5 7 C3.35 7 1.7 7 0 7 C0 4.69 0 2.38 0 0 Z " fill="#0B2028" transform="translate(446,272)"/>
<path d="M0 0 C1.65 0 3.3 0 5 0 C5 2.31 5 4.62 5 7 C3.35 7 1.7 7 0 7 C0 4.69 0 2.38 0 0 Z " fill="#0B2028" transform="translate(446,258)"/>
<path d="M0 0 C1.65 0 3.3 0 5 0 C5 2.31 5 4.62 5 7 C3.35 7 1.7 7 0 7 C0 4.69 0 2.38 0 0 Z " fill="#0B2028" transform="translate(421,254)"/>
<path d="M0 0 C1.65 0 3.3 0 5 0 C5 2.31 5 4.62 5 7 C3.35 7 1.7 7 0 7 C0 4.69 0 2.38 0 0 Z " fill="#0B2028" transform="translate(129,252)"/>
<path d="M0 0 C1.65 0 3.3 0 5 0 C5 2.31 5 4.62 5 7 C3.35 7 1.7 7 0 7 C0 4.69 0 2.38 0 0 Z " fill="#0B2028" transform="translate(411,243)"/>
<path d="M0 0 C1.65 0 3.3 0 5 0 C5 2.31 5 4.62 5 7 C3.35 7 1.7 7 0 7 C0 4.69 0 2.38 0 0 Z " fill="#0B2028" transform="translate(411,229)"/>
<path d="M0 0 C1.65 0 3.3 0 5 0 C5 2.31 5 4.62 5 7 C3.35 7 1.7 7 0 7 C0 4.69 0 2.38 0 0 Z " fill="#0B2028" transform="translate(119,227)"/>
<path d="M0 0 C3.96 0 7.92 0 12 0 C12 0.66 12 1.32 12 2 C9.69 2 7.38 2 5 2 C4.67 2.99 4.34 3.98 4 5 C4 4.01 4 3.02 4 2 C2.68 2 1.36 2 0 2 C0 1.34 0 0.68 0 0 Z " fill="#0D212A" transform="translate(209,253)"/>
<path d="M0 0 C3.96 0 7.92 0 12 0 C12 0.66 12 1.32 12 2 C9.69 2 7.38 2 5 2 C4.67 2.99 4.34 3.98 4 5 C4 4.01 4 3.02 4 2 C2.68 2 1.36 2 0 2 C0 1.34 0 0.68 0 0 Z " fill="#0D212A" transform="translate(209,243)"/>
<path d="M0 0 C1.65 0 3.3 0 5 0 C5 0.33 5 0.66 5 1 C3.35 1 1.7 1 0 1 C0 0.67 0 0.34 0 0 Z " fill="#02151C" transform="translate(479,283)"/>
<path d="" fill="#02151C" transform="translate(0,0)"/>
<path d="" fill="#02151C" transform="translate(0,0)"/>
</svg>
